<svg class="main-svg" xmlns="http://www.w3.org/2000/svg" xmlns:xlink="http://www.w3.org/1999/xlink" width="900" height="520" style="" viewBox="0 0 900 520"><rect x="0" y="0" width="900" height="520" style="fill: rgb(255, 255, 255); fill-opacity: 1;"/><defs id="defs-f28acd"><g class="clips"><clipPath id="clipf28acdgeo"><rect x="0" y="69.00162835172875" width="814" height="406.9967432965425"/></clipPath></g><g class="gradients"><linearGradient x1="0" x2="0" y1="1" y2="0" id="gf28acd-cbcoloraxis"><stop offset="0%" stop-color="rgb(68, 1, 84)" stop-opacity="1"/><stop offset="11.111111%" stop-color="rgb(72, 40, 120)" stop-opacity="1"/><stop offset="22.222222%" stop-color="rgb(62, 73, 137)" stop-opacity="1"/><stop offset="33.333333%" stop-color="rgb(49, 104, 142)" stop-opacity="1"/><stop offset="44.444444%" stop-color="rgb(38, 130, 142)" stop-opacity="1"/><stop offset="55.555556%" stop-color="rgb(31, 158, 137)" stop-opacity="1"/><stop offset="66.666667%" stop-color="rgb(53, 183, 121)" stop-opacity="1"/><stop offset="77.777778%" stop-color="rgb(110, 206, 88)" stop-opacity="1"/><stop offset="88.888889%" stop-color="rgb(181, 222, 43)" stop-opacity="1"/><stop offset="100%" stop-color="rgb(253, 231, 37)" stop-opacity="1"/></linearGradient></g><g class="patterns"/></defs><g class="bglayer"/><g class="layer-below"><g class="imagelayer"/><g class="shapelayer"/></g><g class="cartesianlayer"/><g class="polarlayer"/><g class="smithlayer"/><g class="ternarylayer"/><g class="geolayer"><g class="geo geo" clip-path="url(#clipf28acdgeo)"><g class="layer bg"><rect x="0" y="69.00162835172875" width="814" height="406.9967432965425" style="pointer-events: all; fill: rgb(255, 255, 255); fill-opacity: 1;"/></g><g class="layer backplot"><g class="choroplethlayer"><g class="trace choropleth"><path class="choroplethlocation" fill="rgb(110, 206, 88)" d="M424.99043298207147,395.1620430595777L430.80552243082184,395.8889292406715L431.53240861191557,407.8825512287191L428.2614207969934,411.33526058891465L427.1710915253532,419.51273012621976L423.536660619884,416.78690694711804L416.63124189949264,423.692325667509L414.45058335621144,423.14716103168865L408.2720508169146,422.9654394864152L402.09351827761697,414.24280531328975L400.6397459154295,407.51910813817216L394.82465646667913,398.79647396504663L395.18809955722617,394.25343533321046L401.73007518707027,395.1620430595777L411.5430386318365,398.6147524197732L416.9946849900399,397.16098005758556ZM207.2880217444803,308.48086596414277L196.74817211862054,313.7507907770728L188.02553794549524,315.93144932035426L185.84487940221328,321.3830956785576L182.21044849674462,325.38096967457346L173.85125741416604,325.56269121984695L167.30928178432194,326.4712989462142L158.58664761119587,324.6540834934797L151.31778580025804,325.7444127651204L144.41236707986747,326.2895774009407L138.23383454056983,331.55950221387076L135.3262898161949,331.1960591233239L130.23808654853826,334.10360384769905L125.5133263714286,337.19287011734764L117.88102146994379,336.8294270268008L111.33904584009969,336.8294270268008L100.4357531236924,330.4691729422301L94.98410676548929,328.4702359442221L95.34754985603627,322.6551464954718L100.4357531236924,321.3830956785576L101.88952548588065,319.0207155900028L101.52608239533339,315.3862846845339L102.97985475752085,308.29914441886933L101.88952548588065,302.484054970119L96.43787912767675,292.1259268895325L94.98410676548929,286.49255898605554L95.34754985603627,280.6774695373052L91.34967586002062,274.1354939074611L90.98623276947336,271.2279491830859L86.62491568291045,267.04835364179655L85.17114332072299,259.2343271950383L79.35605387197262,251.23857920300662L77.90228150978515,246.87726211644377L82.6270416868947,251.23857920300662L78.99261078142604,241.9707803940608L84.08081404908216,244.87832511843584L86.9883587734576,248.69447756917828L86.9883587734576,243.6062743015218L81.90015550580097,235.6105263094901L80.80982623416008,232.52126003984142L78.62916769087889,229.4319937701928L79.71949696251977,223.6169043214424L81.90015550580097,221.07280268761423L83.35392786798843,215.9845994199575L82.26359859634806,210.16950997120728L86.26147259236387,202.90064816026927L86.9883587734576,210.53295306175414L91.34967586002062,203.62753434136314L99.34542385205219,200.35654652644106L104.43362711970883,195.99522943987827L112.06593202119342,192.1790769891359L116.79069219830279,191.45219080804202L119.33479383213125,192.7242416249562L127.33054182416333,188.90808917421384L133.50907436346017,187.8177599025731L134.96284672564764,185.63710135929176L137.87039145002336,184.72849363292445L143.32203780822647,184.9102151781979L153.8618874340865,182.0026704538227L159.31353379229037,177.4596318219866L161.85763542611807,172.1897070090565L168.03616796541567,166.91978219612653L168.39961105596217,162.92190820011072L168.7630541465094,157.4702618419072L175.66847286690052,148.92934921405515L180.0297899534629,157.65198338718062L184.39110704002582,155.65304638917272L180.75667613455664,150.74656466678962L184.0276639494788,145.8400829444065L188.3889810360417,148.2024630329613L189.4793103076827,140.38843658620314L194.93095666588582,135.48195486382002L197.47505829971428,131.48408086780407L202.56326156737092,129.84858696034306L202.56326156737092,126.94104223596784L207.2880217444803,128.03137150760858L207.2880217444803,125.6689914190537L211.64933883104348,124.21521905686623L216.73754209869932,122.76144669467863L224.00640390963795,127.48620687178828L229.8214933583878,133.30129632053857L236.00002589768516,133.483017865812L242.54200152752927,134.39162559217928L240.36134298424832,128.9399792339759L245.08610316135773,120.76250969667058L249.81086333846736,118.2184080628424L247.99364788573266,115.67430642901405L252.35496497229556,109.8592169802638L258.53349751159266,106.22478607479471L263.6217007792493,107.4968368917089L272.3443349523751,105.49789989370097L271.9808918618281,100.40969662604445L264.71203005089,97.13870881112238L270.1636764090934,95.68493644893478L276.7056520389375,98.04731653748955L282.1572983971414,102.22691207877891L290.51648947971944,104.77101371260724L293.4240342040949,103.86240598623995L299.602566743392,106.9516722558886L305.78109928268964,104.04412753151338L309.4155301881583,104.95273525788068L311.9596318219865,102.95379825987264L316.3209489085494,108.04200152752932L313.7768472747212,113.31192634045928L309.7789732787053,117.4915218817485L306.50798546378337,117.85496497229553L307.5983147354241,121.85283896831132L304.69077001104864,126.94104223596784L301.05633910558,131.84752395835093L301.7832252866737,134.75506868272615L309.7789732787053,140.20671504092954L317.4112781801904,143.47770285585176L322.8629245383935,146.93041221604727L330.1317863493316,152.92722321007093L333.03933107370653,152.92722321007093L338.1275343413632,155.47132484389928L339.58130670355064,158.56059111354793L349.39427014831745,162.01330047374344L355.9362457781615,158.56059111354793L358.1169043214427,153.29066630061797L359.9341197741772,148.74762766878172L361.38789213636466,143.11425976530475L364.2954368607396,135.118511773273L362.8416644985521,130.21203005088992L363.56855067964585,127.30448532651485L362.47822140800565,121.48939587776445L363.9319937701931,114.03881252155301L365.74920922292756,111.85815397827167L364.2954368607396,108.58716616334962L366.83953849456805,103.13551980514622L368.6567539473025,97.68387344694268L369.0201970378497,94.77632872256748L372.65462794331836,90.96017627182512L375.56217266769386,95.86665799420821L376.2890588487876,102.22691207877891L378.833160482616,103.49896289569308L379.1966035731625,107.67855843698233L382.8310344786317,112.76676170463898L383.5579206597254,118.58185115338927L383.19447756917816,122.21628205885818L386.82890847464756,130.21203005088992L393.37088410449167,126.39587760014754L396.64187191941363,130.5754731414369L401.36663209652323,134.5733471374527L400.2763028248823,139.11638576928897L402.456961368164,147.657298397141L404.2741768208987,152.7455016647975L406.8182784547264,154.0175524817117L409.3623800885548,162.55846510956374L408.2720508169146,167.82838992249384L411.5430386318365,174.73380864288484L422.80977443879027,180.0037334558148L429.71519315918084,184.72849363292445L436.6206118795722,189.08981071948728L435.16683951738474,191.63391235331545L440.9819289661351,197.99416643788618L444.97980296215104,208.8974591542931L448.9776769581667,206.53507906573833L452.9755509541826,210.896396152301L455.5196525880108,209.4426237901134L457.3368680407455,220.1641949612469L464.2422867611361,226.34272750054416L468.96704693824626,230.15887995128654L476.9627949302778,238.3363494885917L479.87033965465275,246.5138190258969L480.2337827452,252.14718692937385L479.5068965641063,258.5074410139446L484.23165674121566,267.04835364179655L483.5047705601219,275.95270936019557L481.6875551073875,280.6774695373052L479.143453473559,289.5818252557042L479.5068965641063,295.3969147044545L477.3262380208246,302.66577651539245L472.9649209342622,311.93357532433834L465.3326160327771,316.8400570467215L461.6981851273079,324.6540834934797L458.4271973123857,329.5605652158629L455.5196525880108,338.2831993889883L451.52177859199514,343.37140265664493L448.9776769581667,351.0037075581297L447.5239045959792,357.90912627852083L448.25079077707295,360.99839254816936L442.4357013283226,364.63282345363837L431.1689655213688,364.99626654418523L421.7194451671493,369.17586208547453L416.9946849900399,372.99201453621697L410.8161524507428,377.35333162277976L402.456961368164,372.81029299094354L396.2784288288666,371.1747990834825L398.0956442816011,365.9048742705525L392.64399792339793,367.72208972328696L383.5579206597254,374.9909515342249L374.83528648659956,372.2651283551232L369.3836401283962,370.81135599293566L363.56855067964585,370.08446981184187L353.75558723487956,366.99520354219317L347.21361160503545,360.81667100289593L345.396396152301,353.1843661014111L342.85229451847255,348.0961628337546L338.1275343413632,343.91656729246523L328.3145708965969,342.8262380208246L331.58555871151907,337.9197562984414L329.0414570776906,330.4691729422301L324.31669690058095,337.37459166262107L315.23061963690867,339.1918071153555L320.3188229045653,333.55843921187864L322.13603835729975,327.74334976312826L325.7704692627684,322.83686804074523L325.0435830816747,315.3862846845339L317.0478350896431,323.92719731238594L310.505859459799,327.3799066725814L306.87142855432984,335.5573762098866L298.87568056229827,331.3777806685973L299.23912365284554,325.9261343103938L292.69714802300115,318.6572724994559L287.6089447553445,314.84112004871344L289.42616020807924,312.47873996015863L276.34220894839103,306.4819289661349L269.43679022799967,306.118485875588L259.6238267832334,301.2120041532048L241.45167225588855,302.12061187957215L228.36772099620035,305.7550427850411L217.1009851892466,309.20775214523655Z" style="stroke: rgb(68, 68, 68); stroke-opacity: 1; stroke-width: 1px; opacity: 1;"/><path class="choroplethlocation" fill="rgb(181, 222, 43)" d="M719.7427794156047,387.71145970336636L715.7449054195888,393.1631060615697L710.6567021519322,400.06852478196083L703.0243972504476,404.06639877797664L701.2071817977131,401.5222971441484L696.8458647111502,400.06852478196083L702.6609541599006,391.70933369938217L699.3899663449783,386.0759657959053L688.4866736285719,382.0780917998894L688.8501167191187,378.4436608944204L696.1189785300564,374.9909515342249L697.9361939827909,367.1769250874666L697.5727508922439,360.6349494576225L693.2114338056815,353.9112522825049L693.574876896228,352.09403682977035L688.8501167191187,347.9144412884811L680.8543687270868,339.0100855700821L676.4930516405238,331.9229453044176L680.4909256365398,331.0143375780504L685.9425719947437,336.6477054815273L693.574876896228,339.1918071153555L696.4824216206034,348.277884379028L703.7512834315413,358.81773400488805L704.1147265220881,352.09403682977035L708.8394866991982,354.8198600088721L710.2932590613855,362.45216491035694L718.2890070534172,365.723152725279L725.1944257738083,366.4500389063728L731.0095152225588,362.63388645563043L736.0977184902149,363.72421572727114L733.5536168563866,372.81029299094354L730.6460721320117,378.62538243969385L722.6503241399801,378.4436608944204L720.1062225061517,381.532927164069L721.1965517777926,385.8942442506318ZM646.6907182156788,422.9654394864152L655.4133523888041,417.6955146734853L661.2284418375546,412.4255898605553L665.9532020146642,404.97500650434387L669.5876329201333,402.43090487051563L671.4048483728673,396.7975369670387L678.3102670932586,392.07277678992904L680.4909256365398,396.4340938764918L682.6715841798216,400.4319678725077L689.9404459907594,396.4340938764918L692.8479907151343,400.6136894177812L692.8479907151343,404.97500650434387L689.2135598096656,409.6997666814535L682.6715841798216,416.9686284923915L677.5833809121649,421.1482240336808L681.2178118176336,426.0547057560639L673.2220638256019,426.0547057560639L664.8628727430232,429.87085820680636L661.9553280186483,436.5945553819239L656.1402385698979,446.770961917237L648.5079336684128,451.31400054907317L643.4197304007566,454.039823728175L633.9702100465371,453.8581021829016L627.4282344166929,450.5871143679794L616.524941700286,449.86022818688565L614.7077262475518,446.22579728141665L620.1593726057552,438.5934923799319L632.8798807748962,428.7805289351656L639.4218564047405,426.7815919371577Z" style="stroke: rgb(68, 68, 68); stroke-opacity: 1; stroke-width: 1px; opacity: 1;"/></g></g></g><g class="layer frontplot"><g class="scatterlayer"/></g></g></g><g class="funnelarealayer"/><g class="pielayer"/><g class="iciclelayer"/><g class="treemaplayer"/><g class="sunburstlayer"/><g class="glimages"/><defs id="topdefs-f28acd"><g class="clips"/></defs><g class="layer-above"><g class="imagelayer"/><g class="shapelayer"/></g><g class="infolayer"><g class="cbcoloraxis colorbar" transform="translate(0,25)"><rect class="cbbg" x="830" y="124" width="69.640625" height="248" style="fill: rgb(0, 0, 0); fill-opacity: 0; stroke: rgb(68, 68, 68); stroke-opacity: 1; stroke-width: 0;"/><g class="cbfills" transform="translate(0,155)"><rect class="cbfill gradient_filled" x="840" y="0" width="30" height="206" style="fill: url('#gf28acd-cbcoloraxis');"/></g><g class="cblines" transform="translate(0,155)"/><g class="cbaxis crisp" transform="translate(0,-25)"><g class="ycbcoloraxistick"><text text-anchor="start" x="872.9" y="4.199999999999999" transform="translate(0,386.49999999999994)" style="font-family: 'Open Sans', verdana, arial, sans-serif; font-size: 12px; fill: rgb(42, 63, 95); fill-opacity: 1; white-space: pre; opacity: 1;">0</text></g><g class="ycbcoloraxistick"><text text-anchor="start" x="872.9" y="4.199999999999999" style="font-family: 'Open Sans', verdana, arial, sans-serif; font-size: 12px; fill: rgb(42, 63, 95); fill-opacity: 1; white-space: pre; opacity: 1;" transform="translate(0,345.29999999999995)">0.2</text></g><g class="ycbcoloraxistick"><text text-anchor="start" x="872.9" y="4.199999999999999" style="font-family: 'Open Sans', verdana, arial, sans-serif; font-size: 12px; fill: rgb(42, 63, 95); fill-opacity: 1; white-space: pre; opacity: 1;" transform="translate(0,304.0999999999999)">0.4</text></g><g class="ycbcoloraxistick"><text text-anchor="start" x="872.9" y="4.199999999999999" style="font-family: 'Open Sans', verdana, arial, sans-serif; font-size: 12px; fill: rgb(42, 63, 95); fill-opacity: 1; white-space: pre; opacity: 1;" transform="translate(0,262.9)">0.6</text></g><g class="ycbcoloraxistick"><text text-anchor="start" x="872.9" y="4.199999999999999" style="font-family: 'Open Sans', verdana, arial, sans-serif; font-size: 12px; fill: rgb(42, 63, 95); fill-opacity: 1; white-space: pre; opacity: 1;" transform="translate(0,221.69999999999993)">0.8</text></g><g class="ycbcoloraxistick"><text text-anchor="start" x="872.9" y="4.199999999999999" style="font-family: 'Open Sans', verdana, arial, sans-serif; font-size: 12px; fill: rgb(42, 63, 95); fill-opacity: 1; white-space: pre; opacity: 1;" transform="translate(0,180.49999999999994)">1</text></g></g><g class="cbtitleunshift" transform="translate(0,-25)"><g class="cbtitle" transform=""><text class="ycbcoloraxistitle" x="840.28" y="172.00000000000003" text-anchor="start" style="font-family: 'Open Sans', verdana, arial, sans-serif; font-size: 14px; fill: rgb(42, 63, 95); opacity: 1; font-weight: normal; white-space: pre;">R</text></g></g><rect class="cboutline" x="840" y="156" width="30" height="206" style="stroke: rgb(68, 68, 68); stroke-opacity: 1; fill: none; stroke-width: 0;"/></g><g class="g-gtitle"><text class="gtitle" x="45" y="12.5" text-anchor="start" dy="0em" style="font-family: 'Open Sans', verdana, arial, sans-serif; font-size: 17px; fill: rgb(42, 63, 95); opacity: 1; font-weight: normal; white-space: pre;">Australia and New Zealand — Enclosure Strength (R)</text></g></g></svg>