<svg class="main-svg" xmlns="http://www.w3.org/2000/svg" xmlns:xlink="http://www.w3.org/1999/xlink" width="900" height="520" style="" viewBox="0 0 900 520"><rect x="0" y="0" width="900" height="520" style="fill: rgb(255, 255, 255); fill-opacity: 1;"/><defs id="defs-d1441a"><g class="clips"><clipPath id="clipd1441ageo"><rect x="0" y="69.00202370249431" width="814" height="406.99595259501143"/></clipPath></g><g class="gradients"><linearGradient x1="0" x2="0" y1="1" y2="0" id="gd1441a-cbcoloraxis"><stop offset="0%" stop-color="rgb(68, 1, 84)" stop-opacity="1"/><stop offset="11.111111%" stop-color="rgb(72, 40, 120)" stop-opacity="1"/><stop offset="22.222222%" stop-color="rgb(62, 73, 137)" stop-opacity="1"/><stop offset="33.333333%" stop-color="rgb(49, 104, 142)" stop-opacity="1"/><stop offset="44.444444%" stop-color="rgb(38, 130, 142)" stop-opacity="1"/><stop offset="55.555556%" stop-color="rgb(31, 158, 137)" stop-opacity="1"/><stop offset="66.666667%" stop-color="rgb(53, 183, 121)" stop-opacity="1"/><stop offset="77.777778%" stop-color="rgb(110, 206, 88)" stop-opacity="1"/><stop offset="88.888889%" stop-color="rgb(181, 222, 43)" stop-opacity="1"/><stop offset="100%" stop-color="rgb(253, 231, 37)" stop-opacity="1"/></linearGradient></g><g class="patterns"/></defs><g class="bglayer"/><g class="layer-below"><g class="imagelayer"/><g class="shapelayer"/></g><g class="cartesianlayer"/><g class="polarlayer"/><g class="smithlayer"/><g class="ternarylayer"/><g class="geolayer"><g class="geo geo" clip-path="url(#clipd1441ageo)"><g class="layer bg"><rect x="0" y="69.00202370249431" width="814" height="406.99595259501143" style="pointer-events: all; fill: rgb(255, 255, 255); fill-opacity: 1;"/></g><g class="layer backplot"><g class="choroplethlayer"><g class="trace choropleth"><path class="choroplethlocation" fill="rgb(62, 73, 137)" d="M121.61475942331509,92.7176011529549L138.09910544940527,91.6873295263241L156.1288589154411,90.14192208637837L155.09858728881056,92.97516905961254L176.21915563473854,99.92950253936925L209.1878476869187,109.97465089901783L237.5203174192612,109.71708299236019L248.85330531219813,109.71708299236019L248.85330531219813,104.0505890458918L273.5798243513332,104.0505890458918L278.73118248448645,108.94437927238727L286.4582196842161,113.58060159222515L294.7003926972612,119.762231352009L299.336615017099,127.23170064508099L302.9425657103061,135.21630575146833L310.6696029100361,139.5949601646485L322.51772661628826,143.71604667117106L331.2750354426486,132.38305877823416L343.12315914890075,132.12549087157652L352.91073960189186,137.79198481804508L360.1226409883062,147.57956527103596L365.2739991214593,156.07930619073875L373.51617213450436,164.32147920378372L376.6069870143962,174.36662756343247L380.72807352091877,181.06339313653137L392.06106141385584,185.44204754971162L402.3637776801622,188.5328624296036L407.5151358133153,188.01772661628831L402.3637776801622,200.63855404251348L399.78809861358565,210.94127030881992L398.7578269869549,230.2588633081441L397.2124195470089,237.21319678790087L399.78809861358565,244.94023398763056L404.4243209334235,251.89456746738728L407,262.96998745366665L416.7875804529909,273.7878395332883L419.87839533288275,281.7724446396756L425.54488927935125,288.98434602609024L440.4838278654954,292.5902967192973L446.66545762527926,298.7719264790811L459.02871714484667,294.6508399725586L469.8465692244685,293.10543253261255L480.6644213040901,290.52975346603597L489.9368659437657,288.2116423061171L498.6941747701261,282.2875804529911L502.3001254633332,274.04540743994596L503.3303970899639,261.9397158270361L505.9060761565406,257.81862932051354L515.6936566095316,253.95511072064863L530.6325951956758,250.86429584075677L543.5109905285584,251.1218637474144L552.268299354919,250.0915921207839L555.3591142348109,253.1824070006757L554.8439784214955,259.8791725737748L547.116941221766,268.37891349347757L544.026126341874,277.13622231983777L546.6018054084507,279.7119013864145L544.5412621551893,285.8935311461982L540.9353114619819,296.96895113247746L537.3293607687748,293.3630004392704L534.2385458888828,293.620568345928L531.6628668223062,293.87813625258565L526.5115086891532,302.37787717228827L523.9358296225766,300.8324697323424L521.8752863693154,301.3476055456577L522.3904221826307,303.408148798919L508.9968910364325,303.408148798919L495.6033598902341,303.408148798919L495.6033598902341,311.3927539053062L488.9065943171352,311.3927539053062L494.57308826360355,316.2865441318019L499.72444639675666,319.63492691835137L501.2698538367026,322.72574179824323L503.8455329032792,323.49844551821633L503.3303970899639,328.3922357447118L484.78550781061267,328.3922357447118L478.0887422375136,339.9827915443064L480.14928549077484,342.8160385175406L478.6038780508288,346.1644213040902L478.0887422375136,350.28550781061256L461.6043962114234,334.8314334111533L454.3924948250089,330.19521109131546L442.5443711187567,326.58926039810814L434.8173339190271,327.6195320247389L423.48434602609,332.77089015789204L416.27244463967565,334.31629759783783L405.96972837336926,330.4527789979731L395.1518762937478,327.8770999313965L381.75834514754945,321.1803343582974L370.94049306792783,319.11979110503614L354.9712828551531,312.68059343859466L343.12315914890075,305.7262599588379L339.5172084556935,301.862741358973L331.2750354426486,301.09003763900006L316.8512326698197,296.45381531916223L310.6696029100361,290.0146176527207L295.21552851057646,281.7724446396756L288.0036271241621,272.75756790665775L284.91281224427007,265.803234426901L289.5490345641079,264.51539489361267L288.0036271241621,260.39430838709006L291.6095778173692,256.788357693883L291.6095778173692,251.89456746738728L286.4582196842161,245.45536980094602L285.4279480575855,239.5313079478198L280.7917257377477,232.31940656140546L267.9133304048646,218.15317169523428L253.48952763203593,207.07775170895496L246.79276205893686,198.0628749759369L234.42950253936922,192.1388131228107L231.8538234727925,188.79043033626124L233.91436672605394,180.03312150990087L226.70246533963942,176.68473872335142L217.94515651327904,169.73040524359465L214.33920582007195,159.68525688394584L207.12730443365743,158.3974173506577L198.36999560729726,150.92794805758547L191.67323003419816,143.9736145778287L191.15809422088253,139.5949601646485L183.4310570211529,128.77710808502707L178.2796988879998,117.7016880987477L178.79483470131507,112.29276205893677L168.4921184350089,106.62626811246832L163.34076030185562,107.1414039257836L155.61372310212602,103.2778853259187L153.03804403554946,109.20194717904491L155.61372310212602,115.89871275214409L156.64399472875655,126.71656483176571L161.7953528619098,132.6406266848918L172.61320494153125,142.42820713788285L174.67374819479252,145.7765899244323L176.7342914480538,146.80686155106315L178.79483470131507,151.70065177755856L181.37051376789162,151.44308387090098L184.46132864778343,160.71552851057658L188.58241515430598,164.32147920378372L191.67323003419816,169.47283733693678L200.43053886055833,176.68473872335142L205.5818969937116,190.07826986954944L209.70298350023415,196.2598996293333L213.8240700067565,202.95666520243242L214.33920582007195,210.68370240216206L221.03597139317085,211.19883821547756L227.21760115295467,217.63803588191882L232.36895928610775,224.0772335483603L231.8538234727925,226.65291261493684L225.67219371300868,231.80427074809018L223.09651464643213,231.80427074809018L219.49056395322503,223.04696192172975L210.2181193135494,214.80478890868466L199.91540304724307,207.8504554289279L192.70350166082852,204.2445047357208L193.2186374741438,193.9417884694144L190.64295840756725,186.2147512696847L183.94619283446818,181.57852894984688L174.15861238147727,175.39689919006304L172.098069128216,177.19987453666664L168.4921184350089,173.33635593680174L159.73480960864853,169.9879731502523L151.49263659560347,161.74580013720714L152.522908222234,160.45796060391876L158.18940216870254,161.23066432389186L163.8558961151709,156.07930619073875L164.37103192848636,149.64010852429726L153.03804403554946,139.33739225799087L144.7958710225044,135.47387365812614L139.6445128893513,126.45899692510807L133.9780189428824,117.18655228543241L127.79638918309877,105.59599648583782Z" style="stroke: rgb(68, 68, 68); stroke-opacity: 1; stroke-width: 1px; opacity: 1;"/><path class="choroplethlocation" fill="rgb(72, 40, 120)" d="M478.0887422375136,350.28550781061256L478.6038780508288,346.1644213040902L480.14928549077484,342.8160385175406L478.0887422375136,339.9827915443064L484.78550781061267,328.3922357447118L503.3303970899639,328.3922357447118L503.8455329032792,323.49844551821633L501.2698538367026,322.72574179824323L499.72444639675666,319.63492691835137L494.57308826360355,316.2865441318019L488.9065943171352,311.3927539053062L495.6033598902341,311.3927539053062L495.6033598902341,303.408148798919L508.9968910364325,303.408148798919L522.3904221826307,303.408148798919L521.8752863693154,314.7411366918559L520.8450147426846,330.9679148112884L524.9661012492072,330.9679148112884L530.1174593823605,333.5435938778649L531.1477310089911,331.4830506246036L535.2688175155135,333.28602597120727L528.5720519424144,338.694952011018L521.8752863693154,342.8160385175406L520.8450147426846,345.39171758411715L521.8752863693154,348.22496455735154L519.2996073027389,351.83091525055863L515.6936566095316,352.8611868771893L516.7239282361622,354.40659431713516L513.6331133562703,355.9520017570812L508.9968910364325,359.55795245028827L508.4817552231172,361.8760636102072L501.2698538367026,359.3003845436306L492.5125450103423,359.04281663697304L485.81577943724324,356.20956966373876Z" style="stroke: rgb(68, 68, 68); stroke-opacity: 1; stroke-width: 1px; opacity: 1;"/><path class="choroplethlocation" fill="rgb(72, 40, 120)" d="M607.9029671929732,343.58874223751366L603.2667448731352,343.33117433085584L601.206201619874,345.39171758411715L596.0548434867208,347.19469293072075L592.4488927935137,347.19469293072075L589.3580779136216,348.99766827732446L586.2672630337299,348.4825324640092L584.2067197804683,346.1644213040902L582.6613123405224,346.67955711740547L580.6007690872614,350.0279399039549L579.0553616473153,350.0279399039549L579.0553616473153,352.8611868771893L573.9040035141622,356.72470547705404L571.3283244475857,358.52768082365776L569.7829170076398,360.33065617026136L565.6618305011172,357.4974091970272L562.5710156212253,361.36092779689193L559.4802007413333,361.1033598902343L556.3893858614415,361.36092779689193L556.3893858614415,368.57282918330634L554.3288426081803,368.57282918330634L552.7834351682343,371.92121196985596L548.1472128483964,372.43634778317124L545.5715337818197,368.05769336999106L541.4504472752972,366.76985383670285L542.480718901928,361.1033598902343L540.4201756486666,359.55795245028827L537.3293607687748,358.52768082365776L531.1477310089911,360.0730882636037L530.6325951956758,358.2701129170001L526.5115086891532,355.9520017570812L523.4206938092614,353.11875478384695L519.2996073027389,351.83091525055863L521.8752863693154,348.22496455735154L520.8450147426846,345.39171758411715L521.8752863693154,342.8160385175406L528.5720519424144,338.694952011018L535.2688175155135,333.28602597120727L536.8142249554594,333.80116178452255L539.9050398353513,331.22548271794597L544.026126341874,330.9679148112884L545.5715337818197,332.25575434457676L547.6320770350812,331.4830506246036L554.3288426081803,332.77089015789204L561.0256081812794,332.5133222512344L565.6618305011172,330.9679148112884L567.2072379410631,329.1649394646847L571.843460260901,329.9376431846578L574.9342751407928,330.9679148112884L579.0553616473153,330.71034690463074L581.6310407138919,329.42250737134236L588.3278062869912,331.4830506246036L590.3883495402524,331.74061853126125L595.0245718600902,334.31629759783783L599.1456583666128,337.66468038438745L604.2970164997658,339.7252236376488Z" style="stroke: rgb(68, 68, 68); stroke-opacity: 1; stroke-width: 1px; opacity: 1;"/><path class="choroplethlocation" fill="rgb(68, 1, 84)" d="M519.2996073027389,351.83091525055863L523.4206938092614,353.11875478384695L526.5115086891532,355.9520017570812L530.6325951956758,358.2701129170001L531.1477310089911,360.0730882636037L537.3293607687748,358.52768082365776L540.4201756486666,359.55795245028827L542.480718901928,361.1033598902343L541.4504472752972,366.76985383670285L539.9050398353513,370.1182366232523L531.6628668223062,369.86066871659466L526.5115086891532,368.57282918330634L520.3298789293693,365.7395822100721L512.6028417296397,364.7093105834416L508.4817552231172,361.8760636102072L508.9968910364325,359.55795245028827L513.6331133562703,355.9520017570812L516.7239282361622,354.40659431713516L515.6936566095316,352.8611868771893Z" style="stroke: rgb(68, 68, 68); stroke-opacity: 1; stroke-width: 1px; opacity: 1;"/><path class="choroplethlocation" fill="rgb(53, 183, 121)" d="M690.8398331367389,434.2526453810091L689.2944256967928,436.31318863427043L692.3852405766847,444.81292955397316L689.8095615101081,448.93401606049576L685.1733391902703,447.903744433865L683.1127959370091,454.85807791362174L678.4765736171712,450.7369914070992L675.3857587372795,443.0099542073695L678.9917094304867,439.1464356075046L675.3857587372795,438.3737318875317L672.8100796707029,433.4799416610362L665.5981782842885,429.6164230611713L659.4165485245046,430.38912678114417L656.3257336446127,435.5404849142975L650.6592396981441,439.1464356075046L647.5684248182524,439.6615714208199L646.0230173783063,442.4948183940542L652.7197829514055,450.2218555937839L649.1138322581984,452.0248309403876L647.0532890049371,454.34294210030646L640.356523431838,454.85807791362174L637.7808443652615,446.358336993919L635.7203011120002,448.93401606049576L631.0840787921624,447.903744433865L628.5083997255858,442.23725048739664L622.326769965802,441.20697886076584L618.7208192725946,439.6615714208199L612.5391895128109,439.6615714208199L612.0240536994954,442.75238630071186L610.4786462595497,440.6918430474506L611.5089178861801,437.8585960742164L612.5391895128109,434.76778119432436L612.0240536994954,432.19210212774783L614.0845969527568,430.64669468780204L610.993782072865,428.3285835278831L610.993782072865,422.66208958141453L616.6602760193333,421.3742500481261L621.8116341524867,426.5256081812795L621.2964983391711,429.6164230611713L626.9629922856399,430.13155887448653L628.5083997255858,429.101287247856L632.6294862321082,432.4496700344055L639.3262518052072,431.4193984077749L645.5078815649911,427.81344771456764L654.2651903913514,424.9802007413334L658.9014127111893,420.8591142348109L667.1435857242343,421.63181795478397L666.628449910919,422.9196574880722L674.3554871106489,423.43479330138746L680.5371168704326,426.0104723679642L685.6884750035858,430.38912678114417Z" style="stroke: rgb(68, 68, 68); stroke-opacity: 1; stroke-width: 1px; opacity: 1;"/><path class="choroplethlocation" fill="rgb(68, 1, 84)" d="M600.6910658065585,401.7990891421443L597.0851151133515,404.8899040220361L592.964028606829,403.8596323954055L590.9034853535677,400.76881751551355L586.2672630337299,399.738545888883L582.6613123405224,401.54152123548664L573.3888677008467,397.67800263562174L571.3283244475857,399.738545888883L566.1769663144324,395.1023235690451L559.4802007413333,389.43582962257676L556.3893858614415,384.5420393960811L550.2077561016577,379.90581707624324L543.5109905285584,373.466619409802L545.0563979685046,371.40607615654073L547.116941221766,373.466619409802L548.1472128483964,372.43634778317124L552.7834351682343,371.92121196985596L554.3288426081803,368.57282918330634L556.3893858614415,368.57282918330634L556.3893858614415,361.36092779689193L559.4802007413333,361.1033598902343L562.5710156212253,361.36092779689193L565.6618305011172,357.4974091970272L569.7829170076398,360.33065617026136L571.3283244475857,358.52768082365776L573.9040035141622,356.72470547705404L579.0553616473153,352.8611868771893L579.0553616473153,350.0279399039549L580.6007690872614,350.0279399039549L582.6613123405224,346.67955711740547L584.2067197804683,346.1644213040902L586.2672630337299,348.4825324640092L589.3580779136216,348.99766827732446L592.4488927935137,347.19469293072075L596.0548434867208,347.19469293072075L601.206201619874,345.39171758411715L603.2667448731352,343.33117433085584L607.9029671929732,343.58874223751366L606.8726955663424,345.1341496774595L605.8424239397118,348.22496455735154L607.3878313796577,353.63389059716224L604.2970164997658,358.2701129170001L602.7516090598199,364.1941747701263L602.2364732465046,370.37580452990994L602.7516090598199,374.2393231297749L603.2667448731352,380.6785207962164L601.206201619874,381.9663603295046L599.6607941799281,388.1479900892884L600.6910658065585,392.0115086891533L597.6002509266668,395.6174593823604L598.6305225532973,399.48097798222534Z" style="stroke: rgb(68, 68, 68); stroke-opacity: 1; stroke-width: 1px; opacity: 1;"/><path class="choroplethlocation" fill="rgb(181, 222, 43)" d="M616.6602760193333,421.3742500481261L610.993782072865,422.66208958141453L610.993782072865,428.3285835278831L614.0845969527568,430.64669468780204L612.0240536994954,432.19210212774783L612.5391895128109,434.76778119432436L611.5089178861801,437.8585960742164L610.4786462595497,440.6918430474506L602.7516090598199,437.34346026090094L599.6607941799281,434.5102132876667L601.7213374331893,431.9345342210902L601.206201619874,428.8437193411984L597.0851151133515,425.23776864799106L591.418621166883,422.4045216747569L586.2672630337299,420.6015463281533L585.7521272204146,416.4804598216307L581.6310407138919,413.90478075505416L582.6613123405224,418.02586726157665L580.0856332739459,421.63181795478397L576.4796825807388,417.5107314482614L571.843460260901,416.22289191497305L569.7829170076398,413.3896449417389L570.298052820955,409.01099052855864L571.843460260901,404.3747682087208L567.7223737543784,402.3142249554595L571.3283244475857,399.738545888883L573.3888677008467,397.67800263562174L582.6613123405224,401.54152123548664L586.2672630337299,399.738545888883L590.9034853535677,400.76881751551355L592.964028606829,403.8596323954055L597.0851151133515,404.8899040220361L600.6910658065585,401.7990891421443L604.2970164997658,409.5261263418739L609.9635104462342,415.1926202883425Z" style="stroke: rgb(68, 68, 68); stroke-opacity: 1; stroke-width: 1px; opacity: 1;"/><path class="choroplethlocation" fill="rgb(68, 1, 84)" d="M522.3904221826307,303.408148798919L521.8752863693154,301.3476055456577L523.9358296225766,300.8324697323424L526.5115086891532,302.37787717228827L531.6628668223062,293.87813625258565L534.2385458888828,293.620568345928L534.2385458888828,295.6811115991893L536.8142249554594,295.6811115991893L536.8142249554594,299.54463019905404L534.2385458888828,305.7262599588379L535.7839533288288,308.04437111875677L534.2385458888828,313.19572925190994L535.2688175155135,314.48356878519826L533.2082742622523,321.69547017161267L530.6325951956758,325.55898877147763L528.0569161290991,326.0741245847929L524.9661012492072,330.9679148112884L520.8450147426846,330.9679148112884L521.8752863693154,314.7411366918559Z" style="stroke: rgb(68, 68, 68); stroke-opacity: 1; stroke-width: 1px; opacity: 1;"/></g></g></g><g class="layer frontplot"><g class="scatterlayer"/></g></g></g><g class="funnelarealayer"/><g class="pielayer"/><g class="iciclelayer"/><g class="treemaplayer"/><g class="sunburstlayer"/><g class="glimages"/><defs id="topdefs-d1441a"><g class="clips"/></defs><g class="layer-above"><g class="imagelayer"/><g class="shapelayer"/></g><g class="infolayer"><g class="cbcoloraxis colorbar" transform="translate(0,25)"><rect class="cbbg" x="830" y="124" width="69.640625" height="248" style="fill: rgb(0, 0, 0); fill-opacity: 0; stroke: rgb(68, 68, 68); stroke-opacity: 1; stroke-width: 0;"/><g class="cbfills" transform="translate(0,155)"><rect class="cbfill gradient_filled" x="840" y="0" width="30" height="206" style="fill: url('#gd1441a-cbcoloraxis');"/></g><g class="cblines" transform="translate(0,155)"/><g class="cbaxis crisp" transform="translate(0,-25)"><g class="ycbcoloraxistick"><text text-anchor="start" x="872.9" y="4.199999999999999" transform="translate(0,386.49999999999994)" style="font-family: 'Open Sans', verdana, arial, sans-serif; font-size: 12px; fill: rgb(42, 63, 95); fill-opacity: 1; white-space: pre; opacity: 1;">0</text></g><g class="ycbcoloraxistick"><text text-anchor="start" x="872.9" y="4.199999999999999" style="font-family: 'Open Sans', verdana, arial, sans-serif; font-size: 12px; fill: rgb(42, 63, 95); fill-opacity: 1; white-space: pre; opacity: 1;" transform="translate(0,345.29999999999995)">0.2</text></g><g class="ycbcoloraxistick"><text text-anchor="start" x="872.9" y="4.199999999999999" style="font-family: 'Open Sans', verdana, arial, sans-serif; font-size: 12px; fill: rgb(42, 63, 95); fill-opacity: 1; white-space: pre; opacity: 1;" transform="translate(0,304.0999999999999)">0.4</text></g><g class="ycbcoloraxistick"><text text-anchor="start" x="872.9" y="4.199999999999999" style="font-family: 'Open Sans', verdana, arial, sans-serif; font-size: 12px; fill: rgb(42, 63, 95); fill-opacity: 1; white-space: pre; opacity: 1;" transform="translate(0,262.9)">0.6</text></g><g class="ycbcoloraxistick"><text text-anchor="start" x="872.9" y="4.199999999999999" style="font-family: 'Open Sans', verdana, arial, sans-serif; font-size: 12px; fill: rgb(42, 63, 95); fill-opacity: 1; white-space: pre; opacity: 1;" transform="translate(0,221.69999999999993)">0.8</text></g><g class="ycbcoloraxistick"><text text-anchor="start" x="872.9" y="4.199999999999999" style="font-family: 'Open Sans', verdana, arial, sans-serif; font-size: 12px; fill: rgb(42, 63, 95); fill-opacity: 1; white-space: pre; opacity: 1;" transform="translate(0,180.49999999999994)">1</text></g></g><g class="cbtitleunshift" transform="translate(0,-25)"><g class="cbtitle" transform=""><text class="ycbcoloraxistitle" x="840.28" y="172.00000000000003" text-anchor="start" style="font-family: 'Open Sans', verdana, arial, sans-serif; font-size: 14px; fill: rgb(42, 63, 95); opacity: 1; font-weight: normal; white-space: pre;">R</text></g></g><rect class="cboutline" x="840" y="156" width="30" height="206" style="stroke: rgb(68, 68, 68); stroke-opacity: 1; fill: none; stroke-width: 0;"/></g><g class="g-gtitle"><text class="gtitle" x="45" y="12.5" text-anchor="start" dy="0em" style="font-family: 'Open Sans', verdana, arial, sans-serif; font-size: 17px; fill: rgb(42, 63, 95); opacity: 1; font-weight: normal; white-space: pre;">Central America — Enclosure Strength (R)</text></g></g></svg>