<svg class="main-svg" xmlns="http://www.w3.org/2000/svg" xmlns:xlink="http://www.w3.org/1999/xlink" width="900" height="520" style="" viewBox="0 0 900 520"><rect x="0" y="0" width="900" height="520" style="fill: rgb(255, 255, 255); fill-opacity: 1;"/><defs id="defs-2dd198"><g class="clips"><clipPath id="clip2dd198geo"><rect x="0" y="69.00172335147559" width="814" height="406.9965532970489"/></clipPath></g><g class="gradients"><linearGradient x1="0" x2="0" y1="1" y2="0" id="g2dd198-cbcoloraxis"><stop offset="0%" stop-color="rgb(68, 1, 84)" stop-opacity="1"/><stop offset="11.111111%" stop-color="rgb(72, 40, 120)" stop-opacity="1"/><stop offset="22.222222%" stop-color="rgb(62, 73, 137)" stop-opacity="1"/><stop offset="33.333333%" stop-color="rgb(49, 104, 142)" stop-opacity="1"/><stop offset="44.444444%" stop-color="rgb(38, 130, 142)" stop-opacity="1"/><stop offset="55.555556%" stop-color="rgb(31, 158, 137)" stop-opacity="1"/><stop offset="66.666667%" stop-color="rgb(53, 183, 121)" stop-opacity="1"/><stop offset="77.777778%" stop-color="rgb(110, 206, 88)" stop-opacity="1"/><stop offset="88.888889%" stop-color="rgb(181, 222, 43)" stop-opacity="1"/><stop offset="100%" stop-color="rgb(253, 231, 37)" stop-opacity="1"/></linearGradient></g><g class="patterns"/></defs><g class="bglayer"/><g class="layer-below"><g class="imagelayer"/><g class="shapelayer"/></g><g class="cartesianlayer"/><g class="polarlayer"/><g class="smithlayer"/><g class="ternarylayer"/><g class="geolayer"><g class="geo geo" clip-path="url(#clip2dd198geo)"><g class="layer bg"><rect x="0" y="69.00172335147559" width="814" height="406.9965532970489" style="pointer-events: all; fill: rgb(255, 255, 255); fill-opacity: 1;"/></g><g class="layer backplot"><g class="choroplethlayer"><g class="trace choropleth"><path class="choroplethlocation" fill="rgb(68, 1, 84)" d="M773.3161214564194,203.00957379061742L759.7727437265162,214.94064464791302L744.9395204985271,216.55295152052054L743.6496750004413,234.28832711920256L733.9758337647968,242.67232285676175L698.5050825674318,236.54555674085316L691.9493217370568,252.6585094495848L685.6066275865721,268.79169419300285L676.57770909997,272.6612306872605L641.1069579026062,279.7553809267338L649.2873416816624,295.3789391862032L657.2300266286809,311.0341342553189L644.9764943968637,315.5485934986194L646.2663398949496,325.8673574833074L635.3026531612193,323.28766648713565L626.2737346746169,316.8384389967058L599.1869792148118,314.90367074957646L569.5205327588337,314.5812093750552L563.0713052684039,316.5159776221841L537.9193180557274,308.7769046336683L527.6005540710396,312.646441127926L525.0208630748671,323.28766648713565L495.35441661888973,316.8384389967058L483.7458071361159,319.41812999287754L479.2313478928147,327.479664355915L469.55750665717017,330.70427810113017L445.69536494257966,343.28027170746816L437.9562919540635,355.8562653138067L430.86214171459073,356.1787266883284L426.3476824712895,347.472269576248L403.13046350574194,347.1498082017263L399.90584976052725,332.31658497373735L390.8769312739252,332.31658497373735L392.1667767720111,314.2587480005336L370.88432605359253,301.0378316451521L339.9280340995288,302.6501385177596L319.29050613015323,305.22982951393203L301.8775919059925,289.10676078785707L287.68929142704656,282.3350719229055L259.9576132181977,269.4366169420458L256.0880767239401,267.8243100694382L233.07339019775975,273.0172410598143L210.2985615418877,278.4655354286474L210.94348429093063,344.5701172055544L201.9145658043286,345.53750132911864L189.0161108234688,331.34920085017313L177.40750134069503,326.1898188578292L156.76997337131908,330.0593553520872L149.0309003828034,335.8636600934741L147.74105488471753,331.6716622246944L152.25551412801795,324.25505061069975L149.0309003828034,317.8058231202699L128.39337241342747,311.67905700436177L120.00937667586868,295.8784496528086L110.33553544022374,291.36399040950755L109.69061269118077,285.23722429359896L127.1035269153416,287.1719925407283L127.74844966438451,273.9510761853468L142.58167289237343,271.04892381465334L158.70474161844837,273.62861481082507L161.92935536366303,256.2157005866644L158.70474161844837,245.2520138529335L140.6469046452442,246.21939797649804L125.16875866821277,241.70493873319708L104.53123069883685,249.44401172171274L87.76323922371898,253.31354821597085L78.7343207371174,250.4113958452774L80.66908898424623,241.06001598415412L69.06047950147229,229.12894512685853L56.16202452061265,229.77386787590206L40.683878543580704,217.52033564408475L51.00264252826872,203.9769579141821L45.84326053592463,200.4298827944457L60.031561014870306,180.75973894863444L78.7343207371174,191.0785029333224L80.66908898424623,177.85758657794088L99.15293605377406,168.10050541673047L118.07460842873945,158.50990410665145L145.80628663758813,158.18744273212974L165.62337624649462,164.22228147692033L185.14657432921072,170.44097496394647L206.4290250476296,177.53512520341917L225.7767075189192,170.11851358942522L254.15330847681085,169.7960522149035L276.7256046933155,179.1474320760268L281.88498668565944,173.66558870916163L307.03697389833604,174.63297283272573L311.55143314163706,165.9265157206454L282.5299094347024,153.67298348882855L299.9428236588633,144.96652637674822L296.7182099136486,140.129605758926L313.48620138876635,135.2926851411038L300.5877464079062,123.03915290928649L308.9717421454653,116.91238679337835L342.36895960183534,113.5889914097794L376.04370804593606,110.78562067746975L384.42770378349536,106.27116143416856L406.89949078735674,102.92960974878213L429.57229621650487,99.82193394373871L445.69536494257966,92.40532232974476L477.9415023947288,96.27485882400242L483.7458071361159,114.65515717172775L502.44856685836294,110.4631593029485L525.0208630748671,116.58992541885664L523.7310175767813,126.26376665450164L541.1439318009421,125.29638253093697L563.143421208128,116.79772789385527L585.6436014849087,108.52839105581916L579.1943739944782,114.0102344226849L601.7666702109835,127.87607352710927L612.1970673494321,139.17089174296166L622.3289809463671,150.51531283651218L632.1762244996339,161.90683995705842L641.7518806516485,173.34312733463992L651.425721887294,163.99174747351663L676.57770909997,174.31051145820447L701.729696312647,169.7960522149035L712.0484602973349,173.02066596011866L720.4324560348936,183.33942994480606L733.3309110157534,186.56404369002132L740.4250612552271,194.3031166785371L763.6422802207749,192.0458870568866Z" style="stroke: rgb(68, 68, 68); stroke-opacity: 1; stroke-width: 1px; opacity: 1;"/><path class="choroplethlocation" fill="rgb(72, 40, 120)" d="M210.94348429093063,344.5701172055544L210.2985615418877,278.4655354286474L233.07339019775975,273.0172410598143L256.0880767239401,267.8243100694382L259.9576132181977,269.4366169420458L287.68929142704656,282.3350719229055L301.8775919059925,289.10676078785707L319.29050613015323,305.22982951393203L339.9280340995288,302.6501385177596L370.88432605359253,301.0378316451521L392.1667767720111,314.2587480005336L390.8769312739252,332.31658497373735L399.90584976052725,332.31658497373735L403.13046350574194,347.1498082017263L426.3476824712895,347.472269576248L430.86214171459073,356.1787266883284L437.9562919540635,355.8562653138067L445.69536494257966,343.28027170746816L469.55750665717017,330.70427810113017L479.2313478928147,327.479664355915L485.0356526342018,329.09197122852265L469.55750665717017,340.7005807112964L483.100884387073,347.472269576248L495.99933936793263,342.9578103329469L517.2817900863514,352.3091901940703L494.06457112080386,365.20764517493L480.52119339090126,363.5953383023224L472.78212040238486,363.9177996768441L470.2024294062131,359.08087905902187L474.0719659004712,350.69688332146256L450.2098241858802,354.88888119024193L444.40551944449334,366.4974906730158L436.0215237069347,376.1713319086608L421.1883004789455,375.52640915961797L416.673841235645,383.26548214813363L429.57229621650487,387.7799413914347L433.44183271076224,401.0008577468162L423.1230687260748,419.05869472001973L410.2246137452147,415.18915822576196L399.90584976052725,415.18915822576196L400.55077250957015,404.22547149203103L376.68863079497964,396.48639850351503L357.98587107273244,387.7799413914347L346.37726158995866,379.3959456538761L325.739733620583,367.1424134220588L316.710815133981,348.4396536998121L310.9065103925941,345.2150399545974L291.55882792130467,346.1824240781616L284.4646776818312,342.31288758390394L282.5299094347024,328.12458710495787L258.6677677201119,318.7732072438346L243.83454449212294,329.09197122852265L228.3563985150914,335.2187373444308L230.93608951126316,344.24765583103283Z" style="stroke: rgb(68, 68, 68); stroke-opacity: 1; stroke-width: 1px; opacity: 1;"/><path class="choroplethlocation" fill="rgb(68, 1, 84)" d="M149.0309003828034,335.8636600934741L156.76997337131908,330.0593553520872L177.40750134069503,326.1898188578292L189.0161108234688,331.34920085017313L201.9145658043286,345.53750132911864L210.94348429093063,344.5701172055544L230.93608951126316,344.24765583103283L228.3563985150914,335.2187373444308L243.83454449212294,329.09197122852265L258.6677677201119,318.7732072438346L282.5299094347024,328.12458710495787L284.4646776818312,342.31288758390394L291.55882792130467,346.1824240781616L310.9065103925941,345.2150399545974L316.710815133981,348.4396536998121L325.739733620583,367.1424134220588L346.37726158995866,379.3959456538761L357.98587107273244,387.7799413914347L376.68863079497964,396.48639850351503L400.55077250957015,404.22547149203103L399.90584976052725,415.18915822576196L394.74646776818327,414.54423547671877L386.3624720306242,409.70731485889655L383.1378582854095,416.1565423493263L368.30463505742034,419.7036174690627L364.4350985631622,433.89191794800865L354.76125732751774,439.37376131487406L340.5729568485717,442.2759136855675L336.7034203543141,450.337448048605L323.16004262441083,452.59467767025546L305.1022056512072,445.8229888053039L303.16743740407844,430.66730420279373L289.6240596741754,430.02238145375077L269.6314544538427,414.2217741021973L255.44315397489672,412.2870058550685L235.4505487545643,403.2580873684667L222.5520937737045,401.64578049585907L214.81302078518826,404.870394241074L202.55948855337152,404.5479328665525L190.30595632155467,414.54423547671877L174.18288759547977,418.0913105964554L170.9582738502652,405.51531699011696L173.53796484643684,386.81255726787003L159.3496643674913,380.6857911519619L164.50904635983525,368.43225892014505L152.25551412801795,367.4648747965805L156.12505062227615,352.3091901940703L172.8930420973939,356.50118806284956L189.0161108234688,351.0193446959844L176.11765584260914,340.05565796225346L170.9582738502652,330.0593553520872L156.12505062227615,334.57381459538783L154.19028237514735,347.472269576248Z" style="stroke: rgb(68, 68, 68); stroke-opacity: 1; stroke-width: 1px; opacity: 1;"/><path class="choroplethlocation" fill="rgb(68, 1, 84)" d="M423.1230687260748,419.05869472001973L433.44183271076224,401.0008577468162L429.57229621650487,387.7799413914347L416.673841235645,383.26548214813363L421.1883004789455,375.52640915961797L436.0215237069347,376.1713319086608L444.40551944449334,366.4974906730158L450.2098241858802,354.88888119024193L474.0719659004712,350.69688332146256L470.2024294062131,359.08087905902187L472.78212040238486,363.9177996768441L480.52119339090126,363.5953383023224L474.0719659004712,369.077181669188L454.72428342918124,366.17502929849456L452.7895151820524,376.49379328318264L472.1371976533419,374.881486410575L494.06457112080386,381.00825252648315L528.2454768200822,378.1061001557896L532.7599360633835,394.8740916309075L538.5642408047704,392.9393233837786L549.5279275385012,397.131321252558L548.8830047894583,403.90301011750967L551.4626957856301,414.2217741021973L532.7599360633835,414.2217741021973L520.5064038315666,412.9319286041115L509.5427170978357,420.99346296714884L501.8036441093195,422.60576983975614L495.35441661888973,426.47530633401436L488.260266379417,420.67100159262736L490.19503462654575,405.51531699011696L484.39072988515886,404.5479328665525L486.32549813228815,399.06608949968734L476.6516568966429,395.1965530054291L468.9125839081272,401.32331912133725L466.977815660998,408.4174693608104L464.39812466482624,410.99716035698236L453.4344379310954,410.6746989824609L447.6301331897085,419.05869472001973L441.8258284483216,415.51161960028344L428.9273734674619,421.3159243416703Z" style="stroke: rgb(68, 68, 68); stroke-opacity: 1; stroke-width: 1px; opacity: 1;"/><path class="choroplethlocation" fill="rgb(49, 104, 142)" d="M479.2313478928147,327.479664355915L483.7458071361159,319.41812999287754L495.35441661888973,316.8384389967058L525.0208630748671,323.28766648713565L527.6005540710396,312.646441127926L537.9193180557274,308.7769046336683L563.0713052684039,316.5159776221841L569.5205327588337,314.5812093750552L599.1869792148118,314.90367074957646L626.2737346746169,316.8384389967058L635.3026531612193,323.28766648713565L646.2663398949496,325.8673574833074L643.6866488987779,330.0593553520872L615.3100479408865,339.73319658773175L608.8608204504562,346.82734682720456L586.2885242339521,348.7621150743339L579.1943739944782,360.3707245571077L560.491614272232,357.7910335609355L547.593159291372,361.3381086806719L530.825167816254,369.72210441823097L533.4048588124265,373.91410228701034L528.2454768200822,378.1061001557896L494.06457112080386,381.00825252648315L472.1371976533419,374.881486410575L452.7895151820524,376.49379328318264L454.72428342918124,366.17502929849456L474.0719659004712,369.077181669188L480.52119339090126,363.5953383023224L494.06457112080386,365.20764517493L517.2817900863514,352.3091901940703L495.99933936793263,342.9578103329469L483.100884387073,347.472269576248L469.55750665717017,340.7005807112964L485.0356526342018,329.09197122852265Z" style="stroke: rgb(68, 68, 68); stroke-opacity: 1; stroke-width: 1px; opacity: 1;"/></g></g></g><g class="layer frontplot"><g class="scatterlayer"/></g></g></g><g class="funnelarealayer"/><g class="pielayer"/><g class="iciclelayer"/><g class="treemaplayer"/><g class="sunburstlayer"/><g class="glimages"/><defs id="topdefs-2dd198"><g class="clips"/></defs><g class="layer-above"><g class="imagelayer"/><g class="shapelayer"/></g><g class="infolayer"><g class="cbcoloraxis colorbar" transform="translate(0,25)"><rect class="cbbg" x="830" y="124" width="69.640625" height="248" style="fill: rgb(0, 0, 0); fill-opacity: 0; stroke: rgb(68, 68, 68); stroke-opacity: 1; stroke-width: 0;"/><g class="cbfills" transform="translate(0,155)"><rect class="cbfill gradient_filled" x="840" y="0" width="30" height="206" style="fill: url('#g2dd198-cbcoloraxis');"/></g><g class="cblines" transform="translate(0,155)"/><g class="cbaxis crisp" transform="translate(0,-25)"><g class="ycbcoloraxistick"><text text-anchor="start" x="872.9" y="4.199999999999999" transform="translate(0,386.49999999999994)" style="font-family: 'Open Sans', verdana, arial, sans-serif; font-size: 12px; fill: rgb(42, 63, 95); fill-opacity: 1; white-space: pre; opacity: 1;">0</text></g><g class="ycbcoloraxistick"><text text-anchor="start" x="872.9" y="4.199999999999999" style="font-family: 'Open Sans', verdana, arial, sans-serif; font-size: 12px; fill: rgb(42, 63, 95); fill-opacity: 1; white-space: pre; opacity: 1;" transform="translate(0,345.29999999999995)">0.2</text></g><g class="ycbcoloraxistick"><text text-anchor="start" x="872.9" y="4.199999999999999" style="font-family: 'Open Sans', verdana, arial, sans-serif; font-size: 12px; fill: rgb(42, 63, 95); fill-opacity: 1; white-space: pre; opacity: 1;" transform="translate(0,304.0999999999999)">0.4</text></g><g class="ycbcoloraxistick"><text text-anchor="start" x="872.9" y="4.199999999999999" style="font-family: 'Open Sans', verdana, arial, sans-serif; font-size: 12px; fill: rgb(42, 63, 95); fill-opacity: 1; white-space: pre; opacity: 1;" transform="translate(0,262.9)">0.6</text></g><g class="ycbcoloraxistick"><text text-anchor="start" x="872.9" y="4.199999999999999" style="font-family: 'Open Sans', verdana, arial, sans-serif; font-size: 12px; fill: rgb(42, 63, 95); fill-opacity: 1; white-space: pre; opacity: 1;" transform="translate(0,221.69999999999993)">0.8</text></g><g class="ycbcoloraxistick"><text text-anchor="start" x="872.9" y="4.199999999999999" style="font-family: 'Open Sans', verdana, arial, sans-serif; font-size: 12px; fill: rgb(42, 63, 95); fill-opacity: 1; white-space: pre; opacity: 1;" transform="translate(0,180.49999999999994)">1</text></g></g><g class="cbtitleunshift" transform="translate(0,-25)"><g class="cbtitle" transform=""><text class="ycbcoloraxistitle" x="840.28" y="172.00000000000003" text-anchor="start" style="font-family: 'Open Sans', verdana, arial, sans-serif; font-size: 14px; fill: rgb(42, 63, 95); opacity: 1; font-weight: normal; white-space: pre;">R</text></g></g><rect class="cboutline" x="840" y="156" width="30" height="206" style="stroke: rgb(68, 68, 68); stroke-opacity: 1; fill: none; stroke-width: 0;"/></g><g class="g-gtitle"><text class="gtitle" x="45" y="12.5" text-anchor="start" dy="0em" style="font-family: 'Open Sans', verdana, arial, sans-serif; font-size: 17px; fill: rgb(42, 63, 95); opacity: 1; font-weight: normal; white-space: pre;">Central Asia — Enclosure Strength (R)</text></g></g></svg>