<svg class="main-svg" xmlns="http://www.w3.org/2000/svg" xmlns:xlink="http://www.w3.org/1999/xlink" width="900" height="520" style="" viewBox="0 0 900 520"><rect x="0" y="0" width="900" height="520" style="fill: rgb(255, 255, 255); fill-opacity: 1;"/><defs id="defs-215b86"><g class="clips"><clipPath id="clip215b86geo"><rect x="0" y="69.00225126953657" width="814" height="406.9954974609268"/></clipPath></g><g class="gradients"><linearGradient x1="0" x2="0" y1="1" y2="0" id="g215b86-cbcoloraxis"><stop offset="0%" stop-color="rgb(68, 1, 84)" stop-opacity="1"/><stop offset="11.111111%" stop-color="rgb(72, 40, 120)" stop-opacity="1"/><stop offset="22.222222%" stop-color="rgb(62, 73, 137)" stop-opacity="1"/><stop offset="33.333333%" stop-color="rgb(49, 104, 142)" stop-opacity="1"/><stop offset="44.444444%" stop-color="rgb(38, 130, 142)" stop-opacity="1"/><stop offset="55.555556%" stop-color="rgb(31, 158, 137)" stop-opacity="1"/><stop offset="66.666667%" stop-color="rgb(53, 183, 121)" stop-opacity="1"/><stop offset="77.777778%" stop-color="rgb(110, 206, 88)" stop-opacity="1"/><stop offset="88.888889%" stop-color="rgb(181, 222, 43)" stop-opacity="1"/><stop offset="100%" stop-color="rgb(253, 231, 37)" stop-opacity="1"/></linearGradient></g><g class="patterns"/></defs><g class="bglayer"/><g class="layer-below"><g class="imagelayer"/><g class="shapelayer"/></g><g class="cartesianlayer"/><g class="polarlayer"/><g class="smithlayer"/><g class="ternarylayer"/><g class="geolayer"><g class="geo geo" clip-path="url(#clip215b86geo)"><g class="layer bg"><rect x="0" y="69.00225126953657" width="814" height="406.9954974609268" style="pointer-events: all; fill: rgb(255, 255, 255); fill-opacity: 1;"/></g><g class="layer backplot"><g class="choroplethlayer"><g class="trace choropleth"><path class="choroplethlocation" fill="rgb(72, 40, 120)" d="M619.5973597359737,227.68481848184817L624.4818481848185,227.15566556655665L628.8778877887788,228.2953795379538L634.0880088008801,230.49339933993403L633.5181518151816,232.52860286028607L628.6336633663367,232.8135313531353L622.2838283828382,232.16226622662268L618.5390539053906,231.26677667766776L616.8294829482949,229.6793179317932L613.7359735973598,229.23157315731578ZM640.1122112211222,231.5924092409241L645.8107810781078,232.89493949394944L645.1595159515953,233.83113311331132L632.3784378437844,234.6859185918592L636.5302530253026,231.7145214521452L638.4026402640263,231.47029702970298ZM721.5203520352036,238.71562156215623L727.4631463146316,238.83773377337735L735.6039603960397,240.01815181518154L733.8129812981299,241.68701870187022L725.5093509350936,241.64631463146313L721.7645764576458,242.17546754675467L717.2871287128713,240.7101210121012L718.5082508250825,239.16336633663366ZM742.6864686468648,240.50660066006603L748.3850385038504,241.11716171617164L745.7799779977998,242.01265126512652L742.1980198019803,241.80913091309128L737.9647964796482,240.9136413641364L738.5346534653467,240.1809680968097ZM723.7997799779978,244.9840484048405L725.9977997799781,244.08855885588562L728.7656765676568,243.8850385038504L732.02200220022,244.73982398239824L732.2662266226623,245.35038503850387L728.8470847084709,245.35038503850387L724.2068206820684,245.10616061606157ZM508.963696369637,228.6617161716172L513.3597359735974,228.25467546754678L516.8602860286029,228.21397139713974L517.2673267326733,228.82453245324535L518.5698569856986,228.2953795379538L520.6864686468647,227.88833883388338L524.1056105610562,228.4174917491749L523.2101210121012,228.74312431243126L520.1980198019802,229.02805280528054L518.1628162816282,229.23157315731578L517.8371837183719,229.59790979097914L515.1507150715072,229.9642464246425L512.7084708470848,229.4350935093509L514.0110011001101,228.70242024202417ZM458.97909790979105,288.04895489548954L454.82728272827285,288.04895489548954L452.0594059405941,287.80473047304736L452.5478547854786,286.8278327832784L455.64136413641364,286.09515951595165L458.002200220022,286.46149614961496L459.0605060506051,286.8278327832784L458.81628162816287,287.43839383938393ZM528.5830583058306,244.12926292629263L533.95599559956,242.13476347634764L533.3861386138615,241.11716171617164L538.4334433443345,239.89603960396036L545.8415841584159,238.47139713971399L553.4125412541255,238.02365236523656L557.3201320132014,237.20957095709574L561.7161716171618,236.88393839383937L563.2629262926293,237.77942794279426L561.7161716171618,238.512101210121L553.7381738173817,239.6111111111111L546.8184818481848,240.7101210121012L539.8173817381739,242.8674367436744L536.3982398239824,245.06545654565457L532.897689768977,247.2227722772277L533.3047304730474,249.0951595159516L537.7007700770077,250.96754675467548L536.3168316831684,251.17106710671067L528.908690869087,250.88613861386136L528.3388338833884,249.8685368536854L524.2684268426843,249.25797579757975L523.942794279428,248.03685368536858L526.2222222222223,247.54840484048407L526.1408140814082,246.32728272827285L530.6182618261827,244.37348734873484ZM730.7194719471947,289.43289328932894L731.5335533553357,291.63091309130914L731.4521452145215,293.82893289328933L732.3476347634763,296.1083608360836L734.6270627062706,300.13806380638067L731.2893289328933,299.40539053905394L729.905390539054,302.6617161716172L732.1034103410342,304.9818481848185L732.02200220022,306.5693069306931L730.3124312431244,305.18536853685373L728.8470847084709,306.93564356435644L728.4400440044005,305.0225522552255L728.6842684268427,302.8245324532453L728.4400440044005,300.3822882288229L728.928492849285,298.6727172717272L729.0913091309131,295.66061606160616L727.7073707370739,293.42189218921897L727.951595159516,290.36908690869086L729.9867986798681,289.3107810781079L729.0913091309131,288.2524752475248L730.1496149614961,287.9268426842685ZM814,264.1453828598959L811.6391639163917,264.9697469746975L808.7084708470848,264.8069306930694L810.7436743674368,265.98734873487354L812.1276127612762,267.85973597359737L813.1859185918593,268.470297029703L813.4301430143014,269.40649064906495L812.860286028603,270.0170517051705L808.6270627062707,269.487898789879L802.2772277227723,271.19746974697466L800.2420242024202,271.48239823982397L796.8228822882289,273.0698569856986L793.5665566556656,274.453795379538L792.6710671067108,275.471397139714L789.4961496149615,273.9246424642464L783.5533553355335,275.67491749174917L782.5764576457647,274.8608360836084L780.3784378437845,275.7970297029703L777.3663366336634,275.51210121012105L776.6336633663367,276.9774477447745L773.947194719472,279.1754675467547L774.0286028602861,280.1116611661166L776.5522552255226,280.6001100110011L776.2266226622663,283.89713971397146L774.1914191419143,283.9785478547855L773.2145214521454,285.85093509350935L774.1100110011002,286.8278327832784L770.2024202420243,288.00825082508254L769.3883388338834,290.5726072607261L766.0506050605061,291.14246424642465L765.3179317931795,293.42189218921897L762.0616061606161,295.53850385038504L761.2475247524753,293.9917491749175L760.2706270627064,290.6947194719472L759.0495049504951,285.6474147414742L760.1078107810781,282.51320132013205L761.9801980198021,281.16996699669966L762.1430143014302,280.1116611661166L765.6435643564357,279.62321232123213L769.7139713971399,276.77392739273927L773.5401540154016,274.4130913091309L777.6105610561058,272.6221122112212L779.4829482948295,269.44719471947195L776.7150715071509,269.6100110011001L775.3311331133114,271.48239823982397L769.6325632563257,273.96534653465346L767.7601760176018,271.19746974697466L761.8987898789878,271.9708470847085L756.2816281628163,275.7563256325633L758.1540154015402,277.14026402640263L753.1067106710672,277.7508250825083L749.6061606160616,277.9543454345434L749.7689768976898,276.32618261826184L746.2684268426842,276.00055005500553L743.4191419141914,277.09955995599563L736.4994499449946,276.6925192519252L729.0913091309131,277.3844884488449L721.7645764576458,281.7805280528053L713.1353135313532,287.1127612761277L716.6358635863587,287.3976897689769L717.7755775577559,288.82233223322334L719.973597359736,289.3107810781079L721.4389438943895,288.2117711771177L723.8811881188119,288.33388338833885L727.1375137513753,290.81683168316835L727.2189218921892,292.7706270627063L725.5093509350936,295.0093509350935L725.2651265126512,297.6958195819582L724.2882288228823,301.31848184818483L720.8690869086909,304.6155115511551L720.1364136413642,306.1622662266227L717.0429042904291,308.8080308030803L713.949394939494,311.41309130913095L712.4840484048407,312.7563256325633L709.4719471947195,314.05885588558857L708.0880088008803,314.0995599559956L706.7040704070407,313.00055005500553L703.6105610561057,314.6694169416942L703.2849284928494,315.4020902090209L702.959295929593,314.99504950495054L702.959295929593,313.8553355335534L704.0990099009902,313.81463146314627L704.4246424642465,311.12816281628164L703.8547854785479,309.21507150715075L705.8085808580859,308.4009900990099L708.4950495049504,308.8080308030803L710.0418041804181,306.61001100110013L710.7744774477449,304.12706270627064L711.6699669966997,303.31298129812984L712.8910891089108,301.27777777777777L709.1463146314632,301.92904290429044L707.1925192519252,302.8245324532453L703.7733773377338,302.8245324532453L702.7964796479648,300.7079207920792L700.1914191419144,299.0797579757976L696.2024202420242,298.34708470847085L695.3883388338835,296.14906490649065L694.5742574257426,294.76512651265125L693.7601760176019,293.78822882288233L692.3762376237624,291.5088008800881L690.3410341034104,290.65401540154016L687.0033003300331,290.0027502750275L683.9911991199122,290.0434543454346L681.1419141914191,290.450495049505L679.2695269526953,291.59020902090214L680.5720572057207,292.1193619361936L680.5720572057207,293.3811881188119L679.3509350935094,294.11386138613864L677.2343234323433,296.515401540154L677.3157315731573,297.492299229923L674.1408140814083,298.91694169416945L671.3729372937295,298.0621562156216L668.6864686468647,298.2656765676568L667.5467546754676,297.492299229923L666.1628162816282,297.24807480748075L662.8250825082508,298.8355335533554L659.8943894389439,299.24257425742576L657.7777777777778,299.7717271727173L654.9284928492849,299.40539053905394L652.8118811881188,299.44609460946094L651.5093509350936,298.2656765676568L649.2299229922992,297.20737073707375L647.031903190319,296.8817381738174L644.1012101210121,297.20737073707375L641.984598459846,297.6144114411441L638.8096809680968,296.67821782178214L638.3212321232124,294.9686468646865L635.7161716171618,294.39878987898794L633.5995599559957,294.11386138613864L631.075907590759,293.17766776677666L628.7964796479648,295.53850385038504L629.6919691969198,296.8817381738174L627.4939493949396,298.4284928492849L624.2376237623763,297.85863586358636L621.958195819582,297.7772277227723L620.4114411441144,296.71892189218926L618.0506050605061,296.67821782178214L616.0968096809681,295.9862486248625L612.6776677667767,297.0852585258526L608.3630363036303,298.9983498349835L606.002200220022,299.40539053905394L605.1067106710672,299.60891089108907L603.8855885588559,298.2249724972497L600.954895489549,298.509900990099L600.059405940594,297.53300330033005L598.4312431243125,297.1259625962596L597.3729372937294,295.82343234323434L596.0704070407041,295.4163916391639L592.8954895489549,295.9862486248625L589.7205720572058,294.6837183718372L588.4994499449945,295.86413641364135L583.4521452145215,290.1248624862487L580.6028602860285,288.3745874587459L581.4169416941695,287.6826182618262L575.7997799779978,289.7992299229923L573.6017601760176,289.92134213421343L573.7645764576457,288.7002200220022L570.9152915291529,287.9268426842685L568.5544554455446,288.45599559955997L567.8217821782179,286.13586358635865L563.7513751375138,285.6474147414742L561.7161716171618,286.5836083608361L556.017601760176,287.3976897689769L554.9592959295929,287.9675467546755L546.4928492849285,288.7409240924093L545.4345434543454,289.514301430143L547.0627062706271,291.0610561056106L544.9460946094609,291.6716171617162L545.3531353135313,292.28217821782175L543.1551155115512,293.3811881188119L546.8184818481848,294.92794279427943L546.2486248624863,296.02695269526953L543.0737073707371,295.90484048404846L542.4224422442244,296.5968096809681L539.5731573157316,295.4163916391639L535.991199119912,295.457095709571L533.5489548954896,296.3932893289329L530.8624862486249,295.497799779978L525.8965896589659,293.95104510451046L522.3960396039604,293.9917491749175L517.6743674367438,296.43399339933995L517.4301430143015,298.10286028602866L515.0693069306931,296.8003300330033L513.2783278327834,299.2832783278328L513.929592959296,299.73102310231025L512.6270627062706,301.44059405940595L514.5808580858086,302.98734873487354L516.2090209020903,302.9059405940594L517.6743674367438,304.41199119911994L517.4301430143015,305.5924092409241L518.5698569856986,305.95874587458746L517.5929592959296,307.3019801980198L515.3949394939494,307.66831683168317L513.1155115511551,309.9884488448845L515.1507150715072,312.1457645764577L514.987898789879,313.6925192519252L517.4301430143015,316.3382838283828L516.046204620462,317.23377337733774L515.7205720572057,317.8443344334434L514.6622662266227,317.68151815181517L513.1155115511551,316.29757975797577L512.4642464246425,316.2161716171617L511.0803080308031,315.6870187018702L510.3476347634764,314.75082508250824L508.31243124312437,314.3030803080308L506.92849284928496,314.6694169416942L506.52145214521454,314.22167216721675L503.42794279427943,313.1633663366337L500.09020902090214,312.79702970297035L498.21782178217825,312.3899889988999L497.89218921892194,312.67491749174917L495.0429042904291,310.7618261826183L492.43784378437846,309.9070407040704L490.4840484048405,308.5638063806381L492.11221122112215,308.1974697469747L493.984598459846,306.32508250825083L492.76347634763476,305.429592959296L496.1012101210121,304.493399339934L496.01980198019805,304.0049504950495L493.984598459846,304.3712871287129L494.0660066006601,303.3536853685369L495.20572057205726,302.74312431243123L497.40374037403745,302.5803080308031L497.8107810781078,301.80693069306926L497.2409240924093,300.58580858085816L498.21782178217825,299.3646864686469L498.13641364136413,298.7134213421342L494.79867986798683,297.9807480748075L493.4961496149615,298.02145214521454L492.11221122112215,296.96314631463144L490.40264026402645,297.2887788778878L487.5533553355336,296.515401540154L487.5533553355336,296.0676567656766L486.7392739273928,295.0907590759076L484.94829482948296,294.9686468646865L484.7854785478548,294.27667766776676L485.35533553355333,293.82893289328933L483.8899889988999,292.52640264026405L481.52915291529155,292.7706270627063L480.87788778877893,292.6485148514852L480.3080308030803,293.13696369636966L479.4125412541254,293.05555555555554L478.9240924092409,291.63091309130914L478.3542354235424,290.8575357535754L478.76127612761275,290.65401540154016L480.6336633663367,290.7354235423543L481.52915291529155,290.24697469746974L480.87788778877893,289.63641364136413L479.33113311331135,289.2293729372937L479.4939493949395,288.82233223322334L478.51705170517056,288.4152915291529L477.13311331133116,286.94994499449945L477.62156215621565,286.33938393839384L477.3773377337734,285.2810781078108L475.1793179317932,284.71122112211225L473.95819581958193,284.99614961496155L473.6325632563256,284.42629262926295L471.2717271727173,283.8564356435644L470.5390539053906,282.55390539053906L470.37623762376245,281.4548954895489L469.2365236523653,280.92574257425747L470.2134213421342,280.19306930693074L469.5621562156216,278.0764576457646L471.19031903190324,276.77392739273927L470.8646864686469,276.4075907590759L473.38833883388344,275.1457645764576L471.02750275027506,274.08745874587464L475.91199119911994,271.19746974697466L477.947194719472,269.89493949394944L478.84268426842686,268.7145214521452L475.50495049504957,267.1677667766777L476.4004400440044,265.70242024202423L474.3652365236524,264.0335533553355L475.91199119911994,262.0797579757976L473.2255225522552,259.515401540154L475.34213421342133,257.8058305830583L471.92299229923,256.2997799779978L472.2486248624863,254.71232123212323L474.0396039603961,254.50880088008802L477.8657865786579,253.61331133113313L480.22662266226627,252.79922992299234L483.971397139714,254.1831683168317L490.1584158415842,254.71232123212323L498.70627062706274,257.27667766776676L500.41584158415844,258.33498349834986L500.57865786578657,259.8410341034104L498.05500550055007,261.02145214521454L494.39163916391647,261.6320132013201L484.29702970297035,259.92244224422444L482.5874587458746,260.2073707370737L486.25082508250824,261.8762376237624L486.4136413641365,262.93454345434543L486.5764576457646,265.21397139713974L489.50715071507153,265.9059405940594L491.2981298129813,266.516501650165L491.54235423542355,265.4174917491749L490.1584158415842,264.44059405940595L491.62376237623766,263.58580858085804L497.0781078107811,264.9697469746975L499.03190319031904,264.44059405940595L497.4851485148515,262.7717271727173L502.77667766776676,260.5737073707371L504.81188118811883,260.6958195819583L506.92849284928496,261.46919691969197L508.23102310231025,259.92244224422444L506.35863586358636,258.5792079207921L507.4983498349835,257.2359735973597L505.7887788778878,255.81133113311336L512.1386138613861,256.5440044004401L513.4411441144115,257.8058305830583L510.5918591859186,258.0907590759076L510.5918591859186,259.3525852585259L512.3828382838284,260.1259625962597L515.8833883388339,259.63751375137514L516.4532453245324,258.2128712871288L521.1749174917492,257.11386138613864L529.0715071507151,255.1600660066007L530.6996699669967,255.2821782178218L528.5016501650165,256.66611661166115L531.3509350935094,256.91034103410345L532.897689768977,256.13696369636966L537.1309130913091,256.05555555555554L540.5500550055006,255.1193619361936L543.0737073707371,256.50330033003297L545.6787678767878,254.99724972497253L543.3179317931792,253.6947194719472L544.4576457645765,252.92134213421343L551.1331133113312,253.61331133113313L554.3080308030803,254.34598459845986L562.4488448844885,256.91034103410345L563.995599559956,255.72992299229927L561.7161716171618,254.54950495049508L561.6347634763476,254.0610561056106L558.866886688669,253.81683168316837L559.6809680968097,252.75852585258528L558.4598459845985,251.0082508250825L558.3784378437845,250.27557755775578L562.5302530253026,248.2403740374037L563.995599559956,246.1644664466447L565.7051705170517,245.71672167216724L571.7293729372938,246.32728272827285L572.1364136413641,247.58910891089107L570.019801980198,249.4207920792079L571.4037403740374,250.11276127612763L572.1364136413641,251.70022002200224L571.6479647964798,254.79372937293732L574.1716171617162,256.1776677667767L573.1947194719472,257.7244224422442L568.7172717271727,260.89933993399336L571.3223322332233,261.2656765676568L572.2178217821782,260.45159515951593L574.7414741474148,259.8410341034104L575.3113311331134,258.7420242024202L577.2651265126512,257.6430143014302L575.962596259626,256.3811881188119L577.0209020902091,254.87513751375138L574.4972497249724,254.71232123212323L574.0088008800881,253.45049504950498L575.7997799779978,251.17106710671067L572.8690869086909,249.33938393839384L576.939493949395,247.79262926292628L576.3696369636964,246.2051705170517L577.5093509350936,246.1237623762376L578.7304730473047,247.38558855885591L577.8349834983499,249.5836083608361L580.1958195819583,249.99064906490648L579.2189218921892,248.3624862486249L582.9636963696371,247.46699669967L587.6853685368537,247.34488448844886L591.8371837183718,248.6474147414742L589.8019801980198,246.77502750275028L589.6391639163917,244.33278327832787L593.5467546754676,243.8850385038504L599.0011001100111,244.0071507150715L603.8855885588559,243.6815181518152L602.0132013201321,242.501100110011L604.6996699669967,241.03575357535757L607.2233223322332,240.95434543454348L611.6193619361936,239.8553355335534L617.6435643564357,239.52970297029702L618.3762376237624,238.9191419141914L624.3190319031903,238.71562156215623L626.1914191419143,239.20407040704072L631.2387238723873,238.02365236523656L635.3905390539054,238.06435643564356L636.041804180418,237.0874587458746L638.1584158415842,236.11056105610567L643.5313531353136,235.1743674367437L647.4389438943895,235.90704070407043L644.3454345434544,236.476897689769L649.4741474147415,236.8432343234324L650.0440044004401,237.94224422442247L652.0792079207921,237.41309130913092L658.7546754675467,237.41309130913092L663.8019801980199,238.512101210121L665.6743674367438,239.36688668866887L665.1045104510451,240.54730473047306L662.5808580858087,241.1985698569857L656.6380638063806,242.46039603960395L654.9284928492849,243.15236523652368L657.7777777777778,243.47799779977998L661.1155115511552,244.04785478547856L663.1507150715072,243.60011001100114L664.2904290429043,245.06545654565457L665.2673267326733,244.454895489549L668.8492849284928,244.12926292629263L676.1760176017603,244.495599559956L676.6644664466447,245.5539053905391L686.1078107810781,245.8795379537954L686.2706270627064,244.1699669966997L691.0737073707371,244.53630363036305L694.6556655665568,244.53630363036305L698.3190319031904,245.71672167216724L699.3773377337734,247.1820682068207L697.9933993399341,248.11826182618265L700.8426842684269,249.90924092409242L704.4246424642465,250.80473047304727L706.6226622662268,248.44389438943895L710.2046204620463,249.461496149615L714.1122112211222,248.85093509350938L718.4268426842684,249.54290429042905L720.1364136413642,248.93234323432347L723.7997799779978,249.21727172717277L722.1716171617163,247.14136413641364L725.1837183718371,246.1644664466447L735.584303988278,246.78178712617463L745.6171617161717,247.62981298129816L747.5709570957096,248.97304730473044L753.4323432343235,250.6826182618262L762.5500550055007,250.27557755775578L767.1089108910892,250.64191419141915L768.9812981298131,251.5781078107811L768.6556655665566,253.2062706270627L771.5049504950496,253.85753575357535L774.5170517051706,253.40979097909792L778.5060506050606,253.32838283828386L782.7392739273928,253.7761276127613L787.0539053905391,253.53190319031907L791.0429042904291,255.56710671067103L793.8107810781078,254.8344334433443L791.938393839384,253.36908690869086L792.996699669967,252.39218921892189L800.1606160616063,253.0027502750275L804.882288228823,252.8806380638064L811.3949394939493,253.93894389438944L814,254.76885996808284L814,264.1453828598959ZM0,254.76885996808284L0.5698569856986069,254.95654565456547L0.5698569856986069,254.95654565456547L6.105610561056153,256.66611661166115L12.048404840484068,258.9048404840484L11.80418041804188,260.32948294829487L13.350935093509406,260.89933993399336L12.862486248624862,259.23047304730477L18.968096809680958,259.5561056105611L23.445544554455466,261.6727172717272L21.16611661166121,262.6903190319032L17.421342134213432,262.8938393839384L17.421342134213432,265.1325632563256L16.52585258525852,265.58030803080305L14.409240924092444,265.5396039603961L12.618261826182675,264.72552255225526L9.687568756875748,264.07425742574264L9.117711771177142,263.09735973597355L6.838283828382885,262.73102310231025L4.314631463146327,263.0159515951595L3.0121012101210454,262.24257425742576L3.500550055005533,261.3877887788779L0.8140814081407939,261.9169416941694L1.8723872387239453,262.9752475247525L0.5698569856986069,263.95214521452147L0,264.1453828598959L0,254.76885996808284ZM814,250.75047870140622L812.1276127612762,250.84543454345436L811.7205720572058,250.11276127612763L814,249.35912083635554L814,250.75047870140622ZM0,249.35912083635554L0.5698569856986069,249.17656765676568L0.5698569856986069,249.17656765676568L0.8954895489549131,249.05445544554453L2.7678767876788015,249.0951595159516L6.024202420242091,249.7057205720572L5.861386138613909,250.03135313531357L3.500550055005533,250.56050605060506L0.5698569856986069,250.7233223322332L0,250.75047870140622L0,249.35912083635554ZM483.15731573157314,306.93564356435644L483.80858085808586,306.3657865786579L485.35533553355333,306.8542354235424L486.08800880088006,306.93564356435644L486.4136413641365,307.3833883388339L486.7392739273928,307.464796479648L486.7392739273928,307.66831683168317L487.8789878987899,308.1974697469747L490.1584158415842,308.0753575357536L489.7513751375138,308.8487348734874L487.2277227722773,309.25577557755776L484.21562156215623,310.5583058305831L482.91309130913095,310.11056105610567L483.4015401540155,309.0522552255226L480.959295929593,308.4009900990099L481.3663366336634,307.9532453245324L483.48294829482955,307.17986798679874Z" style="stroke: rgb(68, 68, 68); stroke-opacity: 1; stroke-width: 1px; opacity: 1;"/><path class="choroplethlocation" fill="rgb(53, 183, 121)" d="M460.6886688668867,288.9851485148515L460.77007700770076,289.96204620462044L461.42134213421343,290.81683168316835L461.42134213421343,291.75302530253026L460.03740374037403,292.2007700770077L460.6886688668867,293.25907590759084L460.77007700770076,294.23597359735976L461.909790979098,296.2304730473047L461.6655665566557,296.8410341034104L460.5258525852586,297.1259625962596L458.4906490649065,298.9983498349835L459.0605060506051,300.01595159515955L458.57205720572057,299.89383938393837L456.4554455445545,298.9983498349835L454.82728272827285,299.3239823982398L453.7689768976898,299.12046204620464L452.38503850385047,299.5682068206821L451.24532453245325,298.7948294829483L450.3498349834984,299.0797579757976L450.1870187018702,298.95764576457645L449.1287128712871,297.85863586358636L447.50055005500553,297.6958195819582L447.2563256325633,297.0038503850385L445.7095709570957,296.75962596259626L445.3839383938394,297.32948294829487L444.1628162816282,296.8817381738174L444.32563256325636,296.2304730473047L442.61606160616066,296.02695269526953L441.5577557755776,295.33498349834986L440.5808580858086,293.8696369636964L440.7436743674368,293.0962596259626L440.2552255225523,291.8751375137514L439.3597359735974,291.0610561056106L440.0110011001101,290.49119911991204L439.52255225522555,289.3107810781079L441.0693069306931,288.6595159515952L444.5698569856986,287.60121012101206L447.41914191419147,286.8278327832784L449.6985698569857,287.23487348734875L449.86138613861385,287.76402640264024L452.0594059405941,287.80473047304736L454.82728272827285,288.04895489548954L458.97909790979105,288.04895489548954L460.11881188118815,288.29317931793184Z" style="stroke: rgb(68, 68, 68); stroke-opacity: 1; stroke-width: 1px; opacity: 1;"/><path class="choroplethlocation" fill="rgb(62, 73, 137)" d="M479.4125412541254,293.05555555555554L480.3080308030803,293.13696369636966L480.87788778877893,292.6485148514852L481.52915291529155,292.7706270627063L483.8899889988999,292.52640264026405L485.35533553355333,293.82893289328933L484.7854785478548,294.27667766776676L484.94829482948296,294.9686468646865L486.7392739273928,295.0907590759076L487.5533553355336,296.0676567656766L487.5533553355336,296.515401540154L490.40264026402645,297.2887788778878L492.11221122112215,296.96314631463144L493.4961496149615,298.02145214521454L494.79867986798683,297.9807480748075L498.13641364136413,298.7134213421342L498.21782178217825,299.3646864686469L497.2409240924093,300.58580858085816L497.8107810781078,301.80693069306926L497.40374037403745,302.5803080308031L495.20572057205726,302.74312431243123L494.0660066006601,303.3536853685369L493.984598459846,304.3712871287129L492.19361936193627,304.53410341034106L490.7282728272828,305.2667766776678L488.6116611661166,305.3888888888889L486.65786578657867,306.24367436743677L486.7392739273928,307.464796479648L486.4136413641365,307.3833883388339L486.08800880088006,306.93564356435644L485.35533553355333,306.8542354235424L483.80858085808586,306.3657865786579L483.15731573157314,306.93564356435644L482.8316831683169,306.6914191419142L479.33113311331135,306.1215621562156L479.1683168316832,305.2667766776678L477.13311331133116,305.5517051705171L476.2376237623763,306.77282728272826L474.52805280528054,308.44169416941696L473.4697469746975,308.0753575357536L472.4114411441144,308.44169416941696L471.4345434543455,308.03465346534654L472.00440044004404,307.7904290429043L472.4114411441144,307.01705170517056L472.981298129813,306.2843784378438L472.81848184818483,305.8773377337734L473.3069306930694,305.67381738173816L473.55115511551156,305.9994499449945L474.8536853685369,306.0808580858086L475.42354235423545,305.91804180418046L475.016501650165,305.67381738173816L475.1793179317932,305.34818481848185L474.4466446644665,304.7783278327833L474.12101210121017,303.80143014301433L473.2255225522552,303.43509350935096L473.38833883388344,302.6617161716172L472.4114411441144,302.09185918591857L471.4345434543455,301.9697469746975L469.80638063806384,301.27777777777777L468.2596259625963,301.52200220022L467.77117711771183,301.8476347634764L466.79427942794285,301.8476347634764L466.22442244224425,302.37678767876787L464.59625962596266,302.5803080308031L463.7821782178218,302.9466446644665L462.72387238723877,302.37678767876787L461.2585258525853,302.37678767876787L459.8745874587459,302.1325632563256L458.89768976897693,302.6210121012101L458.73487348734875,302.0104510451045L457.5137513751376,301.3998899889989L457.9207920792079,300.463696369637L458.57205720572057,299.89383938393837L459.0605060506051,300.01595159515955L458.4906490649065,298.9983498349835L460.5258525852586,297.1259625962596L461.6655665566557,296.8410341034104L461.909790979098,296.2304730473047L460.77007700770076,294.23597359735976L461.82838283828386,294.1545654565457L463.0495049504951,293.54400440044003L464.84048404840485,293.503300330033L467.11991199119916,293.66611661166115L469.6435643564357,294.23597359735976L471.4345434543455,294.27667766776676L472.2486248624863,294.6023102310231L473.14411441144114,294.1952695269527L473.71397139713974,294.72442244224425L475.74917491749176,294.6023102310231L476.64466446644667,294.84653465346537L476.8074807480748,293.70682068206827L477.5401540154015,293.2183718371837Z" style="stroke: rgb(68, 68, 68); stroke-opacity: 1; stroke-width: 1px; opacity: 1;"/><path class="choroplethlocation" fill="rgb(53, 183, 121)" d="M471.4345434543455,308.03465346534654L472.4114411441144,308.44169416941696L473.4697469746975,308.0753575357536L474.52805280528054,308.44169416941696L474.52805280528054,309.0522552255226L473.4697469746975,309.54070407040706L472.73707370737077,309.3371837183718L472.16721672167216,312.0643564356436L470.7832783278328,311.8201320132013L469.1551155115512,311.0060506050605L466.4686468646865,311.494499449945L465.41034103410345,312.1050605060506L462.0726072607261,311.9829482948295L460.3630363036304,311.6166116611661L459.4675467546755,311.7794279427943L458.81628162816287,310.8432343234324L458.40924092409244,310.476897689769L458.89768976897693,310.06985698569855L458.3278327832784,309.7849284928493L457.6765676567657,310.31408140814085L456.2926292629263,309.6628162816282L456.1298129812982,308.7266226622662L454.7458745874588,308.1974697469747L454.50165016501654,307.464796479648L453.2805280528053,306.5693069306931L455.0715071507151,306.1622662266227L456.4554455445545,304.6155115511551L457.5137513751376,303.0687568756876L458.89768976897693,302.6210121012101L459.8745874587459,302.1325632563256L461.2585258525853,302.37678767876787L462.72387238723877,302.37678767876787L463.7821782178218,302.9466446644665L464.59625962596266,302.5803080308031L466.22442244224425,302.37678767876787L466.79427942794285,301.8476347634764L467.77117711771183,301.8476347634764L468.4224422442245,302.05115511551156L469.1551155115512,302.74312431243123L469.88778877887796,303.6793179317932L471.19031903190324,305.0225522552255L471.2717271727173,306.0401540154015L471.02750275027506,306.9763476347635Z" style="stroke: rgb(68, 68, 68); stroke-opacity: 1; stroke-width: 1px; opacity: 1;"/><path class="choroplethlocation" fill="rgb(53, 183, 121)" d="M457.5137513751376,301.3998899889989L458.73487348734875,302.0104510451045L458.89768976897693,302.6210121012101L457.5137513751376,303.0687568756876L456.4554455445545,304.6155115511551L455.0715071507151,306.1622662266227L453.2805280528053,306.5693069306931L451.8965896589659,306.48789878987895L450.1056105610561,307.05775577557756L449.2915291529153,307.4240924092409L447.41914191419147,306.9763476347635L445.7095709570957,305.9994499449945L445.0583058305831,305.7145214521453L444.5698569856986,304.94114411441143L444.24422442244224,304.94114411441143L444.976897689769,303.47579757975797L444.48844884488454,302.98734873487354L445.7909790979098,302.98734873487354L445.953795379538,302.05115511551156L447.0935093509351,302.6210121012101L447.9075907590759,302.9059405940594L449.86138613861385,302.6210121012101L450.02420242024203,302.1732673267327L450.91969196919695,302.09185918591857L452.0594059405941,301.72552255225526L452.30363036303635,301.8883388338834L453.3619361936194,301.60341034103413L453.8503850385039,301.0742574257426L454.5830583058306,300.9114411441144L457.02530253025304,301.60341034103413Z" style="stroke: rgb(68, 68, 68); stroke-opacity: 1; stroke-width: 1px; opacity: 1;"/><path class="choroplethlocation" fill="rgb(68, 1, 84)" d="M471.2717271727173,283.8564356435644L473.6325632563256,284.42629262926295L473.95819581958193,284.99614961496155L475.1793179317932,284.71122112211225L477.3773377337734,285.2810781078108L477.62156215621565,286.33938393839384L477.13311331133116,286.94994499449945L478.51705170517056,288.4152915291529L479.4939493949395,288.82233223322334L479.33113311331135,289.2293729372937L480.87788778877893,289.63641364136413L481.52915291529155,290.24697469746974L480.6336633663367,290.7354235423543L478.76127612761275,290.65401540154016L478.3542354235424,290.8575357535754L478.9240924092409,291.63091309130914L479.4125412541254,293.05555555555554L477.5401540154015,293.2183718371837L476.8074807480748,293.70682068206827L476.64466446644667,294.84653465346537L475.74917491749176,294.6023102310231L473.71397139713974,294.72442244224425L473.14411441144114,294.1952695269527L472.2486248624863,294.6023102310231L471.4345434543455,294.27667766776676L469.6435643564357,294.23597359735976L467.11991199119916,293.66611661166115L464.84048404840485,293.503300330033L463.0495049504951,293.54400440044003L461.82838283828386,294.1545654565457L460.77007700770076,294.23597359735976L460.6886688668867,293.25907590759084L460.03740374037403,292.2007700770077L461.42134213421343,291.75302530253026L461.42134213421343,290.81683168316835L460.77007700770076,289.96204620462044L460.6886688668867,288.9851485148515L462.8866886688669,288.9851485148515L465.3289328932894,288.1303630363036L465.8173817381738,286.8685368536854L467.6897689768977,286.13586358635865L467.44554455445547,285.1182618261826L468.8294829482948,284.75192519251925Z" style="stroke: rgb(68, 68, 68); stroke-opacity: 1; stroke-width: 1px; opacity: 1;"/><path class="choroplethlocation" fill="rgb(38, 130, 142)" d="M458.81628162816287,310.8432343234324L459.4675467546755,311.7794279427943L460.3630363036304,311.6166116611661L462.0726072607261,311.9829482948295L465.41034103410345,312.1050605060506L466.4686468646865,311.494499449945L469.1551155115512,311.0060506050605L470.7832783278328,311.8201320132013L472.16721672167216,312.0643564356436L470.94609460946094,313.00055005500553L470.13201320132015,314.58800880088006L470.8646864686469,315.8905390539054L468.91089108910893,315.6056105610561L466.6314631463146,316.29757975797577L466.6314631463146,317.437293729373L464.51485148514854,317.64081408140817L462.968096809681,316.8674367436744L461.17711771177125,317.47799779978004L459.4675467546755,317.39658965896587L459.3047304730473,315.8905390539054L458.1650165016502,315.19856985698567L458.57205720572057,314.87293729372936L458.3278327832784,314.58800880088006L458.6534653465347,313.8553355335534L459.5489548954896,313.1633663366337L458.40924092409244,312.1864686468647L458.24642464246426,311.3723872387239Z" style="stroke: rgb(68, 68, 68); stroke-opacity: 1; stroke-width: 1px; opacity: 1;"/><path class="choroplethlocation" fill="rgb(53, 183, 121)" d="M458.57205720572057,299.89383938393837L457.9207920792079,300.463696369637L457.5137513751376,301.3998899889989L457.02530253025304,301.60341034103413L454.5830583058306,300.9114411441144L453.8503850385039,301.0742574257426L453.3619361936194,301.60341034103413L452.30363036303635,301.8883388338834L452.0594059405941,301.72552255225526L450.91969196919695,302.09185918591857L450.02420242024203,302.1732673267327L449.86138613861385,302.6210121012101L447.9075907590759,302.9059405940594L447.0935093509351,302.6210121012101L445.953795379538,302.05115511551156L445.7095709570957,301.27777777777777L445.953795379538,300.9928492849285L446.2794279427943,300.50440044004404L447.2563256325633,300.54510451045104L447.98899889989,300.30088008800885L448.07040704070414,300.0973597359736L448.4774477447745,299.9752475247525L448.64026402640263,299.44609460946094L449.21012101210124,299.3646864686469L449.5357535753576,298.95764576457645L450.1870187018702,298.95764576457645L450.3498349834984,299.0797579757976L451.24532453245325,298.7948294829483L452.38503850385047,299.5682068206821L453.7689768976898,299.12046204620464L454.82728272827285,299.3239823982398L456.4554455445545,298.9983498349835Z" style="stroke: rgb(68, 68, 68); stroke-opacity: 1; stroke-width: 1px; opacity: 1;"/><path class="choroplethlocation" fill="rgb(181, 222, 43)" d="M441.5577557755776,295.33498349834986L442.61606160616066,296.02695269526953L444.32563256325636,296.2304730473047L444.1628162816282,296.8817381738174L445.3839383938394,297.32948294829487L445.7095709570957,296.75962596259626L447.2563256325633,297.0038503850385L447.50055005500553,297.6958195819582L449.1287128712871,297.85863586358636L450.1870187018702,298.95764576457645L449.5357535753576,298.95764576457645L449.21012101210124,299.3646864686469L448.64026402640263,299.44609460946094L448.4774477447745,299.9752475247525L448.07040704070414,300.0973597359736L447.98899889989,300.30088008800885L447.2563256325633,300.54510451045104L446.2794279427943,300.50440044004404L445.953795379538,300.9928492849285L444.8954895489549,300.54510451045104L443.8371837183719,300.66721672167216L442.04620462046205,299.9752475247525L441.23212321232126,300.1787678767877L440.0110011001101,301.0742574257426L438.30143014301433,300.34158415841586L436.998899889989,299.3646864686469L435.8591859185919,298.8355335533554L435.6149614961496,297.8993399339934L435.2079207920792,297.20737073707375L436.9174917491749,296.71892189218926L437.7315731573157,296.14906490649065L439.3597359735974,295.7420242024202L439.9295929592959,295.2942794279428L440.4994499449945,295.53850385038504Z" style="stroke: rgb(68, 68, 68); stroke-opacity: 1; stroke-width: 1px; opacity: 1;"/><path class="choroplethlocation" fill="rgb(110, 206, 88)" d="M467.77117711771183,301.8476347634764L468.2596259625963,301.52200220022L469.80638063806384,301.27777777777777L471.4345434543455,301.9697469746975L472.4114411441144,302.09185918591857L473.38833883388344,302.6617161716172L473.2255225522552,303.43509350935096L474.12101210121017,303.80143014301433L474.4466446644665,304.7783278327833L475.1793179317932,305.34818481848185L475.016501650165,305.67381738173816L475.42354235423545,305.91804180418046L474.8536853685369,306.0808580858086L473.55115511551156,305.9994499449945L473.3069306930694,305.67381738173816L472.81848184818483,305.8773377337734L472.981298129813,306.2843784378438L472.4114411441144,307.01705170517056L472.00440044004404,307.7904290429043L471.4345434543455,308.03465346534654L471.02750275027506,306.9763476347635L471.2717271727173,306.0401540154015L471.19031903190324,305.0225522552255L469.88778877887796,303.6793179317932L469.1551155115512,302.74312431243123L468.4224422442245,302.05115511551156Z" style="stroke: rgb(68, 68, 68); stroke-opacity: 1; stroke-width: 1px; opacity: 1;"/></g></g></g><g class="layer frontplot"><g class="scatterlayer"/></g></g></g><g class="funnelarealayer"/><g class="pielayer"/><g class="iciclelayer"/><g class="treemaplayer"/><g class="sunburstlayer"/><g class="glimages"/><defs id="topdefs-215b86"><g class="clips"/></defs><g class="layer-above"><g class="imagelayer"/><g class="shapelayer"/></g><g class="infolayer"><g class="cbcoloraxis colorbar" transform="translate(0,25)"><rect class="cbbg" x="830" y="124" width="69.640625" height="248" style="fill: rgb(0, 0, 0); fill-opacity: 0; stroke: rgb(68, 68, 68); stroke-opacity: 1; stroke-width: 0;"/><g class="cbfills" transform="translate(0,155)"><rect class="cbfill gradient_filled" x="840" y="0" width="30" height="206" style="fill: url('#g215b86-cbcoloraxis');"/></g><g class="cblines" transform="translate(0,155)"/><g class="cbaxis crisp" transform="translate(0,-25)"><g class="ycbcoloraxistick"><text text-anchor="start" x="872.9" y="4.199999999999999" transform="translate(0,386.49999999999994)" style="font-family: 'Open Sans', verdana, arial, sans-serif; font-size: 12px; fill: rgb(42, 63, 95); fill-opacity: 1; white-space: pre; opacity: 1;">0</text></g><g class="ycbcoloraxistick"><text text-anchor="start" x="872.9" y="4.199999999999999" style="font-family: 'Open Sans', verdana, arial, sans-serif; font-size: 12px; fill: rgb(42, 63, 95); fill-opacity: 1; white-space: pre; opacity: 1;" transform="translate(0,345.29999999999995)">0.2</text></g><g class="ycbcoloraxistick"><text text-anchor="start" x="872.9" y="4.199999999999999" style="font-family: 'Open Sans', verdana, arial, sans-serif; font-size: 12px; fill: rgb(42, 63, 95); fill-opacity: 1; white-space: pre; opacity: 1;" transform="translate(0,304.0999999999999)">0.4</text></g><g class="ycbcoloraxistick"><text text-anchor="start" x="872.9" y="4.199999999999999" style="font-family: 'Open Sans', verdana, arial, sans-serif; font-size: 12px; fill: rgb(42, 63, 95); fill-opacity: 1; white-space: pre; opacity: 1;" transform="translate(0,262.9)">0.6</text></g><g class="ycbcoloraxistick"><text text-anchor="start" x="872.9" y="4.199999999999999" style="font-family: 'Open Sans', verdana, arial, sans-serif; font-size: 12px; fill: rgb(42, 63, 95); fill-opacity: 1; white-space: pre; opacity: 1;" transform="translate(0,221.69999999999993)">0.8</text></g><g class="ycbcoloraxistick"><text text-anchor="start" x="872.9" y="4.199999999999999" style="font-family: 'Open Sans', verdana, arial, sans-serif; font-size: 12px; fill: rgb(42, 63, 95); fill-opacity: 1; white-space: pre; opacity: 1;" transform="translate(0,180.49999999999994)">1</text></g></g><g class="cbtitleunshift" transform="translate(0,-25)"><g class="cbtitle" transform=""><text class="ycbcoloraxistitle" x="840.28" y="172.00000000000003" text-anchor="start" style="font-family: 'Open Sans', verdana, arial, sans-serif; font-size: 14px; fill: rgb(42, 63, 95); opacity: 1; font-weight: normal; white-space: pre;">R</text></g></g><rect class="cboutline" x="840" y="156" width="30" height="206" style="stroke: rgb(68, 68, 68); stroke-opacity: 1; fill: none; stroke-width: 0;"/></g><g class="g-gtitle"><text class="gtitle" x="45" y="12.5" text-anchor="start" dy="0em" style="font-family: 'Open Sans', verdana, arial, sans-serif; font-size: 17px; fill: rgb(42, 63, 95); opacity: 1; font-weight: normal; white-space: pre;">Eastern Europe — Enclosure Strength (R)</text></g></g></svg>