<svg class="main-svg" xmlns="http://www.w3.org/2000/svg" xmlns:xlink="http://www.w3.org/1999/xlink" width="900" height="520" style="" viewBox="0 0 900 520"><rect x="0" y="0" width="900" height="520" style="fill: rgb(255, 255, 255); fill-opacity: 1;"/><defs id="defs-3468a3"><g class="clips"><clipPath id="clip3468a3geo"><rect x="0" y="69.00161658196592" width="814" height="406.9967668360682"/></clipPath></g><g class="gradients"><linearGradient x1="0" x2="0" y1="1" y2="0" id="g3468a3-cbcoloraxis"><stop offset="0%" stop-color="rgb(68, 1, 84)" stop-opacity="1"/><stop offset="11.111111%" stop-color="rgb(72, 40, 120)" stop-opacity="1"/><stop offset="22.222222%" stop-color="rgb(62, 73, 137)" stop-opacity="1"/><stop offset="33.333333%" stop-color="rgb(49, 104, 142)" stop-opacity="1"/><stop offset="44.444444%" stop-color="rgb(38, 130, 142)" stop-opacity="1"/><stop offset="55.555556%" stop-color="rgb(31, 158, 137)" stop-opacity="1"/><stop offset="66.666667%" stop-color="rgb(53, 183, 121)" stop-opacity="1"/><stop offset="77.777778%" stop-color="rgb(110, 206, 88)" stop-opacity="1"/><stop offset="88.888889%" stop-color="rgb(181, 222, 43)" stop-opacity="1"/><stop offset="100%" stop-color="rgb(253, 231, 37)" stop-opacity="1"/></linearGradient></g><g class="patterns"/></defs><g class="bglayer"/><g class="layer-below"><g class="imagelayer"/><g class="shapelayer"/></g><g class="cartesianlayer"/><g class="polarlayer"/><g class="smithlayer"/><g class="ternarylayer"/><g class="geolayer"><g class="geo geo" clip-path="url(#clip3468a3geo)"><g class="layer bg"><rect x="0" y="69.00161658196592" width="814" height="406.9967668360682" style="pointer-events: all; fill: rgb(255, 255, 255); fill-opacity: 1;"/></g><g class="layer backplot"><g class="choroplethlayer"><g class="trace choropleth"><path class="choroplethlocation" fill="rgb(62, 73, 137)" d="M506.03910529141046,150.55711437803996L481.0818825863979,176.93595103460387L469.7089709739871,177.25186524605968L461.8111156875907,183.41219236944892L456.44057409284113,183.57014947517683L453.9132604011945,186.41337737827953L447.91089038353306,186.41337737827953L444.4358340575187,183.41219236944892L436.2220645596665,187.0452058011912L433.6947508680196,190.67821923293357L428.0082950618142,190.0463908100218L426.1128097930793,189.09864817565432L423.90141031288823,189.25660528138224L421.05818240978556,189.25660528138224L410.0011850088306,181.67466420644163L403.9988149911694,181.67466420644163L400.83967287661085,178.83143630333893L400.83967287661085,173.93476602577326L396.4168739162288,172.51315207422192L391.0463323214792,162.87776862481832L387.25536178400904,160.8243262503553L385.6757907267297,157.34926992434086L381.25299176634786,153.0844280696868L375.8824501715983,152.45259964677516L378.725678074701,147.39797226348145L383.4643912465387,147.24001515775353L384.7280480923622,144.55474436037872L384.7280480923622,136.6568890739823L387.25536178400904,127.4953769417626L391.36224653293505,124.96806325011573L392.30998916730283,121.4930069241014L396.100959704773,114.70085137780049L401.4715012995225,110.43600952314645L404.9465576255369,101.74836870811048L406.2102144713604,94.16642763316989L416.63538344940343,96.06191290190496L419.16269714105033,89.58567156706002L424.53323873579984,93.53459921025822L429.58786611909363,91.4811568357951L431.79926559928464,93.21868499880226L437.8016356169458,93.3766421045303L445.3835766918862,96.85169843054464L447.91089038353306,99.85288343937525L451.7018609210035,102.69611134247795L455.17691724701785,107.90869583149959L458.33605936157636,110.75192373460227L455.17691724701785,114.54289427207259L452.3336893439151,118.6497790209987L452.9655177668268,121.17709271264543L452.9655177668268,123.86236351002022L458.0201451501205,124.02032061574813L459.9156304188557,123.38849219283647L462.12702989904653,124.96806325011573L460.23154463031153,127.96924825894634L463.3906867448701,132.86591853651214L466.5498288594286,137.13076039116618L470.02488518544294,140.1319453999968L498.45716421646983,150.55711437803996Z" style="stroke: rgb(68, 68, 68); stroke-opacity: 1; stroke-width: 1px; opacity: 1;"/><path class="choroplethlocation" fill="rgb(49, 104, 142)" d="M430.53560875346113,261.758916810501L417.899040295227,253.07127599546487L417.5831260837712,248.01664861217125L385.6757907267297,230.00953855918752L384.09621966945053,229.0617959248199L384.09621966945053,219.74232668687227L386.62353336109743,216.2672703608578L391.0463323214792,210.4228574489245L394.2054744360378,204.10457321980732L390.0985896871117,193.99531845322002L389.15084705274404,189.57251949283807L385.04396230381803,183.41219236944892L390.41450389856755,178.1996078804273L396.4168739162288,172.51315207422192L400.83967287661085,173.93476602577326L400.83967287661085,178.83143630333893L403.9988149911694,181.67466420644163L410.0011850088306,181.67466420644163L421.05818240978556,189.25660528138224L423.90141031288823,189.25660528138224L426.1128097930793,189.09864817565432L428.0082950618142,190.0463908100218L433.6947508680196,190.67821923293357L436.2220645596665,187.0452058011912L444.4358340575187,183.41219236944892L447.91089038353306,186.41337737827953L453.9132604011945,186.41337737827953L446.33131932625395,196.36467503913894L446.33131932625395,228.27201039618035L451.7018609210035,235.53803725966497L445.3835766918862,239.01309358567931L443.1721772116954,242.6461070174217L440.01303509713694,243.27793544033335L438.7493782513133,249.5962196694505L435.90615034821064,253.07127599546487L434.3265792909315,258.91568890739813Z" style="stroke: rgb(68, 68, 68); stroke-opacity: 1; stroke-width: 1px; opacity: 1;"/><path class="choroplethlocation" fill="rgb(62, 73, 137)" d="M384.09621966945053,229.0617959248199L366.4050238279225,229.8515814534596L356.61168327279114,229.69362434773169L353.4525411582326,230.79932408782707L348.3979137749389,233.48459488520186L346.18651429474784,232.5368522508344L346.18651429474784,225.9026538102614L348.3979137749389,222.58555458997495L348.71382798639473,215.47748483221824L350.6093132551299,211.37060008329212L354.08436958114424,206.94780112291002L357.2435116957028,204.5784445369912L360.0867395988055,201.41930242243268L356.61168327279114,200.31360268233718L357.2435116957028,190.0463908100218L360.71856802171715,187.51907711837507L366.4050238279225,189.57251949283807L373.35513647995145,187.51907711837507L379.67342070906847,187.51907711837507L385.04396230381803,183.41219236944892L389.15084705274404,189.57251949283807L390.0985896871117,193.99531845322002L394.2054744360378,204.10457321980732L391.0463323214792,210.4228574489245L386.62353336109743,216.2672703608578L384.09621966945053,219.74232668687227Z" style="stroke: rgb(68, 68, 68); stroke-opacity: 1; stroke-width: 1px; opacity: 1;"/><path class="choroplethlocation" fill="rgb(31, 158, 137)" d="M384.09621966945053,229.0617959248199L385.6757907267297,230.00953855918752L417.5831260837712,248.01664861217125L417.899040295227,253.07127599546487L430.53560875346113,261.758916810501L426.74463821599096,272.65795710572786L427.06055242744674,277.5546273832937L432.74700823365214,280.7137694978522L433.062922445108,283.08312608377116L430.53560875346113,288.2957105727927L431.16743717637274,290.98098137016746L430.53560875346113,295.2458232248215L433.6947508680196,300.774321925299L437.1698071940342,309.30400563460705L440.3289493085927,311.35744800907014L433.3788366565638,316.41207539236376L423.90141031288823,319.7291746126503L418.53086871813866,319.5712175069224L415.37172660358016,322.25648830429714L409.3693565859189,322.57240251575297L407.1579571057279,323.6781022558485L396.4168739162288,321.15078856420166L389.782675475656,321.78261698711333L387.5712759954649,309.93583405751883L384.41213388090637,305.82894930859266L382.83256282362703,303.45959272267373L373.98696490286306,301.7220645596666L369.24825173102516,299.1947508680197L363.5617959248198,297.6151798107404L360.0867395988055,296.1935658591891L356.2957690613353,293.98216637899804L351.5570558894974,282.92516897804325L346.50242850620367,278.0284987004774L344.92285744892456,272.8159142114558L345.5546858718362,268.3931152510738L343.9751148145568,260.1793457532216L347.76608535202723,259.86343154176575L350.92522746658574,256.70428942720724L354.4002837926001,252.12353336109737L356.61168327279114,250.22804809236217L356.2957690613353,247.38482018925947L354.4002837926001,245.3313778147965L354.08436958114424,242.01427859450993L356.61168327279114,240.90857885441454L356.927597484247,235.6959943653929L353.4525411582326,230.79932408782707L356.61168327279114,229.69362434773169L366.4050238279225,229.8515814534596Z" style="stroke: rgb(68, 68, 68); stroke-opacity: 1; stroke-width: 1px; opacity: 1;"/><path class="choroplethlocation" fill="rgb(62, 73, 137)" d="M360.4026538102613,416.08300910668595L355.66394063842364,415.13526647231845L352.82071273532097,416.24096621241404L348.3979137749389,414.66139515513464L344.92285744892456,414.66139515513464L339.2364016427191,410.71246751193655L332.60220320214603,409.29085356038524L330.07488951049913,403.76235485990776L330.07488951049913,400.6032127453491L326.283918973029,399.6554701109816L316.17466420644155,390.02008666157803L313.3314363033389,384.96545927828424L311.75186524605977,383.385888221005L308.27680892004537,376.4357755689762L318.0701494751768,377.3835182033438L320.91337737827945,378.3312608377114L324.07251949283796,378.1733037319834L328.8112326646759,372.48684792577797L336.3931737396165,365.22082106229334L339.55231585417494,364.5889926393817L340.81597269999827,361.5878076305511L345.5546858718362,358.11275130453663L352.1888843124091,356.8490944587132L352.82071273532097,360.1661936789998L360.0867395988055,360.0082365732718L364.1936243477317,361.74576473627906L366.08910961646666,363.95716421646995L370.19599436539295,364.5889926393817L374.93470753723057,367.4322205424844L374.93470753723057,378.4892179434393L373.0392222684956,384.6495450668284L372.7233080570398,391.1257864016735L374.3028791143189,393.8110571990483L373.35513647995145,398.86568458234194L371.77556542267206,399.6554701109816L369.564165942481,406.13171144582657Z" style="stroke: rgb(68, 68, 68); stroke-opacity: 1; stroke-width: 1px; opacity: 1;"/><path class="choroplethlocation" fill="rgb(68, 1, 84)" d="M389.782675475656,321.78261698711333L396.4168739162288,321.15078856420166L407.1579571057279,323.6781022558485L409.3693565859189,322.57240251575297L415.37172660358016,322.25648830429714L418.53086871813866,319.5712175069224L423.90141031288823,319.7291746126503L433.3788366565638,316.41207539236376L440.3289493085927,311.35744800907014L441.9085203658719,315.30637565226834L441.59260615441605,323.99401646730433L442.54034878878355,331.7339146479727L442.85626300023955,345.3182257405745L444.4358340575187,349.7410247009565L441.9085203658719,355.90135182434574L438.4334640398575,362.06167894773483L432.74700823365214,367.4322205424844L424.8491529472557,370.7493197627708L415.0558123921243,375.01416161742486L404.9465576255369,384.49158796110055L401.78741551097835,386.07115901837983L395.46913128186134,392.38944324749696L391.9940749558467,394.44288562195993L391.0463323214792,400.6032127453491L395.46913128186134,407.23741118592204L397.04870233914045,412.4499956749437L397.04870233914045,414.9773093665906L398.62827339641984,414.66139515513464L398.312359184964,423.19107886444283L397.04870233914045,427.2979636133688L398.9441876078757,428.71957756492014L397.6805307620521,432.51054810239043L394.2054744360378,435.5117331112211L386.9394475725532,438.51291812005167L376.1983643830541,443.25163129188957L372.4073938455837,446.568730512176L373.35513647995145,450.20174394391836L375.56653596014246,450.83357236683L374.61879332577473,455.41432843293995L367.9845948852019,455.41432843293995L367.3527664622903,451.46540078974175L366.08910961646666,447.5164731465436L365.14136698209916,444.35733103198504L366.7209380393783,434.56399047685363L364.5095385591875,428.40366335346437L360.4026538102613,416.08300910668595L369.564165942481,406.13171144582657L371.77556542267206,399.6554701109816L373.35513647995145,398.86568458234194L374.3028791143189,393.8110571990483L372.7233080570398,391.1257864016735L373.0392222684956,384.6495450668284L374.93470753723057,378.4892179434393L374.93470753723057,367.4322205424844L370.19599436539295,364.5889926393817L366.08910961646666,363.95716421646995L364.1936243477317,361.74576473627906L360.0867395988055,360.0082365732718L352.82071273532097,360.1661936789998L352.1888843124091,356.8490944587132L351.5570558894974,350.53081022959617L378.09384965178936,343.42274047183946L383.14847703508286,347.5296252207655L385.6757907267297,346.7398396921259L389.15084705274404,348.9512391723169L389.46676126420016,352.5842526040592L387.5712759954649,356.5331802472574L388.20310441837654,362.6935073706465L394.2054744360378,368.22200607112393L396.7327881276846,362.06167894773483L400.523758665155,360.32415078472764L399.8919302422431,348.9512391723169L396.100959704773,342.63295494319976L392.94181759021444,339.78972704009703L389.782675475656,339.94768414582495L387.5712759954649,328.5747725334142Z" style="stroke: rgb(68, 68, 68); stroke-opacity: 1; stroke-width: 1px; opacity: 1;"/><path class="choroplethlocation" fill="rgb(49, 104, 142)" d="M356.2957690613353,293.98216637899804L360.0867395988055,296.1935658591891L363.5617959248198,297.6151798107404L369.24825173102516,299.1947508680197L373.98696490286306,301.7220645596666L378.4097638632452,305.6709922028648L380.6211633434359,313.09497617207734L379.04159228615686,315.46433275799626L377.1461070174216,322.57240251575297L379.04159228615686,329.83842937923765L376.1983643830541,332.99757149379616L373.35513647995145,341.0533838859205L378.09384965178936,343.42274047183946L351.5570558894974,350.53081022959617L352.1888843124091,356.8490944587132L345.5546858718362,358.11275130453663L340.81597269999827,361.5878076305511L339.55231585417494,364.5889926393817L336.3931737396165,365.22082106229334L328.8112326646759,372.48684792577797L324.07251949283796,378.1733037319834L320.91337737827945,378.3312608377114L318.0701494751768,377.3835182033438L308.27680892004537,376.4357755689762L306.697237862766,375.80394714606456L306.697237862766,375.01416161742486L303.22218153675163,372.9607192429619L297.5357257305463,372.48684792577797L290.2696988670615,374.54029030024117L284.58324306085615,369.0117915997637L278.5808730431949,361.9037218420069L279.2127014661066,333.9453141281638L297.5357257305463,334.1032712338917L296.58798309617856,331.10208622506104L297.85163994200207,327.7849870047746L296.2720688847227,323.6781022558485L297.5357257305463,319.41326040119446L296.58798309617856,316.5700324980918L299.43121099928123,316.8859467095476L300.0630394221931,319.5712175069224L304.16992417111913,319.41326040119446L309.5404657658687,320.20304592983405L312.6996078804272,324.15197357303225L319.6497205324561,325.4156304188557L325.0202621272057,322.57240251575297L326.9157473959407,327.15315858186284L333.8658600479696,328.4168154276863L337.0250021625281,332.2077859651566L340.50005848854244,336.94649913699436L347.13425692911534,337.1044562427223L346.50242850620367,327.6270298990466L343.9751148145568,329.206600956326L337.9727447968956,325.88950173603945L335.76134531670453,324.30993067876017L336.7090879510723,315.46433275799626L338.28865900835143,305.039163779953L336.3931737396165,301.2481932424828L338.9204874312633,295.56173743627744L341.1318869114541,294.6139948019098L352.82071273532097,293.03442374463054Z" style="stroke: rgb(68, 68, 68); stroke-opacity: 1; stroke-width: 1px; opacity: 1;"/><path class="choroplethlocation" fill="rgb(72, 40, 120)" d="M521.5189016527474,330.1543435906935L523.7303011329382,333.9453141281638L525.9417006131293,339.78972704009703L527.2053574589528,350.21489601814034L529.4167569391436,354.32178076706634L528.784928516232,358.5866226217205L527.2053574589528,361.1139363133673L524.0462153443943,356.05930893007366L522.466644287115,358.5866226217205L524.0462153443943,365.0628639565655L523.4143869214824,368.85383449403577L520.8870732298356,370.90727686849874L520.5711590183797,378.3312608377114L517.0961026923653,388.59847271002667L512.6733037319833,400.6032127453491L507.30276213723397,417.18870884678154L503.8277058112194,429.50936309355984L500.03673527374923,439.6186178601472L492.7707084102645,441.6720602346103L485.1887673353241,445.4630307720805L480.1341399520304,443.09367418616165L473.18402730000145,440.09248917733106L470.6567136083546,435.35377600549316L470.02488518544294,427.6138778248248L466.86574307088443,420.66376517279593L466.23391464797277,414.3454809436788L467.81348570525194,408.0271967145618L471.9203704541781,406.4476256572825L471.9203704541781,403.6043977541798L476.0272552031041,396.9701993136068L476.65908362601607,391.2837435074014L474.7635983572808,387.1768587584753L473.18402730000145,381.6483600579978L472.5521988770898,373.59254766587355L475.39542678019245,368.69587738830785L476.65908362601607,363.00942158210245L481.0818825863979,362.6935073706465L485.82059575823575,360.9559792076393L489.29565208425015,359.3764081503601L493.08662262172027,359.21845104463216L498.141250005014,354.1638236613384L505.4072768684988,348.793282066589L507.93459056014564,344.3704831062069L506.6709337143221,340.73746967446465L510.46190425179253,341.68521230883215L515.2006174236302,335.6828422911709L515.516531635086,330.3123006964214L518.3597595381887,326.3633730532233Z" style="stroke: rgb(68, 68, 68); stroke-opacity: 1; stroke-width: 1px; opacity: 1;"/><path class="choroplethlocation" fill="rgb(68, 1, 84)" d="M353.4525411582326,230.79932408782707L356.927597484247,235.6959943653929L356.61168327279114,240.90857885441454L354.08436958114424,242.01427859450993L349.34565640930634,241.38245017159826L346.8183427176595,246.437077554892L341.44780112290994,245.6472920262523L342.0796295458219,240.90857885441454L343.3432863916451,240.27675043150276L343.65920060310094,234.9062088367532L346.18651429474784,232.5368522508344L348.3979137749389,233.48459488520186Z" style="stroke: rgb(68, 68, 68); stroke-opacity: 1; stroke-width: 1px; opacity: 1;"/><path class="choroplethlocation" fill="rgb(62, 73, 137)" style="stroke: rgb(68, 68, 68); stroke-opacity: 1; stroke-width: 1px; opacity: 1;"/><path class="choroplethlocation" fill="rgb(72, 40, 120)" d="M451.7018609210035,235.53803725966497L446.33131932625395,228.27201039618035L446.33131932625395,196.36467503913894L453.9132604011945,186.41337737827953L456.44057409284113,183.57014947517683L461.8111156875907,183.41219236944892L469.7089709739871,177.25186524605968L481.0818825863979,176.93595103460387L506.03910529141046,150.55711437803996L512.0414753090716,143.29108751455533L516.1483600579979,137.76258881407784L516.1483600579979,133.18183274796797L516.1483600579979,124.33623482720408L516.1483600579979,120.86117850118961L516.1483600579979,120.7032213954617L518.9915879611005,120.54526428973378L523.0984727100265,119.12365033818244L527.5212716704086,118.33386480954275L531.9440706307905,115.33267980071214L535.103212745349,115.33267980071214L535.419126956805,117.70203638663111L534.4713843224373,122.7566637699247L534.4713843224373,127.33741983603468L532.5758990537024,130.49656195059322L530.3644995735114,140.1319453999968L525.9417006131293,149.9252859551283L520.5711590183797,161.14024046181115L512.9892179434394,173.93476602577326L505.72319107995463,183.72810658090475L495.29802210191133,195.73284661622716L486.4524241811474,202.84091637398404L473.18402730000145,211.52855718902L465.28617201360527,218.16275562959288L455.4928314584737,228.903838819092L453.5973461897384,233.48459488520186Z" style="stroke: rgb(68, 68, 68); stroke-opacity: 1; stroke-width: 1px; opacity: 1;"/><path class="choroplethlocation" fill="rgb(49, 104, 142)" d="M373.98696490286306,301.7220645596666L382.83256282362703,303.45959272267373L384.41213388090637,305.82894930859266L387.5712759954649,309.93583405751883L389.782675475656,321.78261698711333L387.5712759954649,328.5747725334142L389.782675475656,339.94768414582495L392.94181759021444,339.78972704009703L396.100959704773,342.63295494319976L399.8919302422431,348.9512391723169L400.523758665155,360.32415078472764L396.7327881276846,362.06167894773483L394.2054744360378,368.22200607112393L388.20310441837654,362.6935073706465L387.5712759954649,356.5331802472574L389.46676126420016,352.5842526040592L389.15084705274404,348.9512391723169L385.6757907267297,346.7398396921259L383.14847703508286,347.5296252207655L378.09384965178936,343.42274047183946L373.35513647995145,341.0533838859205L376.1983643830541,332.99757149379616L379.04159228615686,329.83842937923765L377.1461070174216,322.57240251575297L379.04159228615686,315.46433275799626L380.6211633434359,313.09497617207734L378.4097638632452,305.6709922028648Z" style="stroke: rgb(68, 68, 68); stroke-opacity: 1; stroke-width: 1px; opacity: 1;"/><path class="choroplethlocation" fill="rgb(62, 73, 137)" d="M458.33605936157636,110.75192373460227L462.12702989904653,111.54170926324184L464.6543435906934,109.33030978305094L466.86574307088443,112.01558058042572L466.5498288594286,115.64859401216796L461.49520147613487,117.85999349235901L465.28617201360527,120.22935007827796L462.12702989904653,124.96806325011573L459.9156304188557,123.38849219283647L458.0201451501205,124.02032061574813L452.9655177668268,123.86236351002022L452.9655177668268,121.17709271264543L452.3336893439151,118.6497790209987L455.17691724701785,114.54289427207259Z" style="stroke: rgb(68, 68, 68); stroke-opacity: 1; stroke-width: 1px; opacity: 1;"/><path class="choroplethlocation" fill="rgb(68, 1, 84)" d="M354.08436958114424,242.01427859450993L354.4002837926001,245.3313778147965L356.2957690613353,247.38482018925947L356.61168327279114,250.22804809236217L354.4002837926001,252.12353336109737L350.92522746658574,256.70428942720724L347.76608535202723,259.86343154176575L343.9751148145568,260.1793457532216L343.65920060310094,249.5962196694505L341.44780112290994,245.6472920262523L346.8183427176595,246.437077554892L349.34565640930634,241.38245017159826Z" style="stroke: rgb(68, 68, 68); stroke-opacity: 1; stroke-width: 1px; opacity: 1;"/><path class="choroplethlocation" fill="rgb(72, 40, 120)" style="stroke: rgb(68, 68, 68); stroke-opacity: 1; stroke-width: 1px; opacity: 1;"/><path class="choroplethlocation" fill="rgb(181, 222, 43)" style="stroke: rgb(68, 68, 68); stroke-opacity: 1; stroke-width: 1px; opacity: 1;"/></g></g></g><g class="layer frontplot"><g class="scatterlayer"/></g></g></g><g class="funnelarealayer"/><g class="pielayer"/><g class="iciclelayer"/><g class="treemaplayer"/><g class="sunburstlayer"/><g class="glimages"/><defs id="topdefs-3468a3"><g class="clips"/></defs><g class="layer-above"><g class="imagelayer"/><g class="shapelayer"/></g><g class="infolayer"><g class="cbcoloraxis colorbar" transform="translate(0,25)"><rect class="cbbg" x="830" y="124" width="69.640625" height="248" style="fill: rgb(0, 0, 0); fill-opacity: 0; stroke: rgb(68, 68, 68); stroke-opacity: 1; stroke-width: 0;"/><g class="cbfills" transform="translate(0,155)"><rect class="cbfill gradient_filled" x="840" y="0" width="30" height="206" style="fill: url('#g3468a3-cbcoloraxis');"/></g><g class="cblines" transform="translate(0,155)"/><g class="cbaxis crisp" transform="translate(0,-25)"><g class="ycbcoloraxistick"><text text-anchor="start" x="872.9" y="4.199999999999999" transform="translate(0,386.49999999999994)" style="font-family: 'Open Sans', verdana, arial, sans-serif; font-size: 12px; fill: rgb(42, 63, 95); fill-opacity: 1; white-space: pre; opacity: 1;">0</text></g><g class="ycbcoloraxistick"><text text-anchor="start" x="872.9" y="4.199999999999999" style="font-family: 'Open Sans', verdana, arial, sans-serif; font-size: 12px; fill: rgb(42, 63, 95); fill-opacity: 1; white-space: pre; opacity: 1;" transform="translate(0,345.29999999999995)">0.2</text></g><g class="ycbcoloraxistick"><text text-anchor="start" x="872.9" y="4.199999999999999" style="font-family: 'Open Sans', verdana, arial, sans-serif; font-size: 12px; fill: rgb(42, 63, 95); fill-opacity: 1; white-space: pre; opacity: 1;" transform="translate(0,304.0999999999999)">0.4</text></g><g class="ycbcoloraxistick"><text text-anchor="start" x="872.9" y="4.199999999999999" style="font-family: 'Open Sans', verdana, arial, sans-serif; font-size: 12px; fill: rgb(42, 63, 95); fill-opacity: 1; white-space: pre; opacity: 1;" transform="translate(0,262.9)">0.6</text></g><g class="ycbcoloraxistick"><text text-anchor="start" x="872.9" y="4.199999999999999" style="font-family: 'Open Sans', verdana, arial, sans-serif; font-size: 12px; fill: rgb(42, 63, 95); fill-opacity: 1; white-space: pre; opacity: 1;" transform="translate(0,221.69999999999993)">0.8</text></g><g class="ycbcoloraxistick"><text text-anchor="start" x="872.9" y="4.199999999999999" style="font-family: 'Open Sans', verdana, arial, sans-serif; font-size: 12px; fill: rgb(42, 63, 95); fill-opacity: 1; white-space: pre; opacity: 1;" transform="translate(0,180.49999999999994)">1</text></g></g><g class="cbtitleunshift" transform="translate(0,-25)"><g class="cbtitle" transform=""><text class="ycbcoloraxistitle" x="840.28" y="172.00000000000003" text-anchor="start" style="font-family: 'Open Sans', verdana, arial, sans-serif; font-size: 14px; fill: rgb(42, 63, 95); opacity: 1; font-weight: normal; white-space: pre;">R</text></g></g><rect class="cboutline" x="840" y="156" width="30" height="206" style="stroke: rgb(68, 68, 68); stroke-opacity: 1; fill: none; stroke-width: 0;"/></g><g class="g-gtitle"><text class="gtitle" x="45" y="12.5" text-anchor="start" dy="0em" style="font-family: 'Open Sans', verdana, arial, sans-serif; font-size: 17px; fill: rgb(42, 63, 95); opacity: 1; font-weight: normal; white-space: pre;">Eastern Africa — Enclosure Strength (R)</text></g></g></svg>