<svg class="main-svg" xmlns="http://www.w3.org/2000/svg" xmlns:xlink="http://www.w3.org/1999/xlink" width="900" height="520" style="" viewBox="0 0 900 520"><rect x="0" y="0" width="900" height="520" style="fill: rgb(255, 255, 255); fill-opacity: 1;"/><defs id="defs-77c6aa"><g class="clips"><clipPath id="clip77c6aageo"><rect x="0" y="69.00176975882161" width="814" height="406.9964604823567"/></clipPath></g><g class="gradients"><linearGradient x1="0" x2="0" y1="1" y2="0" id="g77c6aa-cbcoloraxis"><stop offset="0%" stop-color="rgb(68, 1, 84)" stop-opacity="1"/><stop offset="11.111111%" stop-color="rgb(72, 40, 120)" stop-opacity="1"/><stop offset="22.222222%" stop-color="rgb(62, 73, 137)" stop-opacity="1"/><stop offset="33.333333%" stop-color="rgb(49, 104, 142)" stop-opacity="1"/><stop offset="44.444444%" stop-color="rgb(38, 130, 142)" stop-opacity="1"/><stop offset="55.555556%" stop-color="rgb(31, 158, 137)" stop-opacity="1"/><stop offset="66.666667%" stop-color="rgb(53, 183, 121)" stop-opacity="1"/><stop offset="77.777778%" stop-color="rgb(110, 206, 88)" stop-opacity="1"/><stop offset="88.888889%" stop-color="rgb(181, 222, 43)" stop-opacity="1"/><stop offset="100%" stop-color="rgb(253, 231, 37)" stop-opacity="1"/></linearGradient></g><g class="patterns"/></defs><g class="bglayer"/><g class="layer-below"><g class="imagelayer"/><g class="shapelayer"/></g><g class="cartesianlayer"/><g class="polarlayer"/><g class="smithlayer"/><g class="ternarylayer"/><g class="geolayer"><g class="geo geo" clip-path="url(#clip77c6aageo)"><g class="layer bg"><rect x="0" y="69.00176975882161" width="814" height="406.9964604823567" style="pointer-events: all; fill: rgb(255, 255, 255); fill-opacity: 1;"/></g><g class="layer backplot"><g class="choroplethlayer"><g class="trace choropleth"><path class="choroplethlocation" fill="rgb(68, 1, 84)" d="M405.53182695325035,452.2594374113595L397.0898319344427,448.9560480561737L397.0898319344427,440.33053140652186L401.8613943363777,435.55896900458686L413.2397354486841,432.8061445419321L419.11242763568106,432.98966617277574L421.3146872058047,436.84362042049247L416.9101680655574,441.4316611915839L414.34086523374623,447.30435337858086ZM107.85974172484322,205.97340881917523L107.12565520146865,200.10071663217826L114.0994771735277,197.53141380036732L104.92339563134499,179.72981560853287L125.11077502414656,175.69233972997222L130.24938068776913,173.49008015984856L137.5902459215152,155.13791707548307L157.7776253143174,158.62482806151257L163.28327423962682,153.85326565957746L164.0173607630014,143.7595759631766L172.45935578180956,142.84196780895826L180.1672642772433,136.0516674677429L184.2047401558036,135.13405931352492L186.77404298761482,142.29140291642722L195.21603800642296,147.61353021089315L209.89776847391525,151.46748445861004L216.8715904459743,159.72595784657443L213.20115782910102,171.6548638514119L216.8715904459743,176.05938299165985L228.98401808165525,177.7110776692527L242.56461876408542,179.17925071600183L254.6770463997669,185.60250779552985L261.2838251101384,186.70363758059165L265.6883442503864,196.06324075361795L271.9280796990704,202.11945457145868L282.93937754968977,201.93593294061492L304.22788672755354,204.13819251073886L317.44144414829657,202.85354109483325L327.71865547554154,204.32171414158233L342.76742920472066,210.56144959026665L355.2469001020893,210.37792795942318L359.65141924233717,213.68131731460892L371.3968036163312,208.17566838929923L387.91375039226,204.68875740326962L403.3295673831267,204.32171414158233L415.07495175712074,200.6512815247093L422.41581699086686,195.14563259939956L429.7566822246129,191.84224324421382L427.92146591617626,188.35533225818455L424.6180765609905,184.50137801046776L430.1237254863006,177.89459930009616L435.62937441161,178.81220745431455L446.27362900054186,180.83094539359467L456.5508403277868,175.50881809912875L471.96665731865335,171.47134222056843L479.3075225523997,164.8645635101969L486.64838778614575,161.92821741669832L501.33011825363843,160.46004436994895L509.40507001075906,161.74469578585456L510.50619979582126,158.07426316898153L501.33011825363843,150.9169195660789L493.2551664965173,147.61353021089315L485.18021473939666,151.46748445861004L475.27004667383926,149.8157897810171L469.3973544868423,151.10044119692276L466.82805165503095,147.0629653183624L474.168916888777,136.78575399111782L478.9404792907125,129.07784549568413L491.41995018808103,132.93179974340092L505.73463739388575,126.5085426638729L505.36759413219886,122.1040235236253L514.9107189360686,111.27624730384969L520.4163678613784,107.97285794866389L520.4163678613784,102.28368739251061L514.5436756743815,99.89790619154326L522.9856706931893,94.7593005279208L535.8321848522454,92.92408421948437L549.4127855346758,92.74056258864061L564.4615592638552,95.67690868213913L573.637640806038,99.53086292985597L579.8773762547225,109.80807425710054L583.5478088715952,114.2125933973482L587.2182414884687,120.4523288460324L590.8886741053415,130.36249691158974L608.87379392802,133.6658862667755L620.6191783020134,141.0067515005216L625.0236974422612,150.5498763043916L640.4395144331279,150.5498763043916L649.2485527136237,146.5124004258313L666.1325427512395,143.57605433233283L660.6268938259302,152.7521358745156L656.5894179473697,156.42256849138863L653.2860285921842,167.6173879728516L646.3122066201249,177.52755603840887L634.1997789844438,175.69233972997222L625.3907407039487,179.3627723468456L627.96004353576,187.98828899649726L626.4918704890104,200.10071663217826L621.3532648253885,200.28423826302202L621.3532648253885,205.42284392664453L614.746486115017,199.5501517396475L610.709010236456,205.23932229580066L594.9261499839016,209.64384143604832L596.3943230306513,214.96596873051453L587.5852847501556,214.59892546882696L582.8137223482206,211.47905774448498L575.8399003761622,218.63640134738762L564.8286025255428,224.14205027269702L556.3866075067344,230.56530735222503L542.0719203009293,233.68517507656702L534.7310550671832,238.45673747850225L523.7197572165643,241.20956194115695L529.2254061418739,236.43799953922206L527.0231465717502,232.40052366066146L535.0980983288708,225.6102233194464L529.5924494035607,220.28809602498052L520.7834111230655,223.95852864185355L509.03802674907166,230.93235061391232L502.7982913003875,237.53912932428392L492.8881232348301,238.08969421681496L487.7495175712077,242.86125661874985L493.2551664965173,249.6515569599652L501.33011825363843,251.30325163755793L501.6971615153253,255.8912924086493L509.7721132724462,258.82763850214775L521.150454384753,251.67029489924533L530.3265359269358,255.524249146962L536.9333146373074,255.8912924086493L538.4014876840565,261.2134197031152L524.0868004782512,264.14976579661374L519.3152380763165,269.6554147219234L509.40507001075906,274.61049875470206L504.26646434713666,281.7678423576046L515.277762197756,287.4570129137579L519.3152380763165,297.36718097931526L525.5549735250003,306.72678415234157L532.1617522353719,314.61821427861867L532.1617522353719,322.14260114320854L525.922016786688,324.8954256058633L528.1242763568116,330.401074531173L534.3640118054963,333.52094225551514L532.5287954970595,341.96293727432317L529.9594926652484,350.037889031444L524.4538437399389,350.9554971856622L516.7459352445051,361.9667950362815L508.6709834873845,375.3638740878682L499.1278586835142,387.47630172354945L485.18021473939666,396.8359048965759L470.8655275335914,405.4614215462276L459.4871864212849,406.56255133128957L453.24745097260086,411.1505921023808L449.5770183557276,407.84720274719507L444.07136943041814,412.9858084108173L429.7566822246129,417.94089244359617L419.11242763568106,419.592587121189L415.4419950188078,430.4203633409645L409.93634609349834,430.97092823349556L407.0000000000001,423.44654136890574L409.56930283181134,419.592587121189L395.98870214938063,416.2891977660032L391.21713974744574,417.94089244359617L380.93992842020094,415.3715896117849L375.80132275657843,411.1505921023808L377.6365390650152,405.27789991538395L368.0934142611453,403.4426836069474L363.3218518592099,399.5887293592306L354.5128135787147,405.0943782845403L344.6026455131573,406.19550806960217L336.5276937560367,406.19550806960217L331.0220448307273,408.7648109014134L325.8834391671049,410.23298394816265L327.35161221385397,421.79484669131284L321.84596328854457,421.6113250604692L321.11187676517,419.2255438595016L320.7448335034825,415.00454635009766L313.40396826973625,417.94089244359617L308.9994491294884,416.10567613515946L301.2915406340548,412.25172188744284L304.22788672755354,403.8097268686347L297.621108017182,401.7909889293545L295.41884844705834,392.43138575632815L284.40755059643885,394.08308043392105L285.87572364318794,381.97065279823977L295.41884844705834,373.5286577794317L295.7858917087454,365.08666276062365L295.41884844705834,357.1952326343465L291.0143293068105,354.809451433379L287.7109399516246,348.75323761553835L281.8382477646277,349.67084576975674L270.8269499140083,348.01915109216384L274.13033926919405,343.7981535827597L269.35877686725917,337.3748965032318L262.017911633513,341.7794156434795L253.5759166147048,339.21011281166835L241.83053224071088,345.8168915220399L232.65445069852802,353.34127838662977L224.2124556797204,354.6259298025354L219.80793653947254,351.8731053398805L214.66933087585014,351.5060620781932L207.3284656421039,349.3038025080693L201.8228167167945,351.8731053398805L194.84899474473545,359.3974922044704L194.11490822136088,351.3225404473496L187.8751727726769,353.5248000174734L176.12978839868285,352.6071918632551L164.38440402468893,350.22141066228767L156.3094522675683,345.6333698911962L148.234500510447,343.61463195191607L144.93111115526125,338.84306954998107L139.0584189682648,337.3748965032318L128.78120764102,330.76811779286027L120.70625588389925,327.6482500685181L116.30173674365136,330.0340312694857L102.35409279953382,322.8766876665831L92.07688147228885,316.45343058705515L89.50757864047767,305.25861110559225L96.84844387422436,306.5432625214979L97.21548713591125,301.4046568578756L92.81096799566404,296.08252956340965L93.9120977807255,287.82405617544515L82.90079993010613,275.89515017060756L66.38385315417719,271.6741526612036L63.44750706067896,263.9662441657701L55.739598565245615,259.19468176383504L53.90438225680896,256.2583356703366L52.43620921005987,250.38564348333972L52.80325247174716,246.53168923562288L46.5635170230629,244.1459080346554L43.26012766787716,245.24703781971726L40.690824836065815,235.7039130158472L43.62717092956444,233.3181318148798L42.1589978828149,230.93235061391232L51.70212268668507,226.1607882119772L59.042987920431415,224.14205027269702L69.68724250936299,225.6102233194464L73.72471838792393,219.0034446090749L86.57123254697945,217.90231482401276L90.2416651638527,213.86483894545245L106.39156867809413,208.359190020143Z" style="stroke: rgb(68, 68, 68); stroke-opacity: 1; stroke-width: 1px; opacity: 1;"/><path class="choroplethlocation" fill="rgb(53, 183, 121)" d="M735.8707624718285,238.2732158476585L726.6946809296456,248.550427174903L726.6946809296456,259.0111601329914L723.0242483127729,267.2696335209559L724.492421359522,272.22471755373454L719.3538156958996,279.56558278748076L706.5073015368439,284.33714518941576L688.5221817141653,284.8877100819467L673.8404512466732,296.6330944559406L666.8666292746148,292.59561857738026L666.4995860129271,285.07123171279034L648.8815094519363,287.2734912829141L636.7690818162552,292.0450536848492L625.0236974422612,292.2285753156928L635.3009087695061,299.7529621802827L628.3270867974469,317.0039954795863L621.7203080870754,321.40851461983385L616.9487456851407,317.3710387412735L619.5180485169517,308.19495719909077L612.9112698065802,305.25861110559225L608.87379392802,298.2847891335334L618.4169187318897,295.1649214091913L623.922567657199,288.74166432966337L634.1997789844438,283.41953703519744L641.5406442181902,276.44571506313866L661.7280236109922,273.5093689696401L672.739321461611,275.5281069089203L683.3835760505435,257.35946545539855L690.3573980226022,262.3145494881772L705.0391284900943,252.03733816093262L710.9118206770913,248.18338391321572L717.5185993874627,235.7039130158472L715.6833830790263,224.14205027269702L719.7208589575872,217.71879319316923L730.7321568082061,215.88357688473258L736.2378057335159,230.014742459694ZM763.7660503600637,189.4564620432464L771.1069155938097,185.23546453384228L773.3091751639339,196.613805646149L758.2604014347544,199.36663010880375L749.0843198925716,209.64384143604832L733.3014596400171,202.6700194639895L727.7958107147078,213.68131731460892L716.4174696024013,213.86483894545245L714.9492965556517,203.77114924905158L720.0879022192742,195.87971912277447L730.7321568082061,195.32915423024343L733.6685029017049,181.19798865528196L736.9718922568904,173.3065585290048L748.7172766308846,183.95081311793695L756.7922283880052,187.43772410396622ZM638.9713413863789,296.6330944559406L644.476990311689,290.39335900725627L650.3496824986854,291.67801042316194L654.7542016389332,287.4570129137579L662.0950668726794,289.65927248388175L663.563239919429,293.14618346991114L657.6905477324319,299.20239728775175L653.653071853871,295.899007932566L648.1474229285617,298.2847891335334L645.5781200967504,304.3410029513741L638.9713413863789,301.4046568578756Z" style="stroke: rgb(68, 68, 68); stroke-opacity: 1; stroke-width: 1px; opacity: 1;"/><path class="choroplethlocation" fill="rgb(49, 104, 142)" d="M575.8399003761622,252.95494631515083L576.5739868995367,251.85381653008898L580.9785060397841,252.22085979177626L585.0159819183442,247.63281902068502L592.3568471520911,247.2657757589974L596.3943230306513,246.53168923562288L597.8624960774004,244.1459080346554L606.6715343578956,256.07481403949294L609.2408371897069,262.6815927498644L609.2408371897069,274.4269771238584L605.5704045728341,280.1161476800117L596.3943230306513,281.95136398844824L588.3193712735301,286.1723614978523L579.143289731348,287.08996965207047L578.0421599462859,281.58432072676095L579.8773762547225,273.8764122313274L575.1058138527872,263.2321576423956L582.8137223482206,261.5804629648027Z" style="stroke: rgb(68, 68, 68); stroke-opacity: 1; stroke-width: 1px; opacity: 1;"/><path class="choroplethlocation" fill="rgb(31, 158, 137)" d="M184.2047401558036,135.13405931352492L194.84899474473545,133.2988430050882L214.3022876141631,124.67332635543653L229.7181046050298,119.71824232265783L238.527142885525,122.83811004699987L249.17139747445697,123.02163167784363L256.14521944651597,127.79319407977852L266.422430773761,128.1602373414658L281.1041612412531,130.72954017327703L291.0143293068105,123.7557182012182L286.9768534282501,117.69950438337764L297.2540647554945,107.05524979444556L308.63240586780137,111.27624730384969L318.17553067167114,112.5608987197553L329.9209150456652,115.13020155156653L332.12317461578886,122.83811004699987L346.4378618215941,127.059107556404L355.98098662546386,125.22389124796757L369.1945440462069,123.7557182012182L379.1047121117642,125.22389124796757L389.3819234390091,129.99545364990246L395.25461562600606,135.3175809443684L404.79774042987583,135.13405931352492L417.644254588932,136.78575399111782L427.1873793928017,134.39997279015006L440.4009368135449,132.5647564817137L455.4497105427246,125.4074128788111L461.68944599140906,126.5085426638729L466.82805165503095,129.99545364990246L478.9404792907125,129.07784549568413L474.168916888777,136.78575399111782L466.82805165503095,147.0629653183624L469.3973544868423,151.10044119692276L475.27004667383926,149.8157897810171L485.18021473939666,151.46748445861004L493.2551664965173,147.61353021089315L501.33011825363843,150.9169195660789L510.50619979582126,158.07426316898153L509.40507001075906,161.74469578585456L501.33011825363843,160.46004436994895L486.64838778614575,161.92821741669832L479.3075225523997,164.8645635101969L471.96665731865335,171.47134222056843L456.5508403277868,175.50881809912875L446.27362900054186,180.83094539359467L435.62937441161,178.81220745431455L430.1237254863006,177.89459930009616L424.6180765609905,184.50137801046776L427.92146591617626,188.35533225818455L429.7566822246129,191.84224324421382L422.41581699086686,195.14563259939956L415.07495175712074,200.6512815247093L403.3295673831267,204.32171414158233L387.91375039226,204.68875740326962L371.3968036163312,208.17566838929923L359.65141924233717,213.68131731460892L355.2469001020893,210.37792795942318L342.76742920472066,210.56144959026665L327.71865547554154,204.32171414158233L317.44144414829657,202.85354109483325L304.22788672755354,204.13819251073886L282.93937754968977,201.93593294061492L271.9280796990704,202.11945457145868L265.6883442503864,196.06324075361795L261.2838251101384,186.70363758059165L254.6770463997669,185.60250779552985L242.56461876408542,179.17925071600183L228.98401808165525,177.7110776692527L216.8715904459743,176.05938299165985L213.20115782910102,171.6548638514119L216.8715904459743,159.72595784657443L209.89776847391525,151.46748445861004L195.21603800642296,147.61353021089315L186.77404298761482,142.29140291642722Z" style="stroke: rgb(68, 68, 68); stroke-opacity: 1; stroke-width: 1px; opacity: 1;"/></g></g></g><g class="layer frontplot"><g class="scatterlayer"/></g></g></g><g class="funnelarealayer"/><g class="pielayer"/><g class="iciclelayer"/><g class="treemaplayer"/><g class="sunburstlayer"/><g class="glimages"/><defs id="topdefs-77c6aa"><g class="clips"/></defs><g class="layer-above"><g class="imagelayer"/><g class="shapelayer"/></g><g class="infolayer"><g class="cbcoloraxis colorbar" transform="translate(0,25)"><rect class="cbbg" x="830" y="124" width="69.640625" height="248" style="fill: rgb(0, 0, 0); fill-opacity: 0; stroke: rgb(68, 68, 68); stroke-opacity: 1; stroke-width: 0;"/><g class="cbfills" transform="translate(0,155)"><rect class="cbfill gradient_filled" x="840" y="0" width="30" height="206" style="fill: url('#g77c6aa-cbcoloraxis');"/></g><g class="cblines" transform="translate(0,155)"/><g class="cbaxis crisp" transform="translate(0,-25)"><g class="ycbcoloraxistick"><text text-anchor="start" x="872.9" y="4.199999999999999" transform="translate(0,386.49999999999994)" style="font-family: 'Open Sans', verdana, arial, sans-serif; font-size: 12px; fill: rgb(42, 63, 95); fill-opacity: 1; white-space: pre; opacity: 1;">0</text></g><g class="ycbcoloraxistick"><text text-anchor="start" x="872.9" y="4.199999999999999" style="font-family: 'Open Sans', verdana, arial, sans-serif; font-size: 12px; fill: rgb(42, 63, 95); fill-opacity: 1; white-space: pre; opacity: 1;" transform="translate(0,345.29999999999995)">0.2</text></g><g class="ycbcoloraxistick"><text text-anchor="start" x="872.9" y="4.199999999999999" style="font-family: 'Open Sans', verdana, arial, sans-serif; font-size: 12px; fill: rgb(42, 63, 95); fill-opacity: 1; white-space: pre; opacity: 1;" transform="translate(0,304.0999999999999)">0.4</text></g><g class="ycbcoloraxistick"><text text-anchor="start" x="872.9" y="4.199999999999999" style="font-family: 'Open Sans', verdana, arial, sans-serif; font-size: 12px; fill: rgb(42, 63, 95); fill-opacity: 1; white-space: pre; opacity: 1;" transform="translate(0,262.9)">0.6</text></g><g class="ycbcoloraxistick"><text text-anchor="start" x="872.9" y="4.199999999999999" style="font-family: 'Open Sans', verdana, arial, sans-serif; font-size: 12px; fill: rgb(42, 63, 95); fill-opacity: 1; white-space: pre; opacity: 1;" transform="translate(0,221.69999999999993)">0.8</text></g><g class="ycbcoloraxistick"><text text-anchor="start" x="872.9" y="4.199999999999999" style="font-family: 'Open Sans', verdana, arial, sans-serif; font-size: 12px; fill: rgb(42, 63, 95); fill-opacity: 1; white-space: pre; opacity: 1;" transform="translate(0,180.49999999999994)">1</text></g></g><g class="cbtitleunshift" transform="translate(0,-25)"><g class="cbtitle" transform=""><text class="ycbcoloraxistitle" x="840.28" y="172.00000000000003" text-anchor="start" style="font-family: 'Open Sans', verdana, arial, sans-serif; font-size: 14px; fill: rgb(42, 63, 95); opacity: 1; font-weight: normal; white-space: pre;">R</text></g></g><rect class="cboutline" x="840" y="156" width="30" height="206" style="stroke: rgb(68, 68, 68); stroke-opacity: 1; fill: none; stroke-width: 0;"/></g><g class="g-gtitle"><text class="gtitle" x="45" y="12.5" text-anchor="start" dy="0em" style="font-family: 'Open Sans', verdana, arial, sans-serif; font-size: 17px; fill: rgb(42, 63, 95); opacity: 1; font-weight: normal; white-space: pre;">Eastern Asia — Enclosure Strength (R)</text></g></g></svg>