<svg class="main-svg" xmlns="http://www.w3.org/2000/svg" xmlns:xlink="http://www.w3.org/1999/xlink" width="900" height="520" style="" viewBox="0 0 900 520"><rect x="0" y="0" width="900" height="520" style="fill: rgb(255, 255, 255); fill-opacity: 1;"/><defs id="defs-a92bd8"><g class="clips"><clipPath id="clipa92bd8geo"><rect x="0" y="69.00113056183645" width="814" height="406.99773887632705"/></clipPath></g><g class="gradients"><linearGradient x1="0" x2="0" y1="1" y2="0" id="ga92bd8-cbcoloraxis"><stop offset="0%" stop-color="rgb(68, 1, 84)" stop-opacity="1"/><stop offset="11.111111%" stop-color="rgb(72, 40, 120)" stop-opacity="1"/><stop offset="22.222222%" stop-color="rgb(62, 73, 137)" stop-opacity="1"/><stop offset="33.333333%" stop-color="rgb(49, 104, 142)" stop-opacity="1"/><stop offset="44.444444%" stop-color="rgb(38, 130, 142)" stop-opacity="1"/><stop offset="55.555556%" stop-color="rgb(31, 158, 137)" stop-opacity="1"/><stop offset="66.666667%" stop-color="rgb(53, 183, 121)" stop-opacity="1"/><stop offset="77.777778%" stop-color="rgb(110, 206, 88)" stop-opacity="1"/><stop offset="88.888889%" stop-color="rgb(181, 222, 43)" stop-opacity="1"/><stop offset="100%" stop-color="rgb(253, 231, 37)" stop-opacity="1"/></linearGradient></g><g class="patterns"/></defs><g class="bglayer"/><g class="layer-below"><g class="imagelayer"/><g class="shapelayer"/></g><g class="cartesianlayer"/><g class="polarlayer"/><g class="smithlayer"/><g class="ternarylayer"/><g class="geolayer"><g class="geo geo" clip-path="url(#clipa92bd8geo)"><g class="layer bg"><rect x="0" y="69.00113056183645" width="814" height="406.99773887632705" style="pointer-events: all; fill: rgb(255, 255, 255); fill-opacity: 1;"/></g><g class="layer backplot"><g class="choroplethlayer"><g class="trace choropleth"><path class="choroplethlocation" fill="rgb(49, 104, 142)" d="M725.8349834983499,254.8954895489549L729.7425742574256,256.44224422442244L733.8943894389439,257.7447744774477L735.4411441144114,258.88448844884493L736.7436743674366,260.02420242024203L737.0693069306931,261.3674367436744L740.8140814081407,262.7513751375138L741.3839383938393,263.972497249725L739.3487348734873,264.21672167216724L739.8371837183718,265.72277227722776L741.8723872387238,267.1881188118812L743.3377337733773,269.5896589658966L744.5588558855886,269.50825082508254L744.4774477447745,270.5258525852585L746.2684268426842,270.8921892189219L745.5357535753574,271.33993399339937L747.9779977997799,272.2761276127613L747.7337733773377,272.9273927392739L746.2684268426842,273.0902090209021L745.6985698569856,272.52035203520353L743.7447744774477,272.2761276127613L741.4653465346535,271.9097909790979L739.6743674367436,270.4851485148515L738.3718371837183,269.22332233223324L737.2321232123213,267.2695269526953L734.3014301430143,266.25192519251925L732.3476347634762,266.9031903190319L730.963696369637,267.6765676567657L731.2893289328933,269.34543454345436L729.4983498349834,270.11881188118815L728.1958195819582,269.7117711771177L725.9163916391639,269.6303630363036L725.8349834983499,262.2629262926293ZM752.1298129812981,257.2970297029703L753.025302530253,258.029702970297L753.2695269526952,259.1694169416942L752.5368536853684,259.7799779977998L752.1298129812981,258.43674367436745L751.6413641364136,257.5819581958196L750.5830583058306,256.84928492849286L749.2805280528053,255.87238723872386L747.6523652365236,255.22112211221122L748.3036303630362,254.65126512651267L749.5247524752475,255.3025302530253L750.2574257425742,255.7909790979098L751.2343234323432,256.3201320132014ZM749.117711771177,262.22222222222223L747.8965896589658,262.7513751375138L746.6754675467546,263.2805280528053L745.5357535753574,263.2805280528053L743.6633663366338,262.62926292629265L742.3608360836083,262.01870187018704L742.5236523652366,261.3267326732673L744.5588558855886,261.6523652365237L745.7799779977997,261.4488448844885L746.1870187018701,260.3905390539054L746.5126512651265,260.30913091309134L746.6754675467546,261.53025302530256L747.9779977997799,261.3674367436744L748.6292629262925,260.5940594059406L749.9317931793178,259.7799779977998L749.6061606160615,258.43674367436745L750.990099009901,258.3960396039604L751.4785478547853,258.76237623762376L751.3971397139713,260.02420242024203L750.6644664466446,261.40814081408143L749.4433443344333,261.57095709570956ZM756.9328932893288,261.0825082508251L757.5841584158416,261.6116611661166L758.7238723872385,263.036303630363L759.7821782178218,263.8096809680968L759.4565456545654,264.4202420242024L758.8052805280528,264.66446644664467L757.8283828382837,263.8096809680968L756.8514851485149,262.34433443344335L756.3630363036302,260.63476347634764L756.6886688668867,260.43124312431246Z" style="stroke: rgb(68, 68, 68); stroke-opacity: 1; stroke-width: 1px; opacity: 1;"/><path class="choroplethlocation" fill="rgb(31, 158, 137)" d="M809.7667766776676,288.5984598459846L810.3366336633662,288.23212321232126L811.0693069306931,288.8833883388339L810.7436743674367,290.0638063806381L809.3597359735973,290.3487348734874L808.057205720572,290.10451045104514L807.8943894389438,289.0869086908691L808.7084708470846,288.3135313531353ZM813.9999999999999,286.4413031883148L812.5346534653464,287.01100110011L811.1507150715072,287.4994499449945L810.8250825082507,286.6446644664466L811.9647964796478,286.1562156215622L812.6974697469745,286.03410341034106L813.9999999999999,285.34213421342133L813.9999999999999,285.3421342135914L813.9999999999999,286.4413031883148ZM1.1368683772161603e-13,285.3421342135914L0.00040700000010929216,285.34213421342133L1.1368683772161603e-13,285.34213421342133L0.4884488448846014,285.2200220022002L0.16281628162823836,286.3190319031903L1.1368683772161603e-13,286.44114411441143L1.1368683772161603e-13,286.4413031883148L1.1368683772161603e-13,285.3421342135914Z" style="stroke: rgb(68, 68, 68); stroke-opacity: 1; stroke-width: 1px; opacity: 1;"/><path class="choroplethlocation" fill="rgb(49, 104, 142)" d="M773.5401540154014,272.7238723872387L774.1914191419141,273.4972497249725L772.6446644664467,273.4972497249725L771.7491749174917,272.0726072607261L773.133113311331,272.64246424642465ZM772.5632563256324,270.7293729372937L772.2376237623762,271.13641364136413L770.5280528052805,269.1826182618262L770.12101210121,267.83938393839384L770.8536853685368,267.83938393839384L771.6677667766776,269.6303630363036ZM770.6908690869086,271.33993399339937L769.7953795379537,271.3806380638064L768.4114411441144,271.1771177117712L768.004400440044,270.8107810781078L768.0858085808579,269.9152915291529L769.6325632563255,270.2816281628163L770.3652365236524,270.7293729372937ZM768.004400440044,267.14741474147417L768.4928492849284,267.8800880088009L768.5742574257426,268.3278327832783L766.7832783278327,267.35093509350935L765.5621562156215,266.53685368536856L764.7480748074807,265.8041804180418L765.0737073707371,265.5599559955996L766.13201320132,266.0891089108911ZM762.3058305830583,264.9086908690869L763.2013201320132,265.64136413641364L762.7942794279427,265.76347634763476L761.7359735973597,265.2343234323432L760.8404840484047,264.2981298129813L760.9218921892189,263.93179317931794Z" style="stroke: rgb(68, 68, 68); stroke-opacity: 1; stroke-width: 1px; opacity: 1;"/><path class="choroplethlocation" fill="rgb(31, 158, 137)" d="M785.1001100110011,284.93509350935096L786.4840484048405,286.23762376237624L785.7513751375136,286.56325632563255L785.018701870187,285.5456545654565ZM784.1232123212321,284.4466446644665L783.7975797579758,283.83608360836087L783.7975797579758,282.0858085808581L784.8558855885587,282.77777777777777L785.1815181518151,284.6094609460946L784.6116611661165,284.32453245324535Z" style="stroke: rgb(68, 68, 68); stroke-opacity: 1; stroke-width: 1px; opacity: 1;"/></g></g></g><g class="layer frontplot"><g class="scatterlayer"/></g></g></g><g class="funnelarealayer"/><g class="pielayer"/><g class="iciclelayer"/><g class="treemaplayer"/><g class="sunburstlayer"/><g class="glimages"/><defs id="topdefs-a92bd8"><g class="clips"/></defs><g class="layer-above"><g class="imagelayer"/><g class="shapelayer"/></g><g class="infolayer"><g class="cbcoloraxis colorbar" transform="translate(0,25)"><rect class="cbbg" x="830" y="124" width="69.640625" height="248" style="fill: rgb(0, 0, 0); fill-opacity: 0; stroke: rgb(68, 68, 68); stroke-opacity: 1; stroke-width: 0;"/><g class="cbfills" transform="translate(0,155)"><rect class="cbfill gradient_filled" x="840" y="0" width="30" height="206" style="fill: url('#ga92bd8-cbcoloraxis');"/></g><g class="cblines" transform="translate(0,155)"/><g class="cbaxis crisp" transform="translate(0,-25)"><g class="ycbcoloraxistick"><text text-anchor="start" x="872.9" y="4.199999999999999" transform="translate(0,386.49999999999994)" style="font-family: 'Open Sans', verdana, arial, sans-serif; font-size: 12px; fill: rgb(42, 63, 95); fill-opacity: 1; white-space: pre; opacity: 1;">0</text></g><g class="ycbcoloraxistick"><text text-anchor="start" x="872.9" y="4.199999999999999" style="font-family: 'Open Sans', verdana, arial, sans-serif; font-size: 12px; fill: rgb(42, 63, 95); fill-opacity: 1; white-space: pre; opacity: 1;" transform="translate(0,345.29999999999995)">0.2</text></g><g class="ycbcoloraxistick"><text text-anchor="start" x="872.9" y="4.199999999999999" style="font-family: 'Open Sans', verdana, arial, sans-serif; font-size: 12px; fill: rgb(42, 63, 95); fill-opacity: 1; white-space: pre; opacity: 1;" transform="translate(0,304.0999999999999)">0.4</text></g><g class="ycbcoloraxistick"><text text-anchor="start" x="872.9" y="4.199999999999999" style="font-family: 'Open Sans', verdana, arial, sans-serif; font-size: 12px; fill: rgb(42, 63, 95); fill-opacity: 1; white-space: pre; opacity: 1;" transform="translate(0,262.9)">0.6</text></g><g class="ycbcoloraxistick"><text text-anchor="start" x="872.9" y="4.199999999999999" style="font-family: 'Open Sans', verdana, arial, sans-serif; font-size: 12px; fill: rgb(42, 63, 95); fill-opacity: 1; white-space: pre; opacity: 1;" transform="translate(0,221.69999999999993)">0.8</text></g><g class="ycbcoloraxistick"><text text-anchor="start" x="872.9" y="4.199999999999999" style="font-family: 'Open Sans', verdana, arial, sans-serif; font-size: 12px; fill: rgb(42, 63, 95); fill-opacity: 1; white-space: pre; opacity: 1;" transform="translate(0,180.49999999999994)">1</text></g></g><g class="cbtitleunshift" transform="translate(0,-25)"><g class="cbtitle" transform=""><text class="ycbcoloraxistitle" x="840.28" y="172.00000000000003" text-anchor="start" style="font-family: 'Open Sans', verdana, arial, sans-serif; font-size: 14px; fill: rgb(42, 63, 95); opacity: 1; font-weight: normal; white-space: pre;">R</text></g></g><rect class="cboutline" x="840" y="156" width="30" height="206" style="stroke: rgb(68, 68, 68); stroke-opacity: 1; fill: none; stroke-width: 0;"/></g><g class="g-gtitle"><text class="gtitle" x="45" y="12.5" text-anchor="start" dy="0em" style="font-family: 'Open Sans', verdana, arial, sans-serif; font-size: 17px; fill: rgb(42, 63, 95); opacity: 1; font-weight: normal; white-space: pre;">Melanesia — Enclosure Strength (R)</text></g></g></svg>