<svg class="main-svg" xmlns="http://www.w3.org/2000/svg" xmlns:xlink="http://www.w3.org/1999/xlink" width="900" height="520" style="" viewBox="0 0 900 520"><rect x="0" y="0" width="900" height="520" style="fill: rgb(255, 255, 255); fill-opacity: 1;"/><defs id="defs-186c3a"><g class="clips"><clipPath id="clip186c3ageo"><rect x="0" y="69.00176674820005" width="814" height="406.9964665035999"/></clipPath></g><g class="gradients"><linearGradient x1="0" x2="0" y1="1" y2="0" id="g186c3a-cbcoloraxis"><stop offset="0%" stop-color="rgb(68, 1, 84)" stop-opacity="1"/><stop offset="11.111111%" stop-color="rgb(72, 40, 120)" stop-opacity="1"/><stop offset="22.222222%" stop-color="rgb(62, 73, 137)" stop-opacity="1"/><stop offset="33.333333%" stop-color="rgb(49, 104, 142)" stop-opacity="1"/><stop offset="44.444444%" stop-color="rgb(38, 130, 142)" stop-opacity="1"/><stop offset="55.555556%" stop-color="rgb(31, 158, 137)" stop-opacity="1"/><stop offset="66.666667%" stop-color="rgb(53, 183, 121)" stop-opacity="1"/><stop offset="77.777778%" stop-color="rgb(110, 206, 88)" stop-opacity="1"/><stop offset="88.888889%" stop-color="rgb(181, 222, 43)" stop-opacity="1"/><stop offset="100%" stop-color="rgb(253, 231, 37)" stop-opacity="1"/></linearGradient></g><g class="patterns"/></defs><g class="bglayer"/><g class="layer-below"><g class="imagelayer"/><g class="shapelayer"/></g><g class="cartesianlayer"/><g class="polarlayer"/><g class="smithlayer"/><g class="ternarylayer"/><g class="geolayer"><g class="geo geo" clip-path="url(#clip186c3ageo)"><g class="layer bg"><rect x="0" y="69.00176674820005" width="814" height="406.9964665035999" style="pointer-events: all; fill: rgb(255, 255, 255); fill-opacity: 1;"/></g><g class="layer backplot"><g class="choroplethlayer"><g class="trace choropleth"><path class="choroplethlocation" fill="rgb(49, 104, 142)" d="M346.3997166014069,339.0805745234542L343.210228001481,340.9942676834099L341.93443256151073,343.22690970335793L341.6154837015182,347.0542960232691L339.38284168156997,348.0111426032468L336.83125080162915,341.3132165434024L340.6586371215402,337.48583022349123L343.210228001481,336.0505603535246ZM340.6586371215402,350.72220791318387L344.1670745814587,349.6058869032099L346.7186654613995,349.7653613332062L349.90815406132543,348.6490403232321L376.0619605807184,348.80851475322834L378.2946026006666,355.3469663830766L380.84619348060716,360.76909700295073L382.7598866405628,363.6396367428841L386.26832410048127,368.26439521277666L392.00940358034796,367.46702306279514L394.8799433202813,366.1912276228247L399.9831250801629,367.46702306279514L401.2589205201334,365.2343810428471L403.49156254008136,360.1311992829655L408.9136931599555,359.8122504229729L409.55159087994093,358.21750612300997L414.0168749198371,358.21750612300997L413.0600283398594,361.4069947229359L423.9042895796077,361.4069947229359L424.2232384396002,366.82912534281L425.8179827395631,370.3375628027285L424.5421872995928,375.60021899260636L425.1800850195779,381.18182404247676L428.0506247595113,384.3713126424027L427.73167589951873,394.8966250221584L429.9643179194669,394.09925287217686L433.791704239378,394.41820173216945L439.21383485925213,392.98293186220275L443.3601700391558,393.4613551521917L444.3170166191337,396.3318948921251L443.0412211791632,400.6377045020251L444.63596547912624,404.78403968192885L443.3601700391558,408.1330027118511L444.3170166191337,411.16301688178066L425.8179827395631,411.0035424517844L425.1800850195779,439.2305165611291L431.2401133594372,446.40686591096244L436.9811928393039,451.98847096083284L420.7148009796815,455.6563828507476L399.3452273601778,454.38058741077737L393.2851990203185,450.0747778008773L357.2439778411552,450.3937266608699L355.96818240118495,451.031624380855L350.5460517813108,447.0447636309476L344.8049723014441,446.8852892009513L339.7017905415625,448.32055907091797L335.2365065016661,450.0747778008773L334.5986087816809,444.4931727510069L335.8744042216515,436.6789256811883L338.7449439615848,428.54572975137705L339.38284168156997,424.718343431466L342.2533814215033,416.74462193165107L344.1670745814587,413.0767100417362L349.27025634134026,407.3356305618695L352.1407960812736,403.34876981196214L353.0976426612516,396.8103181821139L352.778693801259,391.86661085222863L349.90815406132543,388.67712225230275L347.67551204137743,383.2549916324286L345.4428700214292,377.9923354425508L346.0807677414144,376.0786422825952L348.63235862135514,372.5702048226767L346.0807677414144,363.95858560287667L344.1670745814587,358.0580316930137L339.7017905415625,352.47642664314327Z" style="stroke: rgb(68, 68, 68); stroke-opacity: 1; stroke-width: 1px; opacity: 1;"/><path class="choroplethlocation" fill="rgb(72, 40, 120)" d="M491.202499038045,336.5289836435134L492.7972433380081,344.8216540033209L492.159345618023,349.2869380432172L493.7540899179858,354.5495942330951L498.8572716778674,359.4933015629804L503.6415045777564,370.6565116627211L500.1330671178379,369.69966508274337L488.33195929811166,371.29440938270636L486.0993172781637,372.2512559626841L483.54772639822295,377.9923354425508L485.46141955817836,381.8197217624619L483.8666752582155,392.3450341422176L482.90982867823755,401.2756022220102L485.1424706981858,402.8703465219732L491.202499038045,406.21930955189555L493.7540899179858,404.62456525193244L494.39198763797094,414.1930310517103L487.69406157812654,414.033556621714L484.18562411820807,409.24932372182514L480.99613551828213,405.42193740191397L473.9792605984449,404.1461419619436L472.0655674384895,399.521383492051L466.6434368186154,402.3919232319844L459.62656189877816,401.1161277920139L456.4370732988522,397.1292670421065L451.0149426789781,396.3318948921251L446.86860749907447,396.4913693221214L446.2307097790891,393.7803040121843L443.3601700391558,393.4613551521917L439.21383485925213,392.98293186220275L433.791704239378,394.41820173216945L429.9643179194669,394.09925287217686L427.73167589951873,394.8966250221584L428.0506247595113,384.3713126424027L425.1800850195779,381.18182404247676L424.5421872995928,375.60021899260636L425.8179827395631,370.3375628027285L424.2232384396002,366.82912534281L423.9042895796077,361.4069947229359L413.0600283398594,361.4069947229359L414.0168749198371,358.21750612300997L409.55159087994093,358.21750612300997L408.9136931599555,359.8122504229729L403.49156254008136,360.1311992829655L401.2589205201334,365.2343810428471L399.9831250801629,367.46702306279514L394.8799433202813,366.1912276228247L392.00940358034796,367.46702306279514L386.26832410048127,368.26439521277666L382.7598866405628,363.6396367428841L380.84619348060716,360.76909700295073L378.2946026006666,355.3469663830766L376.0619605807184,348.80851475322834L349.90815406132543,348.6490403232321L346.7186654613995,349.7653613332062L344.1670745814587,349.6058869032099L340.6586371215402,350.72220791318387L339.38284168156997,348.0111426032468L341.6154837015182,347.0542960232691L341.93443256151073,343.22690970335793L343.210228001481,340.9942676834099L346.3997166014069,339.0805745234542L348.9513074813477,340.03742110343205L351.8218472212811,336.5289836435134L356.60608012117007,336.6884580735098L357.2439778411552,339.24004895345047L360.75241530107365,340.8347932534134L365.85559706095523,335.253188203543L370.9587788208368,330.947378593643L373.19142084078504,328.07683885370966L372.87247198079245,320.74101507387996L376.6998583007035,312.1293958540799L380.84619348060716,307.6641118141836L386.58727296047385,303.3583022042836L387.5441195404518,300.4877624643502L387.8630684004444,297.2982738644243L389.4578127004072,294.1087852644983L388.8199149804221,289.1650779346131L390.0957104203926,281.3508308647945L391.69045472035543,275.7692258149242L394.2420456002962,270.98499291503515L394.8799433202813,265.72233672515733L395.8367899002593,259.50283395530175L399.0262785001852,255.03754991540546L403.81051140007423,252.16701017547211L411.14633517990376,255.19702434540173L416.88741465977046,258.38651294532764L423.2663918596223,259.34335952530546L429.9643179194669,261.09757825526475L432.5159087994077,255.67544763539058L433.791704239378,255.03754991540546L437.9380394192819,255.83492206538688L447.8254540790522,251.52911245548685L451.0149426789781,253.28333118544623L453.88548241891147,253.12385675544994L455.4802267188745,250.8912147355017L458.66971531880046,250.2533170155166L465.36764137864486,251.050689165498L471.10872085851156,251.36963802549056L473.9792605984449,250.41279144551285L479.4013912183191,257.7486152253425L483.22877753823036,258.7054618053202L485.7803684181709,257.2701919353535L489.60775473808224,257.9080896553388L494.71093649796376,255.99439649538328L496.6246296579192,259.82178281529434L504.5983511577341,265.72233672515733L503.960453437749,276.08817467491673L507.46889089766745,277.20449568489084L504.5983511577341,280.3939842848168L501.40886255780816,282.78610073476113L497.90042509788964,287.2513847746576L495.98673193793405,291.39771995456135L495.66778307794146,298.5740693043947L493.4351410579933,301.92303233431693L493.4351410579933,308.62095839416145L490.8835501780524,311.0130748441058L490.5646013180599,316.43520546397997L489.28880587808965,317.0731031839652L488.65090815810424,321.8573360838541L490.8835501780524,325.84419683376154Z" style="stroke: rgb(68, 68, 68); stroke-opacity: 1; stroke-width: 1px; opacity: 1;"/><path class="choroplethlocation" fill="rgb(72, 40, 120)" d="M359.79556872109595,182.79563312708268L363.3040061810145,188.53671260694938L363.9419039009996,194.43726651681237L363.62295504100706,200.17834599667907L368.40718794089605,208.3115419264903L363.62295504100706,208.152067496494L361.07136416106624,208.78996521647915L356.92502898116265,207.9925930664977L355.011335821207,212.13892824640146L360.11451758108853,217.2421100062829L364.2608527609924,218.83685430624587L365.2176993409701,222.50476619616074L368.08823908090346,228.56479453602003L366.81244364093294,230.95691098596453L362.34715960103676,240.04695349575343L360.11451758108853,241.6416977957164L359.4766198611034,248.4990982855572L360.4334664410811,252.16701017547211L359.79556872109595,254.87807548540917L363.9419039009996,259.50283395530175L364.579801620985,262.6923225552277L367.7692902209109,267.157606595124L371.9156254008145,270.02814633505733L372.2345742608071,274.0150070849648L373.19142084078504,276.72607239490185L372.55352312079964,281.5103052947909L365.53664820096265,279.27766327484267L358.5197732811257,277.04502125489444L347.3565631813849,276.72607239490185L346.0807677414144,276.247649104913L340.9775859815328,277.36397011488714L335.55545536165863,276.08817467491673L331.40912018175504,276.72607239490185L317.05642148208824,276.5665979649056L318.33221692205854,269.5497230450685L314.82377946214007,263.6491691352055L310.6774442822364,262.21389926523887L308.7637511222808,258.2270385153314L306.53110910233255,256.951243075361L306.85005796232514,254.3996521954202L309.08269998227337,248.18014942556465L313.2290351621772,239.72800463576087L315.7806260421178,239.5685302057646L321.2027566619919,234.30587401588673L324.3922452619178,234.30587401588673L329.4954270217994,237.81431147580534L335.55545536165863,234.943771735872L336.19335308164403,231.2758598459571L338.425995101592,227.60794795604232L339.7017905415625,223.1426639161459L344.4860234414515,219.4747520262311L346.0807677414144,213.25524925637546L347.99446090137,211.34155609641994L349.27025634134026,206.71679762652732L351.5028983612885,201.1351925766569L359.1576710011108,194.27779208681608L359.4766198611034,191.24777791688646L360.4334664410811,189.6530336169235L356.92502898116265,186.14459615700488L357.2439778411552,183.27405641707153Z" style="stroke: rgb(68, 68, 68); stroke-opacity: 1; stroke-width: 1px; opacity: 1;"/><path class="choroplethlocation" fill="rgb(68, 1, 84)" d="M442.7222723191706,123.3116707384637L443.0412211791632,158.39604533764918L435.3864485393411,157.75814761766395L431.2401133594372,164.29659924751218L429.007471339489,169.87820429738258L430.9211644994446,171.9513718873344L428.0506247595113,174.66243719727146L429.007471339489,178.3303490871864L426.774829319541,181.99826097710115L425.8179827395631,185.18774957702718L429.007471339489,184.7093262870382L430.6022156394521,188.05828931696055L430.9211644994446,193.32094550683826L434.11065309937055,195.87253638677905L434.11065309937055,198.10517840672728L428.36957361950385,199.54044827669395L423.9042895796077,203.2083601666087L417.5253123797556,212.77682596638658L409.2326420199481,216.92316114629034L400.62102280014807,216.28526342630522L398.06943192020725,217.08263557628663L399.0262785001852,220.27212417621254L394.2420456002962,223.30213834614216L390.41465928038514,226.8105758060608L379.57039804063686,230.159538835983L377.33775602068863,228.24584567602744L375.7430117207258,228.08637124603118L374.14826742076275,230.31901326597927L366.81244364093294,230.95691098596453L368.08823908090346,228.56479453602003L365.2176993409701,222.50476619616074L364.2608527609924,218.83685430624587L360.11451758108853,217.2421100062829L355.011335821207,212.13892824640146L356.92502898116265,207.9925930664977L361.07136416106624,208.78996521647915L363.62295504100706,208.152067496494L368.40718794089605,208.3115419264903L363.62295504100706,200.17834599667907L363.9419039009996,194.43726651681237L363.3040061810145,188.53671260694938L359.79556872109595,182.79563312708268L360.75241530107365,178.64929794717892L355.011335821207,178.48982351718266L355.011335821207,172.74874403731596L351.5028983612885,169.39978100739364L355.33028468119954,157.75814761766395L366.4934947809404,149.46547725785643L366.81244364093294,137.98331829812307L370.3208811008517,119.96270770854153L372.2345742608071,116.13532138863033L368.72613680088864,113.10530721870072L368.40718794089605,110.23476747876734L365.2176993409701,108.00212545881914L362.9850573210219,94.12785004914122L371.9156254008145,89.34361714925237L389.73918791140005,97.68675172167383L407.3189488599927,106.2479067288599L425.13215315070465,114.67833193825348Z" style="stroke: rgb(68, 68, 68); stroke-opacity: 1; stroke-width: 1px; opacity: 1;"/><path class="choroplethlocation" fill="rgb(68, 1, 84)" d="M394.8799433202813,265.72233672515733L394.2420456002962,270.98499291503515L391.69045472035543,275.7692258149242L390.0957104203926,281.3508308647945L388.8199149804221,289.1650779346131L389.4578127004072,294.1087852644983L387.8630684004444,297.2982738644243L387.5441195404518,300.4877624643502L386.58727296047385,303.3583022042836L380.84619348060716,307.6641118141836L376.6998583007035,312.1293958540799L372.87247198079245,320.74101507387996L373.19142084078504,328.07683885370966L370.9587788208368,330.947378593643L365.85559706095523,335.253188203543L360.75241530107365,340.8347932534134L357.2439778411552,339.24004895345047L356.60608012117007,336.6884580735098L351.8218472212811,336.5289836435134L348.9513074813477,340.03742110343205L346.3997166014069,339.0805745234542L343.210228001481,336.0505603535246L340.6586371215402,337.48583022349123L336.83125080162915,341.3132165434024L329.81437588179193,332.0636996036171L336.5123019416366,327.11999227373195L333.0038644817181,321.21943836386896L336.19335308164403,318.98679634392073L342.2533814215033,317.8704753339466L342.89127914148844,314.04308901403556L347.67551204137743,318.1894241939392L355.33028468119954,318.66784748392814L358.2008244211329,314.52151230402444L359.1576710011108,308.62095839416145L358.2008244211329,301.60408347432434L354.05448924122925,296.34142728444647L357.8818755611403,286.1350637646835L355.64923354119236,284.38084503472425L348.9513074813477,285.01874275470936L346.7186654613995,280.5534587148131L347.3565631813849,276.72607239490185L358.5197732811257,277.04502125489444L365.53664820096265,279.27766327484267L372.55352312079964,281.5103052947909L373.19142084078504,276.72607239490185L377.9756537406738,268.4334020350944L383.0788355005554,263.6491691352055L389.1388638404146,265.24391343516845Z" style="stroke: rgb(68, 68, 68); stroke-opacity: 1; stroke-width: 1px; opacity: 1;"/><path class="choroplethlocation" fill="rgb(38, 130, 142)" d="M331.40912018175504,276.72607239490185L335.55545536165863,276.08817467491673L340.9775859815328,277.36397011488714L346.0807677414144,276.247649104913L347.3565631813849,276.72607239490185L346.7186654613995,280.5534587148131L348.9513074813477,285.01874275470936L355.64923354119236,284.38084503472425L357.8818755611403,286.1350637646835L354.05448924122925,296.34142728444647L358.2008244211329,301.60408347432434L359.1576710011108,308.62095839416145L358.2008244211329,314.52151230402444L355.33028468119954,318.66784748392814L347.67551204137743,318.1894241939392L342.89127914148844,314.04308901403556L342.2533814215033,317.8704753339466L336.19335308164403,318.98679634392073L333.0038644817181,321.21943836386896L336.5123019416366,327.11999227373195L329.81437588179193,332.0636996036171L320.56485894200677,322.9736570938282L314.82377946214007,315.7973077439948L309.4016488422659,306.5477908042095L309.7205977022585,303.67725106427616L311.63429086221413,300.8067113243428L313.86693288216236,294.42773412449094L315.4616771821252,287.7298080646464L318.65116578205107,287.2513847746576L331.40912018175504,287.4108592046539Z" style="stroke: rgb(68, 68, 68); stroke-opacity: 1; stroke-width: 1px; opacity: 1;"/><path class="choroplethlocation" fill="rgb(68, 1, 84)" d="M317.05642148208824,276.5665979649056L331.40912018175504,276.72607239490185L331.40912018175504,287.4108592046539L318.65116578205107,287.2513847746576L315.4616771821252,287.7298080646464L313.86693288216236,286.45401262467607Z" style="stroke: rgb(68, 68, 68); stroke-opacity: 1; stroke-width: 1px; opacity: 1;"/><path class="choroplethlocation" fill="rgb(72, 40, 120)" d="M473.9792605984449,250.41279144551285L471.10872085851156,251.36963802549056L465.36764137864486,251.050689165498L458.66971531880046,250.2533170155166L455.4802267188745,250.8912147355017L453.88548241891147,253.12385675544994L451.0149426789781,253.28333118544623L447.8254540790522,251.52911245548685L437.9380394192819,255.83492206538688L433.791704239378,255.03754991540546L432.5159087994077,255.67544763539058L429.9643179194669,261.09757825526475L423.2663918596223,259.34335952530546L416.88741465977046,258.38651294532764L411.14633517990376,255.19702434540173L403.81051140007423,252.16701017547211L399.0262785001852,255.03754991540546L395.8367899002593,259.50283395530175L394.8799433202813,265.72233672515733L389.1388638404146,265.24391343516845L383.0788355005554,263.6491691352055L377.9756537406738,268.4334020350944L373.19142084078504,276.72607239490185L372.2345742608071,274.0150070849648L371.9156254008145,270.02814633505733L367.7692902209109,267.157606595124L364.579801620985,262.6923225552277L363.9419039009996,259.50283395530175L359.79556872109595,254.87807548540917L360.4334664410811,252.16701017547211L359.4766198611034,248.4990982855572L360.11451758108853,241.6416977957164L362.34715960103676,240.04695349575343L366.81244364093294,230.95691098596453L374.14826742076275,230.31901326597927L375.7430117207258,228.08637124603118L377.33775602068863,228.24584567602744L379.57039804063686,230.159538835983L390.41465928038514,226.8105758060608L394.2420456002962,223.30213834614216L399.0262785001852,220.27212417621254L398.06943192020725,217.08263557628663L400.62102280014807,216.28526342630522L409.2326420199481,216.92316114629034L417.5253123797556,212.77682596638658L423.9042895796077,203.2083601666087L428.36957361950385,199.54044827669395L434.11065309937055,198.10517840672728L435.0674996793485,201.77309029664204L440.17068143922984,207.35469534651247L440.17068143922984,211.02260723642735L438.575937139267,214.6905191263421L439.21383485925213,217.40158443627917L442.40332345917807,219.95317531621998L449.1012495190227,223.78056163613115L453.88548241891147,227.44847352604592L453.88548241891147,230.31901326597927L459.94551075877075,234.943771735872L463.77289707868204,238.77115805578305L466.00553909863,244.0338142456609L472.3845162984821,247.5422517055795Z" style="stroke: rgb(68, 68, 68); stroke-opacity: 1; stroke-width: 1px; opacity: 1;"/><path class="choroplethlocation" fill="rgb(38, 130, 142)" style="stroke: rgb(68, 68, 68); stroke-opacity: 1; stroke-width: 1px; opacity: 1;"/></g></g></g><g class="layer frontplot"><g class="scatterlayer"/></g></g></g><g class="funnelarealayer"/><g class="pielayer"/><g class="iciclelayer"/><g class="treemaplayer"/><g class="sunburstlayer"/><g class="glimages"/><defs id="topdefs-186c3a"><g class="clips"/></defs><g class="layer-above"><g class="imagelayer"/><g class="shapelayer"/></g><g class="infolayer"><g class="cbcoloraxis colorbar" transform="translate(0,25)"><rect class="cbbg" x="830" y="124" width="69.640625" height="248" style="fill: rgb(0, 0, 0); fill-opacity: 0; stroke: rgb(68, 68, 68); stroke-opacity: 1; stroke-width: 0;"/><g class="cbfills" transform="translate(0,155)"><rect class="cbfill gradient_filled" x="840" y="0" width="30" height="206" style="fill: url('#g186c3a-cbcoloraxis');"/></g><g class="cblines" transform="translate(0,155)"/><g class="cbaxis crisp" transform="translate(0,-25)"><g class="ycbcoloraxistick"><text text-anchor="start" x="872.9" y="4.199999999999999" transform="translate(0,386.49999999999994)" style="font-family: 'Open Sans', verdana, arial, sans-serif; font-size: 12px; fill: rgb(42, 63, 95); fill-opacity: 1; white-space: pre; opacity: 1;">0</text></g><g class="ycbcoloraxistick"><text text-anchor="start" x="872.9" y="4.199999999999999" style="font-family: 'Open Sans', verdana, arial, sans-serif; font-size: 12px; fill: rgb(42, 63, 95); fill-opacity: 1; white-space: pre; opacity: 1;" transform="translate(0,345.29999999999995)">0.2</text></g><g class="ycbcoloraxistick"><text text-anchor="start" x="872.9" y="4.199999999999999" style="font-family: 'Open Sans', verdana, arial, sans-serif; font-size: 12px; fill: rgb(42, 63, 95); fill-opacity: 1; white-space: pre; opacity: 1;" transform="translate(0,304.0999999999999)">0.4</text></g><g class="ycbcoloraxistick"><text text-anchor="start" x="872.9" y="4.199999999999999" style="font-family: 'Open Sans', verdana, arial, sans-serif; font-size: 12px; fill: rgb(42, 63, 95); fill-opacity: 1; white-space: pre; opacity: 1;" transform="translate(0,262.9)">0.6</text></g><g class="ycbcoloraxistick"><text text-anchor="start" x="872.9" y="4.199999999999999" style="font-family: 'Open Sans', verdana, arial, sans-serif; font-size: 12px; fill: rgb(42, 63, 95); fill-opacity: 1; white-space: pre; opacity: 1;" transform="translate(0,221.69999999999993)">0.8</text></g><g class="ycbcoloraxistick"><text text-anchor="start" x="872.9" y="4.199999999999999" style="font-family: 'Open Sans', verdana, arial, sans-serif; font-size: 12px; fill: rgb(42, 63, 95); fill-opacity: 1; white-space: pre; opacity: 1;" transform="translate(0,180.49999999999994)">1</text></g></g><g class="cbtitleunshift" transform="translate(0,-25)"><g class="cbtitle" transform=""><text class="ycbcoloraxistitle" x="840.28" y="172.00000000000003" text-anchor="start" style="font-family: 'Open Sans', verdana, arial, sans-serif; font-size: 14px; fill: rgb(42, 63, 95); opacity: 1; font-weight: normal; white-space: pre;">R</text></g></g><rect class="cboutline" x="840" y="156" width="30" height="206" style="stroke: rgb(68, 68, 68); stroke-opacity: 1; fill: none; stroke-width: 0;"/></g><g class="g-gtitle"><text class="gtitle" x="45" y="12.5" text-anchor="start" dy="0em" style="font-family: 'Open Sans', verdana, arial, sans-serif; font-size: 17px; fill: rgb(42, 63, 95); opacity: 1; font-weight: normal; white-space: pre;">Middle Africa — Enclosure Strength (R)</text></g></g></svg>