<svg class="main-svg" xmlns="http://www.w3.org/2000/svg" xmlns:xlink="http://www.w3.org/1999/xlink" width="900" height="520" style="" viewBox="0 0 900 520"><rect x="0" y="0" width="900" height="520" style="fill: rgb(255, 255, 255); fill-opacity: 1;"/><defs id="defs-08a36f"><g class="clips"><clipPath id="clip08a36fgeo"><rect x="0" y="69.0019356052683" width="814" height="406.99612878946346"/></clipPath></g><g class="gradients"><linearGradient x1="0" x2="0" y1="1" y2="0" id="g08a36f-cbcoloraxis"><stop offset="0%" stop-color="rgb(68, 1, 84)" stop-opacity="1"/><stop offset="11.111111%" stop-color="rgb(72, 40, 120)" stop-opacity="1"/><stop offset="22.222222%" stop-color="rgb(62, 73, 137)" stop-opacity="1"/><stop offset="33.333333%" stop-color="rgb(49, 104, 142)" stop-opacity="1"/><stop offset="44.444444%" stop-color="rgb(38, 130, 142)" stop-opacity="1"/><stop offset="55.555556%" stop-color="rgb(31, 158, 137)" stop-opacity="1"/><stop offset="66.666667%" stop-color="rgb(53, 183, 121)" stop-opacity="1"/><stop offset="77.777778%" stop-color="rgb(110, 206, 88)" stop-opacity="1"/><stop offset="88.888889%" stop-color="rgb(181, 222, 43)" stop-opacity="1"/><stop offset="100%" stop-color="rgb(253, 231, 37)" stop-opacity="1"/></linearGradient></g><g class="patterns"/></defs><g class="bglayer"/><g class="layer-below"><g class="imagelayer"/><g class="shapelayer"/></g><g class="cartesianlayer"/><g class="polarlayer"/><g class="smithlayer"/><g class="ternarylayer"/><g class="geolayer"><g class="geo geo" clip-path="url(#clip08a36fgeo)"><g class="layer bg"><rect x="0" y="69.0019356052683" width="814" height="406.99612878946346" style="pointer-events: all; fill: rgb(255, 255, 255); fill-opacity: 1;"/></g><g class="layer backplot"><g class="choroplethlayer"><g class="trace choropleth"><path class="choroplethlocation" fill="rgb(62, 73, 137)" d="M733.6043622880622,282.27790072920214L708.8786363061718,282.12939640932535L684.1529103242815,282.27790072920214L660.101522323715,282.1373893166464L636.0501343231488,282.27790072920214L610.8748496870421,282.1239448213185L585.6995650509356,282.27790072920214L585.6995650509356,236.42291799915068L585.6995650509356,191.9166112317477L582.103095817206,182.02632083899175L585.2500063967194,174.15904439020835L583.0022131256383,168.764340539614L587.4977996678002,162.9200780348035L604.1314698737992,162.69529870769543L616.2695535376366,166.06698861431698L628.85719585569,169.66345784804633L634.7014583605003,171.68647179201918L644.1421900990401,167.6404439040735L649.0873352954185,164.04397467034408L660.3263016508233,163.1448573619116L669.317474735147,164.71831265166827L672.4643853146605,170.78735448358685L675.6112958941735,166.74132659564117L685.5015862869299,169.66345784804633L695.391876679686,170.33779582937075L701.2361391844966,167.19088524985733L708.4290776519557,185.39801074561302L709.328194960388,188.76970065223446L706.1812843808746,193.71484584861247L703.4839324555774,203.15557758715255L699.8874632218478,209.67417807328724L697.1901112965509,211.92197134436816L692.694524754389,207.87594345642248L687.2998209037945,202.25646027872023L678.3086478194708,184.27411411007262L676.9599718568223,185.39801074561302L682.3546757074165,198.65999104499065L689.9971728290918,211.24763336304392L699.4379045676317,230.57865549434024L703.9334911097935,237.32203530758295L707.9795189977392,244.5149737750421L719.2184853531439,258.22651272863595L716.5211334278471,260.4743059997169L716.9706920820632,268.5663617756083L731.8061276711974,279.8053281310129Z" style="stroke: rgb(68, 68, 68); stroke-opacity: 1; stroke-width: 1px; opacity: 1;"/><path class="choroplethlocation" fill="rgb(62, 73, 137)" d="M164.91266470458152,215.06888192388158L165.36222335879765,212.59630932569257L165.36222335879765,211.69719201726008L165.36222335879765,196.8617564281259L185.14280414431005,187.64580401669394L197.7304464623633,185.84756939982918L208.0702955093355,182.47587949320786L213.01544070571384,176.1820583341812L227.4013176406317,171.23691313780301L227.85087629484786,162.0209607263712L235.043814762307,160.89706409083067L240.88807726711764,156.40147754866882L257.0721888189005,154.1536842775879L259.31998208998124,149.4333184083178L256.1730715104678,146.73596648302066L251.67748496830598,133.47398618364304L251.2279263140898,125.83148906196772L246.2827811177118,117.96421261318443L258.42086478154897,111.2208327999416L271.9076244080345,108.97303952886068L279.55012152970977,103.80311500537442L291.68820519354693,99.98186644453682L312.81746194170813,97.73407317345578L333.4971600356528,96.83495586502357L339.79098119467926,98.63319048188833L351.47950620430026,93.6880452855101L364.9662658307862,93.6880452855101L369.9114110271642,96.38539721080741L378.4530254572718,95.71105922948294L376.20523218619064,102.22965971561791L378.00346680305563,114.14296405234694L375.3061148777584,124.2580337722112L367.21405910186695,131.22619291256206L368.5627350645154,140.66692465110214L378.9025841114879,148.08464244566932L378.9025841114879,151.23155302518256L386.5450812331632,156.17669822156074L391.93978508375733,178.6546309323702L395.98581297170307,189.6688179606668L396.4353716259192,195.51308046547723L394.1875783548385,205.62815018534155L395.08669566327075,211.24763336304392L393.7380197006223,218.215792503395L394.63713700905464,226.08306895217834L389.6919918126766,231.25299347566443L397.33448893435184,240.24416655998834L397.784047588568,245.63887041058246L402.2796341307299,252.60702955093353L408.1238966355402,250.3592362798526L418.01418702829653,256.2034987846631L423.4088908788907,264.07077523344645L401.90742551659093,275.8713326829347L380.7008187283529,287.89738390690457L362.37661938543323,300.0716129386718L344.2865677368411,312.39833056168686L326.7537802224099,317.7930344122812L312.81746194170813,319.14171037492963L312.81746194170813,311.27443392614634L306.97319943689746,309.0266406550654L299.3307023152222,305.65495074844387L296.1837917357088,299.8106882436334L275.21576256740286,285.99192754561255L253.92527823938707,272.38761033644596L233.19686306709582,258.67535316340513L212.11632339728118,245.18931175636635L188.75891641307572,229.9749036258956Z" style="stroke: rgb(68, 68, 68); stroke-opacity: 1; stroke-width: 1px; opacity: 1;"/><path class="choroplethlocation" fill="rgb(38, 130, 142)" d="M246.2827811177118,117.96421261318443L251.2279263140898,125.83148906196772L251.67748496830598,133.47398618364304L256.1730715104678,146.73596648302066L259.31998208998124,149.4333184083178L257.0721888189005,154.1536842775879L240.88807726711764,156.40147754866882L235.043814762307,160.89706409083067L227.85087629484786,162.0209607263712L227.4013176406317,171.23691313780301L213.01544070571384,176.1820583341812L208.0702955093355,182.47587949320786L197.7304464623633,185.84756939982918L185.14280414431005,187.64580401669394L165.36222335879765,196.8617564281259L165.36222335879765,211.69719201726008L163.56398874193266,211.69719201726008L163.56398874193266,218.44057183050307L155.92149162025743,218.89013048471924L151.8754637323117,221.58748241001626L146.0312012275014,221.58748241001626L141.5356146853395,220.0140271202598L131.195765638367,221.36270308290818L127.14973775042125,231.02821414855634L123.10370986247557,231.92733145698884L117.2594473576653,247.8866636816636L100.17621849744978,261.14864398104106L96.13019060950404,278.4566521683645L90.73548675890987,284.0761353460669L89.38681079626144,288.5717218882288L61.064615580641544,289.6956185237691L61.064615580641544,289.470839196661L61.51417423485765,283.8513560189588L66.45931943123566,280.4796661123374L70.50534731918134,273.96106562620264L69.60623001074907,269.69025841114865L74.10181655291092,260.92386465393304L80.84519636615352,252.8318088780416L84.89122425409926,250.80879493406877L88.48769348782884,243.6158564666096L88.48769348782884,236.87247665336685L92.98328002999068,229.22997953169158L101.52489446009861,224.73439298952974L109.61695023599003,211.92197134436816L109.61695023599003,211.69719201726008L115.91077139501647,206.97682614799015L127.59929640463741,205.62815018534155L137.48958679739383,197.08653575523397L143.78340795642026,193.71484584861247L154.1232570033928,183.37499680164018L150.97634642387942,167.86522323118157L155.47193296604127,157.075815529993L157.2701675829062,150.55721504385832L165.36222335879765,142.01560061375056L177.9498656768509,136.39611743604837L187.3905974153908,131.22619291256206L195.4826531912822,118.18899194029268L199.5286810792279,110.54649481861736L208.51985416355163,110.54649481861736L216.16235128522692,115.94119866921159L227.85087629484786,115.04208136077926L240.88807726711764,117.73943328607635Z" style="stroke: rgb(68, 68, 68); stroke-opacity: 1; stroke-width: 1px; opacity: 1;"/><path class="choroplethlocation" fill="rgb(68, 1, 84)" d="M580.3048612003415,454.23408596689495L570.8641294618012,448.8393821163006L566.3685429196394,445.24291288257103L565.469425611207,441.4216643217334L567.7172188822879,436.25173979824734L567.7172188822879,431.0818152747611L560.524280414829,423.2145388259777L559.1756044521802,418.04461430249165L559.1756044521802,414.89770372297824L554.6800179100184,411.30123448924866L554.2304592558022,403.88351669468165L551.982665984721,399.16315082541155L547.4870794425592,399.8374888067359L548.835755405208,395.34190226457395L551.982665984721,390.17197774108786L550.6339900220727,385.00205321760154L554.6800179100184,381.18080465676394L551.982665984721,378.2586734043588L555.1295765642345,370.39139695557543L560.9738390690452,361.1754445441435L571.7632467702335,362.0745618525759L571.3136881160174,312.62310988879494L571.3136881160174,307.22840603820066L585.6995650509356,307.22840603820066L585.6995650509356,282.27790072920214L610.8748496870421,282.1239448213185L636.0501343231488,282.27790072920214L660.101522323715,282.1373893166464L684.1529103242815,282.27790072920214L708.8786363061718,282.12939640932535L733.6043622880622,282.27790072920214L737.6503901760079,294.64076372014733L734.9530382507107,296.88855699122826L736.7512728675756,309.7009786363896L741.6964180639537,324.536414225524L746.1920046061156,327.6833248050373L752.9353844193585,332.4036906743073L746.6415632603316,339.37184981465816L737.6503901760079,341.6196430857391L733.6043622880622,345.4408916465768L732.2556863254138,353.53294742246817L726.8609824748194,371.9648522453321L728.2096584374681,376.9099974417102L726.4114238206032,387.69940514289885L721.4662786242251,400.062268133844L713.8237815025499,406.1313099657626L708.4290776519557,415.7968210314107L707.0804016893069,420.7419662277887L701.2361391844966,424.3384354615183L697.639669950767,437.3756364337877L697.639669950767,448.61460278919253L697.639669950767,438.9490917235444L695.8414353339022,438.72431239643635L695.8414353339022,432.4304912374097L694.4927593712537,428.1596840223559L688.1989382122272,423.2145388259777L686.4007035953622,414.223365741654L688.1989382122272,405.007413330222L682.3546757074165,404.1082960217897L681.4555583989842,407.03042727419484L673.813061277309,407.479985928411L676.9599718568223,411.30123448924866L677.8590891652547,418.71895228381584L671.1157093520117,425.46233209705866L664.8218881929852,434.6782845084906L658.5280670339585,435.8021811440312L648.1882179869858,428.6092426765721L643.2430727906078,431.0818152747611L641.8943968279594,434.6782845084906L635.6005756689326,437.1508571066796L635.1510170147164,439.62342970486884L622.5633746966631,439.62342970486884L621.2146987340146,437.1508571066796L612.2235256496906,436.7012984524635L607.7279391075288,438.9490917235444L604.1314698737992,437.825195088004L597.8376487147727,430.40747729343684L595.5898554436917,427.03578738681534L586.5986823593679,428.83402200368016L583.0022131256383,434.6782845084906L579.8553025461249,445.69247153678737L575.3597160039631,448.16504413497637L571.7632467702335,449.51372009762486Z" style="stroke: rgb(68, 68, 68); stroke-opacity: 1; stroke-width: 1px; opacity: 1;"/><path class="choroplethlocation" fill="rgb(68, 1, 84)" d="M585.6995650509356,282.27790072920214L585.6995650509356,307.22840603820066L571.3136881160174,307.22840603820066L571.3136881160174,312.62310988879494L546.5204021294753,300.45441246029486L521.4126774980203,288.5717218882288L496.63399143005597,276.50476756942L471.5116668800231,264.74511321477064L458.9240245619698,271.4884930280134L449.93285147764607,276.20885889728356L443.18947166440313,269.46547908404057L423.4088908788907,264.07077523344645L418.01418702829653,256.2034987846631L408.1238966355402,250.3592362798526L402.2796341307299,252.60702955093353L397.784047588568,245.63887041058246L397.33448893435184,240.24416655998834L389.6919918126766,231.25299347566443L394.63713700905464,226.08306895217834L393.7380197006223,218.215792503395L395.08669566327075,211.24763336304392L394.1875783548385,205.62815018534155L396.4353716259192,195.51308046547723L395.98581297170307,189.6688179606668L391.93978508375733,178.6546309323702L397.784047588568,175.73249967996486L399.1327235512165,170.56257515647877L397.784047588568,165.3926506329925L406.3256620186756,160.4475054366145L409.92213125240517,156.40147754866882L416.2159524114316,152.80500831493924L417.11506971986427,143.36427657639916L431.5009466547821,147.63508379145293L436.89565050537664,146.51118715591258L447.2354995523488,148.53420109988548L463.8691697583478,154.1536842775879L469.71343226315844,165.3926506329925L480.9523986185633,167.6404439040735L498.4851861329946,173.03514775466778L511.97194575948015,179.10418958658636L517.8162082642908,175.95727900707294L523.6604707691012,170.11301650226267L520.9631188438043,160.6722847637226L525.00914673175,154.60324293180406L534.0003198160737,148.75898042699356L542.5419342461812,146.96074581012874L559.1756044521802,149.4333184083178L563.6711909943422,155.05280158602017L568.166777536504,155.05280158602017L572.2128054244497,157.3005948571011L584.8004477425034,158.64927081974974L587.4977996678002,162.9200780348035L583.0022131256383,168.764340539614L585.2500063967194,174.15904439020835L582.103095817206,182.02632083899175L585.6995650509356,191.9166112317477L585.6995650509356,236.42291799915068Z" style="stroke: rgb(68, 68, 68); stroke-opacity: 1; stroke-width: 1px; opacity: 1;"/><path class="choroplethlocation" fill="rgb(31, 158, 137)" d="M391.93978508375733,178.6546309323702L386.5450812331632,156.17669822156074L378.9025841114879,151.23155302518256L378.9025841114879,148.08464244566932L368.5627350645154,140.66692465110214L367.21405910186695,131.22619291256206L375.3061148777584,124.2580337722112L378.00346680305563,114.14296405234694L376.20523218619064,102.22965971561791L378.4530254572718,95.71105922948294L392.3893437379735,90.76591403310499L400.9309581680814,92.11458999575359L400.4813995138649,98.40841115478025L411.2708072150536,93.91282461261818L412.1699245234859,96.38539721080741L405.8761033644594,102.454439042726L405.8761033644594,108.29870154753644L409.92213125240517,111.2208327999416L408.5734552897567,122.01024050113011L400.03184085964875,128.3040616601569L402.729192784946,135.2722208005078L409.02301394397284,135.49700012761588L412.1699245234859,141.34126263242632L417.11506971986427,143.36427657639916L416.2159524114316,152.80500831493924L409.92213125240517,156.40147754866882L406.3256620186756,160.4475054366145L397.784047588568,165.3926506329925L399.1327235512165,170.56257515647877L397.784047588568,175.73249967996486Z" style="stroke: rgb(68, 68, 68); stroke-opacity: 1; stroke-width: 1px; opacity: 1;"/></g></g></g><g class="layer frontplot"><g class="scatterlayer"/></g></g></g><g class="funnelarealayer"/><g class="pielayer"/><g class="iciclelayer"/><g class="treemaplayer"/><g class="sunburstlayer"/><g class="glimages"/><defs id="topdefs-08a36f"><g class="clips"/></defs><g class="layer-above"><g class="imagelayer"/><g class="shapelayer"/></g><g class="infolayer"><g class="cbcoloraxis colorbar" transform="translate(0,25)"><rect class="cbbg" x="830" y="124" width="69.640625" height="248" style="fill: rgb(0, 0, 0); fill-opacity: 0; stroke: rgb(68, 68, 68); stroke-opacity: 1; stroke-width: 0;"/><g class="cbfills" transform="translate(0,155)"><rect class="cbfill gradient_filled" x="840" y="0" width="30" height="206" style="fill: url('#g08a36f-cbcoloraxis');"/></g><g class="cblines" transform="translate(0,155)"/><g class="cbaxis crisp" transform="translate(0,-25)"><g class="ycbcoloraxistick"><text text-anchor="start" x="872.9" y="4.199999999999999" transform="translate(0,386.49999999999994)" style="font-family: 'Open Sans', verdana, arial, sans-serif; font-size: 12px; fill: rgb(42, 63, 95); fill-opacity: 1; white-space: pre; opacity: 1;">0</text></g><g class="ycbcoloraxistick"><text text-anchor="start" x="872.9" y="4.199999999999999" style="font-family: 'Open Sans', verdana, arial, sans-serif; font-size: 12px; fill: rgb(42, 63, 95); fill-opacity: 1; white-space: pre; opacity: 1;" transform="translate(0,345.29999999999995)">0.2</text></g><g class="ycbcoloraxistick"><text text-anchor="start" x="872.9" y="4.199999999999999" style="font-family: 'Open Sans', verdana, arial, sans-serif; font-size: 12px; fill: rgb(42, 63, 95); fill-opacity: 1; white-space: pre; opacity: 1;" transform="translate(0,304.0999999999999)">0.4</text></g><g class="ycbcoloraxistick"><text text-anchor="start" x="872.9" y="4.199999999999999" style="font-family: 'Open Sans', verdana, arial, sans-serif; font-size: 12px; fill: rgb(42, 63, 95); fill-opacity: 1; white-space: pre; opacity: 1;" transform="translate(0,262.9)">0.6</text></g><g class="ycbcoloraxistick"><text text-anchor="start" x="872.9" y="4.199999999999999" style="font-family: 'Open Sans', verdana, arial, sans-serif; font-size: 12px; fill: rgb(42, 63, 95); fill-opacity: 1; white-space: pre; opacity: 1;" transform="translate(0,221.69999999999993)">0.8</text></g><g class="ycbcoloraxistick"><text text-anchor="start" x="872.9" y="4.199999999999999" style="font-family: 'Open Sans', verdana, arial, sans-serif; font-size: 12px; fill: rgb(42, 63, 95); fill-opacity: 1; white-space: pre; opacity: 1;" transform="translate(0,180.49999999999994)">1</text></g></g><g class="cbtitleunshift" transform="translate(0,-25)"><g class="cbtitle" transform=""><text class="ycbcoloraxistitle" x="840.28" y="172.00000000000003" text-anchor="start" style="font-family: 'Open Sans', verdana, arial, sans-serif; font-size: 14px; fill: rgb(42, 63, 95); opacity: 1; font-weight: normal; white-space: pre;">R</text></g></g><rect class="cboutline" x="840" y="156" width="30" height="206" style="stroke: rgb(68, 68, 68); stroke-opacity: 1; fill: none; stroke-width: 0;"/></g><g class="g-gtitle"><text class="gtitle" x="45" y="12.5" text-anchor="start" dy="0em" style="font-family: 'Open Sans', verdana, arial, sans-serif; font-size: 17px; fill: rgb(42, 63, 95); opacity: 1; font-weight: normal; white-space: pre;">Northern Africa — Enclosure Strength (R)</text></g></g></svg>