<svg class="main-svg" xmlns="http://www.w3.org/2000/svg" xmlns:xlink="http://www.w3.org/1999/xlink" width="900" height="520" style="" viewBox="0 0 900 520"><rect x="0" y="0" width="900" height="520" style="fill: rgb(255, 255, 255); fill-opacity: 1;"/><defs id="defs-cc3c7d"><g class="clips"><clipPath id="clipcc3c7dgeo"><rect x="0" y="69.00221768974748" width="814" height="406.9955646205051"/></clipPath></g><g class="gradients"><linearGradient x1="0" x2="0" y1="1" y2="0" id="gcc3c7d-cbcoloraxis"><stop offset="0%" stop-color="rgb(68, 1, 84)" stop-opacity="1"/><stop offset="11.111111%" stop-color="rgb(72, 40, 120)" stop-opacity="1"/><stop offset="22.222222%" stop-color="rgb(62, 73, 137)" stop-opacity="1"/><stop offset="33.333333%" stop-color="rgb(49, 104, 142)" stop-opacity="1"/><stop offset="44.444444%" stop-color="rgb(38, 130, 142)" stop-opacity="1"/><stop offset="55.555556%" stop-color="rgb(31, 158, 137)" stop-opacity="1"/><stop offset="66.666667%" stop-color="rgb(53, 183, 121)" stop-opacity="1"/><stop offset="77.777778%" stop-color="rgb(110, 206, 88)" stop-opacity="1"/><stop offset="88.888889%" stop-color="rgb(181, 222, 43)" stop-opacity="1"/><stop offset="100%" stop-color="rgb(253, 231, 37)" stop-opacity="1"/></linearGradient></g><g class="patterns"/></defs><g class="bglayer"/><g class="layer-below"><g class="imagelayer"/><g class="shapelayer"/></g><g class="cartesianlayer"/><g class="polarlayer"/><g class="smithlayer"/><g class="ternarylayer"/><g class="geolayer"><g class="geo geo" clip-path="url(#clipcc3c7dgeo)"><g class="layer bg"><rect x="0" y="69.00221768974748" width="814" height="406.9955646205051" style="pointer-events: all; fill: rgb(255, 255, 255); fill-opacity: 1;"/></g><g class="layer backplot"><g class="choroplethlayer"><g class="trace choropleth"><path class="choroplethlocation" fill="rgb(53, 183, 121)" d="M301.3029106605503,335.45194291540747L290.42232793443065,332.6022664871381L281.6142371561432,332.6022664871381L284.7229750778918,325.08948317624584L281.6142371561432,317.3176383718744L293.53106585617934,316.7995153849164L309.07475546492174,325.60760616320385ZM330.3177979302034,268.09595461085655L347.41585649981994,266.8006471434612L331.87216689107754,282.34433675220373L346.8977335128619,280.5309062978504L362.4414231216047,280.5309062978504L358.814562212898,292.18867350440735L345.8614875389458,305.1417481783594L360.8870541607302,306.1779941522756L361.9233001346463,307.7323631131501L374.8763748085985,324.5713601892878L384.72071156080204,326.9029136305992L393.52880233908957,343.2237877197788L397.6737862347543,348.9231405763178L414.7718448043712,351.7728170045872L413.2174758434971,360.8399692763538L405.96375402608373,365.2440146654974L411.66310688262257,372.4977364829108L398.7100322086703,380.0105197938029L379.5394816912212,380.0105197938029L354.6695783172333,383.89644219598836L347.93397948677796,381.04676576771897L338.6077657215325,387.78236459817435L325.1365680606222,386.2279956372997L315.29223130841865,391.6682870003599L307.5203865040476,388.8186105720904L328.76342896932886,373.793043950306L341.7165036432811,370.68430602855744L341.198380656323,370.68430602855744L318.9190922171253,368.0936910937669L314.7741083214606,362.3943382372279L329.79967494324495,357.99029284808444L322.027830138874,350.218448043713L324.61844507366413,340.8922342784674L346.37961052590384,342.18754174586286L348.45210247373643,333.8975739545333L338.6077657215325,324.83042168276654L320.9915841649579,322.23980674797633L317.3647232562512,318.3538843457909L322.545953125832,311.8773470088148L317.8828462432092,307.9914246066289L310.11100143883783,314.7270234370842L309.59287845187976,300.73770278921586L302.3391566344664,293.48398097180257L307.5203865040476,278.7174758434969L318.4009692301673,267.0597086369402Z" style="stroke: rgb(68, 68, 68); stroke-opacity: 1; stroke-width: 1px; opacity: 1;"/><path class="choroplethlocation" fill="rgb(110, 206, 88)" d="M771.758582818492,310.3229780479403L773.3129517793665,316.7995153849164L761.3961230793303,321.46262226753913L758.2873851575821,329.4935285653894L742.7436955488392,334.93381992844945L728.754374900971,334.93381992844945L725.1275139922643,330.5297745393059L717.8737921748514,328.9754055784314L716.8375462009353,325.08948317624584L718.3919151618094,321.2035607740603L711.656316331354,318.8720073327489L696.6307497095697,316.54045389143755L693.522011787821,304.3645636979227L710.1019473704799,299.96051830877866L734.4537277575098,300.73770278921586L748.443048405378,299.44239532182064L750.5155403532107,302.5511332435693L758.2873851575821,303.32831772400607Z" style="stroke: rgb(68, 68, 68); stroke-opacity: 1; stroke-width: 1px; opacity: 1;"/><path class="choroplethlocation" fill="rgb(181, 222, 43)" d="M182.1346236601906,154.36795897355637L178.50776275148434,163.69417273880208L194.56957534718478,173.53850949100604L175.9171478166937,184.41909221712558L154.9382451571764,189.23871686127802L134.4673088600469,194.26342896932908L122.03235717305273,196.85404390411986L103.37992964256165,194.78155195628722L83.28281827680689,192.48144051905058L62.966336659831256,190.37750656714377L77.47378029465762,183.90096923016756L45.868278090214346,176.90630890623356L71.2563044511603,174.05663247796406L70.73818146420228,169.91164858229934L40.68704822063353,166.5438491670718L50.531384972837145,157.21763540182633L72.2925504250768,154.88608196051507L94.57183886427418,164.73041871271857L116.33300431651384,156.95857390834703L134.4673088600469,161.10355780401187L157.7828432731607,153.33171299964033Z" style="stroke: rgb(68, 68, 68); stroke-opacity: 1; stroke-width: 1px; opacity: 1;"/></g></g></g><g class="layer frontplot"><g class="scatterlayer"/></g></g></g><g class="funnelarealayer"/><g class="pielayer"/><g class="iciclelayer"/><g class="treemaplayer"/><g class="sunburstlayer"/><g class="glimages"/><defs id="topdefs-cc3c7d"><g class="clips"/></defs><g class="layer-above"><g class="imagelayer"/><g class="shapelayer"/></g><g class="infolayer"><g class="cbcoloraxis colorbar" transform="translate(0,25)"><rect class="cbbg" x="830" y="124" width="69.640625" height="248" style="fill: rgb(0, 0, 0); fill-opacity: 0; stroke: rgb(68, 68, 68); stroke-opacity: 1; stroke-width: 0;"/><g class="cbfills" transform="translate(0,155)"><rect class="cbfill gradient_filled" x="840" y="0" width="30" height="206" style="fill: url('#gcc3c7d-cbcoloraxis');"/></g><g class="cblines" transform="translate(0,155)"/><g class="cbaxis crisp" transform="translate(0,-25)"><g class="ycbcoloraxistick"><text text-anchor="start" x="872.9" y="4.199999999999999" transform="translate(0,386.49999999999994)" style="font-family: 'Open Sans', verdana, arial, sans-serif; font-size: 12px; fill: rgb(42, 63, 95); fill-opacity: 1; white-space: pre; opacity: 1;">0</text></g><g class="ycbcoloraxistick"><text text-anchor="start" x="872.9" y="4.199999999999999" style="font-family: 'Open Sans', verdana, arial, sans-serif; font-size: 12px; fill: rgb(42, 63, 95); fill-opacity: 1; white-space: pre; opacity: 1;" transform="translate(0,345.29999999999995)">0.2</text></g><g class="ycbcoloraxistick"><text text-anchor="start" x="872.9" y="4.199999999999999" style="font-family: 'Open Sans', verdana, arial, sans-serif; font-size: 12px; fill: rgb(42, 63, 95); fill-opacity: 1; white-space: pre; opacity: 1;" transform="translate(0,304.0999999999999)">0.4</text></g><g class="ycbcoloraxistick"><text text-anchor="start" x="872.9" y="4.199999999999999" style="font-family: 'Open Sans', verdana, arial, sans-serif; font-size: 12px; fill: rgb(42, 63, 95); fill-opacity: 1; white-space: pre; opacity: 1;" transform="translate(0,262.9)">0.6</text></g><g class="ycbcoloraxistick"><text text-anchor="start" x="872.9" y="4.199999999999999" style="font-family: 'Open Sans', verdana, arial, sans-serif; font-size: 12px; fill: rgb(42, 63, 95); fill-opacity: 1; white-space: pre; opacity: 1;" transform="translate(0,221.69999999999993)">0.8</text></g><g class="ycbcoloraxistick"><text text-anchor="start" x="872.9" y="4.199999999999999" style="font-family: 'Open Sans', verdana, arial, sans-serif; font-size: 12px; fill: rgb(42, 63, 95); fill-opacity: 1; white-space: pre; opacity: 1;" transform="translate(0,180.49999999999994)">1</text></g></g><g class="cbtitleunshift" transform="translate(0,-25)"><g class="cbtitle" transform=""><text class="ycbcoloraxistitle" x="840.28" y="172.00000000000003" text-anchor="start" style="font-family: 'Open Sans', verdana, arial, sans-serif; font-size: 14px; fill: rgb(42, 63, 95); opacity: 1; font-weight: normal; white-space: pre;">R</text></g></g><rect class="cboutline" x="840" y="156" width="30" height="206" style="stroke: rgb(68, 68, 68); stroke-opacity: 1; fill: none; stroke-width: 0;"/></g><g class="g-gtitle"><text class="gtitle" x="45" y="12.5" text-anchor="start" dy="0em" style="font-family: 'Open Sans', verdana, arial, sans-serif; font-size: 17px; fill: rgb(42, 63, 95); opacity: 1; font-weight: normal; white-space: pre;">Northern Europe — Enclosure Strength (R)</text></g></g></svg>