<svg class="main-svg" xmlns="http://www.w3.org/2000/svg" xmlns:xlink="http://www.w3.org/1999/xlink" width="900" height="520" style="" viewBox="0 0 900 520"><rect x="0" y="0" width="900" height="520" style="fill: rgb(255, 255, 255); fill-opacity: 1;"/><defs id="defs-acab03"><g class="clips"><clipPath id="clipacab03geo"><rect x="0" y="69.0017340802429" width="814" height="406.9965318395142"/></clipPath></g><g class="gradients"><linearGradient x1="0" x2="0" y1="1" y2="0" id="gacab03-cbcoloraxis"><stop offset="0%" stop-color="rgb(68, 1, 84)" stop-opacity="1"/><stop offset="11.111111%" stop-color="rgb(72, 40, 120)" stop-opacity="1"/><stop offset="22.222222%" stop-color="rgb(62, 73, 137)" stop-opacity="1"/><stop offset="33.333333%" stop-color="rgb(49, 104, 142)" stop-opacity="1"/><stop offset="44.444444%" stop-color="rgb(38, 130, 142)" stop-opacity="1"/><stop offset="55.555556%" stop-color="rgb(31, 158, 137)" stop-opacity="1"/><stop offset="66.666667%" stop-color="rgb(53, 183, 121)" stop-opacity="1"/><stop offset="77.777778%" stop-color="rgb(110, 206, 88)" stop-opacity="1"/><stop offset="88.888889%" stop-color="rgb(181, 222, 43)" stop-opacity="1"/><stop offset="100%" stop-color="rgb(253, 231, 37)" stop-opacity="1"/></linearGradient></g><g class="patterns"/></defs><g class="bglayer"/><g class="layer-below"><g class="imagelayer"/><g class="shapelayer"/></g><g class="cartesianlayer"/><g class="polarlayer"/><g class="smithlayer"/><g class="ternarylayer"/><g class="geolayer"><g class="geo geo" clip-path="url(#clipacab03geo)"><g class="layer bg"><rect x="0" y="69.0017340802429" width="814" height="406.9965318395142" style="pointer-events: all; fill: rgb(255, 255, 255); fill-opacity: 1;"/></g><g class="layer backplot"><g class="choroplethlayer"><g class="trace choropleth"><path class="choroplethlocation" fill="rgb(53, 183, 121)" d="M346.72661328928166,284.3193143719659L362.8950260232265,284.3193143719659L379.67742911415655,284.3193143719659L385.20334232702385,284.3193143719659L402.59973577493906,284.3193143719659L419.3821388658691,284.3193143719659L436.3692054091276,284.3193143719659L453.5609354047144,284.3193143719659L472.7992999235855,284.3193143719659L492.2423278947849,284.3193143719659L503.90814467750465,284.3193143719659L504.1128081298331,282.06801639635336L505.95477920078883,282.06801639635336L506.9780964624309,285.13796818127946L508.82006753338663,286.16128544292167L512.7086731276265,286.4682806214143L518.4392497928221,287.3892661568922L523.9651630056893,289.1289055016836L528.6724224092429,288.41258341853415L535.630979788409,289.9475593109974L537.4729508593648,289.8452275848331L542.5895371675751,288.2079199662058L547.910786928114,290.2545544894899L553.4367001409812,292.50585246510263L558.1439595445347,294.34782353605834L562.4418920434315,296.18979460701405L563.0558824004166,297.72477049947713L564.2838631143873,298.23642913029823L564.0791996620588,298.8504194872834L565.5118438283577,298.9527512134477L566.5351610899997,298.44109258262665L566.9444879946566,299.77140502276126L567.9678052562987,300.69239055823914L569.605112874926,300.69239055823914L570.4237666842396,301.30638091522434L569.8097763272544,302.3296981768665L575.7450164447785,304.9903230571358L576.972997158749,310.20924109151053L577.9963144203911,315.12116394739235L576.3590068017636,318.4981109108113L573.6983819214943,321.67039442190173L572.4704012075238,323.61469721902176L572.2657377551955,324.2286875760069L572.8797281121806,325.0473413853205L574.9263626354648,325.86599519463425L576.3590068017636,325.86599519463425L582.908237276273,322.89837513587224L588.843477393797,321.9773896003944L596.2113616776201,319.1121012677965L596.2113616776201,318.60044263697546L595.8020347729631,316.86080329218396L594.9833809636494,315.7351543043777L597.4393423915905,314.8141687688999L602.9652556044576,314.8141687688999L608.2865053649964,314.8141687688999L610.1284764359523,312.5628707932873L610.7424667929375,312.15354388863034L616.88237036279,308.0602748420621L619.3383317907309,307.03695758041994L627.9341967885243,306.93462585425584L638.3720328572736,306.93462585425584L638.9860232142587,305.6043134141211L640.8279942852146,305.2973182356285L643.2839557131556,304.3763327001506L645.3305902364397,301.8180395460454L646.967897855067,297.41777532098445L651.2658303539637,293.1198428220878L653.3124648772479,294.55248698838676L656.9964070191594,293.6315014529089L659.6570318994288,295.2688090715362L659.6570318994288,303.04602026001595L663.3409740413402,306.2183037711063L664.3642913029823,308.0602748420621L658.2243877331298,310.8232314484957L652.2891476156058,312.7675342456157L646.3539074980818,314.50717359040715L643.2839557131556,317.88412055382594L642.4653019038419,319.1121012677965L642.2606384515134,322.18205305272284L644.3072729747976,325.1496731114848L646.5585709504102,325.35433656381315L645.9445805934249,323.20537031436476L647.5818882120523,324.5356827544996L647.1725613073954,326.17299037312694L643.2839557131556,327.09397590860476L640.6233308328862,326.88931245627623L636.5300617863178,327.9126297179184L634.0741003583768,328.219624896411L630.5948216687938,328.5266200749036L625.8875622652401,330.1639276935309L634.2787638107052,329.0382787057247L635.9160714293325,330.1639276935309L627.9341967885243,331.90356703832254L624.4549180989413,331.90356703832254L624.4549180989413,331.18724495517307L622.817610480314,332.7222208476361L624.4549180989413,333.0292160261288L623.2269373849708,337.12248507269703L619.1336683384025,341.4204175715937L618.7243414337456,339.98777340529494L617.4963607197751,339.6807782268023L615.6543896488195,338.2481340605033L616.6777069104614,341.3180858454296L618.1103510767605,342.34140310707164L618.3150145290888,344.49036935652L616.4730434581331,346.7416673321325L613.1984282208784,351.2442632833578L612.7891013162216,351.03959983102925L614.426408934849,347.1509942367894L611.5611206022512,345.0020279873411L610.947130245266,340.29476858378746L609.9238129836239,342.75073001172854L610.947130245266,346.33234042747574L607.2631881033544,345.41135489199786L611.1517936975943,347.2533259629536L611.3564571499228,352.6769074496566L612.99376476855,353.08623435431355L613.6077551255353,355.03053715143346L614.426408934849,360.76111381662906L610.947130245266,364.9567145893616L605.0118901277418,366.5940222079888L601.3279479858303,369.9709691714078L598.4626596532325,370.3802960760646L595.5973713206347,372.42693059934874L594.778717511321,374.37123339646865L588.4341504891402,378.0551755383801L585.1595352518856,380.71580041864956L582.4989103716161,384.0927473820684L581.6802565623025,388.0836847024725L582.7035738239446,392.0746220228766L584.5455448949003,396.98654487875854L587.2061697751697,400.97748219916264L587.2061697751697,403.43344362710366L589.8667946554391,409.98267410161293L589.6621312031107,413.87127969585276L589.4574677507823,416.0202459453012L588.0248235844833,419.49952463488427L586.387515965856,420.2158467180337L583.5222276332582,419.6018563610485L582.7035738239446,417.0435632069433L580.4522758483321,415.71325076680864L577.3823240634057,410.90365963709075L574.7216991831364,406.5033954120298L573.9030453738227,404.25209743641733L575.1310260877932,400.5681552945058L573.4937184691659,397.3958717834154L568.9911225179408,392.68861237986187L566.9444879946566,391.7676268443839L561.2139113294609,394.3259199984892L560.1905940678189,394.0189248199966L557.325305735221,391.46063166589136L553.846027045638,390.0279874995924L547.2967965711288,390.7443095827419L542.3848737152467,390.1303192257566L538.08694121635,390.43731440424926L535.630979788409,391.35829993972715L536.6542970500511,392.89327583219017L536.6542970500511,395.14457380780283L537.6776143116931,396.27022279560913L536.6542970500511,397.0888766049228L534.607662526767,396.16789106944486L532.3563645511545,397.29354005725116L528.2630955045861,397.0888766049228L524.1698264580178,394.1212565461608L519.0532401498074,394.8375786293102L514.959971103239,393.50726618917554L511.480692413656,393.9165930938324L506.56876955777403,395.24690553396704L501.45218324956375,399.44250630669956L495.92627003669645,401.89846773464046L492.6516547994418,404.6614243410741L491.42367408547136,407.21971749517934L491.42367408547136,411.1083230894192L491.6283375377998,413.87127969585276L492.6516547994418,415.71325076680864L490.6050202761577,415.917914219137L486.5117512295894,414.68993350516644L482.0091552783642,412.95029416037494L480.37184765973683,410.2896692801056L479.1438669457664,406.29873195970146L475.8692517085117,403.0241167224468L473.8226171852276,399.647169759028L470.9573288526298,395.75856416478814L467.06872325838987,393.50726618917554L462.36146385483636,393.6095979153397L458.8821851652533,398.11219386656484L454.1749257616998,396.4748862479375L451.10497397677346,394.73524690314593L449.6723298104746,391.5629633920555L447.83035873951883,388.59534333329356L444.5557435022642,386.1393819053526L441.48579171733803,384.2974108343968L439.4391571940538,382.3531080372769L429.6153114822899,382.3531080372769L429.6153114822899,384.6044060128894L425.1127155310648,384.6044060128894L413.8562256530019,384.70673773905355L400.7577647039833,380.71580041864956L392.36656315851826,377.952843812216L392.77589006317504,376.8271948244097L385.6126692316806,377.44118518139487L379.0634387571713,377.8505120860517L378.24478494785757,374.9852237534539L374.5608428059461,371.7106085161993L371.9002179256767,370.9942864330498L371.28622756869146,369.3569788144225L368.0116123314368,369.04998363592983L365.96497780815264,367.51500774346675L360.6437280476139,367.0033491126457L359.211083881315,366.0823635771678L358.59709352432975,363.01241179224166L353.0711803114625,357.28183512704595L348.363920907909,349.29996048623775L348.5685843602374,348.0719797722673L345.90795947996793,346.1276769751473L341.6100269810713,341.4204175715937L340.7913731717576,336.71315816804025L337.7214213868314,333.64320638311403L338.94940210080193,328.9359469795605L338.74473864847346,324.0240241236785L337.10743102984617,319.7260916247817L339.1540655531303,314.3025101380788L339.972719362444,309.18592382986833L340.5867097194291,304.0693375216579L339.56339245778724,296.39445805934247L337.7214213868314,291.58486692962475L336.0841137682041,288.92424204935526L336.9027675775177,287.79859306154896L345.0893056706543,289.7428958586688L348.15925745558053,295.06414561920764L349.5919016218794,293.6315014529089L348.5685843602374,288.92424204935526ZM161.5061889320658,448.6640665916835L162.52950619370773,449.17572522250447L163.55282345534994,449.89204730565393L164.98546762164878,451.93868182893806L164.78080416932048,452.24567700743074L162.52950619370773,453.4736577214012L160.68753512275208,454.29231153071487L159.86888131343846,455.31562879235696L158.43623714713948,454.4969749830433L158.64090059946795,452.85966736441594L157.82224679015434,450.81303284113176L158.02691024248267,450.1990424841465L159.05022750412473,449.2780569486687L158.64090059946795,448.1524079608624L158.84556405179626,447.6407493300414L159.45955440878168,447.7430810562056ZM158.23157369481115,444.7754609974435L157.6175833378259,445.491783080593L155.7756122668702,445.90110998524983L154.752295005228,444.6731292712793L154.1383046482429,444.16147064045833L154.1383046482429,443.85447546196565L154.752295005228,443.34281683114466L156.59426607618383,443.9568071881299ZM153.93364119591442,442.4218312956668L153.72897774358609,443.03582165265203L150.65902595865975,442.93348992648777L151.06835286331656,442.2171678433384ZM146.5657569120915,439.35187951074056L147.17974726907664,439.7612064153974L148.817054887704,441.6031774863531L148.40772798304715,441.91017266484573L147.9984010783902,441.91017266484573L146.15643000743455,441.7055092125173L145.337776198121,440.37519677238265L145.13311274579252,440.1705333200542ZM138.99320917594014,436.4865911781427L139.1978726282686,437.8169036182774L138.37921881895488,438.43089397526273L136.53724774799906,437.40757671362053L136.74191120032754,436.9982498089638L137.76522846196963,436.3842594519785ZM98.67450906724218,219.54333171002247L103.17710501846733,220.05499034084357L103.79109537545264,222.30628831645606L100.10715323354117,223.12494212576968L96.4232110916297,222.1016248641277L92.94393240204658,220.56664897166445ZM173.9906595240992,233.25578301602621L177.67460166601063,233.66510992068316L180.13056309395157,235.40474926547466L175.21864023806955,238.16770587190825L169.48806357287398,240.31667212135665L166.62277524027627,238.88402795505772L165.8041214309624,236.2234030747884L170.92070773917285,234.17676855150404ZM243.57623331576033,166.53549755696292L243.37156986343186,187.6158331467896L243.37156986343186,219.95265861467925L249.10214652862757,220.15732206700767L254.6280597414947,221.69229795947092L258.5166653357346,224.25059111357592L263.6332516439451,227.93453325548745L269.1591648568122,224.76224974439702L274.88974152200774,222.92027867344126L277.75502985460577,225.8878987322032L281.64363544884554,228.24152843398008L286.9648852093843,230.7998215880853L290.4441638989675,234.89309063465356L296.174740564163,241.33998938299862L305.99858627592687,244.921599798746L305.99858627592687,248.5032102144932L302.9286344910008,251.2661668209268L299.8586827060745,249.11720057147852L294.7420963978642,247.3775612266869L293.10478877923686,242.36330664464077L285.7369044954138,237.75837896725147L282.66695271048764,232.43712920671265L277.345702949949,232.02780230205582L268.34051104749847,231.9254705758915L261.58661712066095,230.2881629572642L249.92080033794116,224.3529228397402L244.39488712507392,223.3296055780981L234.36637796098162,221.28297105481397L226.5891667725019,221.79462968563496L215.33267689443892,219.1340048053657L208.57878296760128,216.67804337742461L202.43887939774876,217.90602409139512L203.46219665939097,221.89696141179928L200.39224487446464,222.2039565902918L193.84301439995545,223.4319373042623L188.726428091745,225.37624010138234L182.58652452189247,226.50188908918864L181.76787071257888,223.2272738519339L184.22383214051982,217.59902891290244L190.36373571037234,215.859389568111L188.726428091745,214.42674540181207L181.5632072602504,217.59902891290244L177.67460166601063,221.38530278097818L169.48806357287398,225.47857182754643L173.58133261944238,228.24152843398008L168.2600828589036,232.23246575438424L162.12017928905092,234.68842718232514L156.38960262385535,236.4280665271168L154.95695845755648,238.88402795505772L146.15643000743455,241.85164801381973L144.3144589364788,244.51227289408922L137.76522846196963,246.96823432203013L133.67195941540137,246.45657569120908L128.55537310719092,248.09388330983637L122.62013298966684,250.0381861069564L117.91287358611334,251.88015717791217L108.29369132667779,253.51746479653946L107.27037406503575,252.59647926106163L113.61494108721661,249.93585438079214L119.14085430008384,248.19621503600064L125.07609441760792,245.12626325107442L132.23931524910233,244.4099411679249L135.10460358170008,242.0563114661481L142.88181477018009,238.6793645027293L144.10979548415042,237.55371551492306L148.40772798304715,235.50708099163887L149.43104524468924,231.2091484927421L152.2963335772871,227.93453325548745L145.74710310277777,229.57184087411474L143.90513203182195,228.65085533863686L140.83518024689596,230.69748986192116L137.1512381049845,227.83220152932324L135.51393048635714,229.87883605260737L133.467295963073,227.0135477200095L127.73671929787713,229.26484569562223L124.25744060829419,229.26484569562223L123.64345025130888,225.8878987322032L124.66676751295108,223.84126420891909L121.18748882336797,221.79462968563496L113.61494108721661,222.92027867344126L108.9076816836631,220.25965379317194L105.01907608942315,218.827009626873L105.01907608942315,215.65472611578258L100.51648013819795,213.19876468784156L102.76777811381072,209.92414945058704L107.47503751736406,206.75186593949644L109.52167204064818,203.88657760689875L114.02426799187339,203.47725070224192L117.91287358611334,204.39823623771974L122.62013298966684,201.6352796312862L126.71340203623521,202.14693826210708L131.01133453513182,200.30496719115138L129.98801727348973,197.74667403704615L126.71340203623521,196.72335677540417L131.01133453513182,194.47205879979163L127.53205584554883,194.57439052595572L121.39215227569645,195.80237123992634L119.7548446570691,197.03035195389685L115.25224870584378,195.80237123992634L107.27037406503575,196.41636159691154L98.8791725195706,195.08604915677682L96.4232110916297,192.83475118116428L89.25999026013511,189.56013594390964L97.24186490094331,187.10417451596874L109.93099894530513,184.3412179095351L114.63825834885864,184.3412179095351L113.81960453954508,187.20650624213283L125.89474822692148,187.0018427898044L121.18748882336797,183.4202323740572L114.22893144420186,181.27126612460881L110.13566239763361,178.4059777920109L104.81441263709485,176.05234809023415L97.03720144861484,174.21037701927838L100.10715323354117,171.24275696051637L110.13566239763361,171.03809350818796L117.29888322912808,168.47980035408273L118.7315273954269,165.7168437476492L124.4621040606225,162.95388714121555L130.1926807258182,162.33989678423035L140.83518024689596,159.78160363012512L146.15643000743455,160.19093053478196L154.752295005228,157.22331047602L163.34816000302146,158.3489594638262L167.6460925019182,160.90725261793142L170.10205392985924,159.88393535628944L179.72123618929476,160.19093053478196L179.31190928463795,161.52124297491662L188.11243773475974,162.44222851039444L193.84301439995545,161.93056987957357L205.91815808733188,163.67020922436507L216.76532106073793,164.1818678551861L221.06325355963466,165.00052166449967L228.63580129578602,164.0795361290218L237.23166629357948,165.7168437476492ZM68.79364502729356,200.20263546498722L72.27292371687673,201.32828445279353L75.75220240645984,200.71429409580833L80.45946181001318,202.2492699882714L85.98537502288048,202.96559207142082L85.57604811822364,203.579582428406L81.27811561932697,204.80756314237658L76.98018312043024,203.579582428406L74.72888514481764,202.55626516676404L69.81696228893566,202.8632603452566L68.38431812263678,202.3516017144355Z" style="stroke: rgb(68, 68, 68); stroke-opacity: 1; stroke-width: 1px; opacity: 1;"/><path class="choroplethlocation" fill="rgb(110, 206, 88)" d="M346.72661328928166,284.3193143719659L345.90795947996793,284.21698264580164L334.85613305423357,278.69106943293446L330.7628640076653,276.2351080049935L320.5296913912444,273.8814783032167L317.45973960631835,268.86722372117055L318.07372996330344,265.3879450315875L310.910509131809,262.93198360364653L309.8871918701668,258.3270559262572L302.9286344910008,254.2337868796888L302.9286344910008,251.2661668209268L305.99858627592687,248.5032102144932L305.99858627592687,244.921599798746L296.174740564163,241.33998938299862L290.4441638989675,234.89309063465356L286.9648852093843,230.7998215880853L281.64363544884554,228.24152843398008L277.75502985460577,225.8878987322032L274.88974152200774,222.92027867344126L269.1591648568122,224.76224974439702L263.6332516439451,227.93453325548745L258.5166653357346,224.25059111357592L254.6280597414947,221.69229795947092L249.10214652862757,220.15732206700767L243.37156986343186,219.95265861467925L243.37156986343186,187.6158331467896L243.57623331576033,166.53549755696292L254.01406938450955,167.86580999709759L263.0192612869598,170.62876660353118L268.95450140448384,171.14042523435228L273.8664242603659,168.78679553257547L280.8249816395318,167.04715618778397L289.2161831849969,167.66114654476917L297.81204818279036,165.20518511682826L307.0219035375691,163.77254095052933L311.1151725841373,166.12617065230614L315.20844163070575,164.7958582121713L316.43642234467615,162.135233331902L320.5296913912444,162.74922368888718L330.14887365068,167.86580999709759L337.7214213868314,163.9772044028577L338.3354117438167,168.27513690175437L345.2939691229828,167.35415136627654L347.5452670985952,165.7168437476492L354.5038244777615,166.02383892614182L363.09968947555495,168.47980035408273L376.4028138769019,170.52643487736685L384.18002506538164,171.4474204128448L389.91060173057735,171.14042523435228L397.48314946672866,174.00571356695002L389.5012748259206,176.87100189954788L399.73444744234126,177.99665088735412L415.0842063669724,177.38266053036892L419.99612922285434,176.35934326872678L425.93136934037847,179.73629023214556L432.2759363625593,176.87100189954788L426.34069624503525,174.51737219777107L430.0246383869467,172.5730694006512L436.98319576611283,172.26607422215852L441.48579171733803,171.75441559133748L446.19305112089154,173.08472803147208L451.9236277860871,176.15467981639836L458.26819480826805,175.74535291174158L468.2967039723603,178.3036460658468L477.09723242248225,177.38266053036892L485.2837705156189,177.48499225653308L484.66978015863356,174.00571356695002L489.786366466844,172.98239630530804L498.5868949169658,174.92669910242785L498.5868949169658,180.24794886296667L502.0661736065489,175.74535291174158L506.77343301010245,175.95001636407L509.2293944380434,170.2194396988744L503.089490868191,166.63782928312702L496.54026039368165,164.38653130751447L496.94958729833854,158.14429601149783L503.70348122517623,153.94869523876525L511.27602896132754,154.86968077424314L517.0066056265233,157.42797392834837L524.783816815003,163.77254095052933L519.6672305067926,166.63782928312702L530.3097300278702,167.76347827093332L530.1050665755417,173.59638666229318L537.8822777640216,169.0937907110681L544.6361716908593,172.77773285297963L542.7942006199036,176.97333362571197L548.3201138327709,180.86193921995203L554.2553539502949,176.66633844721946L558.5532864491915,171.85674731750174L558.75794990152,165.61451202148504L566.9444879946566,166.02383892614182L575.3356895401216,166.84249273545544L582.908237276273,169.7077810680533L583.3175641809298,172.47073767448694L579.0196316820332,175.54068945941316L583.1129007286014,178.50830951817522L582.2942469192878,181.27126612460881L571.2424204935533,185.26220344501297L563.2605458527452,186.1831889804908L557.325305735221,184.44354963569918L555.6879981165937,187.3088379682971L550.1620849037265,192.11842909801481L548.5247772850992,194.57439052595572L541.9755468105899,198.46299612019567L533.7890087174533,198.7699912986883L529.2864127662281,201.2259527266292L528.8770858615713,204.90989486854073L522.3278553870621,205.62621695169014L515.3692980078958,210.2311446290795L509.2293944380434,216.67804337742461L506.9780964624309,221.07830760248555L506.77343301010245,227.72986980315903L514.959971103239,228.65085533863686L517.6205959835085,233.97210509917562L520.2812208637779,238.27003759807252L528.2630955045861,237.14438861026628L538.7009315733353,239.60035003820718L544.4315082385309,241.85164801381973L548.5247772850992,244.51227289408922L555.6879981165937,246.04724878655225L561.6232382341177,248.40087848832906L571.0377570412248,248.81020539298584L577.1776606110773,249.32186402380694L576.3590068017636,254.2337868796888L577.9963144203911,259.9643635448846L582.2942469192878,266.3089305670653L590.6854484647528,271.7325120537684L594.9833809636494,269.8905409828127L598.0533327485757,264.05763259145283L595.188044415978,255.05244068900254L591.0947753694095,252.08482063024053L600.3046307241882,249.42419574997103L606.649197746369,245.43325842956705L609.9238129836239,241.4423211091629L609.3098226266385,237.65604724108715L605.4212170323987,232.84645611136943L598.667323105561,228.54852361247276L605.2165535800702,222.61328349494875L602.7605921521292,217.39436546057402L600.9186210811736,208.5938370104522L604.8072266754134,207.2635245703175L614.6310723871774,208.79850046278057L620.5663125047014,209.3101590936016L625.273571908255,207.87751492730268L630.3901582164654,209.82181772442271L637.5533790479599,213.09643296167735L639.1906866665872,215.2453992111258L649.4238592830079,215.75705784194668L649.2191958306795,220.46431724550035L651.0611669016353,227.62753807699488L656.1777532098457,228.54852361247276L660.4756857087425,231.9254705758915L668.662223801879,228.75318706480118L673.9834735624179,222.51095176878448L677.8720791566577,219.85032688851516L682.1700116555544,224.8645814705613L689.5378959393773,232.1301340282199L695.8824629615582,238.98635968122198L693.6311649859457,242.5679700969692L701.203712722097,245.74025360805956L706.3202990303075,249.01486884531425L715.3254909327577,250.44751301161318L719.0094330746692,252.28948408256895L721.2607310502817,257.09907521228666L725.7633270015069,257.8153972954361L728.0146249771194,259.9643635448846L728.4239518817762,266.4112622932296L724.330682835208,268.56022854267786L720.2374137886396,270.5045313397979L710.8228949815325,272.551165863082L703.6596741500381,277.25842526663564L694.0404918906024,278.1794108021135L681.965348203226,276.95143008814296L673.3694832054326,276.8490983619787L667.4342430879085,277.25842526663564L662.726983684355,281.3516943132039L655.5637628528603,283.9099874673091L647.3772247597238,291.38020347729616L640.8279942852146,296.701453237835L645.5352536887681,295.678135976193L654.7451090435467,288.2079199662058L666.6155892785948,283.50066056265234L675.2114542763884,282.98900193183124L680.1233771322702,285.75195853826483L674.8021273717314,289.53823240634046L676.6440984426872,295.678135976193L678.4860695136429,299.9760684750897L685.8539537974659,302.84135680768753L695.2684726045729,302.0227029983738L700.9990492697686,295.57580425002874L701.4083761744255,299.669073296597L704.8876548640085,301.8180395460454L697.9290974848425,305.50198168795686L685.4446268928091,308.8789286513759L679.7140502276135,311.2325583531525L673.3694832054326,315.3258273997209L669.0715507065358,314.8141687688999L668.8668872542074,310.0045776391821L678.6907329659714,305.39964996179276L669.6855410635211,305.50198168795686L663.3409740413402,306.2183037711063L659.6570318994288,303.04602026001595L659.6570318994288,295.2688090715362L656.9964070191594,293.6315014529089L653.3124648772479,294.55248698838676L651.2658303539637,293.1198428220878L646.967897855067,297.41777532098445L645.3305902364397,301.8180395460454L643.2839557131556,304.3763327001506L640.8279942852146,305.2973182356285L638.9860232142587,305.6043134141211L638.3720328572736,306.93462585425584L627.9341967885243,306.93462585425584L619.3383317907309,307.03695758041994L616.88237036279,308.0602748420621L610.7424667929375,312.15354388863034L610.1284764359523,312.5628707932873L608.2865053649964,314.8141687688999L602.9652556044576,314.8141687688999L597.4393423915905,314.8141687688999L594.9833809636494,315.7351543043777L595.8020347729631,316.86080329218396L596.2113616776201,318.60044263697546L596.2113616776201,319.1121012677965L588.843477393797,321.9773896003944L582.908237276273,322.89837513587224L576.3590068017636,325.86599519463425L574.9263626354648,325.86599519463425L572.8797281121806,325.0473413853205L572.2657377551955,324.2286875760069L572.4704012075238,323.61469721902176L573.6983819214943,321.67039442190173L576.3590068017636,318.4981109108113L577.9963144203911,315.12116394739235L576.972997158749,310.20924109151053L575.7450164447785,304.9903230571358L569.8097763272544,302.3296981768665L570.4237666842396,301.30638091522434L569.605112874926,300.69239055823914L567.9678052562987,300.69239055823914L566.9444879946566,299.77140502276126L566.5351610899997,298.44109258262665L565.5118438283577,298.9527512134477L564.0791996620588,298.8504194872834L564.2838631143873,298.23642913029823L563.0558824004166,297.72477049947713L562.4418920434315,296.18979460701405L558.1439595445347,294.34782353605834L553.4367001409812,292.50585246510263L547.910786928114,290.2545544894899L542.5895371675751,288.2079199662058L537.4729508593648,289.8452275848331L535.630979788409,289.9475593109974L528.6724224092429,288.41258341853415L523.9651630056893,289.1289055016836L518.4392497928221,287.3892661568922L512.7086731276265,286.4682806214143L508.82006753338663,286.16128544292167L506.9780964624309,285.13796818127946L505.95477920078883,282.06801639635336L504.1128081298331,282.06801639635336L503.90814467750465,284.3193143719659L492.2423278947849,284.3193143719659L472.7992999235855,284.3193143719659L453.5609354047144,284.3193143719659L436.3692054091276,284.3193143719659L419.3821388658691,284.3193143719659L402.59973577493906,284.3193143719659L385.20334232702385,284.3193143719659L379.67742911415655,284.3193143719659L362.8950260232265,284.3193143719659ZM567.5584783516418,207.7751832011386L571.6517473982101,205.21689004703336L579.42895858669,205.21689004703336L579.42895858669,206.34253903483966L572.6750646598522,209.51482254593003L568.7864590656123,209.3101590936016ZM591.5041022740664,148.93444065671918L585.1595352518856,145.96682059795717L585.364198704214,143.92018607467304L588.2294870368117,143.5108591700162L601.1232845335019,144.1248495270014L610.947130245266,147.29713303809177L611.5611206022512,148.83210893055485L605.4212170323987,148.6274454782265L599.2813134625462,148.5251137520624L593.1414098926937,149.34376756137596ZM588.4341504891402,209.92414945058704L590.4807850124243,208.18451010579537L592.9367464403653,208.28684183195963L594.3693906066643,209.51482254593003L592.1180926310516,212.4824426046922L589.6621312031107,211.97078397387116L588.0248235844833,210.2311446290795ZM512.7086731276265,136.55230179085004L509.6387213427003,138.80359976646258L501.45218324956375,138.39427286180575L494.4936258703975,136.8592969693426L497.56357765532374,134.3010038152375L505.75011574846036,132.76602792277436L510.66203860434234,134.81266244605848ZM511.480692413656,122.12352840169672L508.82006753338663,122.32819185402514L498.177568012309,121.9188649493683L496.74492384601007,120.38388905690522L508.2060771764014,120.48622078306937L512.0946827706413,121.50953804471152ZM494.90295277505436,115.06263929636646L501.6568467018921,117.00694209348626L500.2242025355931,119.05357661677061L491.83300099012814,120.28155733074101L487.12574158657463,118.95124489060629L484.66978015863356,116.80227864115784L484.2604532539768,114.44864893938126L491.6283375377998,114.65331239170962ZM543.8175178815457,139.92924875426888L534.607662526767,139.21292667111936L519.4625670544642,137.37095560016365L517.6205959835085,134.3010038152375L516.8019421741949,131.43571548263964L511.27602896132754,128.97975405469873L499.40554872627945,128.2634319715492L492.8563182517702,126.52379262675765L494.90295277505436,124.17016292498084L506.77343301010245,124.5794898296378L512.9133365799548,126.4214609005935L524.1698264580178,126.31912917442929L529.0817493138998,128.2634319715492L527.8537685999293,130.41239822099755L534.4029990744385,131.64037893496806L537.8822777640216,132.97069137510266L545.6594889525013,133.2776865535954L553.846027045638,133.68701345825218L562.8512189480882,132.45903274428167L574.517035730808,132.04970583962483L583.7268910855867,132.45903274428167L589.8667946554391,134.60799899373006L591.0947753694095,136.96162869550682L587.6154966798265,138.39427286180575L579.0196316820332,139.62225357577614L571.8564108505385,138.90593149262685L555.4833346642653,139.8269170281048ZM412.42358148670303,118.54191798594951L420.4054561275111,119.46290352142739L418.5634850565554,121.10021114005474L407.9209855354779,122.73751875868203L399.52978399001285,120.89554768772632L404.23704339356635,119.15590834293471ZM414.0608891053304,114.85797584403804L421.6334368414817,115.98362483184428L414.6748794623155,117.10927381965058L405.26036065520844,117.10927381965058L405.26036065520844,116.29062001033697L411.19560077273246,114.55098066554535ZM728.8332787864331,271.1185216967831L725.7633270015069,274.70013211253047L722.0793848595954,279.6120549684123L725.7633270015069,277.7700838974566L729.6519325957468,278.9980646114271L727.6052980724626,280.9423674085471L732.7218843806729,282.47734330101014L735.177845808614,281.1470308608755L740.9084224738097,282.886670205667L739.2711148551823,286.9799392522352L743.1597204494221,286.0589537167574L743.9783742587358,289.0265737755195L745.6156818773632,292.60818419126673L743.3643839017507,297.62243877331287L740.7037590214812,297.8271022256412L737.0198168795698,296.701453237835L738.2477975935402,292.0965255604456L736.610489974913,291.38020347729616L730.0612595004036,296.2921263331782L726.5819808108206,296.0874628808498L730.675249857389,293.42683800058046L725.1493366445217,292.0965255604456L719.0094330746692,292.4035207389383L707.9576066489348,292.19885728660995L707.1389528396212,290.56154966798255L710.6182315292042,288.5149151446984L708.1622701012632,286.9799392522352L713.0741929571451,283.60299228881644L718.8047696223408,274.49546866020205L722.4887117642522,271.22085342294736L727.4006346201343,269.2765506258274L730.0612595004036,269.58354580432ZM568.1724687086271,192.732419455L574.3123722784795,194.67672225212004L580.8616027529888,196.41636159691154L581.2709296576456,199.07698647718098L585.5688621565423,198.66765957252403L589.6621312031107,200.611962369644L584.5455448949003,202.3516017144355L575.7450164447785,201.02128927430078L572.4704012075238,198.46299612019567L566.9444879946566,201.43061617895762L558.75794990152,204.39823623771974L556.9159788305642,201.02128927430078L549.1387676420845,201.6352796312862L554.0506904979663,198.7699912986883L554.86934430728,194.36972707362742L556.7113153782358,189.15080903925286L560.804584424804,189.56013594390964L561.8279016864461,192.11842909801481L564.8978534713724,191.197443562537ZM597.234678939262,151.49273381082435L602.5559286998009,149.2414358352118L615.2450627441626,152.10672416780955L623.0222739326423,154.86968077424314L623.6362642896277,157.3256422021842L634.2787638107052,156.0976614882137L640.2140039282292,159.6792719039609L653.9264552342331,161.93056987957357L658.8383780901152,164.1818678551861L664.1596278506539,169.50311761572488L653.7217917819046,172.16374249599426L667.2295796355801,175.84768463790573L676.2347715380304,177.17799707804056L684.421309631167,182.39691511241506L693.4265015336173,182.70391029090774L691.5845304626616,186.69484761131173L681.5560212985692,193.3464098119852L674.597463919403,190.89044838404425L665.5922720169527,185.4668668973414L658.2243877331298,186.1831889804908L657.6103973761446,189.35547249158122L663.5456374936687,192.732419455L671.3228486821483,195.29071260910524L673.574146657761,196.82568850156832L677.2580887996725,202.45393344059983L675.4161177287167,206.54720248716808L668.2528968972222,205.01222659470494L653.9264552342331,200.4072989173156L661.9083298750413,205.31922177319768L667.8435699925653,208.79850046278057L668.8668872542074,210.7428032599006L653.3124648772479,208.491505284288L641.2373211898714,205.21689004703336L634.2787638107052,202.45393344059983L636.3253983339894,200.81662582197242L627.729533336196,197.95133748937468L619.5429952430593,195.18838088294092L619.5429952430593,196.82568850156832L603.1699190567861,197.74667403704615L598.4626596532325,195.70003951376202L602.146601795144,191.60677046719377L612.7891013162216,191.50443874102945L624.4549180989413,190.6857849317159L622.6129470279856,188.7414821345959L624.6595815512696,185.8761938019981L632.0274658350927,180.35028058913093L630.3901582164654,177.7919874350257L628.1388602408528,175.84768463790573L619.5429952430593,173.08472803147208L607.8771784603397,171.14042523435228L611.5611206022512,169.7077810680533L605.6258804847271,166.22850237847024L600.5092941765167,165.9215071999776L596.0066982252916,163.9772044028577L593.1414098926937,165.61451202148504L582.7035738239446,166.33083410463456L562.0325651387745,165.102853390664L549.9574214513981,163.46554577203665L540.7475660966194,162.54456023655877L536.0403066930659,160.60025743943874L541.9755468105899,157.9396325591694L533.9936721697817,157.9396325591694L532.1517010988259,152.2090558939738L536.4496335977227,147.09246958576335L542.3848737152467,144.7388398839866L557.1206422828926,143.30619571768767L552.822709783996,146.99013785959914L557.325305735221,150.4694165491822L562.6465554957599,145.86448887179284L576.972997158749,143.6131908961803L586.7968428705128,149.44609928754022L585.9781890611993,153.13004142945164ZM507.7967502717446,141.3618929205678L519.6672305067926,141.56655637289617L530.5143934801987,142.9992005391951L521.9185284824052,148.0134551212413L515.1646345555675,149.1391041090476L509.02473098571505,153.43703660794438L502.4755005112058,153.13004142945164L498.99622182162267,148.21811857356965L499.20088527395103,145.35283024097197L502.0661736065489,142.8968688130309ZM346.5219498369532,130.10540304250497L356.14113209638884,125.90980226977246L367.80694887910835,122.22586012786093L376.6074773292302,122.22586012786093L384.3846885177101,121.4072063185472L383.56603470839633,125.80747054360819L379.2681022094996,127.75177334072822L373.946852448961,128.05876851922085L363.30435292788326,130.51472994716175L354.299161025433,131.33338375647537ZM290.4441638989675,255.66643104598774L295.9700771118347,255.1547724151667L294.33276949320737,261.60167116351187L299.24469234908923,266.2065988409012L296.99339437347663,266.2065988409012L293.5141156838938,263.5459739606317L291.4674811606094,260.98768080652655L288.60219282801165,259.1457097355708L287.5788755663696,256.6897483076299L287.7835390186979,254.84777723667412ZM445.16973385924945,111.99268751144018L456.4262237373123,112.81134132075391L471.77598266194343,114.85797584403804L476.0739151608402,117.62093245047168L478.3252131364527,119.97456215224844L469.115357781674,119.36057179526307L459.700838974567,117.51860072430736L447.0117049302052,117.21160554581485L452.5376181430724,115.57429792718756L445.5790607639063,114.24398548705267ZM331.99084472163565,278.895732885263L334.85613305423357,281.5563577655323L340.5867097194291,283.9099874673091L342.8380076950417,287.0822709783995L339.972719362444,287.79859306154896L330.55820055533684,285.2402999074438L328.9208929367095,283.29599711032375L323.8043066284992,281.2493625870396L322.7809893668571,279.6120549684123L317.05041270166157,278.5887377067703L314.7991147260488,275.518785921844L315.20844163070575,274.18847348170937L321.34834520055824,275.41645419567993L324.82762389014124,276.33743973115776L330.14887365068,276.95143008814296ZM354.0944975731047,139.62225357577614L362.07637221391275,140.7479025635826L376.6074773292302,141.05489774207518L382.1333905420975,142.79453708686674L388.27329411195,145.14816678864344L381.1100732804554,146.58081095494236L367.1929585221232,150.57174827534652L360.2344011429571,154.56268559575068L360.2344011429571,157.01864702369159L345.2939691229828,159.78160363012512L342.22401733805646,157.3256422021842L329.12555638903797,154.25569041725794L331.5815178169789,151.90206071548113L335.4701234112188,147.70645994274855L340.3820462671008,144.02251780083714L334.85613305423357,140.54323911125408ZM432.07127291023085,131.64037893496806L437.1878592184412,130.71939339949017L443.12309933596526,130.92405685181853L444.1464165976074,133.7893451844165L440.66713790802436,136.44997006468583L421.42877338915326,137.37095560016365L407.1023317261642,139.8269170281048L398.30180327604234,139.92924875426888L397.68781291905714,138.08727768331312L409.35362970177675,135.5289845292079L383.7706981607248,136.2453066123574L375.78882351991666,135.22198935071543L383.56603470839633,129.69607613784802L388.88728446893526,128.05876851922085L404.85103375055155,130.0030713163407L415.0842063669724,133.38001827975967L424.9080520787363,133.7893451844165L416.72151398559964,128.36576369771342L422.04276374613846,126.31912917442929L427.9780038636626,126.93311953141449L429.8199749346183,129.59374441168393ZM439.4391571940538,147.3994647642561L445.78372421623465,149.7530944660329L449.2630029058177,155.2790076789001L451.10497397677346,159.26994499930413L460.724156236209,162.03290160573766L470.9573288526298,164.7958582121713L470.3433384956445,167.2518196401124L460.92881968853743,167.76347827093332L464.6127618304489,169.9124445203817L462.77079075949314,171.9590790436659L452.332954690744,171.14042523435228L442.50910897898007,169.60544934188903L435.95987850447074,169.9124445203817L425.3173789833932,171.85674731750174L410.9909373204041,172.6754011268153L400.7577647039833,173.1870597576364L397.68781291905714,170.52643487736685L389.91060173057735,168.99145898490383L384.9986788746954,169.60544934188903L377.8354580432008,165.102853390664L381.7240636374407,164.4888630336788L390.5245920875626,163.56787749820091L398.5064667283707,163.77254095052933L405.8743510121937,162.8515554150515L394.8225245864593,161.52124297491662L382.74738089908277,161.93056987957357L374.76550625827457,161.82823815340925L371.6955544733484,159.6792719039609L384.794015422367,157.42797392834837L376.19815042457344,157.53030565451263L366.16964126048117,155.99532976204938L370.8769006640347,151.79972898931703L374.97016971060293,149.54843101370437L390.11526518290566,146.06915232412126L396.0505053004298,147.19480131192768L393.185216967832,149.855426192197L405.6696875598652,148.11578684740556L413.6515622006735,150.9810751800033L419.99612922285434,148.11578684740556L425.3173789833932,149.95775791836132L430.0246383869467,155.4836711312285L432.8899267195445,153.13004142945164L428.79665767297627,147.29713303809177L433.70858052885814,146.47847922877827ZM474.027280637556,149.54843101370437L467.68271361537506,145.76215714562875L474.43660754221287,142.9992005391951L481.1905014690505,144.2271812531655L491.42367408547136,143.5108591700162L492.8563182517702,145.14816678864344L487.5350684912314,147.91112339507697L496.13093348902487,150.3670848230181L495.1076162273828,155.4836711312285L485.8977608726042,157.63263738067678L480.37184765973683,157.22331047602L476.483242065497,154.97201250040746L462.36146385483636,150.67408000151073L462.36146385483636,148.83210893055485ZM439.029830289397,144.43184470549403L446.6023780255483,144.2271812531655L450.90031052444505,145.45516196713606L445.9883876685631,149.2414358352118L436.98319576611283,145.25049851480765ZM484.66978015863356,127.44477816223548L485.0791070632905,126.72845607908607L489.3770395621872,129.28674923319124L489.5817030145156,132.25436929195325L486.9210781342462,136.44997006468583L477.50655932713903,137.06396042167114L471.36665575728665,136.14297488619326L471.57131920961507,132.86835964893856L462.36146385483636,133.2776865535954L461.95213695017947,128.8774223285344L468.09204052003196,129.08208578086283L476.483242065497,127.13778298374302ZM499.20088527395103,104.62480322761718L503.089490868191,102.8851638828258L508.82006753338663,102.47583697816896L506.36410610544567,101.14552453803412L519.6672305067926,100.9408610857057L526.8304513382872,103.90848114446777L536.4496335977227,105.13646185843828L545.8641524048297,106.26211084624452L550.3667483560549,109.94605298815605L557.1206422828926,111.78802405911176L549.3434310944128,113.52766340390332L538.9055950256637,117.82559590280005L528.6724224092429,118.23492280745688L517.0066056265233,117.51860072430736L510.86670205667076,115.16497102253055L510.86670205667076,113.11833649924642L515.3692980078958,111.5833606067834L505.13612539147516,111.5833606067834L498.79155836929425,109.74138953582764L495.1076162273828,107.18309638172241ZM524.3744899103463,97.25691894379429L532.7656914558113,96.23360168215231L539.3149219303205,96.02893822982372L550.5714118083833,95.10795269434584L558.9626133538484,92.95898644489762L565.9211707330146,93.26598162339013L572.0610743028669,94.90328924201742L576.3590068017636,91.83333745709132L583.9315545379151,90.91235192161344L594.1647271543359,90.29836156462807L611.5611206022512,89.99136638613561L614.426408934849,90.60535674312081L631.0041485734506,89.68437120764287L643.2839557131556,89.99136638613561L655.5637628528603,90.40069329079239L670.7088583251632,90.81002019544917L682.9886654648681,91.52634227859863L693.4265015336173,93.06131817106171L693.0171746289604,94.59629406352497L679.3047233229565,97.05225549146587L665.3876085646243,98.28023620543644L660.271022256414,99.50821691940678L672.7554928484474,99.50821691940678L659.2477049947719,102.98749560898983L650.0378496399932,104.52247150145308L640.2140039282292,109.22973090500653L628.5481871455096,110.15071644048442L624.8642450035981,111.27636542829066L607.6725150080111,111.89035578527603L615.6543896488195,112.60667786842549L611.5611206022512,113.62999513006753L616.2683800058047,116.39295173650106L610.947130245266,118.33725453362109L602.146601795144,119.97456215224844L599.4859769148745,122.22586012786093L591.5041022740664,123.96549947265243L592.3227560833801,125.19348018662299L602.146601795144,124.98881673429457L602.146601795144,126.31912917442929L587.0015063228414,129.79840786401235L572.0610743028669,128.161100245385L555.4833346642653,129.08208578086283L546.8874696664719,128.36576369771342L536.2449701453943,128.05876851922085L535.4263163360806,125.39814363895135L546.0688158571581,124.06783119881675L543.2035275245604,119.97456215224844L546.6828062141434,119.56523524759149L561.8279016864461,122.02119667553256L554.0506904979663,118.43958625978524L544.8408351431876,117.31393727197894L549.5480945467414,115.06263929636646L559.5766037108336,113.73232685623174L561.2139113294609,111.78802405911176L553.2320366886528,109.53672608349927L550.7760752607118,106.6714377509013L566.3304976376713,106.87610120322972L570.8330935888964,107.49009156021503L579.6336220390184,105.44345703693091L566.9444879946566,104.7271349537815L546.8874696664719,105.13646185843828L536.8589605023795,103.19215906131825L532.1517010988259,100.9408610857057L525.6024706243167,99.20122174091426ZM617.2916972674468,179.4292950536531L613.6077551255353,181.06660267228045L607.2631881033544,181.3735978507729L605.8305439370554,178.61064124433932L608.2865053649964,175.43835773324895L613.6077551255353,174.61970392393533L617.905687624432,176.25701154256268L618.1103510767605,178.61064124433932ZM501.24751979723527,170.01477624654598L497.7682411076522,171.9590790436659L489.99102991917243,170.2194396988744L485.4884339679473,170.8334300558596L477.7112227794675,168.27513690175437L482.62314563534943,166.53549755696292L486.5117512295894,164.0795361290218L492.6516547994418,165.7168437476492L496.13093348902487,166.74016100929134L497.7682411076522,167.76347827093332ZM678.0767426089861,279.30505978991977L680.1233771322702,278.7934011590987L687.6959248684216,280.22604532539765L693.4265015336173,282.68200675333856L693.6311649859457,283.7053240149807L690.765876653348,283.8076557411448L683.3979923695249,281.9656846701891ZM680.9420309415839,295.4734725238646L682.9886654648681,298.23642913029823L687.0819345114364,298.9527512134477L692.4031842719753,298.8504194872834L689.5378959393773,301.1017174628959L687.4912614160933,301.51104436755276L680.3280405845986,299.0550829396118L678.8953964182998,297.21311186865603Z" style="stroke: rgb(68, 68, 68); stroke-opacity: 1; stroke-width: 1px; opacity: 1;"/></g></g></g><g class="layer frontplot"><g class="scatterlayer"/></g></g></g><g class="funnelarealayer"/><g class="pielayer"/><g class="iciclelayer"/><g class="treemaplayer"/><g class="sunburstlayer"/><g class="glimages"/><defs id="topdefs-acab03"><g class="clips"/></defs><g class="layer-above"><g class="imagelayer"/><g class="shapelayer"/></g><g class="infolayer"><g class="cbcoloraxis colorbar" transform="translate(0,25)"><rect class="cbbg" x="830" y="124" width="69.640625" height="248" style="fill: rgb(0, 0, 0); fill-opacity: 0; stroke: rgb(68, 68, 68); stroke-opacity: 1; stroke-width: 0;"/><g class="cbfills" transform="translate(0,155)"><rect class="cbfill gradient_filled" x="840" y="0" width="30" height="206" style="fill: url('#gacab03-cbcoloraxis');"/></g><g class="cblines" transform="translate(0,155)"/><g class="cbaxis crisp" transform="translate(0,-25)"><g class="ycbcoloraxistick"><text text-anchor="start" x="872.9" y="4.199999999999999" transform="translate(0,386.49999999999994)" style="font-family: 'Open Sans', verdana, arial, sans-serif; font-size: 12px; fill: rgb(42, 63, 95); fill-opacity: 1; white-space: pre; opacity: 1;">0</text></g><g class="ycbcoloraxistick"><text text-anchor="start" x="872.9" y="4.199999999999999" style="font-family: 'Open Sans', verdana, arial, sans-serif; font-size: 12px; fill: rgb(42, 63, 95); fill-opacity: 1; white-space: pre; opacity: 1;" transform="translate(0,345.29999999999995)">0.2</text></g><g class="ycbcoloraxistick"><text text-anchor="start" x="872.9" y="4.199999999999999" style="font-family: 'Open Sans', verdana, arial, sans-serif; font-size: 12px; fill: rgb(42, 63, 95); fill-opacity: 1; white-space: pre; opacity: 1;" transform="translate(0,304.0999999999999)">0.4</text></g><g class="ycbcoloraxistick"><text text-anchor="start" x="872.9" y="4.199999999999999" style="font-family: 'Open Sans', verdana, arial, sans-serif; font-size: 12px; fill: rgb(42, 63, 95); fill-opacity: 1; white-space: pre; opacity: 1;" transform="translate(0,262.9)">0.6</text></g><g class="ycbcoloraxistick"><text text-anchor="start" x="872.9" y="4.199999999999999" style="font-family: 'Open Sans', verdana, arial, sans-serif; font-size: 12px; fill: rgb(42, 63, 95); fill-opacity: 1; white-space: pre; opacity: 1;" transform="translate(0,221.69999999999993)">0.8</text></g><g class="ycbcoloraxistick"><text text-anchor="start" x="872.9" y="4.199999999999999" style="font-family: 'Open Sans', verdana, arial, sans-serif; font-size: 12px; fill: rgb(42, 63, 95); fill-opacity: 1; white-space: pre; opacity: 1;" transform="translate(0,180.49999999999994)">1</text></g></g><g class="cbtitleunshift" transform="translate(0,-25)"><g class="cbtitle" transform=""><text class="ycbcoloraxistitle" x="840.28" y="172.00000000000003" text-anchor="start" style="font-family: 'Open Sans', verdana, arial, sans-serif; font-size: 14px; fill: rgb(42, 63, 95); opacity: 1; font-weight: normal; white-space: pre;">R</text></g></g><rect class="cboutline" x="840" y="156" width="30" height="206" style="stroke: rgb(68, 68, 68); stroke-opacity: 1; fill: none; stroke-width: 0;"/></g><g class="g-gtitle"><text class="gtitle" x="45" y="12.5" text-anchor="start" dy="0em" style="font-family: 'Open Sans', verdana, arial, sans-serif; font-size: 17px; fill: rgb(42, 63, 95); opacity: 1; font-weight: normal; white-space: pre;">Northern America — Enclosure Strength (R)</text></g></g></svg>