<svg class="main-svg" xmlns="http://www.w3.org/2000/svg" xmlns:xlink="http://www.w3.org/1999/xlink" width="900" height="520" style="" viewBox="0 0 900 520"><rect x="0" y="0" width="900" height="520" style="fill: rgb(255, 255, 255); fill-opacity: 1;"/><defs id="defs-6d71e0"><g class="clips"><clipPath id="clip6d71e0geo"><rect x="0" y="69.00177534141054" width="814" height="406.996449317179"/></clipPath></g><g class="gradients"><linearGradient x1="0" x2="0" y1="1" y2="0" id="g6d71e0-cbcoloraxis"><stop offset="0%" stop-color="rgb(68, 1, 84)" stop-opacity="1"/><stop offset="11.111111%" stop-color="rgb(72, 40, 120)" stop-opacity="1"/><stop offset="22.222222%" stop-color="rgb(62, 73, 137)" stop-opacity="1"/><stop offset="33.333333%" stop-color="rgb(49, 104, 142)" stop-opacity="1"/><stop offset="44.444444%" stop-color="rgb(38, 130, 142)" stop-opacity="1"/><stop offset="55.555556%" stop-color="rgb(31, 158, 137)" stop-opacity="1"/><stop offset="66.666667%" stop-color="rgb(53, 183, 121)" stop-opacity="1"/><stop offset="77.777778%" stop-color="rgb(110, 206, 88)" stop-opacity="1"/><stop offset="88.888889%" stop-color="rgb(181, 222, 43)" stop-opacity="1"/><stop offset="100%" stop-color="rgb(253, 231, 37)" stop-opacity="1"/></linearGradient></g><g class="patterns"/></defs><g class="bglayer"/><g class="layer-below"><g class="imagelayer"/><g class="shapelayer"/></g><g class="cartesianlayer"/><g class="polarlayer"/><g class="smithlayer"/><g class="ternarylayer"/><g class="geolayer"><g class="geo geo" clip-path="url(#clip6d71e0geo)"><g class="layer bg"><rect x="0" y="69.00177534141054" width="814" height="406.996449317179" style="pointer-events: all; fill: rgb(255, 255, 255); fill-opacity: 1;"/></g><g class="layer backplot"><g class="choroplethlayer"><g class="trace choropleth"><path class="choroplethlocation" fill="rgb(68, 1, 84)" d="M693.5452458511747,214.16202819899877L694.3217912328852,218.2388914529788L690.439064324333,220.18025490725506L691.2156097060433,226.78089065179432L683.8384285797935,224.83952719751812L669.8606117090044,232.21670832376782L669.8606117090044,238.42907137745186L664.0365213461758,247.55347961255023L663.6482486553203,252.7951609390961L658.6007036742022,261.7254328287668L650.4469771662418,259.2016603382078L650.0587044753869,270.26743202758234L647.3407956394001,273.9560225907072L648.5056137119653,278.6152948809702L643.0697960399924,281.1390673715293L637.6339783680187,264.0550689738984L634.5277968411765,264.0550689738984L632.9747060777556,271.0439774092929L626.7623430240715,265.41402339189165L630.2567972417687,259.2016603382078L634.9160695320319,258.6192513019248L639.96361451315,249.49484306682643L633.751251459466,247.7476159579778L623.6561614972297,247.7476159579778L613.5610715349928,246.3886615399844L612.7845261532825,238.81734406830708L607.3487084813089,238.23493503202428L598.8067092824936,233.57566274176122L595.3122550647963,240.95284386801092L603.0777088819012,246.58279788541205L596.0888004465068,250.65966113939226L593.7591643013754,254.5423880479447L600.3598000459144,257.45443322935915L598.4184365916386,264.0550689738984L602.3011635001908,272.2087954818586L603.8542542636117,280.9449310261017L602.3011635001908,285.0217942800819L594.9239823739414,284.8276579346543L581.7227108848627,286.96315773435816L582.4992562665732,295.11688424231846L576.6751659037446,301.52338364143L561.1442582695342,308.7064284222521L549.1078048530215,321.51942722047545L540.9540783450611,328.3141993104423L530.0824430011146,335.30310774583677L530.0824430011146,340.3506527269551L525.0348980199965,342.87442521751416L514.9398080577596,346.7571521260668L510.28053576749636,347.3395611623496L506.7860815497992,355.68742401573746L509.115717694931,369.6652408865265L509.5039903857859,378.5955127761972L505.2329907863783,388.88473908386135L505.2329907863783,407.13355555405815L499.40890042354977,407.715964590341L494.7496281332864,415.86969109830125L497.8558096601289,419.5582816614261L488.1489923887475,422.4703268428404L484.26626548019476,429.84750796909026L479.9952658807871,432.9536894959323L469.9001759185509,422.8585995336958L464.8526309374321,407.715964590341L460.5816313380244,396.844329246394L457.08717712032717,391.79678426527573L451.2630867574986,381.50755795761165L448.5451779215118,367.91801377767786L446.6038144672355,361.31737803313854L436.8969971958545,346.3688794352114L432.2377249055912,325.5962904744555L429.1315433787492,311.61847360366653L429.1315433787492,298.6113384600157L427.1901799244731,288.5162484977792L411.2709995994078,294.92274789689066L403.893818473158,293.75792982432506L389.9160016023691,280.5566583352464L394.9635465834872,276.673931426694L391.8573650566454,272.597068172714L379.04436625842214,263.27852359218787L386.42154738467184,256.09547881136575L410.10618152684214,256.09547881136575L407.77654538171043,246.97107057626738L401.9524550188816,241.53525290429388L400.39936425546074,233.187390050906L393.41045582006626,228.33398141521536L405.44690923657885,217.07407338041304L417.87163534394705,217.8506187621236L429.1315433787492,206.59071072732127L436.1204518141436,195.52493903794675L446.6038144672355,184.8474400394274L446.2155417763803,177.08198622232226L455.5340863569063,170.86962316863838L446.6038144672355,165.43380549666472L443.10936024953827,158.25076071584266L439.22663334098564,148.73807978988907L444.6624510129594,144.078807499626L460.9699040288799,146.7967163356128L473.0063574453926,145.0494892267642L483.1014474076288,136.1192173370933L494.7496281332864,148.73807978988907L493.5848100607212,157.47421533413223L498.24408235098366,163.10416935153324L497.8558096601289,168.5399870235068L490.0903558430233,167.18103260551334L492.8082646790101,179.0233496765985L503.67990002295744,185.8181217665654L518.4342622754568,193.38943923824286L511.8336265309178,198.24284787393339L507.5626269315101,208.33793783616989L518.0459895846018,212.4148010901501L528.1410795468382,217.656482416696L542.1188964176271,223.6747091249523L556.8732586701265,225.22779988837334L563.0856217238106,230.66361756034684L571.627620922626,231.63429928748502L584.4406197208497,234.15807177804408L593.37089161052,233.96393543261644L594.9239823739414,229.69293583320876L593.37089161052,222.89816374324187L594.147436992231,218.2388914529788L600.7480727367699,215.9092553078474L601.5246181184804,224.4512545066629L601.9128908093359,226.58675430636674L611.6197080807173,230.66361756034684L618.6086165161116,229.1105267969258L627.538888405782,229.69293583320876L636.4691602954528,229.49879948778118L637.2457056771632,222.89816374324187L632.5864333869006,219.40370952554463L641.5167052765709,218.04475510755123L651.2235225479523,210.08516494501856L663.6482486553203,203.09625650962403L672.5785205449912,205.81416534561083L680.3439743620962,201.15489305534783L685.3915193432143,207.94966514531467L681.8970651255171,212.4148010901501Z" style="stroke: rgb(68, 68, 68); stroke-opacity: 1; stroke-width: 1px; opacity: 1;"/><path class="choroplethlocation" fill="rgb(68, 1, 84)" d="M167.43574974231046,196.10734807422955L161.61165937948192,190.47739405682842L161.61165937948192,184.65330369399976L158.11720516178468,184.65330369399976L160.05856861606077,176.88784987689468L154.23447825323223,168.73412336893438L141.03320676415365,162.71589666067803L133.6560256379039,152.62080669844158L135.9856617830352,144.078807499626L141.42147945500886,140.3902169365012L140.64493407329843,134.1778538828171L133.6560256379039,130.8775360105475L126.66711720250947,118.06453721232424L120.84302683968059,109.3284016680812L122.78439029395702,106.02808379581148L119.678208767115,93.60335768844334L127.05538989336469,90.49717616160132L128.60848065678556,94.57403941558158L134.0442983287591,99.62158439669997L141.42147945500886,100.98053881469338L145.30420636356132,100.78640246926562L158.11720516178468,92.8268123067329L161.99993207033714,92.05026692502253L165.49438628803443,95.15644845186455L161.61165937948192,100.39812977841041L168.21229512402124,106.22222014123929L170.93020396000776,105.63981110495627L174.424658177705,113.59940126748882L184.51974813994153,115.73490106719282L192.28520195704672,121.17071873916632L207.42783690040136,123.11208219344257L224.51183529803237,120.20003701202808L225.2883806797428,117.67626452146902L234.99519795112414,115.54076472176507L242.3723790773739,109.52253801350878L249.7495602036236,109.71667435893642L254.4088324938868,107.77531090466016L262.17428631099176,108.74599263179834L274.21073972750435,114.18181030377178L282.7527389263199,115.34662837633743L294.7891923428326,124.8593093022912L302.94291885079303,125.24758199314641L304.1077369233587,134.37199022824467L299.4484646330958,147.76739806275089L296.730555797109,155.7269882252836L301.3898280873719,157.2800789887046L296.730555797109,163.10416935153324L300.22501001480623,171.8403048957764L301.00155539651666,178.6350769857433L309.1552819044771,180.38230409459192L309.9318272861875,187.37121252998645L300.22501001480623,197.07802980136773L305.66082768677984,202.90212016419645L309.9318272861875,209.30861956330807L320.41518993927934,214.16202819899877L320.80346263013456,223.6747091249523L325.85100761125267,225.42193623380092L326.6275529929634,230.27534486949162L311.09664535875316,235.9052988868927L307.2139184502007,248.33002499426067L286.63546583487243,245.22384346741876L274.987285109215,242.70007097685954L262.9508316927022,241.34111655886613L258.29155940243925,228.13984506978778L253.2440144213208,226.19848161551153L244.70201522250548,228.13984506978778L233.8303798785585,233.187390050906L220.62910838947994,229.69293583320876L209.757473045533,221.34507297982088L199.27411039244126,218.43302779840644L192.28520195704672,208.1438014907423L184.1314754490863,193.77771192909807L178.30738508625777,195.52493903794675L171.70674934171848,191.83634847482182Z" style="stroke: rgb(68, 68, 68); stroke-opacity: 1; stroke-width: 1px; opacity: 1;"/><path class="choroplethlocation" fill="rgb(68, 1, 84)" d="M643.0697960399924,281.1390673715293L643.0697960399924,288.90452118863436L639.1870691314396,287.3514304252134L639.96361451315,295.8934296240289L636.8574329863083,290.2634756066278L636.4691602954528,284.8276579346543L634.1395241503214,279.58597660810847L629.8685245509139,273.3736135544244L619.7734345886771,272.98534086356915L620.938252661243,277.45047680840446L617.4437984435458,283.2745671712333L612.7845261532825,281.1390673715293L611.2314353898616,283.0804308258057L608.1252538630199,281.9156127532399L603.8542542636117,280.9449310261017L602.3011635001908,272.2087954818586L598.4184365916386,264.0550689738984L600.3598000459144,257.45443322935915L593.7591643013754,254.5423880479447L596.0888004465068,250.65966113939226L603.0777088819012,246.58279788541205L595.3122550647963,240.95284386801092L598.8067092824936,233.57566274176122L607.3487084813089,238.23493503202428L612.7845261532825,238.81734406830708L613.5610715349928,246.3886615399844L623.6561614972297,247.7476159579778L633.751251459466,247.7476159579778L639.96361451315,249.49484306682643L634.9160695320319,258.6192513019248L630.2567972417687,259.2016603382078L626.7623430240715,265.41402339189165L632.9747060777556,271.0439774092929L634.5277968411765,264.0550689738984L637.6339783680187,264.0550689738984Z" style="stroke: rgb(68, 68, 68); stroke-opacity: 1; stroke-width: 1px; opacity: 1;"/><path class="choroplethlocation" fill="rgb(68, 1, 84)" d="M483.1014474076288,136.1192173370933L473.0063574453926,145.0494892267642L460.9699040288799,146.7967163356128L444.6624510129594,144.078807499626L439.22663334098564,148.73807978988907L443.10936024953827,158.25076071584266L446.6038144672355,165.43380549666472L455.5340863569063,170.86962316863838L446.2155417763803,177.08198622232226L446.6038144672355,184.8474400394274L436.1204518141436,195.52493903794675L429.1315433787492,206.59071072732127L417.87163534394705,217.8506187621236L405.44690923657885,217.07407338041304L393.41045582006626,228.33398141521536L400.39936425546074,233.187390050906L401.9524550188816,241.53525290429388L407.77654538171043,246.97107057626738L410.10618152684214,256.09547881136575L386.42154738467184,256.09547881136575L379.04436625842214,263.27852359218787L371.2789124413171,260.5606147562012L367.7844582236199,252.7951609390961L359.63073171565946,244.6414344311358L339.82882448204157,246.7769342308398L322.3565533935553,246.97107057626738L307.2139184502007,248.33002499426067L311.09664535875316,235.9052988868927L326.6275529929634,230.27534486949162L325.85100761125267,225.42193623380092L320.80346263013456,223.6747091249523L320.41518993927934,214.16202819899877L309.9318272861875,209.30861956330807L305.66082768677984,202.90212016419645L300.22501001480623,197.07802980136773L318.47382648500286,202.7079838187688L329.3454618289499,201.15489305534783L335.5578248826339,202.51384747334123L337.88746102776554,199.990074982782L345.2646421540152,200.9607567099202L359.24245902480425,196.4956207650847L359.63073171565946,187.37121252998645L365.8430947693435,181.35298582173016L373.6085485864484,181.35298582173016L374.77336665901436,178.24680429488808L383.3153658578298,176.88784987689468L387.1980927663823,177.85853160403286L391.46909236578995,174.75235007719084L390.6925469840795,168.34585067807916L395.35181927434263,161.74521493353984L402.3407277097371,159.0273060975532L398.06972811032915,152.03839766215873L408.16481807256565,152.23253400758637L411.2709995994078,148.34980709903385L410.88272690855257,144.27294384505365L416.3185445805262,139.80780790021834L414.765453817105,134.37199022824467L412.43581767197344,129.90685428340942L418.6481807256575,125.05344564771877L430.29636145131514,122.91794584801494L442.72108755868305,121.55899143002154L448.1569052306566,119.61762797574528L454.36926828434065,118.45280990317946L462.5229947923008,123.50035488429779L465.6291763191425,131.65408139225804Z" style="stroke: rgb(68, 68, 68); stroke-opacity: 1; stroke-width: 1px; opacity: 1;"/><path class="choroplethlocation" fill="rgb(49, 104, 142)" d="M525.8114434017068,437.8070981316228L524.2583526382853,448.8728698209975L519.5990803480227,451.9790513478396L510.28053576749636,454.5028238383986L505.2329907863783,445.9608246395831L503.29162733210194,430.4299170053731L508.33917231322056,412.95764591688686L515.7163534394699,418.97587262514315L520.763898420588,426.5471900968206Z" style="stroke: rgb(68, 68, 68); stroke-opacity: 1; stroke-width: 1px; opacity: 1;"/><path class="choroplethlocation" fill="rgb(49, 104, 142)" d="M594.147436992231,218.2388914529788L593.37089161052,222.89816374324187L594.9239823739414,229.69293583320876L593.37089161052,233.96393543261644L584.4406197208497,234.15807177804408L571.627620922626,231.63429928748502L563.0856217238106,230.66361756034684L556.8732586701265,225.22779988837334L542.1188964176271,223.6747091249523L528.1410795468382,217.656482416696L518.0459895846018,212.4148010901501L507.5626269315101,208.33793783616989L511.8336265309178,198.24284787393339L518.4342622754568,193.38943923824286L523.0935345657199,190.86566674768363L531.6355337645355,194.1659846199533L542.5071691084826,201.15489305534783L548.719532162166,202.7079838187688L552.2139863798633,207.7555287998871L560.7559855786793,209.89102859959087L569.2979847774947,214.74443723528157L581.7227108848627,217.26820972584062Z" style="stroke: rgb(68, 68, 68); stroke-opacity: 1; stroke-width: 1px; opacity: 1;"/><path class="choroplethlocation" fill="rgb(68, 1, 84)" d="M361.1838224790806,115.9290374126204L367.3961855327644,115.9290374126204L375.1616393498696,118.25867355775188L378.6560935675669,119.61762797574528L386.42154738467184,116.12317375804804L389.9160016023691,118.25867355775188L393.41045582006626,113.2111285766336L400.0110915646055,113.40526492206124L401.5641823280264,111.85217415864025L402.7290004005923,107.58117455923235L407.3882726908552,103.89258399610765L413.21236305368416,106.22222014123929L412.0475449811182,109.52253801350878L415.54199919881546,110.10494704979163L414.3771811262498,119.22935528489006L418.6481807256575,122.72380950258736L422.53090763420994,120.39417335745571L427.1901799244731,119.42349163031764L433.7908156690123,114.570082994627L441.1679967952622,115.34662837633743L452.4279048300643,115.34662837633743L454.36926828434065,118.45280990317946L448.1569052306566,119.61762797574528L442.72108755868305,121.55899143002154L430.29636145131514,122.91794584801494L418.6481807256575,125.05344564771877L412.43581767197344,129.90685428340942L414.765453817105,134.37199022824467L416.3185445805262,139.80780790021834L410.88272690855257,144.27294384505365L411.2709995994078,148.34980709903385L408.16481807256565,152.23253400758637L398.06972811032915,152.03839766215873L402.3407277097371,159.0273060975532L395.35181927434263,161.74521493353984L390.6925469840795,168.34585067807916L391.46909236578995,174.75235007719084L387.1980927663823,177.85853160403286L383.3153658578298,176.88784987689468L374.77336665901436,178.24680429488808L373.6085485864484,181.35298582173016L365.8430947693435,181.35298582173016L359.63073171565946,187.37121252998645L359.24245902480425,196.4956207650847L345.2646421540152,200.9607567099202L337.88746102776554,199.990074982782L335.5578248826339,202.51384747334123L329.3454618289499,201.15489305534783L318.47382648500286,202.7079838187688L300.22501001480623,197.07802980136773L309.9318272861875,187.37121252998645L309.1552819044771,180.38230409459192L301.00155539651666,178.6350769857433L300.22501001480623,171.8403048957764L296.730555797109,163.10416935153324L301.3898280873719,157.2800789887046L296.730555797109,155.7269882252836L299.4484646330958,147.76739806275089L304.1077369233587,134.37199022824467L314.9793722673056,138.448853482225L323.13309877526615,137.0898990642316L325.46273492039745,132.2364904285409L334.004734119213,130.48926331969227L339.82882448204157,127.18894544742261L342.1584606271732,118.6469462486071L351.0887325168441,116.51144644890326L353.0300959711202,112.6287195403508L358.0776409522386,115.54076472176507Z" style="stroke: rgb(68, 68, 68); stroke-opacity: 1; stroke-width: 1px; opacity: 1;"/><path class="choroplethlocation" fill="rgb(49, 104, 142)" style="stroke: rgb(68, 68, 68); stroke-opacity: 1; stroke-width: 1px; opacity: 1;"/><path class="choroplethlocation" fill="rgb(49, 104, 142)" d="M632.5864333869006,219.40370952554463L637.2457056771632,222.89816374324187L636.4691602954528,229.49879948778118L627.538888405782,229.69293583320876L618.6086165161116,229.1105267969258L611.6197080807173,230.66361756034684L601.9128908093359,226.58675430636674L601.5246181184804,224.4512545066629L608.9017992447302,216.49166434413019L614.7258896075589,213.77375550814338L622.4913434246639,216.10339165327497L627.9271610966375,216.49166434413019Z" style="stroke: rgb(68, 68, 68); stroke-opacity: 1; stroke-width: 1px; opacity: 1;"/></g></g></g><g class="layer frontplot"><g class="scatterlayer"/></g></g></g><g class="funnelarealayer"/><g class="pielayer"/><g class="iciclelayer"/><g class="treemaplayer"/><g class="sunburstlayer"/><g class="glimages"/><defs id="topdefs-6d71e0"><g class="clips"/></defs><g class="layer-above"><g class="imagelayer"/><g class="shapelayer"/></g><g class="infolayer"><g class="cbcoloraxis colorbar" transform="translate(0,25)"><rect class="cbbg" x="830" y="124" width="69.640625" height="248" style="fill: rgb(0, 0, 0); fill-opacity: 0; stroke: rgb(68, 68, 68); stroke-opacity: 1; stroke-width: 0;"/><g class="cbfills" transform="translate(0,155)"><rect class="cbfill gradient_filled" x="840" y="0" width="30" height="206" style="fill: url('#g6d71e0-cbcoloraxis');"/></g><g class="cblines" transform="translate(0,155)"/><g class="cbaxis crisp" transform="translate(0,-25)"><g class="ycbcoloraxistick"><text text-anchor="start" x="872.9" y="4.199999999999999" transform="translate(0,386.49999999999994)" style="font-family: 'Open Sans', verdana, arial, sans-serif; font-size: 12px; fill: rgb(42, 63, 95); fill-opacity: 1; white-space: pre; opacity: 1;">0</text></g><g class="ycbcoloraxistick"><text text-anchor="start" x="872.9" y="4.199999999999999" style="font-family: 'Open Sans', verdana, arial, sans-serif; font-size: 12px; fill: rgb(42, 63, 95); fill-opacity: 1; white-space: pre; opacity: 1;" transform="translate(0,345.29999999999995)">0.2</text></g><g class="ycbcoloraxistick"><text text-anchor="start" x="872.9" y="4.199999999999999" style="font-family: 'Open Sans', verdana, arial, sans-serif; font-size: 12px; fill: rgb(42, 63, 95); fill-opacity: 1; white-space: pre; opacity: 1;" transform="translate(0,304.0999999999999)">0.4</text></g><g class="ycbcoloraxistick"><text text-anchor="start" x="872.9" y="4.199999999999999" style="font-family: 'Open Sans', verdana, arial, sans-serif; font-size: 12px; fill: rgb(42, 63, 95); fill-opacity: 1; white-space: pre; opacity: 1;" transform="translate(0,262.9)">0.6</text></g><g class="ycbcoloraxistick"><text text-anchor="start" x="872.9" y="4.199999999999999" style="font-family: 'Open Sans', verdana, arial, sans-serif; font-size: 12px; fill: rgb(42, 63, 95); fill-opacity: 1; white-space: pre; opacity: 1;" transform="translate(0,221.69999999999993)">0.8</text></g><g class="ycbcoloraxistick"><text text-anchor="start" x="872.9" y="4.199999999999999" style="font-family: 'Open Sans', verdana, arial, sans-serif; font-size: 12px; fill: rgb(42, 63, 95); fill-opacity: 1; white-space: pre; opacity: 1;" transform="translate(0,180.49999999999994)">1</text></g></g><g class="cbtitleunshift" transform="translate(0,-25)"><g class="cbtitle" transform=""><text class="ycbcoloraxistitle" x="840.28" y="172.00000000000003" text-anchor="start" style="font-family: 'Open Sans', verdana, arial, sans-serif; font-size: 14px; fill: rgb(42, 63, 95); opacity: 1; font-weight: normal; white-space: pre;">R</text></g></g><rect class="cboutline" x="840" y="156" width="30" height="206" style="stroke: rgb(68, 68, 68); stroke-opacity: 1; fill: none; stroke-width: 0;"/></g><g class="g-gtitle"><text class="gtitle" x="45" y="12.5" text-anchor="start" dy="0em" style="font-family: 'Open Sans', verdana, arial, sans-serif; font-size: 17px; fill: rgb(42, 63, 95); opacity: 1; font-weight: normal; white-space: pre;">Southern Asia — Enclosure Strength (R)</text></g></g></svg>