<svg class="main-svg" xmlns="http://www.w3.org/2000/svg" xmlns:xlink="http://www.w3.org/1999/xlink" width="900" height="520" style="" viewBox="0 0 900 520"><rect x="0" y="0" width="900" height="520" style="fill: rgb(255, 255, 255); fill-opacity: 1;"/><defs id="defs-59a78e"><g class="clips"><clipPath id="clip59a78egeo"><rect x="0" y="69.00198815446524" width="814" height="406.99602369106947"/></clipPath></g><g class="gradients"><linearGradient x1="0" x2="0" y1="1" y2="0" id="g59a78e-cbcoloraxis"><stop offset="0%" stop-color="rgb(68, 1, 84)" stop-opacity="1"/><stop offset="11.111111%" stop-color="rgb(72, 40, 120)" stop-opacity="1"/><stop offset="22.222222%" stop-color="rgb(62, 73, 137)" stop-opacity="1"/><stop offset="33.333333%" stop-color="rgb(49, 104, 142)" stop-opacity="1"/><stop offset="44.444444%" stop-color="rgb(38, 130, 142)" stop-opacity="1"/><stop offset="55.555556%" stop-color="rgb(31, 158, 137)" stop-opacity="1"/><stop offset="66.666667%" stop-color="rgb(53, 183, 121)" stop-opacity="1"/><stop offset="77.777778%" stop-color="rgb(110, 206, 88)" stop-opacity="1"/><stop offset="88.888889%" stop-color="rgb(181, 222, 43)" stop-opacity="1"/><stop offset="100%" stop-color="rgb(253, 231, 37)" stop-opacity="1"/></linearGradient></g><g class="patterns"/></defs><g class="bglayer"/><g class="layer-below"><g class="imagelayer"/><g class="shapelayer"/></g><g class="cartesianlayer"/><g class="polarlayer"/><g class="smithlayer"/><g class="ternarylayer"/><g class="geolayer"><g class="geo geo" clip-path="url(#clip59a78egeo)"><g class="layer bg"><rect x="0" y="69.00198815446524" width="814" height="406.99602369106947" style="pointer-events: all; fill: rgb(255, 255, 255); fill-opacity: 1;"/></g><g class="layer backplot"><g class="choroplethlayer"><g class="trace choropleth"><path class="choroplethlocation" fill="rgb(53, 183, 121)" d="M446.0788172935895,153.437435161586L457.7659402225137,155.99399330228823L460.687720954745,152.3417673869992L480.40974089730435,148.68954147171075L484.79241199565047,155.99399330228823L514.0102193179608,161.1071095836927L511.81888376878777,170.9681195549723L516.9320000501916,179.73346175166512L500.8622060229213,176.81168101943433L484.06196681259274,184.1161328500118L484.79241199565047,193.97714282129152L482.60107644647735,199.82070428575355L489.17508309399716,210.0469368485618L508.1666578534988,220.27316941137065L518.3928904163075,237.0734086216986L541.0366910910976,253.50842524049858L557.1064851183679,253.50842524049858L562.2196013997724,257.8910963388447L556.3760399353102,261.9085448456623L574.6371695117542,269.21299667623975L589.2460731729091,275.421780732231L606.7767575662954,286.0132358865683L608.9680931154685,289.6654618018573L605.31586720018,296.9699136324348L593.6287442712558,287.47412625268373L576.0980598778696,284.1871229289238L567.3327176811767,297.33513622396333L581.9416213423317,304.6395880545408L579.7502857931586,315.23104320887876L571.7153887795234,316.6919335749941L560.7587110336569,333.8573953768513L551.9933688369641,335.6835083344955L551.9933688369641,329.4747242785045L556.3760399353102,318.51804653263855L560.7587110336569,314.135375434292L552.7238140200218,302.4482525053677L546.8802525555598,292.222019942559L538.114910358867,289.6654618018573L532.2713488944048,280.9001196051639L519.1233355993652,277.24789368987547L510.35799340267187,268.8477740847112L495.01864455845924,267.7521063101243L479.6792957142466,258.6215415219025L460.687720954745,245.47352822686287L446.8092624766472,233.7864052979387L440.96570101218566,213.69916276385072L430.7394684493769,211.1426046231486L413.93922923904836,204.5685979756289L405.1738870423555,207.12515611633103L393.4867641134313,216.6209434960815L384.72142191673845,218.08183386219753L386.91275746591157,209.31649166550415L375.95607972004564,206.7599335248019L370.8429634386412,191.05536208906017L378.1474152692187,184.84657803306948L371.57340862169895,177.176903610963L373.0342989878143,171.69856473802997L381.79964118450715,176.08123583637666L391.29542856425826,174.98556806178988L402.2521063101247,168.04633882274106L405.90433222541316,171.33334214650085L416.13056478822193,170.6028969634432L420.51323588656805,162.56799994980793L435.1221395477236,165.12455809051028L443.88748174441645,161.47233217522114ZM533.0017940774625,330.9356146446198L549.0715881047328,329.10950168697605L541.7671362741553,344.81407312271745L544.6889170063866,351.38807977023714L540.30624590804,361.61431233304575L524.9668970638273,353.9446379109394L514.7406645010185,351.75330236176603L486.2533023617664,341.52706979895754L489.17508309399716,331.30083723614905L512.5493289518455,333.1269501937936ZM410.28700332375985,275.0565581407018L420.51323588656805,268.4825514931821L432.93080399854995,283.0914551543376L430.0090232663192,309.7527043359453L420.51323588656805,308.65703656135895L412.47833887293297,315.23104320887876L405.1738870423555,310.1179269274744L403.7129966762401,285.2827907035106L399.3303255778934,273.9608903661157Z" style="stroke: rgb(68, 68, 68); stroke-opacity: 1; stroke-width: 1px; opacity: 1;"/><path class="choroplethlocation" fill="rgb(110, 206, 88)" d="M82.31711613082837,352.1185249532948L80.85622576471297,345.1792957142462L88.1606775952904,337.50962129213997L91.08245832752175,332.03128241920683L84.50845168000194,326.1877209547446L89.62156796140579,312.6744850681765L81.58667094777064,300.62213954772324L90.35201314446408,299.1612491816078L91.08245832752175,289.3002392103282L94.7346842428102,286.3784584780974L94.7346842428102,270.6738870423558L104.23047162256131,265.1955481694222L98.38691015809928,254.96931560661403L86.699787229175,254.23887042355625L83.04756131388604,256.7954285642585L71.36043838496249,256.7954285642585L66.24732210355802,246.9344185929782L58.21242508992293,249.85619932520967L50.907973259344885,254.96931560661403L51.63841844240312,240.3604119454585L43.60352142876741,231.5950697487657L72.09088356802016,216.98616608761063L96.92601979198389,220.63839200289908L123.95249156512062,220.63839200289908L145.86584705685306,223.925395326659L162.66608626718156,223.19495014360143L195.53611950478043,223.56017273513055L203.5710165184156,231.5950697487657L240.82372085436117,240.7256345369875L248.12817268493865,236.34296343864094L270.7719733597287,245.47352822686287L294.146219217577,242.91697008616063L295.6071095836924,254.6040930150849L276.6155348241908,268.1173289016534L250.31950823411168,272.49999999999966L248.8586178679963,279.4392292390486L235.71060457295678,290.76112957644364L228.4061527423793,307.19614619524305L236.44104975601448,318.8832691241672L224.75392682709028,327.64861132086L220.37125572874416,340.7966246158999L205.03190688453097,345.1792957142462L190.42300322337604,360.5186445584592L164.85742181635464,360.8838671499881L145.13540187379533,360.5186445584592L132.7178337618135,367.82309638903666L124.68293674817835,375.49277081114315L115.18714936842719,373.6666578534987L107.1522523547921,366.7274286144501L101.30869089032996,355.04030568552594Z" style="stroke: rgb(68, 68, 68); stroke-opacity: 1; stroke-width: 1px; opacity: 1;"/><path class="choroplethlocation" fill="rgb(53, 183, 121)" d="M767.4746978390012,388.64078410618276L764.5529171067699,394.48434557064456L735.33510978446,396.31045852828913L736.0655549675178,393.0234552045292L711.2304187435541,389.00600669771165L714.882644658843,380.2406645010185L725.8393224047089,387.1798937400672L741.9091164319798,386.08422596548064L756.5180200931347,387.545116331596L756.5180200931347,390.8321196553559ZM699.5432958146298,265.92599335247985L714.882644658843,266.6564385355381L730.9524386861133,261.1780996626046L744.8308971642107,268.1173289016534L763.8224719237122,266.29121594400897L763.8224719237122,256.06498338120025L773.3182593034633,261.5433222541337L767.4746978390012,273.9608903661157L762.3615815575968,276.5174485068178L749.9440134456149,275.78700332375945L739.7177808828068,273.9608903661157L714.882644658843,279.07400664751935L728.7611031369403,290.76112957644364L718.5348705741314,294.0481329002034L707.5781928282656,294.0481329002034L696.6215150823991,283.45667774586616L692.9692891671101,287.83934884421285L697.3519602654569,299.89169436466545L707.5781928282656,309.3874817444166L700.273740997688,314.135375434292L711.2304187435541,323.2659402225138L721.4566513063628,329.10950168697605L721.4566513063628,340.7966246158999L703.1955217299189,335.3182857429666L709.039083194381,345.5445183057751L695.8910698993415,347.73585385494846L703.9259669129765,365.63176083986355L690.0475084348793,365.99698343139244L673.2472692245508,357.2316412346994L665.9428173939733,340.7966246158999L662.2905914786849,327.28338872933136L654.2556944650491,318.15282394110943L644.0294619022409,306.4657010121854L642.5685715361255,300.62213954772324L652.064358915876,290.76112957644364L653.5252492819915,284.1871229289238L660.0992559295113,281.26534219669304L660.0992559295113,276.1522259152887L673.2472692245508,274.3261129576441L681.2821662381865,269.9434418592981L692.2388439840524,270.30866445082654L695.8910698993415,266.6564385355381Z" style="stroke: rgb(68, 68, 68); stroke-opacity: 1; stroke-width: 1px; opacity: 1;"/><path class="choroplethlocation" fill="rgb(38, 130, 142)" d="M615.5420997629882,173.15945510414542L631.611893790259,168.04633882274106L644.0294619022409,168.77678400579862L654.9861396481074,176.81168101943433L657.1774751972805,183.38568766695414L669.5950433092623,188.13358135682938L671.0559336753777,196.53370096199376L683.4735017873595,202.3772624264558L689.3170632518217,197.62936873657998L694.430179533226,200.1859268772822L690.0475084348793,203.83815279257112L693.6997343501685,207.12515611633103L688.586618068764,211.87304980620627L690.0475084348793,219.17750163678375L700.273740997688,227.94284383347724L692.2388439840524,234.15162788946782L689.3170632518217,240.7256345369875L691.5083988009947,243.28219267768975L687.8561728857062,246.20397340992054L678.3603855059552,246.56919600144977L671.7863788584355,247.66486377603655L671.0559336753777,246.20397340992054L673.2472692245508,243.6474152692183L675.4386047737244,238.5342989878145L672.5168240414931,238.89952157934306L668.8645981262047,234.8820730725255L665.2123722109156,234.15162788946782L663.0210366617425,230.8646245657079L659.3688107464536,229.76895679112113L656.4470300142228,226.84717605889034L652.7948040989338,227.94284383347724L649.873023366703,234.51685048099694L644.7599070852987,235.97774084711227L646.220797451414,234.15162788946782L638.9163456208365,230.13417938265025L632.3423389733168,227.94284383347724L629.420558241086,225.0210631012459L623.5769967766239,221.73405977748598L628.6901130580284,220.63839200289908L631.611893790259,211.1426046231486L621.3856612274503,203.472930201042L626.4987775088547,194.34236541281996L619.1943256782772,194.7075880043492L627.2292226919124,187.0379135822426L620.6552160443925,181.19435211778057Z" style="stroke: rgb(68, 68, 68); stroke-opacity: 1; stroke-width: 1px; opacity: 1;"/><path class="choroplethlocation" fill="rgb(181, 222, 43)" d="M50.907973259344885,254.96931560661403L58.21242508992293,249.85619932520967L66.24732210355802,246.9344185929782L71.36043838496249,256.7954285642585L83.04756131388604,256.7954285642585L86.699787229175,254.23887042355625L98.38691015809928,254.96931560661403L104.23047162256131,265.1955481694222L94.7346842428102,270.6738870423558L94.7346842428102,286.3784584780974L91.08245832752175,289.3002392103282L90.35201314446408,299.1612491816078L81.58667094777064,300.62213954772324L89.62156796140579,312.6744850681765L84.50845168000194,326.1877209547446L91.08245832752175,332.03128241920683L88.1606775952904,337.50962129213997L80.85622576471297,345.1792957142462L82.31711613082837,352.1185249532948L74.28221911719322,357.2316412346994L64.05598655438502,354.30986050246815L53.099308808518515,356.5011960516416L56.75153472380697,340.7966246158999L54.56019917463385,328.3790565039184L45.79485697794104,326.5529435462738L40.68174069653668,318.8832691241672L42.142631062652015,305.3700332375985L50.17752807628722,298.065581407021L51.63841844240312,290.03068439338585L56.021089540749244,277.61311628140413L55.290644357691576,269.21299667623975L51.63841844240312,261.9085448456623Z" style="stroke: rgb(68, 68, 68); stroke-opacity: 1; stroke-width: 1px; opacity: 1;"/><path class="choroplethlocation" fill="rgb(110, 206, 88)" d="M570.2544984134081,161.1071095836927L576.0980598778696,163.66366772439494L591.4374087220828,172.42900992108775L608.2376479324107,176.4464584279052L615.5420997629882,173.15945510414542L620.6552160443925,181.19435211778057L627.2292226919124,187.0379135822426L619.1943256782772,194.7075880043492L610.4289834815844,189.95969431447395L596.5505250034871,190.3249169060025L579.0198406101009,187.0379135822426L569.5240532303498,187.4031361737717L565.1413821320036,191.78580727211784L557.8369303014263,187.0379135822426L553.4542592030795,195.43803318740697L563.6804917658883,204.9338205671579L568.0631628642344,211.1426046231486L576.8285050609278,218.8122790452553L584.863402074563,223.19495014360143L592.1678539051404,231.5950697487657L610.4289834815844,239.26474417087218L608.2376479324107,242.91697008616063L589.2460731729091,235.2472956640546L577.5589502439855,227.94284383347724L558.5673754844839,222.0992823690151L541.7671362741553,207.12515611633103L546.149807372502,205.6642657502157L536.6540199927509,196.8989235535223L535.9235748096933,190.3249169060025L523.5060066977114,187.0379135822426L516.9320000501916,195.8032557789361L511.08843858572953,188.86402653988705L511.08843858572953,181.92479730083824L511.81888376878777,181.55957470930957L526.4277874299427,182.29001989236735L530.0800133452311,178.63779397707833L536.6540199927509,182.29001989236735L544.6889170063866,182.65524248389647L544.6889170063866,176.81168101943433L551.9933688369641,174.62034547026076L553.4542592030795,166.5854484566256Z" style="stroke: rgb(68, 68, 68); stroke-opacity: 1; stroke-width: 1px; opacity: 1;"/><path class="choroplethlocation" fill="rgb(110, 206, 88)" d="M514.0102193179608,161.1071095836927L530.8104585282888,162.56799994980793L541.0366910910976,158.18532885146124L558.5673754844839,157.45488366840357L562.95004658283,154.16788034464378L565.8718273150613,154.16788034464378L570.2544984134081,161.1071095836927L553.4542592030795,166.5854484566256L551.9933688369641,174.62034547026076L544.6889170063866,176.81168101943433L544.6889170063866,182.65524248389647L536.6540199927509,182.29001989236735L530.0800133452311,178.63779397707833L526.4277874299427,182.29001989236735L511.81888376878777,181.55957470930957L516.9320000501916,179.73346175166512L511.81888376878777,170.9681195549723Z" style="stroke: rgb(68, 68, 68); stroke-opacity: 1; stroke-width: 1px; opacity: 1;"/><path class="choroplethlocation" fill="rgb(31, 158, 137)" d="M610.4289834815844,239.26474417087218L592.1678539051404,231.5950697487657L584.863402074563,223.19495014360143L576.8285050609278,218.8122790452553L568.0631628642344,211.1426046231486L563.6804917658883,204.9338205671579L553.4542592030795,195.43803318740697L557.8369303014263,187.0379135822426L565.1413821320036,191.78580727211784L569.5240532303498,187.4031361737717L579.0198406101009,187.0379135822426L596.5505250034871,190.3249169060025L610.4289834815844,189.95969431447395L619.1943256782772,194.7075880043492L626.4987775088547,194.34236541281996L621.3856612274503,203.472930201042L631.611893790259,211.1426046231486L628.6901130580284,220.63839200289908L623.5769967766239,221.73405977748598L619.9247708613349,223.56017273513055L613.3507642138151,228.3080664250058Z" style="stroke: rgb(68, 68, 68); stroke-opacity: 1; stroke-width: 1px; opacity: 1;"/><path class="choroplethlocation" fill="rgb(31, 158, 137)" d="M660.0992559295113,276.1522259152887L660.0992559295113,281.26534219669304L653.5252492819915,284.1871229289238L652.064358915876,290.76112957644364L642.5685715361255,300.62213954772324L638.9163456208365,299.1612491816078L638.9163456208365,294.7785780832611L627.95966787497,288.2045714357414L625.768332325797,278.3435614644617L627.2292226919124,264.4651029863645L630.1510034241437,258.2563189303738L627.2292226919124,254.96931560661403L625.768332325797,248.76053155062266L634.5336745224898,238.5342989878145L635.2641197055482,242.55174749463208L641.1076811700095,240.7256345369875L645.4903522683563,246.20397340992054L650.6034685497607,248.030086367565L651.3339137328184,255.33453819814258L649.1425781836454,262.2737674371914L652.064358915876,271.0391096338842Z" style="stroke: rgb(68, 68, 68); stroke-opacity: 1; stroke-width: 1px; opacity: 1;"/><path class="choroplethlocation" fill="rgb(49, 104, 142)" d="M687.8561728857062,246.20397340992054L698.0824054485145,252.4127574659118L699.5432958146298,265.92599335247985L695.8910698993415,266.6564385355381L692.2388439840524,270.30866445082654L681.2821662381865,269.9434418592981L673.2472692245508,274.3261129576441L660.0992559295113,276.1522259152887L652.064358915876,271.0391096338842L649.1425781836454,262.2737674371914L651.3339137328184,255.33453819814258L654.2556944650491,255.6997607896717L654.9861396481074,251.68231228285413L667.4037077600888,248.39530895909422L671.7863788584355,247.66486377603655L678.3603855059552,246.56919600144977Z" style="stroke: rgb(68, 68, 68); stroke-opacity: 1; stroke-width: 1px; opacity: 1;"/><path class="choroplethlocation" fill="rgb(110, 206, 88)" style="stroke: rgb(68, 68, 68); stroke-opacity: 1; stroke-width: 1px; opacity: 1;"/><path class="choroplethlocation" fill="rgb(68, 1, 84)" style="stroke: rgb(68, 68, 68); stroke-opacity: 1; stroke-width: 1px; opacity: 1;"/><path class="choroplethlocation" fill="rgb(53, 183, 121)" d="M641.1076811700095,240.7256345369875L635.2641197055482,242.55174749463208L634.5336745224898,238.5342989878145L625.768332325797,248.76053155062266L627.2292226919124,254.96931560661403L622.8465515935662,253.50842524049858L617.0029901291041,246.9344185929782L608.2376479324107,242.91697008616063L610.4289834815844,239.26474417087218L613.3507642138151,228.3080664250058L619.9247708613349,223.56017273513055L623.5769967766239,221.73405977748598L629.420558241086,225.0210631012459L632.3423389733168,227.94284383347724L638.9163456208365,230.13417938265025L646.220797451414,234.15162788946782L644.7599070852987,235.97774084711227Z" style="stroke: rgb(68, 68, 68); stroke-opacity: 1; stroke-width: 1px; opacity: 1;"/><path class="choroplethlocation" fill="rgb(68, 1, 84)" style="stroke: rgb(68, 68, 68); stroke-opacity: 1; stroke-width: 1px; opacity: 1;"/></g></g></g><g class="layer frontplot"><g class="scatterlayer"/></g></g></g><g class="funnelarealayer"/><g class="pielayer"/><g class="iciclelayer"/><g class="treemaplayer"/><g class="sunburstlayer"/><g class="glimages"/><defs id="topdefs-59a78e"><g class="clips"/></defs><g class="layer-above"><g class="imagelayer"/><g class="shapelayer"/></g><g class="infolayer"><g class="cbcoloraxis colorbar" transform="translate(0,25)"><rect class="cbbg" x="830" y="124" width="69.640625" height="248" style="fill: rgb(0, 0, 0); fill-opacity: 0; stroke: rgb(68, 68, 68); stroke-opacity: 1; stroke-width: 0;"/><g class="cbfills" transform="translate(0,155)"><rect class="cbfill gradient_filled" x="840" y="0" width="30" height="206" style="fill: url('#g59a78e-cbcoloraxis');"/></g><g class="cblines" transform="translate(0,155)"/><g class="cbaxis crisp" transform="translate(0,-25)"><g class="ycbcoloraxistick"><text text-anchor="start" x="872.9" y="4.199999999999999" transform="translate(0,386.49999999999994)" style="font-family: 'Open Sans', verdana, arial, sans-serif; font-size: 12px; fill: rgb(42, 63, 95); fill-opacity: 1; white-space: pre; opacity: 1;">0</text></g><g class="ycbcoloraxistick"><text text-anchor="start" x="872.9" y="4.199999999999999" style="font-family: 'Open Sans', verdana, arial, sans-serif; font-size: 12px; fill: rgb(42, 63, 95); fill-opacity: 1; white-space: pre; opacity: 1;" transform="translate(0,345.29999999999995)">0.2</text></g><g class="ycbcoloraxistick"><text text-anchor="start" x="872.9" y="4.199999999999999" style="font-family: 'Open Sans', verdana, arial, sans-serif; font-size: 12px; fill: rgb(42, 63, 95); fill-opacity: 1; white-space: pre; opacity: 1;" transform="translate(0,304.0999999999999)">0.4</text></g><g class="ycbcoloraxistick"><text text-anchor="start" x="872.9" y="4.199999999999999" style="font-family: 'Open Sans', verdana, arial, sans-serif; font-size: 12px; fill: rgb(42, 63, 95); fill-opacity: 1; white-space: pre; opacity: 1;" transform="translate(0,262.9)">0.6</text></g><g class="ycbcoloraxistick"><text text-anchor="start" x="872.9" y="4.199999999999999" style="font-family: 'Open Sans', verdana, arial, sans-serif; font-size: 12px; fill: rgb(42, 63, 95); fill-opacity: 1; white-space: pre; opacity: 1;" transform="translate(0,221.69999999999993)">0.8</text></g><g class="ycbcoloraxistick"><text text-anchor="start" x="872.9" y="4.199999999999999" style="font-family: 'Open Sans', verdana, arial, sans-serif; font-size: 12px; fill: rgb(42, 63, 95); fill-opacity: 1; white-space: pre; opacity: 1;" transform="translate(0,180.49999999999994)">1</text></g></g><g class="cbtitleunshift" transform="translate(0,-25)"><g class="cbtitle" transform=""><text class="ycbcoloraxistitle" x="840.28" y="172.00000000000003" text-anchor="start" style="font-family: 'Open Sans', verdana, arial, sans-serif; font-size: 14px; fill: rgb(42, 63, 95); opacity: 1; font-weight: normal; white-space: pre;">R</text></g></g><rect class="cboutline" x="840" y="156" width="30" height="206" style="stroke: rgb(68, 68, 68); stroke-opacity: 1; fill: none; stroke-width: 0;"/></g><g class="g-gtitle"><text class="gtitle" x="45" y="12.5" text-anchor="start" dy="0em" style="font-family: 'Open Sans', verdana, arial, sans-serif; font-size: 17px; fill: rgb(42, 63, 95); opacity: 1; font-weight: normal; white-space: pre;">Southern Europe — Enclosure Strength (R)</text></g></g></svg>