<svg class="main-svg" xmlns="http://www.w3.org/2000/svg" xmlns:xlink="http://www.w3.org/1999/xlink" width="900" height="520" style="" viewBox="0 0 900 520"><rect x="0" y="0" width="900" height="520" style="fill: rgb(255, 255, 255); fill-opacity: 1;"/><defs id="defs-236d3b"><g class="clips"><clipPath id="clip236d3bgeo"><rect x="0" y="69.00173351538115" width="814" height="406.9965329692377"/></clipPath></g><g class="gradients"><linearGradient x1="0" x2="0" y1="1" y2="0" id="g236d3b-cbcoloraxis"><stop offset="0%" stop-color="rgb(68, 1, 84)" stop-opacity="1"/><stop offset="11.111111%" stop-color="rgb(72, 40, 120)" stop-opacity="1"/><stop offset="22.222222%" stop-color="rgb(62, 73, 137)" stop-opacity="1"/><stop offset="33.333333%" stop-color="rgb(49, 104, 142)" stop-opacity="1"/><stop offset="44.444444%" stop-color="rgb(38, 130, 142)" stop-opacity="1"/><stop offset="55.555556%" stop-color="rgb(31, 158, 137)" stop-opacity="1"/><stop offset="66.666667%" stop-color="rgb(53, 183, 121)" stop-opacity="1"/><stop offset="77.777778%" stop-color="rgb(110, 206, 88)" stop-opacity="1"/><stop offset="88.888889%" stop-color="rgb(181, 222, 43)" stop-opacity="1"/><stop offset="100%" stop-color="rgb(253, 231, 37)" stop-opacity="1"/></linearGradient></g><g class="patterns"/></defs><g class="bglayer"/><g class="layer-below"><g class="imagelayer"/><g class="shapelayer"/></g><g class="cartesianlayer"/><g class="polarlayer"/><g class="smithlayer"/><g class="ternarylayer"/><g class="geolayer"><g class="geo geo" clip-path="url(#clip236d3bgeo)"><g class="layer bg"><rect x="0" y="69.00173351538115" width="814" height="406.9965329692377" style="pointer-events: all; fill: rgb(255, 255, 255); fill-opacity: 1;"/></g><g class="layer backplot"><g class="choroplethlayer"><g class="trace choropleth"><path class="choroplethlocation" fill="rgb(38, 130, 142)" d="M285.25766031378805,327.65296903966293L295.5873133780724,317.32331597537825L303.70346935715366,323.2259748692551L306.6547988040919,331.7110470292032L316.24661950664165,333.18671175267264L328.78976965613026,337.244789742213L339.8572550821498,335.7691250187438L358.30306412551533,325.4394719544591L358.30306412551533,249.44273869579314L364.2057230193924,252.76298432359891L376.0110408071464,271.94662572869913L374.53537608367674,284.48977587818774L378.96237025408465,291.8680994955338L393.7190174887769,289.65460241032997L403.31083819132726,280.43169788864714L413.6404912556116,274.5290389947703L418.0674854260195,264.568302111353L428.3971384903045,259.77239176007777L437.2511268311197,262.35480502614905L446.8429475336695,267.88854773915875L463.813091853566,268.9952962817606L476.3562420030546,264.19938593048573L478.56973908825825,257.9278108557414L482.25890089693155,247.96707397232404L493.32638632295044,246.49140924885467L499.2290452168275,238.7441694506412L506.6073688341736,225.09427075855086L525.0531778775393,209.96870734299097L553.8286399851897,194.84314392743119L561.9447959642705,194.84314392743119L572.2744490285554,198.53230573610455L578.914940284167,195.94989247003326L589.9824257101859,198.16338955523696L599.5742464127362,226.9388516628872L604.7390729448781,241.3265827167125L601.0499111362053,264.19938593048573L603.263408221409,271.5777095478319L592.9337551571247,267.88854773915875L587.0310962632477,269.36421246262785L584.8175991780435,275.2668713565049L579.6527726459016,283.0141111547184L579.6527726459016,290.02351859119733L591.458090433655,301.0910040172166L604.0012405831435,298.8775069320127L607.690402391817,290.02351859119733L623.1848819882437,290.02351859119733L618.0200554561013,304.78016582588964L615.8065583708976,322.11922632665335L610.641731838755,331.34213084833596L596.6229169657975,341.67178391262075L592.9337551571247,344.62311335955917L584.0797668163088,354.95276642384385L578.1771079224318,365.6513356689959L566.3717901346783,380.03906672282096L543.4989869209048,401.43620521312494L528.7423396862126,413.6104391817461L513.2478600897858,422.8333437034289L491.8507215994814,430.94949968250967L481.521068535197,432.05624822511174L479.3075714499928,437.5899909381212L466.7644213005042,434.6386614911828L456.43476823621984,438.3278232998558L434.29979738418086,434.6386614911828L421.7566472346929,437.221074757254L412.90265889387706,436.114326214652L392.2433527653078,444.2304821937329L374.53537608367674,447.1818116406714L361.9922259341881,454.9290514388849L352.40040523163833,455.66688380061953L344.2842492525577,448.2885601832734L336.90592563521153,447.919644002406L328.0519372943957,438.6967394807232L327.31410493266117,441.6480689276617L324.3627754857229,436.114326214652L324.3627754857229,423.9400922460309L317.72228423011137,410.2901935539403L324.3627754857229,406.6010317452673L324.3627754857229,390.7376359679729L310.3439606127652,371.55399456287284L300.0143075484803,354.21493406210914ZM544.2368192826393,335.40020883787656L535.3828309418242,329.12863376313214L525.7910102392738,333.18671175267264L514.7235248132549,341.3028677317534L503.6560393872354,354.21493406210914L519.1505189836622,370.07832983940364L526.5288426010089,367.8648327541998L530.2180044096817,361.5932576794555L542.0233221974357,358.27301205164974L544.9746516443739,351.6325207960381L551.6151428999855,341.67178391262075Z" style="stroke: rgb(68, 68, 68); stroke-opacity: 1; stroke-width: 1px; opacity: 1;"/><path class="choroplethlocation" fill="rgb(49, 104, 142)" d="M553.8286399851897,194.84314392743119L525.0531778775393,209.96870734299097L506.6073688341736,225.09427075855086L499.2290452168275,238.7441694506412L493.32638632295044,246.49140924885467L482.25890089693155,247.96707397232404L478.56973908825825,257.9278108557414L476.3562420030546,264.19938593048573L463.813091853566,268.9952962817606L446.8429475336695,267.88854773915875L437.2511268311197,262.35480502614905L428.3971384903045,259.77239176007777L418.0674854260195,264.568302111353L413.6404912556116,274.5290389947703L403.31083819132726,280.43169788864714L393.7190174887769,289.65460241032997L378.96237025408465,291.8680994955338L374.53537608367674,284.48977587818774L376.0110408071464,271.94662572869913L364.2057230193924,252.76298432359891L358.30306412551533,249.44273869579314L358.30306412551533,189.678317395289L378.2245378923501,188.94048503355447L378.96237025408465,115.89508122182684L394.45684985051145,115.52616504095954L426.1836414051002,108.14784142361344L433.5619650224463,116.63291358356167L446.8429475336695,108.51675760448074L453.4834387892811,108.51675760448074L464.55092421530054,104.08976343407312L468.24008602397384,105.56542815754221L476.3562420030546,121.79774011570385L480.0454038117274,125.48690192437692L486.6858950673389,137.29221971213093L510.29653064284696,159.79610674503692L519.1505189836622,162.00960383024062L519.1505189836622,169.387927447587L525.0531778775393,182.29999377794292L540.5476574739666,185.6202394057487Z" style="stroke: rgb(68, 68, 68); stroke-opacity: 1; stroke-width: 1px; opacity: 1;"/><path class="choroplethlocation" fill="rgb(31, 158, 137)" d="M358.30306412551533,249.44273869579314L358.30306412551533,325.4394719544591L339.8572550821498,335.7691250187438L328.78976965613026,337.244789742213L316.24661950664165,333.18671175267264L306.6547988040919,331.7110470292032L303.70346935715366,323.2259748692551L295.5873133780724,317.32331597537825L285.25766031378805,327.65296903966293L270.50101307909523,312.158489443236L262.38485710001453,297.0329260276761L257.95786292960724,277.1114522608415L252.79303639746473,262.35480502614905L246.15254514185312,230.99692965242758L245.41471278011863,206.27954553431795L243.20121569491437,195.21206010829872L235.0850597158337,186.72698794835048L224.0175742898142,169.7568436284543L213.68792122552983,145.0394595103444L209.26092705512195,132.12739317998853L192.29078273522603,112.20591941315377L190.81511801175634,96.71143981672697L201.14477107604125,92.65336182718636L212.9500888637953,89.33311619938058L226.23107137501844,89.70203238024789L238.77422152450703,98.92493690193061L241.72555097144527,97.44927217846151L283.41716735298644,97.29084890973866L325.10060784745747,96.71143981672697L339.1194227204152,106.67217670014435L388.55419095663444,109.62350614708254L426.1836414051002,101.13843398713459L443.15378572499674,96.34252363585938L456.43476823621984,97.44927217846151L464.55092421530054,102.24518252973644L464.55092421530054,104.08976343407312L453.4834387892811,108.51675760448074L446.8429475336695,108.51675760448074L433.5619650224463,116.63291358356167L426.1836414051002,108.14784142361344L394.45684985051145,115.52616504095954L378.96237025408465,115.89508122182684L378.2245378923501,188.94048503355447L358.30306412551533,189.678317395289Z" style="stroke: rgb(68, 68, 68); stroke-opacity: 1; stroke-width: 1px; opacity: 1;"/><path class="choroplethlocation" fill="rgb(62, 73, 137)" d="M607.690402391817,290.02351859119733L604.0012405831435,298.8775069320127L591.458090433655,301.0910040172166L579.6527726459016,290.02351859119733L579.6527726459016,283.0141111547184L584.8175991780435,275.2668713565049L587.0310962632477,269.36421246262785L592.9337551571247,267.88854773915875L603.263408221409,271.5777095478319L606.2147376683479,280.8006140695145Z" style="stroke: rgb(68, 68, 68); stroke-opacity: 1; stroke-width: 1px; opacity: 1;"/><path class="choroplethlocation" fill="rgb(49, 104, 142)" d="M544.2368192826393,335.40020883787656L551.6151428999855,341.67178391262075L544.9746516443739,351.6325207960381L542.0233221974357,358.27301205164974L530.2180044096817,361.5932576794555L526.5288426010089,367.8648327541998L519.1505189836622,370.07832983940364L503.6560393872354,354.21493406210914L514.7235248132549,341.3028677317534L525.7910102392738,333.18671175267264L535.3828309418242,329.12863376313214Z" style="stroke: rgb(68, 68, 68); stroke-opacity: 1; stroke-width: 1px; opacity: 1;"/></g></g></g><g class="layer frontplot"><g class="scatterlayer"/></g></g></g><g class="funnelarealayer"/><g class="pielayer"/><g class="iciclelayer"/><g class="treemaplayer"/><g class="sunburstlayer"/><g class="glimages"/><defs id="topdefs-236d3b"><g class="clips"/></defs><g class="layer-above"><g class="imagelayer"/><g class="shapelayer"/></g><g class="infolayer"><g class="cbcoloraxis colorbar" transform="translate(0,25)"><rect class="cbbg" x="830" y="124" width="69.640625" height="248" style="fill: rgb(0, 0, 0); fill-opacity: 0; stroke: rgb(68, 68, 68); stroke-opacity: 1; stroke-width: 0;"/><g class="cbfills" transform="translate(0,155)"><rect class="cbfill gradient_filled" x="840" y="0" width="30" height="206" style="fill: url('#g236d3b-cbcoloraxis');"/></g><g class="cblines" transform="translate(0,155)"/><g class="cbaxis crisp" transform="translate(0,-25)"><g class="ycbcoloraxistick"><text text-anchor="start" x="872.9" y="4.199999999999999" transform="translate(0,386.49999999999994)" style="font-family: 'Open Sans', verdana, arial, sans-serif; font-size: 12px; fill: rgb(42, 63, 95); fill-opacity: 1; white-space: pre; opacity: 1;">0</text></g><g class="ycbcoloraxistick"><text text-anchor="start" x="872.9" y="4.199999999999999" style="font-family: 'Open Sans', verdana, arial, sans-serif; font-size: 12px; fill: rgb(42, 63, 95); fill-opacity: 1; white-space: pre; opacity: 1;" transform="translate(0,345.29999999999995)">0.2</text></g><g class="ycbcoloraxistick"><text text-anchor="start" x="872.9" y="4.199999999999999" style="font-family: 'Open Sans', verdana, arial, sans-serif; font-size: 12px; fill: rgb(42, 63, 95); fill-opacity: 1; white-space: pre; opacity: 1;" transform="translate(0,304.0999999999999)">0.4</text></g><g class="ycbcoloraxistick"><text text-anchor="start" x="872.9" y="4.199999999999999" style="font-family: 'Open Sans', verdana, arial, sans-serif; font-size: 12px; fill: rgb(42, 63, 95); fill-opacity: 1; white-space: pre; opacity: 1;" transform="translate(0,262.9)">0.6</text></g><g class="ycbcoloraxistick"><text text-anchor="start" x="872.9" y="4.199999999999999" style="font-family: 'Open Sans', verdana, arial, sans-serif; font-size: 12px; fill: rgb(42, 63, 95); fill-opacity: 1; white-space: pre; opacity: 1;" transform="translate(0,221.69999999999993)">0.8</text></g><g class="ycbcoloraxistick"><text text-anchor="start" x="872.9" y="4.199999999999999" style="font-family: 'Open Sans', verdana, arial, sans-serif; font-size: 12px; fill: rgb(42, 63, 95); fill-opacity: 1; white-space: pre; opacity: 1;" transform="translate(0,180.49999999999994)">1</text></g></g><g class="cbtitleunshift" transform="translate(0,-25)"><g class="cbtitle" transform=""><text class="ycbcoloraxistitle" x="840.28" y="172.00000000000003" text-anchor="start" style="font-family: 'Open Sans', verdana, arial, sans-serif; font-size: 14px; fill: rgb(42, 63, 95); opacity: 1; font-weight: normal; white-space: pre;">R</text></g></g><rect class="cboutline" x="840" y="156" width="30" height="206" style="stroke: rgb(68, 68, 68); stroke-opacity: 1; fill: none; stroke-width: 0;"/></g><g class="g-gtitle"><text class="gtitle" x="45" y="12.5" text-anchor="start" dy="0em" style="font-family: 'Open Sans', verdana, arial, sans-serif; font-size: 17px; fill: rgb(42, 63, 95); opacity: 1; font-weight: normal; white-space: pre;">Southern Africa — Enclosure Strength (R)</text></g></g></svg>