<svg class="main-svg" xmlns="http://www.w3.org/2000/svg" xmlns:xlink="http://www.w3.org/1999/xlink" width="900" height="520" style="" viewBox="0 0 900 520"><rect x="0" y="0" width="900" height="520" style="fill: rgb(255, 255, 255); fill-opacity: 1;"/><defs id="defs-f38606"><g class="clips"><clipPath id="clipf38606geo"><rect x="0" y="69.00168432018685" width="814" height="406.99663135962624"/></clipPath></g><g class="gradients"><linearGradient x1="0" x2="0" y1="1" y2="0" id="gf38606-cbcoloraxis"><stop offset="0%" stop-color="rgb(68, 1, 84)" stop-opacity="1"/><stop offset="11.111111%" stop-color="rgb(72, 40, 120)" stop-opacity="1"/><stop offset="22.222222%" stop-color="rgb(62, 73, 137)" stop-opacity="1"/><stop offset="33.333333%" stop-color="rgb(49, 104, 142)" stop-opacity="1"/><stop offset="44.444444%" stop-color="rgb(38, 130, 142)" stop-opacity="1"/><stop offset="55.555556%" stop-color="rgb(31, 158, 137)" stop-opacity="1"/><stop offset="66.666667%" stop-color="rgb(53, 183, 121)" stop-opacity="1"/><stop offset="77.777778%" stop-color="rgb(110, 206, 88)" stop-opacity="1"/><stop offset="88.888889%" stop-color="rgb(181, 222, 43)" stop-opacity="1"/><stop offset="100%" stop-color="rgb(253, 231, 37)" stop-opacity="1"/></linearGradient></g><g class="patterns"/></defs><g class="bglayer"/><g class="layer-below"><g class="imagelayer"/><g class="shapelayer"/></g><g class="cartesianlayer"/><g class="polarlayer"/><g class="smithlayer"/><g class="ternarylayer"/><g class="geolayer"><g class="geo geo" clip-path="url(#clipf38606geo)"><g class="layer bg"><rect x="0" y="69.00168432018685" width="814" height="406.99663135962624" style="pointer-events: all; fill: rgb(255, 255, 255); fill-opacity: 1;"/></g><g class="layer backplot"><g class="choroplethlayer"><g class="trace choropleth"><path class="choroplethlocation" fill="rgb(49, 104, 142)" d="M635.9639686075099,381.56271877458306L635.9639686075099,412.21543942396113L636.3026727030827,442.8681600733392L627.8350703137517,435.07796587515475L618.3513556377012,433.21509334950196L615.9804269686887,435.9247261140879L604.125783623625,436.26343020966107L608.1902327705039,428.6425880592632L613.9482023952494,425.9329552946773L611.5772737262365,415.7718324274801L606.8354163882111,407.81228618150897L588.8840993228291,399.8527399355379L581.0939051246453,399.00597969660475L566.8683331105688,390.36902525948716L564.158700345983,394.9415305497258L560.4329552946776,395.788290788659L558.4007307212376,392.4012498329267L558.4007307212376,388.16744863826113L551.2879447142001,383.5949433480224L561.110363485824,380.20790239229007L567.8844453972887,380.3772544400767L567.2070372061423,378.0063257710639L553.3201692876394,377.83697372327737L549.5944242363337,372.2483561463189L541.1268218470028,370.5548356684527L537.4010767956971,365.982330378214L549.9331283319068,363.61140170920135L554.6749856699322,360.56306484904223L569.916669970728,364.4581619481344L571.2714863530208,367.8452029038667L573.981119117607,383.0868872046626L583.8035378892309,388.84485682940755L591.5937320874153,378.8530860099971L602.4322631457591,373.095116385252L610.8998655350902,373.095116385252L618.6900597332743,376.31280529319775L625.8028457403124,379.6998462489301ZM485.2406460774182,440.6665834521132L485.9180542685646,442.52945597776596L486.2567583641382,445.4084407901385L480.1600846438199,452.52122679717655L472.03118635006217,454.55345137061596L471.0150740633424,453.3679870361096L471.6924822544888,450.15029812816385L475.7569314013678,444.56168055120537ZM571.9488945441677,422.037858195585L570.9327822574477,414.92507218854706L572.6263027353141,411.53803123281455L574.6585273087534,408.3203423248688L577.029455977766,411.02997508945475L576.6907518821927,415.6024803796935ZM418.5159392494904,318.22505290238723L413.0966737203185,326.69265529171827L419.8707556317832,335.4989617766225L418.177235153917,339.9021150190746L429.0157662122607,348.53906945619224L417.8385310583439,349.72453379069844L414.45149010261133,356.15991160659013L415.12889829375774,364.627513995921L405.98388771328047,371.0628918118126L405.6451836177069,380.3772544400767L402.25814266197483,394.77217850193927L400.56462218410843,391.5544895939935L390.0647952213383,395.788290788659L386.33905017003275,390.0303211639139L379.56496825856794,389.52226502055413L374.8231109205425,386.47392816039496L363.64587576662524,389.8609691161273L360.2588348108931,385.2884638258886L354.16216109057484,385.79651996924844L346.37196689239033,384.6110556347422L345.01715051009745,372.07900409853227L340.27529317207205,369.53872338173306L335.87213992962006,361.40982508797526L334.51732354732724,353.11157474643096L335.5334358340465,344.4746203093133L340.95270136321847,338.2085945412084L342.64622184108475,344.4746203093133L349.0815996569765,349.89388583848523L355.1782733772947,347.8616612650457L361.2749470976131,348.53906945619224L366.694212626785,343.7972121181668L371.09736586923697,342.95045187923375L379.9036723541409,345.6600846438197L387.69386655232546,343.62786007038017L392.43572389035086,330.5877523908106L396.16146894165655,327.20071143507806L399.54850989738867,316.53153242452106L410.38704095573235,316.53153242452106ZM526.5625457373535,383.42559130023585L536.7236686045508,386.1352240648218L540.1107095602829,393.41736211964627L532.3205153620988,389.52226502055413L524.5303211639142,388.67550478162093L519.1110556347423,389.3529129727675L512.6756778188505,389.0142088771943L514.7079023922902,383.76429539580903ZM502.8532590472266,392.73995392849986L496.41788123133546,391.0464334506337L494.724360753469,386.98198430375476L504.2080754295194,386.47392816039496L506.5790040985322,389.69161706834075ZM513.0143819144241,336.68442611112886L513.6917901055705,341.7649875447274L519.1110556347423,342.6117477836606L520.1271679214616,346.5068448827527L519.4497597303152,354.6357431765105L514.7079023922902,353.7889829375774L513.3530860099969,359.5469525623225L517.0788310613026,364.4581619481344L514.369198296717,365.47427423485414L510.64345324541125,359.5469525623225L507.9338204808251,347.5229571694725L509.9660450542648,340.0714670668612ZM465.9345126297434,348.8777735517655L476.7730436880871,348.53906945619224L485.9180542685646,341.5956354969408L487.611574746431,343.7972121181668L480.1600846438199,353.11157474643096L473.04729863678165,354.80509522429713L463.90228805630414,353.11157474643096L448.3218996599355,353.45027884200414L440.1930013661775,354.80509522429713L438.8381849838847,361.9178812313352L446.9670832776422,370.3854836206661L452.04764471124116,366.15168242600055L469.66025768104953,362.9339935180548L468.98284948990266,367.1677947127203L464.91840034302413,365.81297833042737L460.8539511961451,371.40159590738585L452.386348806814,374.9579889109048L461.53135938729156,386.98198430375476L459.83783890942516,390.36902525948716L468.30544129875625,401.2075563178309L467.96673720318313,407.30423003814917L463.22487986515773,410.1832148505217L459.49913481385227,406.79617389478926L463.90228805630414,399.00597969660475L454.75727747582687,402.73172474791045L452.386348806814,400.19144403111113L453.40246109353404,396.46569897980544L446.62837918206907,391.0464334506337L447.6444914687886,381.7320708223696L441.20911365289726,384.6110556347422L441.88652184404367,395.6189387408724L442.22522593961725,409.16710256380196L436.4672563148718,410.52191894609496L432.4028071679928,407.6429341337224L435.112439932579,399.00597969660475L433.75762355028616,390.0303211639139L429.6931744034071,389.8609691161273L426.6448375432481,383.42559130023585L430.7092866901271,377.3289175799175L432.06410307242,369.87742747730624L436.8059604104454,355.65185546323016L438.4994808883111,351.75675836413797L446.62837918206907,344.81332440488654L454.07986928468046,347.5229571694725ZM441.20911365289726,453.5373390838962L428.6770621166871,446.93260922021807L437.4833686015918,445.2390887423519L442.22522593961725,447.94872150693783L445.6122668953493,450.8277063193104L444.9348587042029,453.3679870361096ZM451.0315324245212,437.44889454416744L457.12820614483945,436.60213430523424L465.59580853417054,433.21509334950196L464.2409921518777,438.4650068308871L450.0154201378012,441.174639595473L437.4833686015918,439.98917526096665L437.4833686015918,436.60213430523424L444.9348587042029,434.5699097317949ZM421.90298020522243,435.7553740663013L427.6609498299679,434.9086138273681L430.0318784989807,438.973062974247L419.1933474406368,440.8359354998998L412.75796962474516,442.1907518821928L407.67740819114664,442.02139983440617L411.06444914687876,436.60213430523424L416.14501058047773,436.60213430523424L418.5159392494904,433.21509334950196ZM330.1141703048747,417.46535290534626L331.468986687168,420.8523938610787L349.42030375254944,421.86850614779837L351.45252832598874,417.9734090487062L368.7264372002242,422.3765622911583L372.11347815595633,428.4732360114766L386.33905017003275,430.1667564893428L397.85498941952295,435.7553740663013L387.355162456752,439.4811191176068L376.8553354939818,435.58602201851454L368.3877331046508,435.9247261140879L358.56531433302683,435.2473179229413L349.7590078481229,433.55379744507513L338.9204767897792,429.82805239376955L331.80769078274096,428.9812921548364L328.0819457314354,430.1667564893428L310.8080368572005,426.2716593902505L309.1145163793341,422.2072102433717L300.6469139900031,421.52980205222514L307.0822918058949,412.5541435195343L318.59823105538504,413.0621996628943L326.04972115799615,416.78794471419985ZM291.16319931395225,367.3371467605069L292.85671979181853,373.94187662418517L296.2437607475511,379.1917901055703L303.0178426590158,379.8691982967167L307.75969999704137,385.96587201703517L305.3887713280285,397.6511633143118L305.05006723245504,412.21543942396113L294.5502402696848,412.3847914717477L286.4213419759273,404.4252452257766L274.5666986308636,396.8044030753788L270.5022494839851,391.0464334506337L263.38946347694696,383.42559130023585L258.6476061389214,376.31280529319775L251.53482013188327,363.272697613628L243.40592183812572,355.3131513676569L240.3575849779666,347.35360512168586L236.9705440222339,339.9021150190746L228.50294163290351,333.9747933465429L223.76108429487797,326.01524710057186L216.64829828783985,320.76533361918655L206.8258795162159,310.26550665641616L205.80976722949603,305.5236493183908L211.90644094981442,305.86235341396406L226.47071705946365,307.72522593961696L234.93831944879463,316.8702365200944L242.0511054558329,323.3056143359859L247.47037098500473,327.20071143507806L256.2766774699087,337.36183430227527L265.76039214595966,337.5311863500619L273.5505863441442,343.9665641659535L278.9698518733156,351.75675836413797L286.4213419759273,356.15991160659013L282.35689282904815,363.78075375698796L287.77615835822013,366.99844266493375Z" style="stroke: rgb(68, 68, 68); stroke-opacity: 1; stroke-width: 1px; opacity: 1;"/><path class="choroplethlocation" fill="rgb(72, 40, 120)" d="M299.2920976077102,222.87984999852054L290.48579112280584,221.52503361622757L278.29244368216916,223.21855409409375L272.1957699618509,231.00874829227834L274.5666986308636,242.5246875417684L266.0990962415326,238.1215342993163L257.970197947775,238.29088634710288L259.3250143300678,230.8393962444916L251.1961160363103,231.00874829227834L250.51870784516387,241.33922320726202L245.438146411565,255.0567390779783L242.0511054558329,263.3549894195226L242.7285136469793,270.1290713309875L248.8251873672976,270.46777542656065L252.88963651417657,279.10472986367813L254.5831569920424,287.233628157436L259.6637184256414,292.6528936866077L265.4216880503862,293.66900597332744L270.16354538841165,298.5802153591394L267.11520852825254,302.4753124582317L261.0185348079342,303.4914247449515L260.34112661678785,298.74956740692613L252.55093241860314,294.5157662122606L250.85741194073685,296.2092866901268L247.1316668894313,292.6528936866077L245.77685050713845,288.080388396369L240.69628907354004,282.66112286719726L235.95443173551462,278.2579696247451L234.5996153532218,283.8465872017036L232.9060948753555,278.59667372031834L233.92220716207476,272.6693520477866L236.63183992666106,263.6936935150958L241.03499316911302,254.04062679125855L246.45425869828486,245.23432030635433L242.7285136469793,236.59736586923668L242.7285136469793,232.19421262678458L241.71240136025943,226.94429914539944L235.2770235443682,219.4928090427882L233.24479897092834,214.75095170476285L236.29313583108748,213.05743122689668L240.01888088239315,204.92853293313885L235.95443173551462,198.66250716503396L230.1964621107692,191.88842525356924L225.45460477274426,183.59017491202485L229.5190539196228,181.89665443415868L233.58350306650192,171.73553156696147L240.3575849779666,171.22747542360165L245.77685050713845,167.16302627672272L251.1961160363103,164.96144965549675L255.26056518318882,167.8404344678693L255.93797337433583,173.59840409261423L262.3733511902271,173.93710818818758L260.00242252121427,183.92887900759806L260.00242252121427,192.39648139692906L270.16354538841165,186.80786381997058L272.8731781529973,188.33203225005016L278.29244368216916,188.16268020226357L280.3246682556089,184.7756392465312L287.43745426264655,185.4530474376776L294.5502402696848,193.07388958807547L295.22764846083123,202.38825221633954L302.67913856344234,210.68650255788395L302.3404344678694,218.64604880385502Z" style="stroke: rgb(68, 68, 68); stroke-opacity: 1; stroke-width: 1px; opacity: 1;"/><path class="choroplethlocation" fill="rgb(68, 1, 84)" d="M290.82449521837924,258.44378003371065L298.9533935121368,254.71803498240496L309.1145163793341,254.04062679125855L304.7113631368821,248.28265716651347L320.6304556288243,241.00051911168882L321.64656791554415,229.823283957772L319.6143433421044,223.5572581896671L321.3078638199707,214.07354351361633L318.936935150958,207.4688136499382L311.8241491439197,200.86408378625995L306.0661795191749,192.56583344471565L298.27598532099034,181.55795033858544L286.76004607150014,175.79998071384037L289.4696788360864,172.412939758108L295.5663525564047,170.0420110890953L291.8406075050991,161.74376074755085L280.3246682556089,161.74376074755085L276.26021910872987,153.10680631043337L270.5022494839851,145.8246682556087L275.5828109175835,143.453739586596L283.03430102019456,143.453739586596L292.1793116006721,142.43762729987637L300.30820989442964,137.3570658662777L304.7113631368821,140.91345886979676L313.5176696217861,142.60697934766296L311.8241491439197,148.02624487683468L316.5660064819453,151.921341975927L326.04972115799615,154.29227064493975L313.5176696217861,162.42116893869743L305.3887713280285,171.22747542360165L303.35654675458875,177.83220528727975L310.8080368572005,187.65462405890375L319.27563924653145,200.01732354732695L328.0819457314354,205.775293172072L333.8399153561808,213.3961353224699L337.90436450305924,230.8393962444916L336.88825221633994,247.26654487979368L328.7593539225818,253.5325706478986L318.2595269598116,259.62924436821703L310.4693327616269,267.4194385664015L298.6146894165638,276.22574505130575L295.22764846083123,270.1290713309875L297.9372812254174,263.8630455628824Z" style="stroke: rgb(68, 68, 68); stroke-opacity: 1; stroke-width: 1px; opacity: 1;"/><path class="choroplethlocation" fill="rgb(38, 130, 142)" d="M446.2896750864958,237.61347815595644L441.20911365289726,230.3313401011318L449.3380119466548,230.67004419670502L452.7250529023876,234.05708515243748L450.35412423337476,242.18598344619517ZM462.54747167401126,263.185637371736L464.91840034302413,260.47600460715006L465.9345126297434,254.71803498240496L471.35377815891525,254.20997883904516L469.66025768104953,260.47600460715006L476.7730436880871,251.50034607445923L475.7569314013678,260.47600460715006L472.36989044563524,263.5243414673092L469.32155358547595,269.4516631398409L466.6119208208903,272.1612959044268L460.8539511961451,265.7259180885353ZM498.4501058047747,277.9192655291719L499.12751399592116,284.1852912972768L499.8049221870675,289.43520477866196L496.7565853269083,298.0721592157796L493.0308402756028,288.4190924919423L488.6276870331508,293.33030187775427L491.67602389331,300.10438378921896L488.96639112872384,304.50753703167106L478.1278600703806,299.0882715024993L475.41822730579423,292.3141895910345L478.1278600703806,287.91103634858234L472.36989044563524,283.3385310583437L469.32155358547595,287.233628157436L464.91840034302413,286.89492406186275L457.80561433598587,292.1448375432479L456.45079795369304,289.43520477866196L460.1765430049987,281.4756585326909L465.9345126297434,278.93537781589157L471.0150740633424,275.37898481237255L474.4021150190745,279.6127860070381L481.51490102611274,277.0725052902388L483.2084215039789,272.83870409557323L489.64379931987025,272.5L489.3050952242972,265.2178619451754L496.7565853269083,269.7903672354141L497.7726976136283,274.5322245734394ZM424.2739088742353,269.4516631398409L411.74185733802517,278.4273216725317L416.4837146760506,271.82259180885364L423.2577965875153,266.06462218410854L428.6770621166871,259.4598923204303L433.75762355028616,250.14552969216624L435.45114402815204,257.7663718425641L429.35447030783354,263.0162853239494ZM460.1765430049987,185.62239948546423L458.82172662270585,189.51749658455654L461.87006348286485,196.29157849602123L459.49913481385227,204.08177269420582L454.07986928468046,207.2994616021516L452.386348806814,214.75095170476285L454.75727747582687,222.37179385516072L459.49913481385227,223.38790614188034L463.90228805630414,222.2024418073741L475.41822730579423,227.45235528875924L474.7408191146478,232.53291672235792L477.78915597480704,234.73449334358392L476.7730436880871,239.13764658603603L469.32155358547595,234.5651412957973L465.9345126297434,229.65393190998537L463.5635839607313,233.04097286571772L457.46691024041303,227.45235528875924L448.99930785108194,228.80717167105223L444.2574505130565,226.77494709761285L444.5961546086294,222.87984999852054L447.6444914687886,220.50892132950796L444.9348587042029,218.30734470828182L443.58004232191007,221.6943856640142L438.8381849838847,216.2751201348424L437.4833686015918,212.2106709879635L437.1446645060182,203.0656604074861L440.8704095573239,206.28334931543182L441.88652184404367,191.54972115799592L444.9348587042029,183.08211876866503L450.6928283289476,183.08211876866503L456.45079795369304,185.62239948546423L459.49913481385227,183.25147081645162ZM457.46691024041303,249.63747354880644L456.11209385811947,245.23432030635433L461.53135938729156,248.11330511872688L467.6280331076098,248.11330511872688L467.6280331076098,252.00840221781903L463.22487986515773,256.07285136469795L457.12820614483945,258.9518361770705L456.7895020492659,254.54868293461837ZM489.9825034154436,242.694039589555L492.6921361800293,253.1938665523254L485.5793501729918,250.6535858355262L485.5793501729918,253.87127474347193L487.95027884200437,259.62924436821703L483.54712559955203,261.83082098944305L483.2084215039789,255.0567390779783L480.1600846438199,254.71803498240496L478.8052682615271,248.9600653576599L484.2245337906989,249.63747354880644L484.2245337906989,246.08108054528748L478.4665641659535,238.96829453824944L487.611574746431,239.13764658603603Z" style="stroke: rgb(68, 68, 68); stroke-opacity: 1; stroke-width: 1px; opacity: 1;"/><path class="choroplethlocation" fill="rgb(31, 158, 137)" d="M250.85741194073685,296.2092866901268L252.55093241860314,294.5157662122606L260.34112661678785,298.74956740692613L261.0185348079342,303.4914247449515L267.11520852825254,302.4753124582317L270.16354538841165,298.5802153591394L272.53447405742435,299.42697559807254L277.95373958659616,305.18494522281765L282.01818873347474,311.45097099092254L282.6955969246217,317.71699675902744L281.67948463790174,321.9507979536929L282.35689282904815,325.3378389094253L283.03430102019456,330.75710443859714L286.4213419759273,333.46673720318313L290.1470870272328,341.7649875447274L289.80838293165937,344.98267645267316L283.37300511576814,345.49073259603307L274.22799453529063,338.54729863678165L263.38946347694696,331.0958085341704L262.03464709465413,326.35395119614503L256.61538156548227,320.08792542804014L255.26056518318882,312.2977312298557L251.8735242274567,307.0478177484704L253.22834060974955,300.2737358370057ZM418.5159392494904,318.22505290238723L410.38704095573235,316.53153242452106L399.54850989738867,316.53153242452106L396.16146894165655,327.20071143507806L392.43572389035086,330.5877523908106L387.69386655232546,343.62786007038017L379.9036723541409,345.6600846438197L371.09736586923697,342.95045187923375L366.694212626785,343.7972121181668L361.2749470976131,348.53906945619224L355.1782733772947,347.8616612650457L349.0815996569765,349.89388583848523L342.64622184108475,344.4746203093133L340.95270136321847,338.2085945412084L348.0654873702566,341.4262834491542L355.1782733772947,339.732762971288L357.210497950734,331.7732167253168L361.2749470976131,329.910344199664L372.4521822515298,327.87811962622465L379.2262641629945,320.42662952361337L383.9681215010199,314.49930785108165L388.03257064789904,319.4105172368936L390.0647952213383,316.1928283289478L394.46794846379015,316.53153242452106L395.14535665493656,310.4348587042028L395.48406075051014,305.86235341396406L402.93555085312124,299.2576235502859L407.67740819114664,291.97548549546127L411.40315324245233,291.97548549546127L416.14501058047773,296.7173428334866L416.4837146760506,300.78179198036554L422.9190924919424,303.32207269716486L430.7092866901271,306.20105750953724L430.0318784989807,309.92680256084293L423.5965006830889,310.4348587042028L425.2900211609553,315.0073639944415Z" style="stroke: rgb(68, 68, 68); stroke-opacity: 1; stroke-width: 1px; opacity: 1;"/><path class="choroplethlocation" fill="rgb(53, 183, 121)" style="stroke: rgb(68, 68, 68); stroke-opacity: 1; stroke-width: 1px; opacity: 1;"/><path class="choroplethlocation" fill="rgb(68, 1, 84)" d="M251.1961160363103,164.96144965549675L245.77685050713845,167.16302627672272L240.3575849779666,171.22747542360165L233.58350306650192,171.73553156696147L229.5190539196228,181.89665443415868L225.45460477274426,183.59017491202485L230.1964621107692,191.88842525356924L235.95443173551462,198.66250716503396L240.01888088239315,204.92853293313885L236.29313583108748,213.05743122689668L233.24479897092834,214.75095170476285L235.2770235443682,219.4928090427882L241.71240136025943,226.94429914539944L242.7285136469793,232.19421262678458L242.7285136469793,236.59736586923668L246.45425869828486,245.23432030635433L241.03499316911302,254.04062679125855L236.63183992666106,263.6936935150958L235.61572763994107,256.58090750805786L238.6640645001003,249.46812150101982L235.2770235443682,243.87950392406134L236.29313583108748,233.71838105686413L232.22868668420907,228.80717167105223L229.1803498240498,217.4605844693488L227.48682934618353,205.60594112428544L223.4223801993045,197.81574692610081L217.32570647898626,202.55760426412627L206.48717542064244,209.331686175591L201.40661398704404,208.48492593665796L195.64864436229925,206.28334931543182L198.69698122245836,194.59805801815503L196.66475664901864,185.79175153325082L189.55197064198097,174.9532204749072L190.56808292870036,171.56617951917485L185.1488173995284,170.3807151846685L178.37473548806372,162.59052098648402L177.69732729691728,155.13903088387275L181.08436825265,156.49384726616574L181.08436825265,149.71976535470085L185.82622559067482,147.5181887334749L184.81011330395555,143.453739586596L187.18104197296827,140.23605067865023L187.51974606854122,130.582983954813L194.63253207557938,132.78456057603896L199.03568531803134,124.9943663778545L199.3743894136048,120.42186108761578L204.45495084720318,112.46231484164471L204.45495084720318,107.04304931247282L216.64829828783985,100.6076714965813L223.08367610373156,102.30119197444748L222.40626791258512,96.54322234970243L225.79330886831724,94.84970187183626L225.11590067717083,91.2933088683173L230.53516620634267,90.4465486293841L233.58350306650192,96.03516620634258L237.6479522133809,98.2367428275686L237.98665630895388,105.51888088239326L237.6479522133809,113.30907508057771L228.84164572847638,121.0992692787622L227.48682934618353,132.27650443267916L237.6479522133809,130.75233600259958L239.68017678682017,139.3892904397172L245.77685050713845,141.25216296537L243.0672177425523,149.04235716355447L250.1800037495904,152.59875016707343L254.24445289646943,154.29227064493975L261.0185348079342,151.5826378803538L261.35723890350766,155.47773497944596L253.22834060974955,161.57440869976423Z" style="stroke: rgb(68, 68, 68); stroke-opacity: 1; stroke-width: 1px; opacity: 1;"/><path class="choroplethlocation" fill="rgb(68, 1, 84)" d="M274.5666986308636,242.5246875417684L272.1957699618509,231.00874829227834L278.29244368216916,223.21855409409375L290.48579112280584,221.52503361622757L299.2920976077102,222.87984999852054L307.0822918058949,226.4362430020395L311.1467409527733,220.000865186148L319.6143433421044,223.5572581896671L321.64656791554415,229.823283957772L320.6304556288243,241.00051911168882L304.7113631368821,248.28265716651347L309.1145163793341,254.04062679125855L298.9533935121368,254.71803498240496L290.82449521837924,258.44378003371065L283.03430102019456,257.0889636514177L279.30855596888904,252.17775426560576Z" style="stroke: rgb(68, 68, 68); stroke-opacity: 1; stroke-width: 1px; opacity: 1;"/><path class="choroplethlocation" fill="rgb(68, 1, 84)" d="M319.6143433421044,223.5572581896671L311.1467409527733,220.000865186148L307.0822918058949,226.4362430020395L299.2920976077102,222.87984999852054L302.3404344678694,218.64604880385502L302.67913856344234,210.68650255788395L295.22764846083123,202.38825221633954L294.5502402696848,193.07388958807547L287.43745426264655,185.4530474376776L280.3246682556089,184.7756392465312L278.29244368216916,188.16268020226357L272.8731781529973,188.33203225005016L270.16354538841165,186.80786381997058L260.00242252121427,192.39648139692906L260.00242252121427,183.92887900759806L262.3733511902271,173.93710818818758L255.93797337433583,173.59840409261423L255.26056518318882,167.8404344678693L251.1961160363103,164.96144965549675L253.22834060974955,161.57440869976423L261.35723890350766,155.47773497944596L262.03464709465413,157.6793116006721L267.11520852825254,157.84866364845868L265.76039214595966,147.17948463790168L270.5022494839851,145.8246682556087L276.26021910872987,153.10680631043337L280.3246682556089,161.74376074755085L291.8406075050991,161.74376074755085L295.5663525564047,170.0420110890953L289.4696788360864,172.412939758108L286.76004607150014,175.79998071384037L298.27598532099034,181.55795033858544L306.0661795191749,192.56583344471565L311.8241491439197,200.86408378625995L318.936935150958,207.4688136499382L321.3078638199707,214.07354351361633Z" style="stroke: rgb(68, 68, 68); stroke-opacity: 1; stroke-width: 1px; opacity: 1;"/><path class="choroplethlocation" fill="rgb(68, 1, 84)" d="M395.48406075051014,305.86235341396406L395.14535665493656,310.4348587042028L394.46794846379015,316.53153242452106L390.0647952213383,316.1928283289478L388.03257064789904,319.4105172368936L383.9681215010199,314.49930785108165L387.69386655232546,310.94291484756275Z" style="stroke: rgb(68, 68, 68); stroke-opacity: 1; stroke-width: 1px; opacity: 1;"/><path class="choroplethlocation" fill="rgb(53, 183, 121)" d="M485.2406460774182,440.6665834521132L486.2567583641382,438.4650068308871L494.3856566578957,436.4327822574477L500.8210344737873,436.09407816187445L503.86937133394656,434.9086138273681L507.2564122896787,436.09407816187445L503.86937133394656,438.6343588786738L494.04695256232264,442.6988080255526L486.2567583641382,445.4084407901385L485.9180542685646,442.52945597776596Z" style="stroke: rgb(68, 68, 68); stroke-opacity: 1; stroke-width: 1px; opacity: 1;"/></g></g></g><g class="layer frontplot"><g class="scatterlayer"/></g></g></g><g class="funnelarealayer"/><g class="pielayer"/><g class="iciclelayer"/><g class="treemaplayer"/><g class="sunburstlayer"/><g class="glimages"/><defs id="topdefs-f38606"><g class="clips"/></defs><g class="layer-above"><g class="imagelayer"/><g class="shapelayer"/></g><g class="infolayer"><g class="cbcoloraxis colorbar" transform="translate(0,25)"><rect class="cbbg" x="830" y="124" width="69.640625" height="248" style="fill: rgb(0, 0, 0); fill-opacity: 0; stroke: rgb(68, 68, 68); stroke-opacity: 1; stroke-width: 0;"/><g class="cbfills" transform="translate(0,155)"><rect class="cbfill gradient_filled" x="840" y="0" width="30" height="206" style="fill: url('#gf38606-cbcoloraxis');"/></g><g class="cblines" transform="translate(0,155)"/><g class="cbaxis crisp" transform="translate(0,-25)"><g class="ycbcoloraxistick"><text text-anchor="start" x="872.9" y="4.199999999999999" transform="translate(0,386.49999999999994)" style="font-family: 'Open Sans', verdana, arial, sans-serif; font-size: 12px; fill: rgb(42, 63, 95); fill-opacity: 1; white-space: pre; opacity: 1;">0</text></g><g class="ycbcoloraxistick"><text text-anchor="start" x="872.9" y="4.199999999999999" style="font-family: 'Open Sans', verdana, arial, sans-serif; font-size: 12px; fill: rgb(42, 63, 95); fill-opacity: 1; white-space: pre; opacity: 1;" transform="translate(0,345.29999999999995)">0.2</text></g><g class="ycbcoloraxistick"><text text-anchor="start" x="872.9" y="4.199999999999999" style="font-family: 'Open Sans', verdana, arial, sans-serif; font-size: 12px; fill: rgb(42, 63, 95); fill-opacity: 1; white-space: pre; opacity: 1;" transform="translate(0,304.0999999999999)">0.4</text></g><g class="ycbcoloraxistick"><text text-anchor="start" x="872.9" y="4.199999999999999" style="font-family: 'Open Sans', verdana, arial, sans-serif; font-size: 12px; fill: rgb(42, 63, 95); fill-opacity: 1; white-space: pre; opacity: 1;" transform="translate(0,262.9)">0.6</text></g><g class="ycbcoloraxistick"><text text-anchor="start" x="872.9" y="4.199999999999999" style="font-family: 'Open Sans', verdana, arial, sans-serif; font-size: 12px; fill: rgb(42, 63, 95); fill-opacity: 1; white-space: pre; opacity: 1;" transform="translate(0,221.69999999999993)">0.8</text></g><g class="ycbcoloraxistick"><text text-anchor="start" x="872.9" y="4.199999999999999" style="font-family: 'Open Sans', verdana, arial, sans-serif; font-size: 12px; fill: rgb(42, 63, 95); fill-opacity: 1; white-space: pre; opacity: 1;" transform="translate(0,180.49999999999994)">1</text></g></g><g class="cbtitleunshift" transform="translate(0,-25)"><g class="cbtitle" transform=""><text class="ycbcoloraxistitle" x="840.28" y="172.00000000000003" text-anchor="start" style="font-family: 'Open Sans', verdana, arial, sans-serif; font-size: 14px; fill: rgb(42, 63, 95); opacity: 1; font-weight: normal; white-space: pre;">R</text></g></g><rect class="cboutline" x="840" y="156" width="30" height="206" style="stroke: rgb(68, 68, 68); stroke-opacity: 1; fill: none; stroke-width: 0;"/></g><g class="g-gtitle"><text class="gtitle" x="45" y="12.5" text-anchor="start" dy="0em" style="font-family: 'Open Sans', verdana, arial, sans-serif; font-size: 17px; fill: rgb(42, 63, 95); opacity: 1; font-weight: normal; white-space: pre;">South-eastern Asia — Enclosure Strength (R)</text></g></g></svg>