<svg class="main-svg" xmlns="http://www.w3.org/2000/svg" xmlns:xlink="http://www.w3.org/1999/xlink" width="900" height="520" style="" viewBox="0 0 900 520"><rect x="0" y="0" width="900" height="520" style="fill: rgb(255, 255, 255); fill-opacity: 1;"/><defs id="defs-f92d71"><g class="clips"><clipPath id="clipf92d71geo"><rect x="0" y="69.00164139492836" width="814" height="406.9967172101433"/></clipPath></g><g class="gradients"><linearGradient x1="0" x2="0" y1="1" y2="0" id="gf92d71-cbcoloraxis"><stop offset="0%" stop-color="rgb(68, 1, 84)" stop-opacity="1"/><stop offset="11.111111%" stop-color="rgb(72, 40, 120)" stop-opacity="1"/><stop offset="22.222222%" stop-color="rgb(62, 73, 137)" stop-opacity="1"/><stop offset="33.333333%" stop-color="rgb(49, 104, 142)" stop-opacity="1"/><stop offset="44.444444%" stop-color="rgb(38, 130, 142)" stop-opacity="1"/><stop offset="55.555556%" stop-color="rgb(31, 158, 137)" stop-opacity="1"/><stop offset="66.666667%" stop-color="rgb(53, 183, 121)" stop-opacity="1"/><stop offset="77.777778%" stop-color="rgb(110, 206, 88)" stop-opacity="1"/><stop offset="88.888889%" stop-color="rgb(181, 222, 43)" stop-opacity="1"/><stop offset="100%" stop-color="rgb(253, 231, 37)" stop-opacity="1"/></linearGradient></g><g class="patterns"/></defs><g class="bglayer"/><g class="layer-below"><g class="imagelayer"/><g class="shapelayer"/></g><g class="cartesianlayer"/><g class="polarlayer"/><g class="smithlayer"/><g class="ternarylayer"/><g class="geolayer"><g class="geo geo" clip-path="url(#clipf92d71geo)"><g class="layer bg"><rect x="0" y="69.00164139492836" width="814" height="406.9967172101433" style="pointer-events: all; fill: rgb(255, 255, 255); fill-opacity: 1;"/></g><g class="layer backplot"><g class="choroplethlayer"><g class="trace choropleth"><path class="choroplethlocation" fill="rgb(38, 130, 142)" d="M432.33925642067857,339.1004977187183L430.78589204239944,336.09085423580245L433.310109157103,333.56663712109884L430.20338040054475,329.8773967226859L425.93162836027705,326.86775323977L420.3006824890152,323.372683388642L418.3589770161662,323.5668539359269L412.9222016921892,319.3921871693017L409.4271318410611,319.9746988111564L416.61144209060217,312.5962180143304L422.6307290564339,307.35361323763834L426.3199694548469,305.21773721750446L430.78589204239944,302.2080937345886L430.9800625896843,297.93634169432096L428.26167492769576,294.8296129377627L425.5432872657073,295.80046567418714L426.70831054941664,292.69373691762894L427.29082219127133,289.4899228874282L427.48499273855623,286.57736467815477L425.5432872657073,285.6065119417302L423.4074112455734,286.48027940451226L421.46570577272456,286.18902358358497L420.6890235835849,284.1502328370936L420.3006824890152,279.1988838813288L419.32982975259074,277.54843422940723L415.64058935417773,276.0921551247705L413.50471333404397,277.16009313483744L407.6795969154971,276.18924039841295L408.06793801006694,268.81075960158705L406.51457363178775,265.8011161186712L408.2621085573518,264.73317810860425L407.6795969154971,261.626449352046L409.23296129377627,259.2964027846273L410.0096434829159,255.02465074435963L408.8446201992064,251.72375144051645L405.93206198993306,250.1703870622373L405.34955034807837,248.0345110421035L406.12623253721796,244.92778228554516L395.8351935311186,244.73361173826032L393.6993175109848,238.4230689515013L395.252681889264,238.32598367785886L395.252681889264,235.9959371104401L394.08765860555457,234.44257273216095L393.89348805826967,231.33584397560264L390.7867593017114,229.68539432368112L387.29168945058336,229.78247959732357L385.15581343044954,228.2291152190444L381.46657303203665,227.1611772089775L379.3306970119027,225.12238646248608L373.31141004607105,224.24861899970406L367.4862936275243,219.39435531758178L367.8746347220941,215.8022001928112L367.2921230802394,213.66632417267743L367.8746347220941,209.68582795333708L360.690324472553,210.5595954161191L357.9719368105645,212.59838616261052L353.1176731284422,214.83134745638674L351.95264984473283,216.3847118346659L349.23426218274426,216.5788823819508L345.1566806897616,216.0934560137386L342.24412248048816,216.96722347652062L339.7199053657846,216.3847118346659L340.1082464603544,208.22954884870043L335.64232387280185,211.33627760525866L330.98223073796436,211.23919233161624L328.8463547178306,208.32663412234288L325.35128486670254,208.03537830141548L326.322137603127,205.70533173399681L323.40957939385356,202.40443243015363L321.27370337371974,197.55016874803127L322.63289720471397,196.5793160116068L322.63289720471397,194.3463547178306L325.9337965085572,192.79299033955144L325.35128486670254,189.880432130278L326.7104786976967,187.93872665742907L327.09881979226657,185.5115948163679L333.3122773053831,181.82235441795495L337.5840293456508,180.75441640788807L338.36071153479037,179.97773421874848L343.21497521691265,180.17190476603335L345.7391923316162,165.4149431723815L345.7391923316162,163.08489660496275L344.9625101424767,159.97816784840452L342.632463575058,158.03646237555552L342.632463575058,154.05596615621525L345.54502178433137,153.18219869343324L346.7100450680407,153.76471033528796L346.9042156153256,151.72591958879653L343.79748685876734,151.1434079469419L343.60331631148244,147.74542336945626L354.0885258648667,147.8425086430987L356.0302313377156,145.99788844389224L357.38942516870986,147.74542336945626L358.5544484524192,150.94923739965694L359.5253011888436,150.2696404841598L362.43785939811704,153.08511341979082L366.70961143838474,152.7938575988634L367.68046417480923,151.1434079469419L371.7580456677919,149.88129938959005L373.89392168792574,149.00753192680804L374.67060387706533,146.6774853593893L378.3598442754783,145.1241209811102L378.1656737281934,144.05618297104323L373.50558059335594,143.57075660283104L372.9230689515013,140.1727720253454L373.11723949878615,136.5806169005749L370.5930223840826,135.12433779593817L371.563875120507,134.63891142772593L375.64145661348977,135.31850834322307L379.9132086537574,136.67770217421736L381.46657303203665,135.4155936168655L385.34998397773444,134.54182615408348L391.3692709435661,132.50303540759214L393.310976416415,130.4642446611008L392.72846477456034,129.00796555646406L395.4468524365489,128.71670973553677L396.80604626754314,129.97881829288852L396.0293640784036,132.30886486030727L397.7768990039676,133.18263232308928L399.13609283496186,135.7068494377929L397.5827284566827,137.55146963699937L396.80604626754314,142.11447749819433L398.16524009853737,144.92995043382527L398.5535811931072,147.35708227488644L401.8544804969503,149.88129938959005L404.5728681589388,150.17255521051737L405.1553798007935,149.10461720045046L406.70874417907265,148.9104466531656L409.23296129377627,147.93959391674113L410.98049621934035,146.48331481210442L413.89305442861365,146.96874118031667L415.252248259608,146.77457063303174L418.16480646888135,147.259997001244L418.74731811073605,146.09497371753466L417.77646537431156,145.0270357074677L418.3589770161662,143.47367132918862L420.49485303630007,143.9590976974008L423.0190701510037,143.3765860555461L426.12579890756194,144.5416093392555L428.45584547498066,145.70663262296483L430.20338040054475,144.15326824468568L431.36840368425413,144.44452406561308L432.1450858733936,145.9008031702497L434.66930298809723,145.51246207567996L436.8051790082311,143.47367132918862L438.35854338651023,139.49317510984827L441.6594426903534,134.63891142772593L443.4069776159174,134.3476556067986L444.7661714469117,137.3572990897145L447.87290020347,146.77457063303174L450.5912878654584,147.64833809581376L450.7854584127435,151.33757849422676L446.7078769197606,155.8035010817793L448.45541184532465,157.4539507337009L457.9697686622845,158.32771819648292L458.1639392095694,163.66740824681744L462.24152070255207,160.1723383956894L469.0374898575233,162.1140438685383L477.96933503262835,165.4149431723815L480.6877226946169,168.5216719289398L479.7168699581924,171.53131541185562L486.1244980185939,169.880865759934L496.6097075719781,172.69633869556495L504.5707000106588,172.50216814828008L512.5316924493393,176.9680907358326L519.5218321515955,182.9873777016643L523.5994136445784,184.54074207994344L528.2595067794157,184.83199790087085L530.2012122522647,186.48244755279237L531.9487471778287,193.37550198140605L532.9195999142531,196.5793160116068L530.7837238941194,205.51116118671194L528.0653362321308,209.10331631148244L520.49268488802,216.5788823819508L516.997615036892,222.6952546214249L512.9200335439092,227.35534775626238L511.5608397129149,227.45243302990482L510.2016458819207,231.43292924924515L510.5899869764904,241.52979770805956L509.03662259821124,249.78204596766753L508.4541109563566,253.37420109243806L506.7065760307926,255.51007711257182L505.7357232943681,262.69438736211293L500.29894797039105,269.7816123380115L499.3280952339667,275.3154729356309L495.0563431936989,277.6455195030497L493.6971493627047,280.8493335332504L487.872032944158,280.8493335332504L479.32852886362264,282.9852095533842L475.6392884652097,285.3152561208029L469.62000149937796,286.9657057727245L463.21237343897656,291.23745781299215L458.746450851424,296.57714786332673L457.77559811499964,300.557644082667L458.746450851424,303.5672875655829L457.77559811499964,309.0040628895599L456.6105748312902,311.6253652779059L452.72716388559235,314.6350087608218L446.7078769197606,324.1493655777815L442.0477837849231,328.4211176180492L438.35854338651023,330.9453347327528L435.8343262718067,336.09085423580245Z" style="stroke: rgb(68, 68, 68); stroke-opacity: 1; stroke-width: 1px; opacity: 1;"/><path class="choroplethlocation" fill="rgb(38, 130, 142)" d="M350.01094437188385,440.84586449600226L352.1468203920178,443.3700816107059L354.86520805400625,447.4476631036886L361.85534775626235,450.65147713388933L369.42799910037326,452.0106709648836L366.90378198566964,454.72905862687213L361.85534775626235,455.0203144477995L359.1369600942739,453.07860897495055L355.8360607904307,452.9815237013081L350.01094437188385,452.9815237013081ZM409.4271318410611,319.9746988111564L408.06793801006694,324.246450851424L406.70874417907265,329.8773967226859L406.70874417907265,335.21708677302047L405.5437208953633,336.3821100567298L405.1553798007935,339.8771799078579L404.76703870622373,342.6926528434889L411.563007861195,347.35274597832625L410.78632567205545,351.04198637673926L414.2813955231835,353.3720329441579L413.89305442861365,355.993335332504L408.8446201992064,362.98347503476015L400.689457213241,365.7989479703911L390.0100771125719,366.96397125410044L383.9907901467402,366.38145961224575L385.15581343044954,369.68235891608896L383.9907901467402,373.66285513542925L384.9616428831647,376.38124279741777L381.8549141266064,378.3229482702667L376.22396825534446,379.00254518576384L371.1755340259373,377.0608397129149L369.0396580058034,378.5171188175516L369.816340194943,383.8568088678862L373.31141004607105,385.5072585198077L376.41813880262936,383.7597235942437L377.9715031809085,386.5751965298747L372.9230689515013,388.22564618179626L368.65131691123366,391.6236307592819L367.8746347220941,397.06040608325884L366.51544089109984,399.8758790188898L361.4670066616926,399.8758790188898L357.19525462142497,402.69135195452077L355.64189024314584,406.7689334475035L361.0786655671228,410.6523443932014L366.12709979653005,411.7202824032683L364.37956487096596,416.57454608539064L357.9719368105645,419.68127484194895L354.47686695943645,425.99181762870796L349.6226032773141,428.1276936488417L347.2925567098954,430.6519107635454L349.0400916354594,436.1857713611648L352.7293320338724,439.3895853913656L350.39928546645365,439.09832957043824L345.35085123704647,438.22456210765625L332.34142456895864,437.5449651921591L330.2055485488248,434.34115116195835L330.2055485488248,430.360654942618L326.7104786976967,430.6519107635454L324.76877322484785,428.7102052906964L324.1862615829931,422.9821741457921L328.45801362326074,420.6521275783734L330.2055485488248,417.15705772724533L329.42886635968523,414.43867006525676L332.34142456895864,409.8756622040618L334.28313004180757,402.69135195452077L333.7006183999529,399.5846231979625L336.03066496737154,398.5166851878956L335.44815332551684,396.4778944414042L332.9239362108133,395.40995643133726L334.86564168366226,393.176995137561L332.34142456895864,391.1382043910696L331.17640128524926,384.92474687795305L333.3122773053831,383.7597235942437L332.34142456895864,377.2550102601998L333.7006183999529,371.72114966258033L335.0598122309471,366.86688598045805L338.36071153479037,364.92518050760907L336.61317660922634,359.682575730917L336.61317660922634,354.7312267751522L340.69075810220903,351.23615692402416L340.49658755492413,346.6731490628291L343.60331631148244,341.430544286137L343.60331631148244,336.47919533037225L342.24412248048816,335.50834259394776L339.7199053657846,326.1881563242729L343.02080466962775,320.65429572665346L342.632463575058,315.4116909499613L344.5741690479069,310.4603419941966L348.06923889903493,305.41190776478936L351.95264984473283,302.1110084609462L350.20511491916875,299.97513244081233L351.3701382028782,298.22759751524836L351.17596765559335,289.2957523401433L357.00108407414,286.57736467815477L358.942789546989,280.9464188068929L358.3602779051343,279.58722497589855L362.82620049268684,274.73296129377627L369.816340194943,276.0921551247705L372.9230689515013,279.9755660704684L375.05894497163507,275.6067287565583L381.27240248475164,275.8979845774856L382.04908467389123,276.96592258755254L391.9517825854208,285.80068248901523L396.41770517297334,286.6744499517972L403.0195037806597,290.65494617113745L408.6504496519216,292.69373691762894L409.4271318410611,295.12086875869L403.9903565170842,303.2760317446556L409.4271318410611,304.7323108492923L415.64058935417773,305.60607831207426L419.9123413944454,304.7323108492923L424.7666050765677,300.557644082667L425.5432872657073,295.80046567418714L428.26167492769576,294.8296129377627L430.9800625896843,297.93634169432096L430.78589204239944,302.2080937345886L426.3199694548469,305.21773721750446L422.6307290564339,307.35361323763834L416.61144209060217,312.5962180143304Z" style="stroke: rgb(68, 68, 68); stroke-opacity: 1; stroke-width: 1px; opacity: 1;"/><path class="choroplethlocation" fill="rgb(38, 130, 142)" d="M359.5253011888436,150.2696404841598L358.5544484524192,150.94923739965694L357.38942516870986,147.74542336945626L356.0302313377156,145.99788844389224L354.0885258648667,147.8425086430987L343.60331631148244,147.74542336945626L343.79748685876734,151.1434079469419L346.9042156153256,151.72591958879653L346.7100450680407,153.76471033528796L345.54502178433137,153.18219869343324L342.632463575058,154.05596615621525L342.632463575058,158.03646237555552L344.9625101424767,159.97816784840452L345.7391923316162,163.08489660496275L345.7391923316162,165.4149431723815L343.21497521691265,180.17190476603335L340.49658755492413,177.3564318304024L338.943223176645,177.16226128311754L342.43829302777306,171.72548595914049L338.36071153479037,169.20126884443687L335.0598122309471,169.68669521264914L333.1181067580982,168.71584247622468L330.2055485488248,170.17212158086141L326.1279670558421,169.49252466536427L323.0212382992838,163.86157879410234L320.49702118458015,162.4052996894657L318.7494862590161,159.88108257476208L315.0602458606032,157.35686546005846L313.7010520296089,157.84229182827065L311.37100546219017,156.58018327091887L308.6526178002017,154.7355630717124L307.2934239692075,155.60933053449443L302.63333083437,154.9297336189973L301.27413700337576,152.59968705157854L300.3032842669513,152.696772325221L294.8665089429743,149.59004356866274L294.28399730111965,147.93959391674113L296.2257027739686,147.45416754852886L296.0315322266837,144.83286516018282L297.196555510393,142.79407441369148L299.91494317238147,142.50281859276407L302.2449897398002,139.10483401527853L304.1866952126491,136.2893610796475L302.2449897398002,134.9301672486533L303.2158424762247,131.823438492095L302.05081919251535,126.87208953633021L303.2158424762247,125.51289570533599L302.4391602870851,120.94988784414103L300.10911371966637,118.03732963486759L300.88579590880596,115.41602724652154L302.63333083437,115.80436834109136L303.6041835707944,114.2510039628122L302.4391602870851,111.04718993261145L303.0216719289398,110.27050774347185L305.74005959092824,110.46467829075674L309.8176410839111,106.67835261870135L312.14768765132976,106.09584097684666L312.14768765132976,104.34830605128262L313.1185403877542,99.78529819008766L316.2252691443125,97.26108107538403L319.52616844815566,97.1639958017416L320.10868009001035,95.99897251803228L324.1862615829931,96.48439888624446L328.45801362326074,93.76601122425598L330.5938896433946,92.5039026669042L333.3122773053831,89.97968555220058L335.0598122309471,90.2709413731279L336.61317660922634,91.72722047776462L335.44815332551684,93.47475540332866L331.9530834743888,94.44560813975312L330.5938896433946,97.06691052809916L328.65218417054564,98.62027490637831L327.09881979226657,100.65906565286967L326.322137603127,104.5424765985675L324.76877322484785,107.64920535512582L327.6813314341212,108.03754644969564L328.2638430759759,110.46467829075674L329.42886635968523,111.72678684810859L330.0113780015399,113.86266286824238L329.23469581240033,115.90145361473381L329.42886635968523,116.96939162480069L330.7880601906795,117.45481799301288L332.14725402167375,119.29943819221944L339.1373937239299,118.81401182400717L342.24412248048816,119.49360873950431L345.93336287890116,124.15370187434172L348.06923889903493,123.57119023248708L351.95264984473283,123.8624460534144L355.05937860129114,123.18284913791726L357.00108407414,124.15370187434172L356.0302313377156,127.06626008361516L354.86520805400625,128.8137950091792L354.47686695943645,132.697205954877L355.44771969586094,136.2893610796475L357.00108407414,137.9398107315691L357.19525462142497,139.10483401527853L354.47686695943645,141.82322167726701L356.4185724322854,142.98824496097635L357.9719368105645,144.83286516018282Z" style="stroke: rgb(68, 68, 68); stroke-opacity: 1; stroke-width: 1px; opacity: 1;"/><path class="choroplethlocation" fill="rgb(49, 104, 142)" d="M343.21497521691265,180.17190476603335L338.36071153479037,179.97773421874848L337.5840293456508,180.75441640788807L333.3122773053831,181.82235441795495L327.09881979226657,185.5115948163679L326.7104786976967,187.93872665742907L325.35128486670254,189.880432130278L325.9337965085572,192.79299033955144L322.63289720471397,194.3463547178306L322.63289720471397,196.5793160116068L321.27370337371974,197.55016874803127L323.40957939385356,202.40443243015363L326.322137603127,205.70533173399681L325.35128486670254,208.03537830141548L328.8463547178306,208.32663412234288L330.98223073796436,211.23919233161624L335.64232387280185,211.33627760525866L340.1082464603544,208.22954884870043L339.7199053657846,216.3847118346659L342.24412248048816,216.96722347652062L345.1566806897616,216.0934560137386L349.81677382459895,224.73404536791634L348.6517505408897,226.5786655671228L348.4575799936047,230.36499123917818L348.2634094463198,234.92799910037323L346.3217039734709,237.64638676236171L347.2925567098954,239.68517750885306L345.93336287890116,241.4327124344171L348.2634094463198,245.99572029561207L344.9625101424767,251.82083671415887L343.40914576419755,254.6363096497898L340.69075810220903,255.9955034807841L335.253982778232,252.88877472422578L334.86564168366226,250.65581343044954L324.1862615829931,245.21903810647257L314.4777342187485,239.39392168792574L310.20598217848084,235.9959371104401L308.0701061583471,231.5300145228876L308.8467883474866,229.97665014460844L304.380865759934,222.88942516870986L298.94409043595704,212.98672725718026L293.8956562065498,202.21026188286874L291.75978018641604,199.78313004180757L290.01224526085196,195.80263382246724L285.9346637678692,192.30756397133916L282.0512528221713,190.07460267756295L283.79878774773533,187.7445561101442L281.0804000857469,182.59903660709452L282.8279350113109,178.81271093503915L287.09968705157854,175.41472635755352L287.68219869343324,177.64768765132973L286.1288343151541,178.9097962086816L286.32300486243895,180.8515016815305L288.65305142985767,180.46316058696067L290.78892744999155,181.04567222881536L293.11897401741027,183.76405989080385L296.0315322266837,181.53109859702764L297.196555510393,177.93894347225714L300.4974548142362,173.18176506377722L306.9050828746376,171.04588904364343L312.73019929318446,165.4149431723815L314.4777342187485,161.91987332125342L313.7010520296089,157.84229182827065L315.0602458606032,157.35686546005846L318.7494862590161,159.88108257476208L320.49702118458015,162.4052996894657L323.0212382992838,163.86157879410234L326.1279670558421,169.49252466536427L330.2055485488248,170.17212158086141L333.1181067580982,168.71584247622468L335.0598122309471,169.68669521264914L338.36071153479037,169.20126884443687L342.43829302777306,171.72548595914049L338.943223176645,177.16226128311754L340.49658755492413,177.3564318304024Z" style="stroke: rgb(68, 68, 68); stroke-opacity: 1; stroke-width: 1px; opacity: 1;"/><path class="choroplethlocation" fill="rgb(68, 1, 84)" d="M392.72846477456034,129.00796555646406L393.310976416415,130.4642446611008L391.3692709435661,132.50303540759214L385.34998397773444,134.54182615408348L381.46657303203665,135.4155936168655L379.9132086537574,136.67770217421736L375.64145661348977,135.31850834322307L371.563875120507,134.63891142772593L370.5930223840826,135.12433779593817L373.11723949878615,136.5806169005749L372.9230689515013,140.1727720253454L373.50558059335594,143.57075660283104L378.1656737281934,144.05618297104323L378.3598442754783,145.1241209811102L374.67060387706533,146.6774853593893L373.89392168792574,149.00753192680804L371.7580456677919,149.88129938959005L367.68046417480923,151.1434079469419L366.70961143838474,152.7938575988634L362.43785939811704,153.08511341979082L359.5253011888436,150.2696404841598L357.9719368105645,144.83286516018282L356.4185724322854,142.98824496097635L354.47686695943645,141.82322167726701L357.19525462142497,139.10483401527853L357.00108407414,137.9398107315691L355.44771969586094,136.2893610796475L354.47686695943645,132.697205954877L354.86520805400625,128.8137950091792L356.0302313377156,127.06626008361516L357.00108407414,124.15370187434172L355.05937860129114,123.18284913791726L351.95264984473283,123.8624460534144L348.06923889903493,123.57119023248708L345.93336287890116,124.15370187434172L342.24412248048816,119.49360873950431L339.1373937239299,118.81401182400717L332.14725402167375,119.29943819221944L330.7880601906795,117.45481799301288L329.42886635968523,116.96939162480069L329.23469581240033,115.90145361473381L330.0113780015399,113.86266286824238L329.42886635968523,111.72678684810859L328.2638430759759,110.46467829075674L327.6813314341212,108.03754644969564L324.76877322484785,107.64920535512582L326.322137603127,104.5424765985675L327.09881979226657,100.65906565286967L328.65218417054564,98.62027490637831L330.5938896433946,97.06691052809916L331.9530834743888,94.44560813975312L335.44815332551684,93.47475540332866L335.253982778232,94.73686396068042L332.14725402167375,95.41646087617755L333.89478894723777,97.84359271723875L333.89478894723777,100.65906565286967L331.56474237981905,103.765794409428L333.506447852668,108.13463172333809L335.8364944200867,107.74629062876825L337.0015177037961,103.86287968307042L335.44815332551684,101.92117421022144L335.0598122309471,97.84359271723875L341.8557813859184,95.70771669710487L341.0790991967788,93.08641430875883L343.02080466962775,91.43596465683723L344.9625101424767,95.22229032889268L348.6517505408897,95.31937560253513L352.1468203920178,98.32901908545094L352.3409909393026,100.07655401101496L357.19525462142497,100.17363928465741L363.0203710399717,99.59112764280277L366.12709979653005,102.01825948386394L370.2046812895128,102.69785639936103L373.31141004607105,100.95032147379698L373.31141004607105,99.59112764280277L379.9132086537574,99.29987182187539L386.5150072614438,99.20278654823295L381.8549141266064,100.85323620015456L383.79661959945525,103.37745331485817L388.0683716397229,103.765794409428L392.14595313270564,106.38709679777405L392.92263532184523,110.75593411168413L395.8351935311186,110.65884883804169L397.9710695512525,111.92095739539346L393.6993175109848,115.02768615195177L393.11680586913013,117.06647689844313L395.058511341979,119.00818237129204L393.6993175109848,120.07612038135895L390.3984182071416,120.94988784414103L390.3984182071416,123.37701968520213L389.0392243761474,124.83329878983886Z" style="stroke: rgb(68, 68, 68); stroke-opacity: 1; stroke-width: 1px; opacity: 1;"/><path class="choroplethlocation" fill="rgb(49, 104, 142)" d="M313.7010520296089,157.84229182827065L314.4777342187485,161.91987332125342L312.73019929318446,165.4149431723815L306.9050828746376,171.04588904364343L300.4974548142362,173.18176506377722L297.196555510393,177.93894347225714L296.0315322266837,181.53109859702764L293.11897401741027,183.76405989080385L290.78892744999155,181.04567222881536L288.65305142985767,180.46316058696067L286.32300486243895,180.8515016815305L286.1288343151541,178.9097962086816L287.68219869343324,177.64768765132973L287.09968705157854,175.41472635755352L290.01224526085196,171.33714486457075L288.84722197714257,169.007098297152L286.7113459570088,171.53131541185562L283.6046172004505,169.10418357079445L284.5754699368749,167.6479044661578L283.79878774773533,162.696555510393L285.54632267329936,161.91987332125342L286.5171754097239,158.5218887437678L288.65305142985767,155.0268188926397L288.26471033528793,152.89094287250595L291.1772685445613,151.72591958879653L294.8665089429743,149.59004356866274L300.3032842669513,152.696772325221L301.27413700337576,152.59968705157854L302.63333083437,154.9297336189973L307.2934239692075,155.60933053449443L308.6526178002017,154.7355630717124L311.37100546219017,156.58018327091887Z" style="stroke: rgb(68, 68, 68); stroke-opacity: 1; stroke-width: 1px; opacity: 1;"/><path class="choroplethlocation" fill="rgb(72, 40, 120)" d="M345.1566806897616,216.0934560137386L349.23426218274426,216.5788823819508L351.95264984473283,216.3847118346659L353.1176731284422,214.83134745638674L357.9719368105645,212.59838616261052L360.690324472553,210.5595954161191L367.8746347220941,209.68582795333708L367.2921230802394,213.66632417267743L367.8746347220941,215.8022001928112L367.4862936275243,219.39435531758178L373.31141004607105,224.24861899970406L379.3306970119027,225.12238646248608L381.46657303203665,227.1611772089775L385.15581343044954,228.2291152190444L387.29168945058336,229.78247959732357L390.7867593017114,229.68539432368112L393.89348805826967,231.33584397560264L394.08765860555457,234.44257273216095L395.252681889264,235.9959371104401L395.252681889264,238.32598367785886L393.6993175109848,238.4230689515013L395.8351935311186,244.73361173826032L406.12623253721796,244.92778228554516L405.34955034807837,248.0345110421035L405.93206198993306,250.1703870622373L408.8446201992064,251.72375144051645L410.0096434829159,255.02465074435963L409.23296129377627,259.2964027846273L407.6795969154971,261.626449352046L408.2621085573518,264.73317810860425L406.51457363178775,265.8011161186712L406.3204030845029,264.1506664667496L401.4661394023806,261.43227880476104L396.41770517297334,261.33519353111865L386.90334835601357,262.88855790939783L384.37913124131,267.6457363178777L384.1849606940251,270.5582945271511L382.04908467389123,276.96592258755254L381.27240248475164,275.8979845774856L375.05894497163507,275.6067287565583L372.9230689515013,279.9755660704684L369.816340194943,276.0921551247705L362.82620049268684,274.73296129377627L358.3602779051343,279.58722497589855L354.47686695943645,280.36390716503814L352.3409909393026,272.98542636821225L349.4284327300292,266.8690541287381L351.17596765559335,261.626449352046L348.2634094463198,259.3934880582697L347.48672725718023,255.51007711257182L344.9625101424767,251.82083671415887L348.2634094463198,245.99572029561207L345.93336287890116,241.4327124344171L347.2925567098954,239.68517750885306L346.3217039734709,237.64638676236171L348.2634094463198,234.92799910037323L348.4575799936047,230.36499123917818L348.6517505408897,226.5786655671228L349.81677382459895,224.73404536791634Z" style="stroke: rgb(68, 68, 68); stroke-opacity: 1; stroke-width: 1px; opacity: 1;"/><path class="choroplethlocation" fill="rgb(49, 104, 142)" d="M406.51457363178775,265.8011161186712L408.06793801006694,268.81075960158705L407.6795969154971,276.18924039841295L413.50471333404397,277.16009313483744L415.64058935417773,276.0921551247705L419.32982975259074,277.54843422940723L420.3006824890152,279.1988838813288L420.6890235835849,284.1502328370936L421.46570577272456,286.18902358358497L423.4074112455734,286.48027940451226L425.5432872657073,285.6065119417302L427.48499273855623,286.57736467815477L427.29082219127133,289.4899228874282L426.70831054941664,292.69373691762894L425.5432872657073,295.80046567418714L424.7666050765677,300.557644082667L419.9123413944454,304.7323108492923L415.64058935417773,305.60607831207426L409.4271318410611,304.7323108492923L403.9903565170842,303.2760317446556L409.4271318410611,295.12086875869L408.6504496519216,292.69373691762894L403.0195037806597,290.65494617113745L396.41770517297334,286.6744499517972L391.9517825854208,285.80068248901523L382.04908467389123,276.96592258755254L384.1849606940251,270.5582945271511L384.37913124131,267.6457363178777L386.90334835601357,262.88855790939783L396.41770517297334,261.33519353111865L401.4661394023806,261.43227880476104L406.3204030845029,264.1506664667496Z" style="stroke: rgb(68, 68, 68); stroke-opacity: 1; stroke-width: 1px; opacity: 1;"/><path class="choroplethlocation" fill="rgb(31, 158, 137)" d="M415.252248259608,146.77457063303174L413.89305442861365,146.96874118031667L410.98049621934035,146.48331481210442L409.23296129377627,147.93959391674113L406.70874417907265,148.9104466531656L405.1553798007935,149.10461720045046L404.5728681589388,150.17255521051737L401.8544804969503,149.88129938959005L398.5535811931072,147.35708227488644L398.16524009853737,144.92995043382527L396.80604626754314,142.11447749819433L397.5827284566827,137.55146963699937L399.13609283496186,135.7068494377929L397.7768990039676,133.18263232308928L396.0293640784036,132.30886486030727L396.80604626754314,129.97881829288852L395.4468524365489,128.71670973553677L392.72846477456034,129.00796555646406L389.0392243761474,124.83329878983886L390.3984182071416,123.37701968520213L390.3984182071416,120.94988784414103L393.6993175109848,120.07612038135895L395.058511341979,119.00818237129204L393.11680586913013,117.06647689844313L393.6993175109848,115.02768615195177L397.9710695512525,111.92095739539346L401.4661394023806,113.86266286824238L404.76703870622373,117.35773271937045L404.9612092535086,120.17320565500145L406.90291472635755,120.27029092864389L409.815472935631,122.89159331698994L411.9513489557648,124.83329878983886L411.17466676662525,129.6875624719612L407.873767462782,131.0467563029554L408.06793801006694,132.30886486030727L407.0970852736424,135.12433779593817L409.621302388346,139.00774874163602L411.3688373139101,139.00774874163602L411.9513489557648,142.11447749819433Z" style="stroke: rgb(68, 68, 68); stroke-opacity: 1; stroke-width: 1px; opacity: 1;"/><path class="choroplethlocation" fill="rgb(31, 158, 137)" d="M426.12579890756194,144.5416093392555L423.0190701510037,143.3765860555461L420.49485303630007,143.9590976974008L418.3589770161662,143.47367132918862L417.77646537431156,145.0270357074677L418.74731811073605,146.09497371753466L418.16480646888135,147.259997001244L415.252248259608,146.77457063303174L411.9513489557648,142.11447749819433L411.3688373139101,139.00774874163602L409.621302388346,139.00774874163602L407.0970852736424,135.12433779593817L408.06793801006694,132.30886486030727L407.873767462782,131.0467563029554L411.17466676662525,129.6875624719612L411.9513489557648,124.83329878983886L418.55314756345115,125.90123679990575L418.9414886580209,124.93038406348128L423.4074112455734,124.54204296891155L429.23252766412025,125.99832207354818L426.3199694548469,130.56132993474324L426.90248109670154,134.25057033315616L428.8441865695505,137.45438436335692L428.0675043804109,139.78443093077559L427.48499273855623,142.3086480454792Z" style="stroke: rgb(68, 68, 68); stroke-opacity: 1; stroke-width: 1px; opacity: 1;"/></g></g></g><g class="layer frontplot"><g class="scatterlayer"/></g></g></g><g class="funnelarealayer"/><g class="pielayer"/><g class="iciclelayer"/><g class="treemaplayer"/><g class="sunburstlayer"/><g class="glimages"/><defs id="topdefs-f92d71"><g class="clips"/></defs><g class="layer-above"><g class="imagelayer"/><g class="shapelayer"/></g><g class="infolayer"><g class="cbcoloraxis colorbar" transform="translate(0,25)"><rect class="cbbg" x="830" y="124" width="69.640625" height="248" style="fill: rgb(0, 0, 0); fill-opacity: 0; stroke: rgb(68, 68, 68); stroke-opacity: 1; stroke-width: 0;"/><g class="cbfills" transform="translate(0,155)"><rect class="cbfill gradient_filled" x="840" y="0" width="30" height="206" style="fill: url('#gf92d71-cbcoloraxis');"/></g><g class="cblines" transform="translate(0,155)"/><g class="cbaxis crisp" transform="translate(0,-25)"><g class="ycbcoloraxistick"><text text-anchor="start" x="872.9" y="4.199999999999999" transform="translate(0,386.49999999999994)" style="font-family: 'Open Sans', verdana, arial, sans-serif; font-size: 12px; fill: rgb(42, 63, 95); fill-opacity: 1; white-space: pre; opacity: 1;">0</text></g><g class="ycbcoloraxistick"><text text-anchor="start" x="872.9" y="4.199999999999999" style="font-family: 'Open Sans', verdana, arial, sans-serif; font-size: 12px; fill: rgb(42, 63, 95); fill-opacity: 1; white-space: pre; opacity: 1;" transform="translate(0,345.29999999999995)">0.2</text></g><g class="ycbcoloraxistick"><text text-anchor="start" x="872.9" y="4.199999999999999" style="font-family: 'Open Sans', verdana, arial, sans-serif; font-size: 12px; fill: rgb(42, 63, 95); fill-opacity: 1; white-space: pre; opacity: 1;" transform="translate(0,304.0999999999999)">0.4</text></g><g class="ycbcoloraxistick"><text text-anchor="start" x="872.9" y="4.199999999999999" style="font-family: 'Open Sans', verdana, arial, sans-serif; font-size: 12px; fill: rgb(42, 63, 95); fill-opacity: 1; white-space: pre; opacity: 1;" transform="translate(0,262.9)">0.6</text></g><g class="ycbcoloraxistick"><text text-anchor="start" x="872.9" y="4.199999999999999" style="font-family: 'Open Sans', verdana, arial, sans-serif; font-size: 12px; fill: rgb(42, 63, 95); fill-opacity: 1; white-space: pre; opacity: 1;" transform="translate(0,221.69999999999993)">0.8</text></g><g class="ycbcoloraxistick"><text text-anchor="start" x="872.9" y="4.199999999999999" style="font-family: 'Open Sans', verdana, arial, sans-serif; font-size: 12px; fill: rgb(42, 63, 95); fill-opacity: 1; white-space: pre; opacity: 1;" transform="translate(0,180.49999999999994)">1</text></g></g><g class="cbtitleunshift" transform="translate(0,-25)"><g class="cbtitle" transform=""><text class="ycbcoloraxistitle" x="840.28" y="172.00000000000003" text-anchor="start" style="font-family: 'Open Sans', verdana, arial, sans-serif; font-size: 14px; fill: rgb(42, 63, 95); opacity: 1; font-weight: normal; white-space: pre;">R</text></g></g><rect class="cboutline" x="840" y="156" width="30" height="206" style="stroke: rgb(68, 68, 68); stroke-opacity: 1; fill: none; stroke-width: 0;"/></g><g class="g-gtitle"><text class="gtitle" x="45" y="12.5" text-anchor="start" dy="0em" style="font-family: 'Open Sans', verdana, arial, sans-serif; font-size: 17px; fill: rgb(42, 63, 95); opacity: 1; font-weight: normal; white-space: pre;">South America — Enclosure Strength (R)</text></g></g></svg>