<svg class="main-svg" xmlns="http://www.w3.org/2000/svg" xmlns:xlink="http://www.w3.org/1999/xlink" width="900" height="520" style="" viewBox="0 0 900 520"><rect x="0" y="0" width="900" height="520" style="fill: rgb(255, 255, 255); fill-opacity: 1;"/><defs id="defs-4da2a5"><g class="clips"><clipPath id="clip4da2a5geo"><rect x="99.75037936267074" y="24.29596840234467" width="614.4992412746585" height="495.7040315976551"/></clipPath></g><g class="gradients"><linearGradient x1="0" x2="0" y1="1" y2="0" id="g4da2a5-cbcoloraxis"><stop offset="0%" stop-color="rgb(68, 1, 84)" stop-opacity="1"/><stop offset="11.111111%" stop-color="rgb(72, 40, 120)" stop-opacity="1"/><stop offset="22.222222%" stop-color="rgb(62, 73, 137)" stop-opacity="1"/><stop offset="33.333333%" stop-color="rgb(49, 104, 142)" stop-opacity="1"/><stop offset="44.444444%" stop-color="rgb(38, 130, 142)" stop-opacity="1"/><stop offset="55.555556%" stop-color="rgb(31, 158, 137)" stop-opacity="1"/><stop offset="66.666667%" stop-color="rgb(53, 183, 121)" stop-opacity="1"/><stop offset="77.777778%" stop-color="rgb(110, 206, 88)" stop-opacity="1"/><stop offset="88.888889%" stop-color="rgb(181, 222, 43)" stop-opacity="1"/><stop offset="100%" stop-color="rgb(253, 231, 37)" stop-opacity="1"/></linearGradient></g><g class="patterns"/></defs><g class="bglayer"/><g class="layer-below"><g class="imagelayer"/><g class="shapelayer"/></g><g class="cartesianlayer"/><g class="polarlayer"/><g class="smithlayer"/><g class="ternarylayer"/><g class="geolayer"><g class="geo geo" clip-path="url(#clip4da2a5geo)"><g class="layer bg"><rect x="99.75037936267074" y="24.29596840234467" width="614.4992412746585" height="495.7040315976551" style="pointer-events: all; fill: rgb(255, 255, 255); fill-opacity: 1;"/></g><g class="layer backplot"><g class="choroplethlayer"><g class="trace choropleth"><path class="choroplethlocation" fill="rgb(181, 222, 43)" d="M714.2496206373293,288.8895751375807L710.4269663688674,296.05705189094556L693.2173546641468,286.2229880596758L683.3832908328773,288.0668750280395L646.5055514656168,277.6181822073163L640.3592615710741,285.6083590702224L610.8570700772658,284.99373008076736L614.5448440139915,261.0231994920491L631.7544557187132,237.6672978927836L582.5841365623661,230.9063790087862L566.6037828365539,222.30157315642623L569.062298794371,206.93584842006794L561.6867509209197,199.5603005466155L566.6037828365539,176.2043989473509L560.4574929420102,140.55591755900014L581.3548785834575,140.55591755900014L589.9596844358184,127.64870878045872L597.3352323092707,96.30263031828827L591.188942414727,85.23930850810916L598.5644902881793,77.86376063465787L626.837423803079,76.01987366629464L632.9837136976217,83.39542153974685L656.3396152968862,66.8004388244799L648.9640674234349,53.89323004593871L646.5055514656168,34.22510238339987L672.3199690226993,39.14213429903498L694.4466126430552,33.610473393945995L695.6758706219639,47.13231116194129L714.2496206373293,51.44407455836528L714.2496206373293,288.8895751375807Z" style="stroke: rgb(68, 68, 68); stroke-opacity: 1; stroke-width: 1px; opacity: 1;"/><path class="choroplethlocation" fill="rgb(181, 222, 43)" d="M591.188942414727,85.23930850810916L597.3352323092707,96.30263031828827L589.9596844358184,127.64870878045872L581.3548785834575,140.55591755900014L560.4574929420102,140.55591755900014L566.6037828365539,176.2043989473509L546.9356551740151,168.21422208444483L526.0382695325677,153.46312633754042L494.07756208094236,160.83867421099262L469.4924025027693,157.76552926372074L486.702014207491,148.54609442190622L501.2067161591842,123.31941750541796L516.2042057012983,98.14651728665058L562.9160088998283,84.01005052920073Z" style="stroke: rgb(68, 68, 68); stroke-opacity: 1; stroke-width: 1px; opacity: 1;"/><path class="choroplethlocation" fill="rgb(110, 206, 88)" d="M714.2496206373293,310.4919239038487L712.8854823266846,310.1935186483952L694.4466126430552,308.96426066948675L679.6955168961506,302.817970774943L684.6125488117859,294.213164922583L683.3832908328773,288.0668750280395L693.2173546641468,286.2229880596758L710.4269663688674,296.05705189094556L714.2496206373293,288.8895751375807L714.2496206373293,310.4919239038487Z" style="stroke: rgb(68, 68, 68); stroke-opacity: 1; stroke-width: 1px; opacity: 1;"/><path class="choroplethlocation" fill="rgb(181, 222, 43)" d="M683.3832908328773,288.0668750280395L684.6125488117859,294.213164922583L679.6955168961506,302.817970774943L694.4466126430552,308.96426066948675L712.8854823266846,310.1935186483952L709.197708389959,323.71535641639025L694.4466126430552,329.86164631093425L669.8614530648813,325.5592433847535L662.48590519143,339.08108115274877L645.2762934867083,340.31033913165743L639.1300035921654,334.77867822656845L620.6911339085352,346.45662902620097L604.710780182722,348.3005159945644L589.9596844358184,340.924968121112L577.6671046467319,325.5592433847535L561.6867509209197,331.0909042898427L561.6867509209197,315.72517955348417L587.5011684780013,296.6716808804001L586.2719104990928,288.0668750280395L601.0230062459964,291.14001997531113L610.8570700772658,284.99373008076736L640.3592615710741,285.6083590702224L646.5055514656168,277.6181822073163Z" style="stroke: rgb(68, 68, 68); stroke-opacity: 1; stroke-width: 1px; opacity: 1;"/><path class="choroplethlocation" fill="rgb(68, 1, 84)" style="stroke: rgb(68, 68, 68); stroke-opacity: 1; stroke-width: 1px; opacity: 1;"/><path class="choroplethlocation" fill="rgb(68, 1, 84)" style="stroke: rgb(68, 68, 68); stroke-opacity: 1; stroke-width: 1px; opacity: 1;"/></g></g></g><g class="layer frontplot"><g class="scatterlayer"><g class="trace scattergeo" style="opacity: 1;"><path class="js-line" d="M179.95144157814877,253.36953200086896L195.1453589563398,234.5612241392455L210.6798179059181,215.81262760026198L248.89123328700163,207.09116794937836L287.5007587253415,198.74130741816793L324.7389826933853,184.90736826730154L362.6145675265554,171.4271951268172L395.1196176246476,174.70979879620995L427.4855842185129,178.255723199655L462.7766343173275,191.7589884895899L497.4779969650986,205.56983549100528L531.917462213916,219.9333422130785L565.763277693475,234.59107980056547L592.4470603817049,249.01296297913836L618.6843702579665,263.6123241101252L613.5629742033383,401.8900175850872L592.8730860944197,422.3220389748428L572.5918057663125,442.8611860221131L538.4491654021244,436.0326579492753L492.3566009104704,427.4969978582285L476.86759598076264,444.53822937597556L461.628224582701,461.63963822241635L433.4943646649891,458.9779182055911L405.2928679817906,456.51824216778823L358.61374898851807,444.2873615264841L311.40060698027315,432.61839391285685L301.51013623161856,409.5325311481274L291.39194733064846,386.4722303576839L281.0354462844277,363.4387111308231L270.4294385432474,340.4332649295486L254.59340602050577,325.82305689952614L238.5073276178003,311.2778786533661L222.16459056997277,296.79975378527615L205.55842185128986,282.3907763104287Z" style="stroke-miterlimit: 2; fill: rgb(110, 206, 88); stroke: rgb(80, 80, 80); stroke-opacity: 0.45; stroke-width: 0.5px; fill-opacity: 1;"/></g></g></g></g></g><g class="funnelarealayer"/><g class="pielayer"/><g class="iciclelayer"/><g class="treemaplayer"/><g class="sunburstlayer"/><g class="glimages"/><defs id="topdefs-4da2a5"><g class="clips"/></defs><g class="layer-above"><g class="imagelayer"/><g class="shapelayer"/></g><g class="infolayer"><g class="cbcoloraxis colorbar" transform="translate(0,25)"><rect class="cbbg" x="830" y="124" width="69.640625" height="248" style="fill: rgb(0, 0, 0); fill-opacity: 0; stroke: rgb(68, 68, 68); stroke-opacity: 1; stroke-width: 0;"/><g class="cbfills" transform="translate(0,155)"><rect class="cbfill gradient_filled" x="840" y="0" width="30" height="206" style="fill: url('#g4da2a5-cbcoloraxis');"/></g><g class="cblines" transform="translate(0,155)"/><g class="cbaxis crisp" transform="translate(0,-25)"><g class="ycbcoloraxistick"><text text-anchor="start" x="872.9" y="4.199999999999999" transform="translate(0,386.49999999999994)" style="font-family: 'Open Sans', verdana, arial, sans-serif; font-size: 12px; fill: rgb(42, 63, 95); fill-opacity: 1; white-space: pre; opacity: 1;">0</text></g><g class="ycbcoloraxistick"><text text-anchor="start" x="872.9" y="4.199999999999999" style="font-family: 'Open Sans', verdana, arial, sans-serif; font-size: 12px; fill: rgb(42, 63, 95); fill-opacity: 1; white-space: pre; opacity: 1;" transform="translate(0,345.29999999999995)">0.2</text></g><g class="ycbcoloraxistick"><text text-anchor="start" x="872.9" y="4.199999999999999" style="font-family: 'Open Sans', verdana, arial, sans-serif; font-size: 12px; fill: rgb(42, 63, 95); fill-opacity: 1; white-space: pre; opacity: 1;" transform="translate(0,304.0999999999999)">0.4</text></g><g class="ycbcoloraxistick"><text text-anchor="start" x="872.9" y="4.199999999999999" style="font-family: 'Open Sans', verdana, arial, sans-serif; font-size: 12px; fill: rgb(42, 63, 95); fill-opacity: 1; white-space: pre; opacity: 1;" transform="translate(0,262.9)">0.6</text></g><g class="ycbcoloraxistick"><text text-anchor="start" x="872.9" y="4.199999999999999" style="font-family: 'Open Sans', verdana, arial, sans-serif; font-size: 12px; fill: rgb(42, 63, 95); fill-opacity: 1; white-space: pre; opacity: 1;" transform="translate(0,221.69999999999993)">0.8</text></g><g class="ycbcoloraxistick"><text text-anchor="start" x="872.9" y="4.199999999999999" style="font-family: 'Open Sans', verdana, arial, sans-serif; font-size: 12px; fill: rgb(42, 63, 95); fill-opacity: 1; white-space: pre; opacity: 1;" transform="translate(0,180.49999999999994)">1</text></g></g><g class="cbtitleunshift" transform="translate(0,-25)"><g class="cbtitle" transform=""><text class="ycbcoloraxistitle" x="840.28" y="172.00000000000003" text-anchor="start" style="font-family: 'Open Sans', verdana, arial, sans-serif; font-size: 14px; fill: rgb(42, 63, 95); opacity: 1; font-weight: normal; white-space: pre;">R</text></g></g><rect class="cboutline" x="840" y="156" width="30" height="206" style="stroke: rgb(68, 68, 68); stroke-opacity: 1; fill: none; stroke-width: 0;"/></g><g class="g-gtitle"><text class="gtitle" x="45" y="12.5" text-anchor="start" dy="0em" style="font-family: 'Open Sans', verdana, arial, sans-serif; font-size: 17px; fill: rgb(42, 63, 95); opacity: 1; font-weight: normal; white-space: pre;">Western Europe — Enclosure Strength (R)</text></g></g></svg>