<svg class="main-svg" xmlns="http://www.w3.org/2000/svg" xmlns:xlink="http://www.w3.org/1999/xlink" width="900" height="520" style="" viewBox="0 0 900 520"><rect x="0" y="0" width="900" height="520" style="fill: rgb(255, 255, 255); fill-opacity: 1;"/><defs id="defs-cea15e"><g class="clips"><clipPath id="clipcea15egeo"><rect x="0" y="69.00159989442685" width="814" height="406.99680021114636"/></clipPath></g><g class="gradients"><linearGradient x1="0" x2="0" y1="1" y2="0" id="gcea15e-cbcoloraxis"><stop offset="0%" stop-color="rgb(68, 1, 84)" stop-opacity="1"/><stop offset="11.111111%" stop-color="rgb(72, 40, 120)" stop-opacity="1"/><stop offset="22.222222%" stop-color="rgb(62, 73, 137)" stop-opacity="1"/><stop offset="33.333333%" stop-color="rgb(49, 104, 142)" stop-opacity="1"/><stop offset="44.444444%" stop-color="rgb(38, 130, 142)" stop-opacity="1"/><stop offset="55.555556%" stop-color="rgb(31, 158, 137)" stop-opacity="1"/><stop offset="66.666667%" stop-color="rgb(53, 183, 121)" stop-opacity="1"/><stop offset="77.777778%" stop-color="rgb(110, 206, 88)" stop-opacity="1"/><stop offset="88.888889%" stop-color="rgb(181, 222, 43)" stop-opacity="1"/><stop offset="100%" stop-color="rgb(253, 231, 37)" stop-opacity="1"/></linearGradient></g><g class="patterns"/></defs><g class="bglayer"/><g class="layer-below"><g class="imagelayer"/><g class="shapelayer"/></g><g class="cartesianlayer"/><g class="polarlayer"/><g class="smithlayer"/><g class="ternarylayer"/><g class="geolayer"><g class="geo geo" clip-path="url(#clipcea15egeo)"><g class="layer bg"><rect x="0" y="69.00159989442685" width="814" height="406.99680021114636" style="pointer-events: all; fill: rgb(255, 255, 255); fill-opacity: 1;"/></g><g class="layer backplot"><g class="choroplethlayer"><g class="trace choropleth"><path class="choroplethlocation" fill="rgb(72, 40, 120)" d="M431.6501318851434,175.71198215686343L425.3667649340282,177.88699379378784L420.5334057408629,174.50364235857205L405.0666563227336,172.81196664096427L399.2666252909353,174.74531031823045L383.7998758728063,176.92032195515486L376.5498370830582,176.6786539954964L361.0830876649289,181.75368114832025L349.9663615206488,181.75368114832025L343.19965865021703,179.33700155173761L328.21624515140456,182.96202094661146L323.86622187755574,180.30367339037048L322.8995500389224,187.79538013977697L319.5161986037069,190.69539565567612L316.13284716849114,193.8370791312335L310.81615205600923,187.5537121801185L316.13284716849114,182.72035298695323L307.91613654010996,183.68702482558638L296.7994103958294,180.787009309687L287.6160279288153,188.27871605909343L266.8325833982042,189.97039177670138L256.1991931732405,182.72035298695323L241.69911559374415,182.2370170676367L238.7991000778452,187.79538013977697L229.13238169151424,189.4870558573847L216.56564778928458,182.2370170676367L201.58223429047177,182.478685027295L193.8488595814071,169.18694724609026L183.69880527575998,161.69524049668382L190.46550814619127,151.30351823137823L181.7654615984936,144.778483320605L196.74887509730644,131.970081458717L217.53231962791756,131.48674553940043L223.33235065971587,121.33669123375296L248.94915438349238,123.0283669513608L264.8992397209382,114.32832040366327L280.3659891390671,110.46163304913091L302.5994414276281,110.2199650894728L326.28290147413827,119.64501551614501L345.61633824679984,124.9617106286272L361.0830876649289,122.78669899170279L372.6831497285259,123.99503878999383L388.6332350659717,116.98666795990414L402.6499767261511,116.50333204058768L415.70004654769764,123.0283669513608L418.1167261442801,127.62005818486818L416.6667183863306,134.1450930956414L426.81677269197814,137.5284445308572L432.13346780445994,141.3951318853891L422.95008533744584,145.26181923992146L426.81677269197814,160.7285686580508L424.4000930953952,164.83692397224144ZM181.2821256791771,113.11998060537178L194.81553142004006,109.01162529118142L206.41559348363708,110.70330100878937L207.86560124158697,115.7783281616131L219.94899922450006,120.12835143546181L217.53231962791756,123.51170287067737L201.58223429047177,124.23670674965228L195.78220325867343,128.34506206384265L184.66547711439296,135.5951008535908L180.3154538405441,129.31173390247602L180.3154538405441,126.65338634623515L183.69880527575998,124.9617106286272L187.56549263029228,116.74500000024602Z" style="stroke: rgb(68, 68, 68); stroke-opacity: 1; stroke-width: 1px; opacity: 1;"/><path class="choroplethlocation" fill="rgb(68, 1, 84)" d="M299.6994259117288,280.59587664855195L314.6828394105412,282.77088828547636L320.48287044233996,278.42086501162754L323.86622187755574,273.58750581846226L334.01627618320293,271.89583010085437L336.43295577978535,267.3041388673472L340.7829790536342,265.1291272304228L327.24957331277125,251.59572148955965L354.3163847944976,244.8290186191282L356.73306439108006,242.895674941862L373.16648564784236,246.52069433673609L392.9832583398205,255.94574476340853L412.0262944835556,269.3787660065929L430.6834600465101,283.01255624513465L455.81692785097005,283.9792280837676L467.9003258338835,285.187567882059L471.28367726909937,291.7126027928323L480.4670597361136,291.22926687351577L485.7837548485953,302.82932893711256L492.550457719027,305.9710124126702L494.9671373156095,310.8043716058355L503.6671838633072,316.3627346779756L504.6338557019405,321.9210977501158L503.18384794399066,326.27112102396467L505.117191621257,330.8628122574717L508.9838789757893,334.7294996120041L510.9172226530553,339.07952288585284L512.8505663303216,342.22120636141045L516.7172536848536,344.8795539176514L520.583941039386,343.91288207901823L523.0006206359687,349.2295771915002L523.4839565552853,352.37126066705764L528.800651667767,365.90466640792073L568.9175329710399,372.67136927835224L571.8175484869388,369.7713537624529L578.100915438054,379.1964041891255L568.9175329710399,406.2632156708515L528.800651667767,419.55495345205634L490.13377812244414,424.62998060487996L477.56704422021414,430.6716795963366L467.9003258338835,444.9300892161744L461.61695888276876,447.1051008530988L458.23360744755286,442.5134096195917L452.91691233507106,443.2384134985666L439.86684251352466,442.03007370027524L437.45016291694174,440.5800659423255L421.9834134988124,440.82173390198375L418.6000620635969,442.03007370027524L412.8000310317983,438.6467222650594L409.4166795965824,445.1717571758327L410.8666873545323,450.9717882076311L405.0666563227336,455.0801435218217L403.1333126454676,449.52178044968144L399.2666252909353,445.413425135491L398.2999534523023,440.09673002300906L391.04991466255416,435.2633708298438L383.7998758728063,423.90497672590516L380.4165244375905,413.02991854128294L370.74980605125944,403.8465360742688L364.9497750194612,401.6715244373444L356.24972847176355,388.86312257545615L354.3163847944976,379.43807214878376L355.28305663313057,371.4630294800608L347.54968192406585,356.7212839409064L341.2663149729511,351.4045888284246L334.01627618320293,348.5045733125253L329.18291699003754,341.0128665631191L330.1495888286705,337.87118308756146L326.28290147413827,330.8628122574717L322.4162141196059,327.96279674157256L317.0995190071241,318.0544103955835L308.88280837874294,307.17935221096144L302.1161055083113,297.9959697439473L295.3494026378799,297.9959697439473L297.7660822344624,290.50426299454085L298.24941815377935,285.91257176103375Z" style="stroke: rgb(68, 68, 68); stroke-opacity: 1; stroke-width: 1px; opacity: 1;"/><path class="choroplethlocation" fill="rgb(68, 1, 84)" d="M523.0006206359687,349.2295771915002L525.4173002325513,348.5045733125253L525.9006361518681,352.12959270739935L536.5340263768318,349.95458107047494L547.6507525211123,350.4379169897914L555.8674631494935,350.92125290910815L565.0508456165076,341.73787044209377L574.7175640028382,333.0378238943961L583.4176105505359,324.821113266015L585.8342901471187,329.4128044995222L587.7676338243847,340.0461947244859L581.000930953953,340.0461947244859L579.5509231960035,348.74624127218374L581.9676027925864,350.6795849494497L576.1675717607877,353.3379325056908L576.1675717607877,358.8962955778308L572.3008844062554,364.45465864997107L571.8175484869388,369.7713537624529L568.9175329710399,372.67136927835224L528.800651667767,365.90466640792073L523.4839565552853,352.37126066705764Z" style="stroke: rgb(68, 68, 68); stroke-opacity: 1; stroke-width: 1px; opacity: 1;"/><path class="choroplethlocation" fill="rgb(49, 104, 142)" d="M310.33281613669243,235.6456361521141L307.91613654010996,239.75399146630463L303.0827773469446,237.8206477890385L300.1827618310453,246.76236229639431L303.56611326626114,248.45403801400226L300.1827618310453,250.14571373161016L299.6994259117288,253.77073312648406L305.9827928628436,251.83738944921788L305.9827928628436,257.15408456169996L299.2160899924123,278.6625329712858L298.24941815377935,275.03751357641175L290.5160434447146,255.46240884409207L294.38273079924704,251.11238557024313L293.4160589606136,250.3873816912684L297.2827463151459,244.10401474015345L299.6994259117288,233.9539604345061L301.6327695889948,230.5706089992904L302.1161055083113,230.328941039632L306.4661287821601,230.328941039632L307.91613654010996,228.1539294027076L311.29948797532575,227.91226144304937L311.78282389464226,233.47062451518957L309.8494802173759,235.4039681924558Z" style="stroke: rgb(68, 68, 68); stroke-opacity: 1; stroke-width: 1px; opacity: 1;"/><path class="choroplethlocation" fill="rgb(68, 1, 84)" d="M356.73306439108006,242.895674941862L351.41636927859815,226.46225368509988L380.89986035690697,212.68717998457845L386.21655546938877,196.25375872781632L384.76654771143933,186.58704034148553L392.499922420504,183.20368890626975L399.2666252909353,174.74531031823045L405.0666563227336,172.81196664096427L420.5334057408629,174.50364235857205L425.3667649340282,177.88699379378784L431.6501318851434,175.71198215686343L440.35017843284106,191.6620674943091L449.05022498053876,195.77042280849963L450.01689681917173,203.50379751756435L443.25019394874005,208.0954887510714L440.35017843284106,218.72887897603528L449.5335608998553,231.29561287826516L465.9669821566176,238.78731962767148L473.2170209463653,248.93737393331872L470.80034134978285,258.6040923196496L475.1503646236317,258.6040923196496L475.1503646236317,265.85413110939754L482.4004034133794,272.86250193948734L474.66702870431516,272.1374980605126L465.48364623730106,271.17082622187934L455.81692785097005,283.9792280837676L430.6834600465101,283.01255624513465L412.0262944835556,269.3787660065929L392.9832583398205,255.94574476340853L373.16648564784236,246.52069433673609Z" style="stroke: rgb(68, 68, 68); stroke-opacity: 1; stroke-width: 1px; opacity: 1;"/><path class="choroplethlocation" fill="rgb(62, 73, 137)" d="M512.8505663303216,342.22120636141045L511.8838944916883,332.55448797507967L515.2672459269041,325.5461171449899L519.1339332814365,324.09610938704026L523.0006206359687,328.2044647012308L523.4839565552853,336.17950736995374L520.583941039386,343.91288207901823L516.7172536848536,344.8795539176514Z" style="stroke: rgb(68, 68, 68); stroke-opacity: 1; stroke-width: 1px; opacity: 1;"/><path class="choroplethlocation" fill="rgb(49, 104, 142)" d="M474.66702870431516,272.1374980605126L477.56704422021414,278.1791970519693L476.11703646226465,281.3208805275267L480.4670597361136,291.22926687351577L471.28367726909937,291.7126027928323L467.9003258338835,285.187567882059L455.81692785097005,283.9792280837676L465.48364623730106,271.17082622187934Z" style="stroke: rgb(68, 68, 68); stroke-opacity: 1; stroke-width: 1px; opacity: 1;"/><path class="choroplethlocation" fill="rgb(62, 73, 137)" d="M571.8175484869388,369.7713537624529L572.3008844062554,364.45465864997107L576.1675717607877,358.8962955778308L576.1675717607877,353.3379325056908L581.9676027925864,350.6795849494497L579.5509231960035,348.74624127218374L581.000930953953,340.0461947244859L587.7676338243847,340.0461947244859L593.567664856183,349.2295771915002L601.3010395652477,354.06293638466553L610.9677579515783,355.7546121022734L619.1844685799595,358.17129169885607L624.9844996117581,365.90466640792073L628.8511869662905,370.49635764142784L633.6845461594559,372.18803335903556L633.6845461594559,375.0880488749349L628.8511869662905,383.06309154365783L626.4345073697076,386.92977889818997L620.6344763379093,391.2798021720388L615.801117144744,400.4631846390531L609.5177501936289,399.7381807600782L607.101070597046,402.87986423563575L604.6843910004636,409.64656710606727L606.6177346777296,418.5882816134232L605.1677269197801,420.2799573310311L598.8843599686652,420.2799573310311L590.667649340284,425.35498448385465L589.2176415823342,431.8800193946279L586.3176260664352,434.53836695086886L577.6175795187376,434.53836695086886L572.7842203255723,437.92171838608465L572.7842203255723,443.2384134985666L566.0175174551405,447.1051008530988L558.7674786653924,445.89676105480754L549.5840961983782,450.2467843286564L543.7840651665799,451.21345616728934L539.4340418927311,441.788405740617L528.800651667767,419.55495345205634L568.9175329710399,406.2632156708515L578.100915438054,379.1964041891255ZM585.8342901471187,329.4128044995222L583.4176105505359,324.821113266015L587.2842979050681,320.2294220325079L588.7343056630176,321.43776183079933L587.7676338243847,326.9961249029394Z" style="stroke: rgb(68, 68, 68); stroke-opacity: 1; stroke-width: 1px; opacity: 1;"/><path class="choroplethlocation" fill="rgb(68, 1, 84)" d="M453.4002482543876,112.63664468605532L457.2669356089199,113.11998060537178L466.45031807593404,121.33669123375296L472.73368502704886,122.30336307238633L474.66702870431516,118.67834367751209L482.8837393326964,113.36164856503024L490.13377812244414,120.37001939511993L496.90048099287577,130.0367377814506L503.18384794399066,130.52007370076717L507.05053529852296,134.1450930956414L495.9338091542429,135.3534328939328L493.51712955766,145.74515515923792L491.583785880394,150.33684639274531L486.26709076791184,153.47852986830264L486.75042668722836,160.24523273873433L483.36707525201285,160.97023661770925L475.1503646236317,153.7201978279611L479.98372381679707,147.19516291718787L475.6337005429482,143.3284755626555L470.80034134978285,144.29514740128843L454.850256012337,154.20353374727756L454.850256012337,144.778483320605L448.56688906122224,142.6034716836806L442.76685802942353,138.9784522888067L446.63354538395595,134.62842901495787L439.3835065942077,130.0367377814506L442.283522110107,126.65338634623515L436.9668269976252,124.47837470931074L434.5501474010424,120.85335531443639L437.45016291694174,118.67834367751209L447.6002172225889,122.54503103204434L454.850256012337,123.27003491101937L456.783599689603,121.82002715306942L450.01689681917173,114.56998836332161ZM450.01689681917173,154.44520170693602L440.8335143521575,152.75352598932807L434.0668114817259,146.47015903821296L432.13346780445994,141.3951318853891L434.5501474010424,141.1534639257311L438.9001706748912,144.778483320605L444.70020170668994,144.778483320605L444.70020170668994,146.7118269978714Z" style="stroke: rgb(68, 68, 68); stroke-opacity: 1; stroke-width: 1px; opacity: 1;"/><path class="choroplethlocation" fill="rgb(68, 1, 84)" style="stroke: rgb(68, 68, 68); stroke-opacity: 1; stroke-width: 1px; opacity: 1;"/><path class="choroplethlocation" fill="rgb(49, 104, 142)" d="M307.91613654010996,239.75399146630463L310.33281613669243,235.6456361521141L325.31622963550524,240.9623312645959L351.41636927859815,226.46225368509988L356.73306439108006,242.895674941862L354.3163847944976,244.8290186191282L327.24957331277125,251.59572148955965L340.7829790536342,265.1291272304228L336.43295577978535,267.3041388673472L334.01627618320293,271.89583010085437L323.86622187755574,273.58750581846226L320.48287044233996,278.42086501162754L314.6828394105412,282.77088828547636L299.6994259117288,280.59587664855195L299.2160899924123,278.6625329712858L305.9827928628436,257.15408456169996L305.9827928628436,251.83738944921788L307.91613654010996,247.97070209468575Z" style="stroke: rgb(68, 68, 68); stroke-opacity: 1; stroke-width: 1px; opacity: 1;"/><path class="choroplethlocation" fill="rgb(38, 130, 142)" d="M366.8831186967276,91.61153219578614L368.8164623739935,89.91985647817819L379.933188518274,92.33653607476106L399.7499612102518,94.51154771168547L418.1167261442801,100.79491466280024L420.5334057408629,103.45326221904111L428.7501163692441,101.2782505821167L440.8335143521575,103.93659813835757L445.18353762600645,109.49496121049788L453.4002482543876,112.63664468605532L450.01689681917173,114.56998836332161L456.783599689603,121.82002715306942L454.850256012337,123.27003491101937L447.6002172225889,122.54503103204434L437.45016291694174,118.67834367751209L434.5501474010424,120.85335531443639L415.70004654769764,123.0283669513608L402.6499767261511,116.50333204058768L388.6332350659717,116.98666795990414L390.5665787432377,111.18663692810583L387.1832273080218,102.24492242074973L379.44985259895714,97.16989526792634L371.7164778898929,95.7198875099765Z" style="stroke: rgb(68, 68, 68); stroke-opacity: 1; stroke-width: 1px; opacity: 1;"/><path class="choroplethlocation" fill="rgb(38, 130, 142)" d="M454.850256012337,154.20353374727756L450.01689681917173,154.44520170693602L444.70020170668994,146.7118269978714L444.70020170668994,144.778483320605L438.9001706748912,144.778483320605L434.5501474010424,141.1534639257311L432.13346780445994,141.3951318853891L426.81677269197814,137.5284445308572L416.6667183863306,134.1450930956414L418.1167261442801,127.62005818486818L415.70004654769764,123.0283669513608L434.5501474010424,120.85335531443639L436.9668269976252,124.47837470931074L442.283522110107,126.65338634623515L439.3835065942077,130.0367377814506L446.63354538395595,134.62842901495787L442.76685802942353,138.9784522888067L448.56688906122224,142.6034716836806L454.850256012337,144.778483320605Z" style="stroke: rgb(68, 68, 68); stroke-opacity: 1; stroke-width: 1px; opacity: 1;"/><path class="choroplethlocation" fill="rgb(49, 104, 142)" d="M311.29948797532575,227.91226144304937L307.91613654010996,228.1539294027076L306.4661287821601,230.328941039632L302.1161055083113,230.328941039632L306.9494647014769,219.45388285501002L313.7161675719082,210.02883242833758L313.7161675719082,209.54549650902106L319.99953452302344,210.2705003879958L321.93287820028945,215.5871955004779L314.6828394105412,220.6622226533014Z" style="stroke: rgb(68, 68, 68); stroke-opacity: 1; stroke-width: 1px; opacity: 1;"/><path class="choroplethlocation" fill="rgb(110, 206, 88)" d="M270.21593483341996,202.7787936385896L272.63261443000283,203.50379751756435L276.0159658652183,202.5371256789312L278.9159813811176,202.5371256789312L279.8826532197506,203.50379751756435L279.8826532197506,204.7121373158556L280.849325058384,204.2288013965391L282.78266873565,204.47046935619733L285.19934833223283,203.50379751756435L286.6493560901823,203.98713343688087L287.1326920094988,204.95380527551401L273.5992862686358,210.51216834765404L266.8325833982042,208.82049263004615L263.4492319629883,203.50379751756435Z" style="stroke: rgb(68, 68, 68); stroke-opacity: 1; stroke-width: 1px; opacity: 1;"/></g></g></g><g class="layer frontplot"><g class="scatterlayer"/></g></g></g><g class="funnelarealayer"/><g class="pielayer"/><g class="iciclelayer"/><g class="treemaplayer"/><g class="sunburstlayer"/><g class="glimages"/><defs id="topdefs-cea15e"><g class="clips"/></defs><g class="layer-above"><g class="imagelayer"/><g class="shapelayer"/></g><g class="infolayer"><g class="cbcoloraxis colorbar" transform="translate(0,25)"><rect class="cbbg" x="830" y="124" width="69.640625" height="248" style="fill: rgb(0, 0, 0); fill-opacity: 0; stroke: rgb(68, 68, 68); stroke-opacity: 1; stroke-width: 0;"/><g class="cbfills" transform="translate(0,155)"><rect class="cbfill gradient_filled" x="840" y="0" width="30" height="206" style="fill: url('#gcea15e-cbcoloraxis');"/></g><g class="cblines" transform="translate(0,155)"/><g class="cbaxis crisp" transform="translate(0,-25)"><g class="ycbcoloraxistick"><text text-anchor="start" x="872.9" y="4.199999999999999" transform="translate(0,386.49999999999994)" style="font-family: 'Open Sans', verdana, arial, sans-serif; font-size: 12px; fill: rgb(42, 63, 95); fill-opacity: 1; white-space: pre; opacity: 1;">0</text></g><g class="ycbcoloraxistick"><text text-anchor="start" x="872.9" y="4.199999999999999" style="font-family: 'Open Sans', verdana, arial, sans-serif; font-size: 12px; fill: rgb(42, 63, 95); fill-opacity: 1; white-space: pre; opacity: 1;" transform="translate(0,345.29999999999995)">0.2</text></g><g class="ycbcoloraxistick"><text text-anchor="start" x="872.9" y="4.199999999999999" style="font-family: 'Open Sans', verdana, arial, sans-serif; font-size: 12px; fill: rgb(42, 63, 95); fill-opacity: 1; white-space: pre; opacity: 1;" transform="translate(0,304.0999999999999)">0.4</text></g><g class="ycbcoloraxistick"><text text-anchor="start" x="872.9" y="4.199999999999999" style="font-family: 'Open Sans', verdana, arial, sans-serif; font-size: 12px; fill: rgb(42, 63, 95); fill-opacity: 1; white-space: pre; opacity: 1;" transform="translate(0,262.9)">0.6</text></g><g class="ycbcoloraxistick"><text text-anchor="start" x="872.9" y="4.199999999999999" style="font-family: 'Open Sans', verdana, arial, sans-serif; font-size: 12px; fill: rgb(42, 63, 95); fill-opacity: 1; white-space: pre; opacity: 1;" transform="translate(0,221.69999999999993)">0.8</text></g><g class="ycbcoloraxistick"><text text-anchor="start" x="872.9" y="4.199999999999999" style="font-family: 'Open Sans', verdana, arial, sans-serif; font-size: 12px; fill: rgb(42, 63, 95); fill-opacity: 1; white-space: pre; opacity: 1;" transform="translate(0,180.49999999999994)">1</text></g></g><g class="cbtitleunshift" transform="translate(0,-25)"><g class="cbtitle" transform=""><text class="ycbcoloraxistitle" x="840.28" y="172.00000000000003" text-anchor="start" style="font-family: 'Open Sans', verdana, arial, sans-serif; font-size: 14px; fill: rgb(42, 63, 95); opacity: 1; font-weight: normal; white-space: pre;">R</text></g></g><rect class="cboutline" x="840" y="156" width="30" height="206" style="stroke: rgb(68, 68, 68); stroke-opacity: 1; fill: none; stroke-width: 0;"/></g><g class="g-gtitle"><text class="gtitle" x="45" y="12.5" text-anchor="start" dy="0em" style="font-family: 'Open Sans', verdana, arial, sans-serif; font-size: 17px; fill: rgb(42, 63, 95); opacity: 1; font-weight: normal; white-space: pre;">Western Asia — Enclosure Strength (R)</text></g></g></svg>