<svg class="main-svg" xmlns="http://www.w3.org/2000/svg" xmlns:xlink="http://www.w3.org/1999/xlink" width="900" height="520" style="" viewBox="0 0 900 520"><rect x="0" y="0" width="900" height="520" style="fill: rgb(255, 255, 255); fill-opacity: 1;"/><defs id="defs-ef5b2e"><g class="clips"><clipPath id="clipef5b2egeo"><rect x="0" y="69.00178231352209" width="814" height="406.99643537295583"/></clipPath></g><g class="gradients"><linearGradient x1="0" x2="0" y1="1" y2="0" id="gef5b2e-cbcoloraxis"><stop offset="0%" stop-color="rgb(68, 1, 84)" stop-opacity="1"/><stop offset="11.111111%" stop-color="rgb(72, 40, 120)" stop-opacity="1"/><stop offset="22.222222%" stop-color="rgb(62, 73, 137)" stop-opacity="1"/><stop offset="33.333333%" stop-color="rgb(49, 104, 142)" stop-opacity="1"/><stop offset="44.444444%" stop-color="rgb(38, 130, 142)" stop-opacity="1"/><stop offset="55.555556%" stop-color="rgb(31, 158, 137)" stop-opacity="1"/><stop offset="66.666667%" stop-color="rgb(53, 183, 121)" stop-opacity="1"/><stop offset="77.777778%" stop-color="rgb(110, 206, 88)" stop-opacity="1"/><stop offset="88.888889%" stop-color="rgb(181, 222, 43)" stop-opacity="1"/><stop offset="100%" stop-color="rgb(253, 231, 37)" stop-opacity="1"/></linearGradient></g><g class="patterns"/></defs><g class="bglayer"/><g class="layer-below"><g class="imagelayer"/><g class="shapelayer"/></g><g class="cartesianlayer"/><g class="polarlayer"/><g class="smithlayer"/><g class="ternarylayer"/><g class="geolayer"><g class="geo geo" clip-path="url(#clipef5b2egeo)"><g class="layer bg"><rect x="0" y="69.00178231352209" width="814" height="406.99643537295583" style="pointer-events: all; fill: rgb(255, 255, 255); fill-opacity: 1;"/></g><g class="layer backplot"><g class="choroplethlayer"><g class="trace choropleth"><path class="choroplethlocation" fill="rgb(110, 206, 88)" d="M180.98054294096625,440.09602675680804L176.7720755039416,446.28494945831505L174.79162023945938,451.3598660735508L172.06849425079622,453.9592136081837L168.8502544460126,454.45432742430415L167.86002681377158,452.5976506138522L166.37468536540985,452.22631525176166L164.14667319286738,454.2067705162439L161.17599029614402,452.7214290678823L162.908888652566,449.87452462518905L163.65155937674686,446.6562848204054L164.64178700898796,443.68560192368216L162.16621792838515,439.6009129406876L161.42354720420437,434.8973316875423L165.13690082510848,429.0797443481257L167.36491299765098,429.82241507230657L172.5636080669168,431.4315349746983L179.74275840066497,437.2491223141149ZM578.5569372857726,128.54565796294844L581.7751770905561,130.27855631937024L591.6774534129673,131.64011931370175L588.2116567001233,136.3437005668472L587.4689859759426,141.17106027402247L585.4885307114603,142.40884481432397L582.517847814737,141.78995254417327L582.7654047227973,143.52285090059524L577.5667096535316,147.35998297552948L577.5667096535316,150.454444326283L580.784949458315,149.34043824001168L583.2605185389178,152.4348995907652L582.7654047227973,154.29157640121724L584.9934168953398,156.8909239358502L582.517847814737,158.99515765436246L584.2507461711591,164.31763117765848L587.964099792063,165.18408035586947L587.2214290678824,168.15476325259294L581.0325063663754,172.11567378155723L567.4168764230601,170.2589969711052L557.5146001006489,172.4870091436477L556.5243724684078,176.57169812664222L548.6025514104789,177.4381473048532L540.9282872606103,174.34368595409973L538.4527181800077,175.82902740246146L525.8273158689334,172.734566051708L523.1041898802704,170.01144006304497L526.5699865931142,165.9267510800504L527.8077711334156,152.18734268270498L520.8761777077278,145.00819234895692L515.6774826384619,141.54239563611299L505.2800924999304,138.94304810147997L504.5374217757494,133.8681314862443L513.4494704659194,132.38279003788273L525.0846451447526,134.1156883943047L522.8566329722102,126.31764579040595L529.2931125817773,129.2883286871292L545.3843116056953,123.96585516383328L547.3647668701776,118.2720462784468L553.3061326636243,116.91048328411529L554.2963602958654,119.38605236471801L557.5146001006489,119.50983081874824L560.7328399054326,122.23295680741126L565.683978066638,125.45119661219496L569.1497747794821,124.95608279607427L575.0911405729286,128.05054414682775L576.5764820212903,128.6694364169785ZM596.1334777580523,175.58147049440117L600.5895021031373,172.85834450573816L601.8272866434388,178.7997102991847L599.5992744708963,184.12218382248068L596.3810346661126,182.76062082814923L594.8956932177508,178.05703957500396Z" style="stroke: rgb(68, 68, 68); stroke-opacity: 1; stroke-width: 1px; opacity: 1;"/><path class="choroplethlocation" fill="rgb(181, 222, 43)" d="M633.267013967094,98.96260744974524L634.7523554154557,102.55218261661929L632.7719001509735,104.28508097304126L635.4950261396365,106.76065005364399L636.9803675879982,110.47400367454804L636.4852537718775,112.82579430112077L639.455936668601,117.28181864620575L636.2376968638173,117.9007109163565L634.5047985073953,117.15804019217552L632.7719001509735,118.51960318650703L627.8207619897678,119.75738772680847L625.345192909165,121.4902860832305L620.1464978398992,122.97562753159224L621.3842823802006,125.0798612501045L622.1269531043815,127.92676569279774L625.5927498172252,129.53588559518948L629.5536603461899,132.5065684919128L627.078091265587,135.7248082966965L624.6025221849843,136.59125747490748L625.5927498172252,141.04728181999246L625.0976360011048,142.28506636029374L622.8696238285622,140.79972491193223L619.6513840237787,140.675946457902L614.7002458625731,141.91373099820345L608.5113231610662,141.54239563611299L607.5210955288251,143.39907244656501L604.0552988159812,141.41861718208276L602.074843551499,141.78995254417327L594.6481363096906,139.68571882566096L593.4103517693893,141.29483872805275L587.4689859759426,141.17106027402247L588.2116567001233,136.3437005668472L591.6774534129673,131.64011931370175L581.7751770905561,130.27855631937024L578.5569372857726,128.54565796294844L579.0520511018931,125.45119661219496L577.5667096535316,123.96585516383328L578.5569372857726,119.26227391068795L577.3191527454711,112.08312357694001L581.5276201824959,112.08312357694001L583.2605185389178,109.483776042307L584.7458599872796,103.17107488676999L583.5080754469781,100.94306271422727L584.9934168953398,99.45772126586576L590.6872257807263,99.0863859037753L591.9250103210276,100.57172735213697L596.6285915741728,97.22970909332327L595.1432501258113,94.63036155869031L594.6481363096906,90.66945102972579L599.8468313789565,91.659678661967L604.3028557240416,90.54567257569573L604.5504126321018,93.2687985643588L611.4820060577896,94.87791846675054L611.2344491497292,97.22970909332327L618.4135994834772,95.99192455302182L622.1269531043815,94.13524774256979L630.0487741623103,96.8583737312328Z" style="stroke: rgb(68, 68, 68); stroke-opacity: 1; stroke-width: 1px; opacity: 1;"/><path class="choroplethlocation" fill="rgb(181, 222, 43)" d="M583.5080754469781,100.94306271422727L584.7458599872796,103.17107488676999L583.2605185389178,109.483776042307L581.5276201824959,112.08312357694001L577.3191527454711,112.08312357694001L578.5569372857726,119.26227391068795L574.5960267568081,117.65315400829621L570.3875593197833,114.6824711115728L563.9510797102162,116.16781255993448L558.9999415490106,115.54892028978378L562.4657382618545,113.69224347933175L568.4071040553011,103.54241024886028L577.8142665615918,100.69550580616703Z" style="stroke: rgb(68, 68, 68); stroke-opacity: 1; stroke-width: 1px; opacity: 1;"/><path class="choroplethlocation" fill="rgb(110, 206, 88)" d="M652.824009703856,137.7052635611787L652.3288958877355,140.55216800387194L648.367985358771,140.55216800387194L649.8533268071326,142.0375094522335L647.62531463459,146.4935337973185L646.1399731862285,147.6075398835897L640.1986073927817,147.85509679165L636.7328106799378,149.34043824001168L631.0390017945515,148.8453244238912L621.1367254721403,147.1124260674692L619.6513840237787,144.63685698686646L612.9673475061513,145.87464152716774L611.97711987391,147.1124260674692L608.0162093449455,146.2459768892582L604.3028557240416,145.99841998119797L601.3321728273181,144.76063544089652L602.3224004595593,143.02773708447472L602.074843551499,141.78995254417327L604.0552988159812,141.41861718208276L607.5210955288251,143.39907244656501L608.5113231610662,141.54239563611299L614.7002458625731,141.91373099820345L619.6513840237787,140.675946457902L622.8696238285622,140.79972491193223L625.0976360011048,142.28506636029374L625.5927498172252,141.04728181999246L624.6025221849843,136.59125747490748L627.078091265587,135.7248082966965L629.5536603461899,132.5065684919128L634.7523554154557,134.73458066445528L638.4657090363597,132.01145467579227L640.9412781169625,131.3925624056415L646.3875300942888,133.496796124154L649.6057698990722,133.12546076206348L652.824009703856,134.487023756395L652.081338979675,135.35347293460597Z" style="stroke: rgb(68, 68, 68); stroke-opacity: 1; stroke-width: 1px; opacity: 1;"/><path class="choroplethlocation" fill="rgb(181, 222, 43)" d="M602.074843551499,141.78995254417327L602.3224004595593,143.02773708447472L601.3321728273181,144.76063544089652L604.3028557240416,145.99841998119797L608.0162093449455,146.2459768892582L607.2735386207648,148.96910287792122L604.3028557240416,150.20688741822272L599.3517175628358,149.34043824001168L597.8663761144743,152.06356422867475L594.4005794016304,152.31112113673498L593.1627948613291,151.19711505046376L589.4494412404248,153.5489056770365L586.2312014356411,153.92024103912695L583.2605185389178,152.4348995907652L580.784949458315,149.34043824001168L577.5667096535316,150.454444326283L577.5667096535316,147.35998297552948L582.7654047227973,143.52285090059524L582.517847814737,141.78995254417327L585.4885307114603,142.40884481432397L587.4689859759426,141.17106027402247L593.4103517693893,141.29483872805275L594.6481363096906,139.68571882566096Z" style="stroke: rgb(68, 68, 68); stroke-opacity: 1; stroke-width: 1px; opacity: 1;"/><path class="choroplethlocation" fill="rgb(68, 1, 84)" style="stroke: rgb(68, 68, 68); stroke-opacity: 1; stroke-width: 1px; opacity: 1;"/><path class="choroplethlocation" fill="rgb(68, 1, 84)" style="stroke: rgb(68, 68, 68); stroke-opacity: 1; stroke-width: 1px; opacity: 1;"/></g></g></g><g class="layer frontplot"><g class="scatterlayer"/></g></g></g><g class="funnelarealayer"/><g class="pielayer"/><g class="iciclelayer"/><g class="treemaplayer"/><g class="sunburstlayer"/><g class="glimages"/><defs id="topdefs-ef5b2e"><g class="clips"/></defs><g class="layer-above"><g class="imagelayer"/><g class="shapelayer"/></g><g class="infolayer"><g class="cbcoloraxis colorbar" transform="translate(0,25)"><rect class="cbbg" x="830" y="124" width="69.640625" height="248" style="fill: rgb(0, 0, 0); fill-opacity: 0; stroke: rgb(68, 68, 68); stroke-opacity: 1; stroke-width: 0;"/><g class="cbfills" transform="translate(0,155)"><rect class="cbfill gradient_filled" x="840" y="0" width="30" height="206" style="fill: url('#gef5b2e-cbcoloraxis');"/></g><g class="cblines" transform="translate(0,155)"/><g class="cbaxis crisp" transform="translate(0,-25)"><g class="ycbcoloraxistick"><text text-anchor="start" x="872.9" y="4.199999999999999" transform="translate(0,386.49999999999994)" style="font-family: 'Open Sans', verdana, arial, sans-serif; font-size: 12px; fill: rgb(42, 63, 95); fill-opacity: 1; white-space: pre; opacity: 1;">0</text></g><g class="ycbcoloraxistick"><text text-anchor="start" x="872.9" y="4.199999999999999" style="font-family: 'Open Sans', verdana, arial, sans-serif; font-size: 12px; fill: rgb(42, 63, 95); fill-opacity: 1; white-space: pre; opacity: 1;" transform="translate(0,345.29999999999995)">0.2</text></g><g class="ycbcoloraxistick"><text text-anchor="start" x="872.9" y="4.199999999999999" style="font-family: 'Open Sans', verdana, arial, sans-serif; font-size: 12px; fill: rgb(42, 63, 95); fill-opacity: 1; white-space: pre; opacity: 1;" transform="translate(0,304.0999999999999)">0.4</text></g><g class="ycbcoloraxistick"><text text-anchor="start" x="872.9" y="4.199999999999999" style="font-family: 'Open Sans', verdana, arial, sans-serif; font-size: 12px; fill: rgb(42, 63, 95); fill-opacity: 1; white-space: pre; opacity: 1;" transform="translate(0,262.9)">0.6</text></g><g class="ycbcoloraxistick"><text text-anchor="start" x="872.9" y="4.199999999999999" style="font-family: 'Open Sans', verdana, arial, sans-serif; font-size: 12px; fill: rgb(42, 63, 95); fill-opacity: 1; white-space: pre; opacity: 1;" transform="translate(0,221.69999999999993)">0.8</text></g><g class="ycbcoloraxistick"><text text-anchor="start" x="872.9" y="4.199999999999999" style="font-family: 'Open Sans', verdana, arial, sans-serif; font-size: 12px; fill: rgb(42, 63, 95); fill-opacity: 1; white-space: pre; opacity: 1;" transform="translate(0,180.49999999999994)">1</text></g></g><g class="cbtitleunshift" transform="translate(0,-25)"><g class="cbtitle" transform=""><text class="ycbcoloraxistitle" x="840.28" y="172.00000000000003" text-anchor="start" style="font-family: 'Open Sans', verdana, arial, sans-serif; font-size: 14px; fill: rgb(42, 63, 95); opacity: 1; font-weight: normal; white-space: pre;">R</text></g></g><rect class="cboutline" x="840" y="156" width="30" height="206" style="stroke: rgb(68, 68, 68); stroke-opacity: 1; fill: none; stroke-width: 0;"/></g><g class="g-gtitle"><text class="gtitle" x="45" y="12.5" text-anchor="start" dy="0em" style="font-family: 'Open Sans', verdana, arial, sans-serif; font-size: 17px; fill: rgb(42, 63, 95); opacity: 1; font-weight: normal; white-space: pre;">Western Europe — Enclosure Strength (R)</text></g></g></svg>