<svg class="main-svg" xmlns="http://www.w3.org/2000/svg" xmlns:xlink="http://www.w3.org/1999/xlink" width="900" height="520" style="" viewBox="0 0 900 520"><rect x="0" y="0" width="900" height="520" style="fill: rgb(255, 255, 255); fill-opacity: 1;"/><defs id="defs-96a594"><g class="clips"><clipPath id="clip96a594geo"><rect x="0" y="69.0022278064231" width="814" height="406.9955443871538"/></clipPath></g><g class="gradients"><linearGradient x1="0" x2="0" y1="1" y2="0" id="g96a594-cbcoloraxis"><stop offset="0%" stop-color="rgb(68, 1, 84)" stop-opacity="1"/><stop offset="11.111111%" stop-color="rgb(72, 40, 120)" stop-opacity="1"/><stop offset="22.222222%" stop-color="rgb(62, 73, 137)" stop-opacity="1"/><stop offset="33.333333%" stop-color="rgb(49, 104, 142)" stop-opacity="1"/><stop offset="44.444444%" stop-color="rgb(38, 130, 142)" stop-opacity="1"/><stop offset="55.555556%" stop-color="rgb(31, 158, 137)" stop-opacity="1"/><stop offset="66.666667%" stop-color="rgb(53, 183, 121)" stop-opacity="1"/><stop offset="77.777778%" stop-color="rgb(110, 206, 88)" stop-opacity="1"/><stop offset="88.888889%" stop-color="rgb(181, 222, 43)" stop-opacity="1"/><stop offset="100%" stop-color="rgb(253, 231, 37)" stop-opacity="1"/></linearGradient></g><g class="patterns"/></defs><g class="bglayer"/><g class="layer-below"><g class="imagelayer"/><g class="shapelayer"/></g><g class="cartesianlayer"/><g class="polarlayer"/><g class="smithlayer"/><g class="ternarylayer"/><g class="geolayer"><g class="geo geo" clip-path="url(#clip96a594geo)"><g class="layer bg"><rect x="0" y="69.0022278064231" width="814" height="406.9955443871538" style="pointer-events: all; fill: rgb(255, 255, 255); fill-opacity: 1;"/></g><g class="layer backplot"><g class="choroplethlayer"><g class="trace choropleth"><path class="choroplethlocation" fill="rgb(49, 104, 142)" d="M462.9430675723074,423.2907049791638L464.07896742149126,397.7329583725259L463.51101749689934,387.7938346921667L466.3507671198593,377.85471101180747L471.4623164411869,373.0271366527759L478.8456654608821,363.08801297241666L477.1418156871064,359.1123635002731L480.54951523465826,352.58093936746553L477.1418156871064,343.20976561169823L477.7097656116983,338.0982162903706L478.8456654608821,323.8994681755719L483.38926485761783,317.6520190050603L485.66106455598583,308.56482021158916L489.6367140281292,305.1571206640373L506.6752117658881,303.16929592796566L522.5778096544627,309.1327701361811L528.2573089003822,315.0962443443965L536.2086078446698,315.3802193066924L543.591956864365,311.4045698345489L562.9022543004914,319.63984374113215L570.8535532447786,319.3558687788362L579.9407520382499,312.54046968373274L589.5959007563132,313.1084196083249L594.1395001530489,310.836619909957L602.6587490219283,311.6885447968449L614.5856974383593,316.23214419358055L627.0805957793825,307.42892036240517L630.4882953269339,307.99687028699725L641.279343894181,325.31934298705164L644.119093517141,325.0353680247557L650.3665426876523,331.28281719526734L648.6626929138765,334.1225668182271L648.0947429892847,339.5180911018506L634.4639447990777,351.7290144805777L630.4882953269339,361.6681381609369L628.2164956285662,369.9034120675202L624.8087960810144,373.3111116150718L621.9690464580549,384.3861351446151L613.4497975891754,390.9175592774224L611.1779978908073,398.86885822170996L607.2023484186641,405.4002823545173L606.0664485694798,411.93170648732485L595.2754000022327,417.0432558086525L586.1882012087614,410.79580663814085L580.5087019628419,410.79580663814085L570.8535532447786,420.16698039390815L566.3099538480434,420.4509553562041L558.9266048283478,435.5016283578909L554.950955356204,446.5766518874339L538.4804075430374,452.2561511333536L532.232958372526,451.40422624646556L526.5534591266065,455.09590075631337L513.4906108609914,454.8119257940174L504.97136199211195,444.87280211365817L499.8598126707843,433.513803621819L489.06876410353726,423.0067300168679L477.1418156871064,423.2907049791638Z" style="stroke: rgb(68, 68, 68); stroke-opacity: 1; stroke-width: 1px; opacity: 1;"/><path class="choroplethlocation" fill="rgb(49, 104, 142)" d="M293.69399004390533,361.100188236345L295.96578974227293,359.396338462569L300.5093891390086,361.95211312323283L312.4363375554395,361.95211312323283L315.27608717839945,357.4085137264972L318.11583680135897,357.6924886887931L322.6594361980947,355.9886389150174L324.9312358964627,362.80403801012073L328.9068853686065,360.81621327404883L335.1543345391179,358.260438613385L342.5376835588131,361.95211312323283L345.37743318177303,367.06366244456046L352.19283227687635,370.47136199211207L357.87233152279583,366.4957125199685L365.25568054249146,365.9277625953764L376.0467291097385,369.9034120675202L380.0223785818823,392.3374340889024L373.77492941137047,405.6842573168133L369.23133001463526,423.2907049791638L376.0467291097385,436.9215031693709L375.47877918514666,443.16895233988225L368.6633800900429,443.45292730217824L357.3043815982039,440.3292027169225L347.0812829555488,440.3292027169225L328.33893544401417,443.16895233988225L317.54788687676705,447.7125517366179L302.21323891278433,453.6760259448334L298.8055393652329,453.10807602024147L299.9414392144167,440.0452277546266L301.6452889881924,438.0574030185547L301.0773390636005,431.8099538480433L294.26193996849724,425.2785297152357L289.71834057176153,424.14262986605195L285.1747411750259,419.8830054316122L288.58244072257776,413.0676063365087L286.87859094880156,405.4002823545173L287.4465408733935,400.85668295778163L290.28629049635344,400.57270799548564L290.8542404209453,393.75730890038216L289.71834057176153,390.9175592774224L291.4221903455373,388.6457595790546L297.10168959145676,386.6579348429829L293.12604011931296,374.16303650195994L289.71834057176153,367.6316123691523L290.8542404209453,362.23608808552876Z" style="stroke: rgb(68, 68, 68); stroke-opacity: 1; stroke-width: 1px; opacity: 1;"/><path class="choroplethlocation" fill="rgb(31, 158, 137)" d="M420.914773152503,348.0373399707298L419.7788733033192,353.14888929205745L426.5942723984225,361.100188236345L426.5942723984225,372.74316169047995L427.7301722476063,384.95408506920694L431.7058217197501,390.9175592774224L428.2981221721982,405.11630739222136L429.434022021382,412.78363137421275L433.9776214181177,423.0067300168679L437.38532096566956,428.40225430049145L412.39552428362356,437.77342805625875L403.8762754147441,443.16895233988225L389.6775272999456,447.7125517366179L375.47877918514666,443.16895233988225L376.0467291097385,436.9215031693709L369.23133001463526,423.2907049791638L373.77492941137047,405.6842573168133L380.0223785818823,392.3374340889024L376.0467291097385,369.9034120675202L373.77492941137047,357.97646365108903L374.34287933596283,349.1732398199139L401.60447571637644,348.3213149330258L408.41987481147976,349.4572147822098L413.53142413280733,346.90144012154605Z" style="stroke: rgb(68, 68, 68); stroke-opacity: 1; stroke-width: 1px; opacity: 1;"/><path class="choroplethlocation" fill="rgb(68, 1, 84)" d="M204.52585188296834,323.33151825098L211.90920090266354,323.61549321327595L223.26819939450297,327.3071677231236L226.67589894205437,327.0231927608276L228.37974871583052,325.31934298705164L236.89899758470955,326.4552428362357L239.1707972830776,325.6033179493476L239.73874720766952,331.5667921575633L242.57849683062904,331.5667921575633L246.5541463027728,329.29499245919544L249.39389592573278,329.86294238378736L253.36954539787655,333.8385918559311L260.18494449297987,335.25846666741086L264.7285438897155,331.85076711985926L269.84009321104315,329.57896742149137L273.2477927585945,327.3071677231236L276.65549230614636,327.87511764771546L280.0631918536983,331.28281719526734L281.767041627474,335.54244162970684L288.58244072257776,342.35784072481033L285.1747411750259,346.33349019695413L284.60679125043396,351.4450395182817L288.0144907979854,349.7411897445058L289.71834057176153,351.7290144805777L289.1503906471696,356.5565888396093L293.69399004390533,361.100188236345L290.8542404209453,362.23608808552876L289.71834057176153,367.6316123691523L293.12604011931296,374.16303650195994L297.10168959145676,386.6579348429829L291.4221903455373,388.6457595790546L289.71834057176153,390.9175592774224L290.8542404209453,393.75730890038216L290.28629049635344,400.57270799548564L287.4465408733935,400.85668295778163L282.9029414766578,400.2887330331897L280.0631918536983,406.53618220370134L275.51959245696264,406.53618220370134L272.1118929094107,403.12848265614946L273.2477927585945,396.88103348563806L267.0003435880831,387.2258847675748L262.4567441913474,388.92973454135074L259.04904464379604,389.4976844659426L255.07339517165227,390.3496093528305L255.07339517165227,384.3861351446151L252.80159547328418,380.4104856724713L252.80159547328418,375.8668862757356L249.39389592573278,369.0514871806323L245.418246453589,363.3719879347126L232.35539818797386,363.3719879347126L228.94769864042243,366.4957125199685L224.40409924368674,366.7796874822645L222.13229954531872,370.18738702981614L219.8604998469511,374.7309864265518L211.90920090266354,381.54638552165534L204.52585188296834,372.175211765888L198.84635263704885,365.9277625953764L194.30275324031314,363.93993785930473L190.8950536927613,360.81621327404883L188.62325399439368,354.0008141789455L186.3514542960256,350.3091396690977L181.80785489928996,347.7533650084339L189.1912039189856,340.08604102644256L193.73480331572125,340.3700159887385L197.71045278786505,337.8142413280747L201.11815233541645,337.8142413280747L203.95790195837645,335.54244162970684L202.25405218460025,330.43089230837927L203.95790195837645,328.7270425346036Z" style="stroke: rgb(68, 68, 68); stroke-opacity: 1; stroke-width: 1px; opacity: 1;"/><path class="choroplethlocation" fill="rgb(38, 130, 142)" d="M156.8180582172439,307.42892036240517L150.57060904673256,295.21799698367806L142.61931010244547,289.5384977377586L149.43470919754873,286.69874811479883L157.38600814183627,275.6237245852558L160.7937076893877,267.3884506786723L166.47320693530716,262.27690135734474L174.4245058795947,263.6967761688247L181.80785489928996,260.28907662127307L190.8950536927613,260.0051016589769L198.27840271245694,264.83267601800856L208.5015013551121,269.0923004524483L218.15665007317537,280.4512989442875L228.37974871583052,291.52632247383053L229.51564856501435,301.1814711918937L232.35539818797386,310.2686699853649L238.6028473584857,314.81226938210057L239.73874720766952,320.7757435903162L239.1707972830776,325.6033179493476L236.89899758470955,326.4552428362357L228.37974871583052,325.31934298705164L226.67589894205437,327.0231927608276L223.26819939450297,327.3071677231236L211.90920090266354,323.61549321327595L204.52585188296834,323.33151825098L175.56040572877853,322.76356832638794L171.01680633204288,324.46741810016385L165.90525701071527,323.8994681755719L157.38600814183627,326.7392177985317L155.1142084434682,314.52829441980464L169.31295655826716,314.81226938210057L173.28860603041096,312.54046968373274L176.12835565337045,312.54046968373274L181.80785489928996,308.84879517388515L188.62325399439368,312.25649472143675L195.43865308949697,312.54046968373274L202.25405218460025,308.84879517388515L198.84635263704885,304.30519577714944L193.73480331572125,307.1449454001092L189.1912039189856,306.86097043781325L182.94375474847422,303.16929592796566L177.83220542714662,303.4532708902616L174.4245058795947,307.1449454001092Z" style="stroke: rgb(68, 68, 68); stroke-opacity: 1; stroke-width: 1px; opacity: 1;"/><path class="choroplethlocation" fill="rgb(62, 73, 137)" d="M335.1543345391179,358.260438613385L334.58638461452597,349.1732398199139L338.5620340866693,342.6418156871063L337.9940841620774,337.24629140348276L351.0569324276925,324.18344313786787L353.3287321260601,313.3923945706208L357.3043815982039,309.416745098477L365.25568054249146,311.6885447968449L371.50312971300286,308.28084524929324L373.77492941137047,304.30519577714944L386.2698277523937,297.20582171974996L389.10957737535324,292.3782473607183L403.8762754147441,285.846823227911L412.39552428362356,283.57502352954316L416.3711737557673,286.4147731525029L426.5942723984225,286.4147731525029L425.4583725492387,294.0820971344943L427.16222232301436,301.1814711918937L436.24942111648573,311.6885447968449L436.81737104107765,319.3558687788362L454.99176862801994,322.76356832638794L454.423818703428,333.55461689363517L451.0161191558766,338.3821912526668L443.63277013618097,339.8020660641466L440.22507058862953,346.61746515925006L434.5455713427096,348.605289895322L420.914773152503,348.0373399707298L413.53142413280733,346.90144012154605L408.41987481147976,349.4572147822098L401.60447571637644,348.3213149330258L374.34287933596283,349.1732398199139L373.77492941137047,357.97646365108903L376.0467291097385,369.9034120675202L365.25568054249146,365.9277625953764L357.87233152279583,366.4957125199685L352.19283227687635,370.47136199211207L345.37743318177303,367.06366244456046L342.5376835588131,361.95211312323283Z" style="stroke: rgb(68, 68, 68); stroke-opacity: 1; stroke-width: 1px; opacity: 1;"/><path class="choroplethlocation" fill="rgb(49, 104, 142)" d="M239.1707972830776,325.6033179493476L239.73874720766952,320.7757435903162L238.6028473584857,314.81226938210057L232.35539818797386,310.2686699853649L229.51564856501435,301.1814711918937L228.37974871583052,291.52632247383053L234.05924796175003,288.40259788857475L236.33104766011763,279.31539909510343L241.44259698144523,278.7474491705115L252.80159547328418,283.29104856724723L261.3208443421637,280.1673239819913L267.56829351267504,281.30322383117533L269.84009321104315,277.6115493213275L301.6439028205431,277.32538938139726L333.45048476534174,277.32757435903153L336.85818431289357,266.25255082948854L334.01843468993405,264.54870105571257L326.6350856702384,196.3947101046781L318.6837867259509,128.24071915364357L343.105633483405,127.95674419134758L369.7377332184294,144.99433456656993L395.92497647045695,162.31771462916095L422.8223097888538,179.5047287386825L449.31226938210045,196.96266002927L453.2879188542442,204.34600904896536L462.9430675723074,208.60563348340514L470.3264165920031,211.4453831063649L470.3264165920031,221.3845067867241L487.9328642543535,219.68065701294836L487.9328642543535,256.02945218683334L479.41361538547403,266.53652579178447L478.2777155362902,276.4756494721437L464.07896742149126,279.0314241328075L442.49687028699714,280.1673239819913L436.81737104107765,285.846823227911L426.5942723984225,286.4147731525029L416.3711737557673,286.4147731525029L412.39552428362356,283.57502352954316L403.8762754147441,285.846823227911L389.10957737535324,292.3782473607183L386.2698277523937,297.20582171974996L373.77492941137047,304.30519577714944L371.50312971300286,308.28084524929324L365.25568054249146,311.6885447968449L357.3043815982039,309.416745098477L353.3287321260601,313.3923945706208L351.0569324276925,324.18344313786787L337.9940841620774,337.24629140348276L338.5620340866693,342.6418156871063L334.58638461452597,349.1732398199139L335.1543345391179,358.260438613385L328.9068853686065,360.81621327404883L324.9312358964627,362.80403801012073L322.6594361980947,355.9886389150174L318.11583680135897,357.6924886887931L315.27608717839945,357.4085137264972L312.4363375554395,361.95211312323283L300.5093891390086,361.95211312323283L295.96578974227293,359.396338462569L293.69399004390533,361.100188236345L289.1503906471696,356.5565888396093L289.71834057176153,351.7290144805777L288.0144907979854,349.7411897445058L284.60679125043396,351.4450395182817L285.1747411750259,346.33349019695413L288.58244072257776,342.35784072481033L281.767041627474,335.54244162970684L280.0631918536983,331.28281719526734L276.65549230614636,327.87511764771546L273.2477927585945,327.3071677231236L269.84009321104315,329.57896742149137L264.7285438897155,331.85076711985926L260.18494449297987,335.25846666741086L253.36954539787655,333.8385918559311L249.39389592573278,329.86294238378736L246.5541463027728,329.29499245919544L242.57849683062904,331.5667921575633L239.73874720766952,331.5667921575633Z" style="stroke: rgb(68, 68, 68); stroke-opacity: 1; stroke-width: 1px; opacity: 1;"/><path class="choroplethlocation" fill="rgb(49, 104, 142)" d="M654.910142084388,161.1818147799769L658.8857915565318,185.88763649972697L664.5652908024513,189.8632859718707L665.1332407270431,194.97483529319834L671.3806898975545,200.37035957682184L667.9729903500031,207.18575867192538L661.7255411794913,239.27492941137064L661.1575912548994,259.7211266966809L641.279343894181,274.48782473607184L634.4639447990777,295.21799698367806L640.7113939695892,301.1814711918937L640.7113939695892,311.4045698345489L650.9344926122442,311.6885447968449L649.2306428384685,319.0718938165403L644.6870434417328,319.92381870342814L644.119093517141,325.0353680247557L641.279343894181,325.31934298705164L630.4882953269339,307.99687028699725L627.0805957793825,307.42892036240517L614.5856974383593,316.23214419358055L602.6587490219283,311.6885447968449L594.1395001530489,310.836619909957L589.5959007563132,313.1084196083249L579.9407520382499,312.54046968373274L570.8535532447786,319.3558687788362L562.9022543004914,319.63984374113215L543.591956864365,311.4045698345489L536.2086078446698,315.3802193066924L528.2573089003822,315.0962443443965L522.5778096544627,309.1327701361811L506.6752117658881,303.16929592796566L489.6367140281292,305.1571206640373L485.66106455598583,308.56482021158916L483.38926485761783,317.6520190050603L478.8456654608821,323.8994681755719L477.7097656116983,338.0982162903706L465.7828171952674,329.0110174968995L460.1033179493479,329.0110174968995L454.423818703428,333.55461689363517L454.99176862801994,322.76356832638794L436.81737104107765,319.3558687788362L436.24942111648573,311.6885447968449L427.16222232301436,301.1814711918937L425.4583725492387,294.0820971344943L426.5942723984225,286.4147731525029L436.81737104107765,285.846823227911L442.49687028699714,280.1673239819913L464.07896742149126,279.0314241328075L478.2777155362902,276.4756494721437L479.41361538547403,266.53652579178447L487.9328642543535,256.02945218683334L487.9328642543535,219.68065701294836L510.0829113134395,212.86525791784481L532.9369780149152,197.29229924204333L556.0868552053882,181.9119870275834L582.878221834133,166.7188752462049L610.0420980416236,151.81064102420981L635.0318947236696,158.62604011931307L643.551143592549,167.14528898819253Z" style="stroke: rgb(68, 68, 68); stroke-opacity: 1; stroke-width: 1px; opacity: 1;"/><path class="choroplethlocation" fill="rgb(31, 158, 137)" d="M462.9430675723074,423.2907049791638L449.8802193066923,424.9945547529398L445.904569834549,414.20350618569273L447.0404696837328,377.85471101180747L443.63277013618097,374.7309864265518L443.06482021158905,367.06366244456046L437.38532096566956,361.3841631986409L432.84172156893385,356.84056380190526L434.5455713427096,348.605289895322L440.22507058862953,346.61746515925006L443.63277013618097,339.8020660641466L451.0161191558766,338.3821912526668L454.423818703428,333.55461689363517L460.1033179493479,329.0110174968995L465.7828171952674,329.0110174968995L477.7097656116983,338.0982162903706L477.1418156871064,343.20976561169823L480.54951523465826,352.58093936746553L477.1418156871064,359.1123635002731L478.8456654608821,363.08801297241666L471.4623164411869,373.0271366527759L466.3507671198593,377.85471101180747L463.51101749689934,387.7938346921667L464.07896742149126,397.7329583725259Z" style="stroke: rgb(68, 68, 68); stroke-opacity: 1; stroke-width: 1px; opacity: 1;"/><path class="choroplethlocation" fill="rgb(72, 40, 120)" d="M151.70650889591636,190.71521085875855L155.1142084434682,185.31968657513505L185.78538666853373,185.28528386882357L216.4528002993992,185.60366153743104L213.6130506764397,162.88566455375286L217.58870014858303,154.65039064716956L232.35539818797386,153.23051583568957L231.78744826338198,112.90607118966079L257.63508637896643,113.18681966224636L283.4708914012501,113.75799607654886L283.4708914012501,89.90409924368669L313.5970534328837,108.73562172073741L343.105633483405,127.95674419134758L318.6837867259509,128.24071915364357L326.6350856702384,196.3947101046781L334.01843468993405,264.54870105571257L336.85818431289357,266.25255082948854L333.45048476534174,277.32757435903153L301.6439028205431,277.32538938139726L269.84009321104315,277.6115493213275L267.56829351267504,281.30322383117533L261.3208443421637,280.1673239819913L252.80159547328418,283.29104856724723L241.44259698144523,278.7474491705115L236.33104766011763,279.31539909510343L234.05924796175003,288.40259788857475L228.37974871583052,291.52632247383053L218.15665007317537,280.4512989442875L208.5015013551121,269.0923004524483L198.27840271245694,264.83267601800856L190.8950536927613,260.0051016589769L181.80785489928996,260.28907662127307L174.4245058795947,263.6967761688247L166.47320693530716,262.27690135734474L160.7937076893877,267.3884506786723L159.6578078402039,258.8692018097931L164.2014072369396,251.20187782780175L165.90525701071527,236.43517978841084L164.2014072369396,220.8165568621322L162.49755746316387,212.86525791784481L163.6334573123477,204.91395897355756L159.6578078402039,197.5306099538621Z" style="stroke: rgb(68, 68, 68); stroke-opacity: 1; stroke-width: 1px; opacity: 1;"/><path class="choroplethlocation" fill="rgb(68, 1, 84)" d="M434.5455713427096,348.605289895322L432.84172156893385,356.84056380190526L437.38532096566956,361.3841631986409L443.06482021158905,367.06366244456046L443.63277013618097,374.7309864265518L447.0404696837328,377.85471101180747L445.904569834549,414.20350618569273L449.8802193066923,424.9945547529398L437.38532096566956,428.40225430049145L433.9776214181177,423.0067300168679L429.434022021382,412.78363137421275L428.2981221721982,405.11630739222136L431.7058217197501,390.9175592774224L427.7301722476063,384.95408506920694L426.5942723984225,372.74316169047995L426.5942723984225,361.100188236345L419.7788733033192,353.14888929205745L420.914773152503,348.0373399707298Z" style="stroke: rgb(68, 68, 68); stroke-opacity: 1; stroke-width: 1px; opacity: 1;"/><path class="choroplethlocation" fill="rgb(49, 104, 142)" d="M211.90920090266354,381.54638552165534L219.8604998469511,374.7309864265518L222.13229954531872,370.18738702981614L224.40409924368674,366.7796874822645L228.94769864042243,366.4957125199685L232.35539818797386,363.3719879347126L245.418246453589,363.3719879347126L249.39389592573278,369.0514871806323L252.80159547328418,375.8668862757356L252.80159547328418,380.4104856724713L255.07339517165227,384.3861351446151L255.07339517165227,390.3496093528305L259.04904464379604,389.4976844659426L251.6656956241004,396.5970585233421L244.8502965289971,405.4002823545173L243.7143966798133,409.943881751253L240.3066971322614,415.0554310725806L235.76309773552575,413.6355562611006L224.40409924368674,407.3881070905892L216.4528002993992,398.86885822170996L213.6130506764397,393.18935897579024Z" style="stroke: rgb(68, 68, 68); stroke-opacity: 1; stroke-width: 1px; opacity: 1;"/><path class="choroplethlocation" fill="rgb(49, 104, 142)" d="M287.4465408733935,400.85668295778163L286.87859094880156,405.4002823545173L288.58244072257776,413.0676063365087L285.1747411750259,419.8830054316122L289.71834057176153,424.14262986605195L294.26193996849724,425.2785297152357L301.0773390636005,431.8099538480433L301.6452889881924,438.0574030185547L299.9414392144167,440.0452277546266L298.8055393652329,453.10807602024147L294.8298898930891,453.39205098253746L278.3593420799221,445.72472700054607L264.1605939651236,433.79777858411495L250.52979577491658,424.9945547529398L240.3066971322614,415.0554310725806L243.7143966798133,409.943881751253L244.8502965289971,405.4002823545173L251.6656956241004,396.5970585233421L259.04904464379604,389.4976844659426L262.4567441913474,388.92973454135074L267.0003435880831,387.2258847675748L273.2477927585945,396.88103348563806L272.1118929094107,403.12848265614946L275.51959245696264,406.53618220370134L280.0631918536983,406.53618220370134L282.9029414766578,400.2887330331897Z" style="stroke: rgb(68, 68, 68); stroke-opacity: 1; stroke-width: 1px; opacity: 1;"/><path class="choroplethlocation" fill="rgb(72, 40, 120)" d="M157.38600814183627,326.7392177985317L165.90525701071527,323.8994681755719L171.01680633204288,324.46741810016385L175.56040572877853,322.76356832638794L204.52585188296834,323.33151825098L203.95790195837645,328.7270425346036L202.25405218460025,330.43089230837927L203.95790195837645,335.54244162970684L201.11815233541645,337.8142413280747L197.71045278786505,337.8142413280747L193.73480331572125,340.3700159887385L189.1912039189856,340.08604102644256L181.80785489928996,347.7533650084339L173.28860603041096,341.22194087562656L167.04115685989908,340.08604102644256L163.0655073877558,335.82641659200306L163.6334573123477,333.27064193133924L158.52190799102007,329.86294238378736Z" style="stroke: rgb(68, 68, 68); stroke-opacity: 1; stroke-width: 1px; opacity: 1;"/><path class="choroplethlocation" fill="rgb(31, 158, 137)" d="M156.8180582172439,307.42892036240517L174.4245058795947,307.1449454001092L177.83220542714662,303.4532708902616L182.94375474847422,303.16929592796566L189.1912039189856,306.86097043781325L193.73480331572125,307.1449454001092L198.84635263704885,304.30519577714944L202.25405218460025,308.84879517388515L195.43865308949697,312.54046968373274L188.62325399439368,312.25649472143675L181.80785489928996,308.84879517388515L176.12835565337045,312.54046968373274L173.28860603041096,312.54046968373274L169.31295655826716,314.81226938210057L155.1142084434682,314.52829441980464Z" style="stroke: rgb(68, 68, 68); stroke-opacity: 1; stroke-width: 1px; opacity: 1;"/><path class="choroplethlocation" fill="rgb(53, 183, 121)" style="stroke: rgb(68, 68, 68); stroke-opacity: 1; stroke-width: 1px; opacity: 1;"/></g></g></g><g class="layer frontplot"><g class="scatterlayer"/></g></g></g><g class="funnelarealayer"/><g class="pielayer"/><g class="iciclelayer"/><g class="treemaplayer"/><g class="sunburstlayer"/><g class="glimages"/><defs id="topdefs-96a594"><g class="clips"/></defs><g class="layer-above"><g class="imagelayer"/><g class="shapelayer"/></g><g class="infolayer"><g class="cbcoloraxis colorbar" transform="translate(0,25)"><rect class="cbbg" x="830" y="124" width="69.640625" height="248" style="fill: rgb(0, 0, 0); fill-opacity: 0; stroke: rgb(68, 68, 68); stroke-opacity: 1; stroke-width: 0;"/><g class="cbfills" transform="translate(0,155)"><rect class="cbfill gradient_filled" x="840" y="0" width="30" height="206" style="fill: url('#g96a594-cbcoloraxis');"/></g><g class="cblines" transform="translate(0,155)"/><g class="cbaxis crisp" transform="translate(0,-25)"><g class="ycbcoloraxistick"><text text-anchor="start" x="872.9" y="4.199999999999999" transform="translate(0,386.49999999999994)" style="font-family: 'Open Sans', verdana, arial, sans-serif; font-size: 12px; fill: rgb(42, 63, 95); fill-opacity: 1; white-space: pre; opacity: 1;">0</text></g><g class="ycbcoloraxistick"><text text-anchor="start" x="872.9" y="4.199999999999999" style="font-family: 'Open Sans', verdana, arial, sans-serif; font-size: 12px; fill: rgb(42, 63, 95); fill-opacity: 1; white-space: pre; opacity: 1;" transform="translate(0,345.29999999999995)">0.2</text></g><g class="ycbcoloraxistick"><text text-anchor="start" x="872.9" y="4.199999999999999" style="font-family: 'Open Sans', verdana, arial, sans-serif; font-size: 12px; fill: rgb(42, 63, 95); fill-opacity: 1; white-space: pre; opacity: 1;" transform="translate(0,304.0999999999999)">0.4</text></g><g class="ycbcoloraxistick"><text text-anchor="start" x="872.9" y="4.199999999999999" style="font-family: 'Open Sans', verdana, arial, sans-serif; font-size: 12px; fill: rgb(42, 63, 95); fill-opacity: 1; white-space: pre; opacity: 1;" transform="translate(0,262.9)">0.6</text></g><g class="ycbcoloraxistick"><text text-anchor="start" x="872.9" y="4.199999999999999" style="font-family: 'Open Sans', verdana, arial, sans-serif; font-size: 12px; fill: rgb(42, 63, 95); fill-opacity: 1; white-space: pre; opacity: 1;" transform="translate(0,221.69999999999993)">0.8</text></g><g class="ycbcoloraxistick"><text text-anchor="start" x="872.9" y="4.199999999999999" style="font-family: 'Open Sans', verdana, arial, sans-serif; font-size: 12px; fill: rgb(42, 63, 95); fill-opacity: 1; white-space: pre; opacity: 1;" transform="translate(0,180.49999999999994)">1</text></g></g><g class="cbtitleunshift" transform="translate(0,-25)"><g class="cbtitle" transform=""><text class="ycbcoloraxistitle" x="840.28" y="172.00000000000003" text-anchor="start" style="font-family: 'Open Sans', verdana, arial, sans-serif; font-size: 14px; fill: rgb(42, 63, 95); opacity: 1; font-weight: normal; white-space: pre;">R</text></g></g><rect class="cboutline" x="840" y="156" width="30" height="206" style="stroke: rgb(68, 68, 68); stroke-opacity: 1; fill: none; stroke-width: 0;"/></g><g class="g-gtitle"><text class="gtitle" x="45" y="12.5" text-anchor="start" dy="0em" style="font-family: 'Open Sans', verdana, arial, sans-serif; font-size: 17px; fill: rgb(42, 63, 95); opacity: 1; font-weight: normal; white-space: pre;">Western Africa — Enclosure Strength (R)</text></g></g></svg>